M48
; DRILL file {KiCad (6.0.9-0)} date 
; FORMAT={-:-/ absolute / metric / decimal}
; #@! TF.CreationDate,2024-08-31T06:56:23+09:00
; #@! TF.GenerationSoftware,Kicad,Pcbnew,(6.0.9-0)
; #@! TF.FileFunction,Plated,1,2,PTH
FMAT,2
METRIC
; #@! TA.AperFunction,Plated,PTH,ViaDrill
T1C0.400
; #@! TA.AperFunction,Plated,PTH,ComponentDrill
T2C0.800
; #@! TA.AperFunction,Plated,PTH,ComponentDrill
T3C0.900
; #@! TA.AperFunction,Plated,PTH,ComponentDrill
T4C1.000
%
G90
G05
T1
X56.0Y-67.0
X56.0Y-92.5
X56.5Y-82.5
X56.5Y-95.5
X57.5Y-103.0
X58.5Y-92.5
X59.5Y-106.5
X60.0Y-83.5
X60.0Y-103.0
X61.0Y-79.0
X70.0Y-109.0
X70.0Y-112.0
X71.0Y-76.0
X73.0Y-71.5
X78.5Y-71.0
X80.0Y-68.0
X81.0Y-112.0
X84.0Y-73.5
X89.5Y-70.0
X92.5Y-75.5
X92.5Y-111.5
X94.5Y-70.5
X99.5Y-104.5
X100.5Y-68.0
X100.5Y-89.0
X102.0Y-97.5
X104.5Y-78.5
X106.0Y-69.0
X106.5Y-97.5
X107.5Y-92.5
X110.0Y-68.0
X111.0Y-76.0
X111.0Y-85.5
X114.0Y-74.5
T2
X52.0Y-96.19
X52.0Y-103.81
X53.5Y-79.5
X53.5Y-87.12
T3
X109.74Y-100.608
X109.74Y-103.91
X111.264Y-99.084
X111.264Y-102.132
T4
X58.4Y-62.25
X58.4Y-64.79
X60.94Y-62.25
X60.94Y-64.79
X61.375Y-70.735
X61.375Y-73.275
X63.48Y-62.25
X63.48Y-64.79
X66.02Y-62.25
X66.02Y-64.79
X68.56Y-62.25
X68.56Y-64.79
X71.1Y-62.25
X71.1Y-64.79
X73.64Y-62.25
X73.64Y-64.79
X76.18Y-62.25
X76.18Y-64.79
X78.72Y-62.25
X78.72Y-64.79
X81.26Y-62.25
X81.26Y-64.79
X83.8Y-62.25
X83.8Y-64.79
X86.34Y-62.25
X86.34Y-64.79
X88.88Y-62.25
X88.88Y-64.79
X91.42Y-62.25
X91.42Y-64.79
X93.96Y-62.25
X93.96Y-64.79
X96.5Y-62.25
X96.5Y-64.79
X99.04Y-62.25
X99.04Y-64.79
X101.58Y-62.25
X101.58Y-64.79
X104.12Y-62.25
X104.12Y-64.79
X106.66Y-62.25
X106.66Y-64.79
T0
M30
