%TF.GenerationSoftware,KiCad,Pcbnew,(6.0.9-0)*%
%TF.CreationDate,2024-08-31T06:56:25+09:00*%
%TF.ProjectId,LEDHat,4c454448-6174-42e6-9b69-6361645f7063,rev?*%
%TF.SameCoordinates,Original*%
%TF.FileFunction,Drillmap*%
%TF.FilePolarity,Positive*%
%FSLAX45Y45*%
G04 Gerber Fmt 4.5, Leading zero omitted, Abs format (unit mm)*
G04 Created by KiCad (PCBNEW (6.0.9-0)) date 2024-08-31 06:56:25*
%MOMM*%
%LPD*%
G01*
G04 APERTURE LIST*
%ADD10C,0.100000*%
%ADD11C,0.200000*%
%ADD12C,0.270000*%
%ADD13C,0.320000*%
G04 APERTURE END LIST*
D10*
X5000000Y-11250000D02*
X5000000Y-6350000D01*
X11150000Y-11600000D02*
X5350000Y-11600000D01*
X11500000Y-6350000D02*
X11500000Y-11250000D01*
X5350000Y-6000000D02*
X11150000Y-6000000D01*
X5350000Y-6000000D02*
G75*
G03*
X5000000Y-6350000I0J-350000D01*
G01*
X5000000Y-11250000D02*
G75*
G03*
X5350000Y-11600000I350000J0D01*
G01*
X11150000Y-11600000D02*
G75*
G03*
X11500000Y-11250000I0J350000D01*
G01*
X11500000Y-6350000D02*
G75*
G03*
X11150000Y-6000000I-350000J0D01*
G01*
X9350000Y-9400000D02*
G75*
G03*
X9350000Y-9400000I-1200000J0D01*
G01*
D11*
D12*
X6415000Y-7665000D02*
X6685000Y-7935000D01*
X6685000Y-7665000D02*
X6415000Y-7935000D01*
X6415000Y-10865000D02*
X6685000Y-11135000D01*
X6685000Y-10865000D02*
X6415000Y-11135000D01*
X9615000Y-7665000D02*
X9885000Y-7935000D01*
X9885000Y-7665000D02*
X9615000Y-7935000D01*
X9615000Y-10865000D02*
X9885000Y-11135000D01*
X9885000Y-10865000D02*
X9615000Y-11135000D01*
D13*
X5510000Y-6350000D02*
G75*
G03*
X5510000Y-6350000I-160000J0D01*
G01*
X5510000Y-11250000D02*
G75*
G03*
X5510000Y-11250000I-160000J0D01*
G01*
X11310000Y-6350000D02*
G75*
G03*
X11310000Y-6350000I-160000J0D01*
G01*
X11310000Y-11250000D02*
G75*
G03*
X11310000Y-11250000I-160000J0D01*
G01*
D11*
X5252619Y-11915476D02*
X5252619Y-11715476D01*
X5300238Y-11715476D01*
X5328810Y-11725000D01*
X5347857Y-11744048D01*
X5357381Y-11763095D01*
X5366905Y-11801190D01*
X5366905Y-11829762D01*
X5357381Y-11867857D01*
X5347857Y-11886905D01*
X5328810Y-11905952D01*
X5300238Y-11915476D01*
X5252619Y-11915476D01*
X5452619Y-11915476D02*
X5452619Y-11782143D01*
X5452619Y-11820238D02*
X5462143Y-11801190D01*
X5471667Y-11791667D01*
X5490714Y-11782143D01*
X5509762Y-11782143D01*
X5576429Y-11915476D02*
X5576429Y-11782143D01*
X5576429Y-11715476D02*
X5566905Y-11725000D01*
X5576429Y-11734524D01*
X5585952Y-11725000D01*
X5576429Y-11715476D01*
X5576429Y-11734524D01*
X5700238Y-11915476D02*
X5681190Y-11905952D01*
X5671667Y-11886905D01*
X5671667Y-11715476D01*
X5805000Y-11915476D02*
X5785952Y-11905952D01*
X5776428Y-11886905D01*
X5776428Y-11715476D01*
X6033571Y-11915476D02*
X6033571Y-11715476D01*
X6100238Y-11858333D01*
X6166905Y-11715476D01*
X6166905Y-11915476D01*
X6347857Y-11915476D02*
X6347857Y-11810714D01*
X6338333Y-11791667D01*
X6319286Y-11782143D01*
X6281190Y-11782143D01*
X6262143Y-11791667D01*
X6347857Y-11905952D02*
X6328809Y-11915476D01*
X6281190Y-11915476D01*
X6262143Y-11905952D01*
X6252619Y-11886905D01*
X6252619Y-11867857D01*
X6262143Y-11848809D01*
X6281190Y-11839286D01*
X6328809Y-11839286D01*
X6347857Y-11829762D01*
X6443095Y-11782143D02*
X6443095Y-11982143D01*
X6443095Y-11791667D02*
X6462143Y-11782143D01*
X6500238Y-11782143D01*
X6519286Y-11791667D01*
X6528809Y-11801190D01*
X6538333Y-11820238D01*
X6538333Y-11877381D01*
X6528809Y-11896428D01*
X6519286Y-11905952D01*
X6500238Y-11915476D01*
X6462143Y-11915476D01*
X6443095Y-11905952D01*
X6624048Y-11896428D02*
X6633571Y-11905952D01*
X6624048Y-11915476D01*
X6614524Y-11905952D01*
X6624048Y-11896428D01*
X6624048Y-11915476D01*
X6624048Y-11791667D02*
X6633571Y-11801190D01*
X6624048Y-11810714D01*
X6614524Y-11801190D01*
X6624048Y-11791667D01*
X6624048Y-11810714D01*
X4795000Y-12145000D02*
X4995000Y-12345000D01*
X4995000Y-12145000D02*
X4795000Y-12345000D01*
X5243095Y-12154524D02*
X5252619Y-12145000D01*
X5271667Y-12135476D01*
X5319286Y-12135476D01*
X5338333Y-12145000D01*
X5347857Y-12154524D01*
X5357381Y-12173571D01*
X5357381Y-12192619D01*
X5347857Y-12221190D01*
X5233571Y-12335476D01*
X5357381Y-12335476D01*
X5443095Y-12316428D02*
X5452619Y-12325952D01*
X5443095Y-12335476D01*
X5433571Y-12325952D01*
X5443095Y-12316428D01*
X5443095Y-12335476D01*
X5519286Y-12135476D02*
X5652619Y-12135476D01*
X5566905Y-12335476D01*
X5766905Y-12135476D02*
X5785952Y-12135476D01*
X5805000Y-12145000D01*
X5814524Y-12154524D01*
X5824048Y-12173571D01*
X5833571Y-12211667D01*
X5833571Y-12259286D01*
X5824048Y-12297381D01*
X5814524Y-12316428D01*
X5805000Y-12325952D01*
X5785952Y-12335476D01*
X5766905Y-12335476D01*
X5747857Y-12325952D01*
X5738333Y-12316428D01*
X5728809Y-12297381D01*
X5719286Y-12259286D01*
X5719286Y-12211667D01*
X5728809Y-12173571D01*
X5738333Y-12154524D01*
X5747857Y-12145000D01*
X5766905Y-12135476D01*
X5957381Y-12135476D02*
X5976428Y-12135476D01*
X5995476Y-12145000D01*
X6005000Y-12154524D01*
X6014524Y-12173571D01*
X6024048Y-12211667D01*
X6024048Y-12259286D01*
X6014524Y-12297381D01*
X6005000Y-12316428D01*
X5995476Y-12325952D01*
X5976428Y-12335476D01*
X5957381Y-12335476D01*
X5938333Y-12325952D01*
X5928809Y-12316428D01*
X5919286Y-12297381D01*
X5909762Y-12259286D01*
X5909762Y-12211667D01*
X5919286Y-12173571D01*
X5928809Y-12154524D01*
X5938333Y-12145000D01*
X5957381Y-12135476D01*
X6109762Y-12335476D02*
X6109762Y-12202143D01*
X6109762Y-12221190D02*
X6119286Y-12211667D01*
X6138333Y-12202143D01*
X6166905Y-12202143D01*
X6185952Y-12211667D01*
X6195476Y-12230714D01*
X6195476Y-12335476D01*
X6195476Y-12230714D02*
X6205000Y-12211667D01*
X6224048Y-12202143D01*
X6252619Y-12202143D01*
X6271667Y-12211667D01*
X6281190Y-12230714D01*
X6281190Y-12335476D01*
X6376428Y-12335476D02*
X6376428Y-12202143D01*
X6376428Y-12221190D02*
X6385952Y-12211667D01*
X6405000Y-12202143D01*
X6433571Y-12202143D01*
X6452619Y-12211667D01*
X6462143Y-12230714D01*
X6462143Y-12335476D01*
X6462143Y-12230714D02*
X6471667Y-12211667D01*
X6490714Y-12202143D01*
X6519286Y-12202143D01*
X6538333Y-12211667D01*
X6547857Y-12230714D01*
X6547857Y-12335476D01*
X6938333Y-12125952D02*
X6766905Y-12383095D01*
X7195476Y-12135476D02*
X7214524Y-12135476D01*
X7233571Y-12145000D01*
X7243095Y-12154524D01*
X7252619Y-12173571D01*
X7262143Y-12211667D01*
X7262143Y-12259286D01*
X7252619Y-12297381D01*
X7243095Y-12316428D01*
X7233571Y-12325952D01*
X7214524Y-12335476D01*
X7195476Y-12335476D01*
X7176428Y-12325952D01*
X7166905Y-12316428D01*
X7157381Y-12297381D01*
X7147857Y-12259286D01*
X7147857Y-12211667D01*
X7157381Y-12173571D01*
X7166905Y-12154524D01*
X7176428Y-12145000D01*
X7195476Y-12135476D01*
X7347857Y-12316428D02*
X7357381Y-12325952D01*
X7347857Y-12335476D01*
X7338333Y-12325952D01*
X7347857Y-12316428D01*
X7347857Y-12335476D01*
X7547857Y-12335476D02*
X7433571Y-12335476D01*
X7490714Y-12335476D02*
X7490714Y-12135476D01*
X7471667Y-12164048D01*
X7452619Y-12183095D01*
X7433571Y-12192619D01*
X7671667Y-12135476D02*
X7690714Y-12135476D01*
X7709762Y-12145000D01*
X7719286Y-12154524D01*
X7728809Y-12173571D01*
X7738333Y-12211667D01*
X7738333Y-12259286D01*
X7728809Y-12297381D01*
X7719286Y-12316428D01*
X7709762Y-12325952D01*
X7690714Y-12335476D01*
X7671667Y-12335476D01*
X7652619Y-12325952D01*
X7643095Y-12316428D01*
X7633571Y-12297381D01*
X7624048Y-12259286D01*
X7624048Y-12211667D01*
X7633571Y-12173571D01*
X7643095Y-12154524D01*
X7652619Y-12145000D01*
X7671667Y-12135476D01*
X7909762Y-12135476D02*
X7871667Y-12135476D01*
X7852619Y-12145000D01*
X7843095Y-12154524D01*
X7824048Y-12183095D01*
X7814524Y-12221190D01*
X7814524Y-12297381D01*
X7824048Y-12316428D01*
X7833571Y-12325952D01*
X7852619Y-12335476D01*
X7890714Y-12335476D01*
X7909762Y-12325952D01*
X7919286Y-12316428D01*
X7928809Y-12297381D01*
X7928809Y-12249762D01*
X7919286Y-12230714D01*
X7909762Y-12221190D01*
X7890714Y-12211667D01*
X7852619Y-12211667D01*
X7833571Y-12221190D01*
X7824048Y-12230714D01*
X7814524Y-12249762D01*
X7995476Y-12135476D02*
X8119286Y-12135476D01*
X8052619Y-12211667D01*
X8081190Y-12211667D01*
X8100238Y-12221190D01*
X8109762Y-12230714D01*
X8119286Y-12249762D01*
X8119286Y-12297381D01*
X8109762Y-12316428D01*
X8100238Y-12325952D01*
X8081190Y-12335476D01*
X8024048Y-12335476D01*
X8005000Y-12325952D01*
X7995476Y-12316428D01*
X8195476Y-12135476D02*
X8195476Y-12173571D01*
X8271667Y-12135476D02*
X8271667Y-12173571D01*
X8566905Y-12411667D02*
X8557381Y-12402143D01*
X8538333Y-12373571D01*
X8528810Y-12354524D01*
X8519286Y-12325952D01*
X8509762Y-12278333D01*
X8509762Y-12240238D01*
X8519286Y-12192619D01*
X8528810Y-12164048D01*
X8538333Y-12145000D01*
X8557381Y-12116428D01*
X8566905Y-12106905D01*
X8728810Y-12202143D02*
X8728810Y-12335476D01*
X8681190Y-12125952D02*
X8633571Y-12268809D01*
X8757381Y-12268809D01*
X8985952Y-12335476D02*
X8985952Y-12135476D01*
X9071667Y-12335476D02*
X9071667Y-12230714D01*
X9062143Y-12211667D01*
X9043095Y-12202143D01*
X9014524Y-12202143D01*
X8995476Y-12211667D01*
X8985952Y-12221190D01*
X9195476Y-12335476D02*
X9176429Y-12325952D01*
X9166905Y-12316428D01*
X9157381Y-12297381D01*
X9157381Y-12240238D01*
X9166905Y-12221190D01*
X9176429Y-12211667D01*
X9195476Y-12202143D01*
X9224048Y-12202143D01*
X9243095Y-12211667D01*
X9252619Y-12221190D01*
X9262143Y-12240238D01*
X9262143Y-12297381D01*
X9252619Y-12316428D01*
X9243095Y-12325952D01*
X9224048Y-12335476D01*
X9195476Y-12335476D01*
X9376429Y-12335476D02*
X9357381Y-12325952D01*
X9347857Y-12306905D01*
X9347857Y-12135476D01*
X9528810Y-12325952D02*
X9509762Y-12335476D01*
X9471667Y-12335476D01*
X9452619Y-12325952D01*
X9443095Y-12306905D01*
X9443095Y-12230714D01*
X9452619Y-12211667D01*
X9471667Y-12202143D01*
X9509762Y-12202143D01*
X9528810Y-12211667D01*
X9538333Y-12230714D01*
X9538333Y-12249762D01*
X9443095Y-12268809D01*
X9614524Y-12325952D02*
X9633571Y-12335476D01*
X9671667Y-12335476D01*
X9690714Y-12325952D01*
X9700238Y-12306905D01*
X9700238Y-12297381D01*
X9690714Y-12278333D01*
X9671667Y-12268809D01*
X9643095Y-12268809D01*
X9624048Y-12259286D01*
X9614524Y-12240238D01*
X9614524Y-12230714D01*
X9624048Y-12211667D01*
X9643095Y-12202143D01*
X9671667Y-12202143D01*
X9690714Y-12211667D01*
X9766905Y-12411667D02*
X9776429Y-12402143D01*
X9795476Y-12373571D01*
X9805000Y-12354524D01*
X9814524Y-12325952D01*
X9824048Y-12278333D01*
X9824048Y-12240238D01*
X9814524Y-12192619D01*
X9805000Y-12164048D01*
X9795476Y-12145000D01*
X9776429Y-12116428D01*
X9766905Y-12106905D01*
X10128810Y-12411667D02*
X10119286Y-12402143D01*
X10100238Y-12373571D01*
X10090714Y-12354524D01*
X10081190Y-12325952D01*
X10071667Y-12278333D01*
X10071667Y-12240238D01*
X10081190Y-12192619D01*
X10090714Y-12164048D01*
X10100238Y-12145000D01*
X10119286Y-12116428D01*
X10128810Y-12106905D01*
X10205000Y-12202143D02*
X10205000Y-12335476D01*
X10205000Y-12221190D02*
X10214524Y-12211667D01*
X10233571Y-12202143D01*
X10262143Y-12202143D01*
X10281190Y-12211667D01*
X10290714Y-12230714D01*
X10290714Y-12335476D01*
X10414524Y-12335476D02*
X10395476Y-12325952D01*
X10385952Y-12316428D01*
X10376429Y-12297381D01*
X10376429Y-12240238D01*
X10385952Y-12221190D01*
X10395476Y-12211667D01*
X10414524Y-12202143D01*
X10443095Y-12202143D01*
X10462143Y-12211667D01*
X10471667Y-12221190D01*
X10481190Y-12240238D01*
X10481190Y-12297381D01*
X10471667Y-12316428D01*
X10462143Y-12325952D01*
X10443095Y-12335476D01*
X10414524Y-12335476D01*
X10538333Y-12202143D02*
X10614524Y-12202143D01*
X10566905Y-12135476D02*
X10566905Y-12306905D01*
X10576429Y-12325952D01*
X10595476Y-12335476D01*
X10614524Y-12335476D01*
X10833571Y-12202143D02*
X10833571Y-12402143D01*
X10833571Y-12211667D02*
X10852619Y-12202143D01*
X10890714Y-12202143D01*
X10909762Y-12211667D01*
X10919286Y-12221190D01*
X10928810Y-12240238D01*
X10928810Y-12297381D01*
X10919286Y-12316428D01*
X10909762Y-12325952D01*
X10890714Y-12335476D01*
X10852619Y-12335476D01*
X10833571Y-12325952D01*
X11043095Y-12335476D02*
X11024048Y-12325952D01*
X11014524Y-12306905D01*
X11014524Y-12135476D01*
X11205000Y-12335476D02*
X11205000Y-12230714D01*
X11195476Y-12211667D01*
X11176429Y-12202143D01*
X11138333Y-12202143D01*
X11119286Y-12211667D01*
X11205000Y-12325952D02*
X11185952Y-12335476D01*
X11138333Y-12335476D01*
X11119286Y-12325952D01*
X11109762Y-12306905D01*
X11109762Y-12287857D01*
X11119286Y-12268809D01*
X11138333Y-12259286D01*
X11185952Y-12259286D01*
X11205000Y-12249762D01*
X11271667Y-12202143D02*
X11347857Y-12202143D01*
X11300238Y-12135476D02*
X11300238Y-12306905D01*
X11309762Y-12325952D01*
X11328809Y-12335476D01*
X11347857Y-12335476D01*
X11490714Y-12325952D02*
X11471667Y-12335476D01*
X11433571Y-12335476D01*
X11414524Y-12325952D01*
X11405000Y-12306905D01*
X11405000Y-12230714D01*
X11414524Y-12211667D01*
X11433571Y-12202143D01*
X11471667Y-12202143D01*
X11490714Y-12211667D01*
X11500238Y-12230714D01*
X11500238Y-12249762D01*
X11405000Y-12268809D01*
X11671667Y-12335476D02*
X11671667Y-12135476D01*
X11671667Y-12325952D02*
X11652619Y-12335476D01*
X11614524Y-12335476D01*
X11595476Y-12325952D01*
X11585952Y-12316428D01*
X11576428Y-12297381D01*
X11576428Y-12240238D01*
X11585952Y-12221190D01*
X11595476Y-12211667D01*
X11614524Y-12202143D01*
X11652619Y-12202143D01*
X11671667Y-12211667D01*
X11747857Y-12411667D02*
X11757381Y-12402143D01*
X11776428Y-12373571D01*
X11785952Y-12354524D01*
X11795476Y-12325952D01*
X11805000Y-12278333D01*
X11805000Y-12240238D01*
X11795476Y-12192619D01*
X11785952Y-12164048D01*
X11776428Y-12145000D01*
X11757381Y-12116428D01*
X11747857Y-12106905D01*
X4995000Y-12565000D02*
G75*
G03*
X4995000Y-12565000I-100000J0D01*
G01*
X5233571Y-12455476D02*
X5357381Y-12455476D01*
X5290714Y-12531667D01*
X5319286Y-12531667D01*
X5338333Y-12541190D01*
X5347857Y-12550714D01*
X5357381Y-12569762D01*
X5357381Y-12617381D01*
X5347857Y-12636428D01*
X5338333Y-12645952D01*
X5319286Y-12655476D01*
X5262143Y-12655476D01*
X5243095Y-12645952D01*
X5233571Y-12636428D01*
X5443095Y-12636428D02*
X5452619Y-12645952D01*
X5443095Y-12655476D01*
X5433571Y-12645952D01*
X5443095Y-12636428D01*
X5443095Y-12655476D01*
X5528810Y-12474524D02*
X5538333Y-12465000D01*
X5557381Y-12455476D01*
X5605000Y-12455476D01*
X5624048Y-12465000D01*
X5633571Y-12474524D01*
X5643095Y-12493571D01*
X5643095Y-12512619D01*
X5633571Y-12541190D01*
X5519286Y-12655476D01*
X5643095Y-12655476D01*
X5766905Y-12455476D02*
X5785952Y-12455476D01*
X5805000Y-12465000D01*
X5814524Y-12474524D01*
X5824048Y-12493571D01*
X5833571Y-12531667D01*
X5833571Y-12579286D01*
X5824048Y-12617381D01*
X5814524Y-12636428D01*
X5805000Y-12645952D01*
X5785952Y-12655476D01*
X5766905Y-12655476D01*
X5747857Y-12645952D01*
X5738333Y-12636428D01*
X5728809Y-12617381D01*
X5719286Y-12579286D01*
X5719286Y-12531667D01*
X5728809Y-12493571D01*
X5738333Y-12474524D01*
X5747857Y-12465000D01*
X5766905Y-12455476D01*
X5957381Y-12455476D02*
X5976428Y-12455476D01*
X5995476Y-12465000D01*
X6005000Y-12474524D01*
X6014524Y-12493571D01*
X6024048Y-12531667D01*
X6024048Y-12579286D01*
X6014524Y-12617381D01*
X6005000Y-12636428D01*
X5995476Y-12645952D01*
X5976428Y-12655476D01*
X5957381Y-12655476D01*
X5938333Y-12645952D01*
X5928809Y-12636428D01*
X5919286Y-12617381D01*
X5909762Y-12579286D01*
X5909762Y-12531667D01*
X5919286Y-12493571D01*
X5928809Y-12474524D01*
X5938333Y-12465000D01*
X5957381Y-12455476D01*
X6109762Y-12655476D02*
X6109762Y-12522143D01*
X6109762Y-12541190D02*
X6119286Y-12531667D01*
X6138333Y-12522143D01*
X6166905Y-12522143D01*
X6185952Y-12531667D01*
X6195476Y-12550714D01*
X6195476Y-12655476D01*
X6195476Y-12550714D02*
X6205000Y-12531667D01*
X6224048Y-12522143D01*
X6252619Y-12522143D01*
X6271667Y-12531667D01*
X6281190Y-12550714D01*
X6281190Y-12655476D01*
X6376428Y-12655476D02*
X6376428Y-12522143D01*
X6376428Y-12541190D02*
X6385952Y-12531667D01*
X6405000Y-12522143D01*
X6433571Y-12522143D01*
X6452619Y-12531667D01*
X6462143Y-12550714D01*
X6462143Y-12655476D01*
X6462143Y-12550714D02*
X6471667Y-12531667D01*
X6490714Y-12522143D01*
X6519286Y-12522143D01*
X6538333Y-12531667D01*
X6547857Y-12550714D01*
X6547857Y-12655476D01*
X6938333Y-12445952D02*
X6766905Y-12703095D01*
X7195476Y-12455476D02*
X7214524Y-12455476D01*
X7233571Y-12465000D01*
X7243095Y-12474524D01*
X7252619Y-12493571D01*
X7262143Y-12531667D01*
X7262143Y-12579286D01*
X7252619Y-12617381D01*
X7243095Y-12636428D01*
X7233571Y-12645952D01*
X7214524Y-12655476D01*
X7195476Y-12655476D01*
X7176428Y-12645952D01*
X7166905Y-12636428D01*
X7157381Y-12617381D01*
X7147857Y-12579286D01*
X7147857Y-12531667D01*
X7157381Y-12493571D01*
X7166905Y-12474524D01*
X7176428Y-12465000D01*
X7195476Y-12455476D01*
X7347857Y-12636428D02*
X7357381Y-12645952D01*
X7347857Y-12655476D01*
X7338333Y-12645952D01*
X7347857Y-12636428D01*
X7347857Y-12655476D01*
X7547857Y-12655476D02*
X7433571Y-12655476D01*
X7490714Y-12655476D02*
X7490714Y-12455476D01*
X7471667Y-12484048D01*
X7452619Y-12503095D01*
X7433571Y-12512619D01*
X7624048Y-12474524D02*
X7633571Y-12465000D01*
X7652619Y-12455476D01*
X7700238Y-12455476D01*
X7719286Y-12465000D01*
X7728809Y-12474524D01*
X7738333Y-12493571D01*
X7738333Y-12512619D01*
X7728809Y-12541190D01*
X7614524Y-12655476D01*
X7738333Y-12655476D01*
X7909762Y-12455476D02*
X7871667Y-12455476D01*
X7852619Y-12465000D01*
X7843095Y-12474524D01*
X7824048Y-12503095D01*
X7814524Y-12541190D01*
X7814524Y-12617381D01*
X7824048Y-12636428D01*
X7833571Y-12645952D01*
X7852619Y-12655476D01*
X7890714Y-12655476D01*
X7909762Y-12645952D01*
X7919286Y-12636428D01*
X7928809Y-12617381D01*
X7928809Y-12569762D01*
X7919286Y-12550714D01*
X7909762Y-12541190D01*
X7890714Y-12531667D01*
X7852619Y-12531667D01*
X7833571Y-12541190D01*
X7824048Y-12550714D01*
X7814524Y-12569762D01*
X8052619Y-12455476D02*
X8071667Y-12455476D01*
X8090714Y-12465000D01*
X8100238Y-12474524D01*
X8109762Y-12493571D01*
X8119286Y-12531667D01*
X8119286Y-12579286D01*
X8109762Y-12617381D01*
X8100238Y-12636428D01*
X8090714Y-12645952D01*
X8071667Y-12655476D01*
X8052619Y-12655476D01*
X8033571Y-12645952D01*
X8024048Y-12636428D01*
X8014524Y-12617381D01*
X8005000Y-12579286D01*
X8005000Y-12531667D01*
X8014524Y-12493571D01*
X8024048Y-12474524D01*
X8033571Y-12465000D01*
X8052619Y-12455476D01*
X8195476Y-12455476D02*
X8195476Y-12493571D01*
X8271667Y-12455476D02*
X8271667Y-12493571D01*
X8566905Y-12731667D02*
X8557381Y-12722143D01*
X8538333Y-12693571D01*
X8528810Y-12674524D01*
X8519286Y-12645952D01*
X8509762Y-12598333D01*
X8509762Y-12560238D01*
X8519286Y-12512619D01*
X8528810Y-12484048D01*
X8538333Y-12465000D01*
X8557381Y-12436428D01*
X8566905Y-12426905D01*
X8728810Y-12522143D02*
X8728810Y-12655476D01*
X8681190Y-12445952D02*
X8633571Y-12588809D01*
X8757381Y-12588809D01*
X8985952Y-12655476D02*
X8985952Y-12455476D01*
X9071667Y-12655476D02*
X9071667Y-12550714D01*
X9062143Y-12531667D01*
X9043095Y-12522143D01*
X9014524Y-12522143D01*
X8995476Y-12531667D01*
X8985952Y-12541190D01*
X9195476Y-12655476D02*
X9176429Y-12645952D01*
X9166905Y-12636428D01*
X9157381Y-12617381D01*
X9157381Y-12560238D01*
X9166905Y-12541190D01*
X9176429Y-12531667D01*
X9195476Y-12522143D01*
X9224048Y-12522143D01*
X9243095Y-12531667D01*
X9252619Y-12541190D01*
X9262143Y-12560238D01*
X9262143Y-12617381D01*
X9252619Y-12636428D01*
X9243095Y-12645952D01*
X9224048Y-12655476D01*
X9195476Y-12655476D01*
X9376429Y-12655476D02*
X9357381Y-12645952D01*
X9347857Y-12626905D01*
X9347857Y-12455476D01*
X9528810Y-12645952D02*
X9509762Y-12655476D01*
X9471667Y-12655476D01*
X9452619Y-12645952D01*
X9443095Y-12626905D01*
X9443095Y-12550714D01*
X9452619Y-12531667D01*
X9471667Y-12522143D01*
X9509762Y-12522143D01*
X9528810Y-12531667D01*
X9538333Y-12550714D01*
X9538333Y-12569762D01*
X9443095Y-12588809D01*
X9614524Y-12645952D02*
X9633571Y-12655476D01*
X9671667Y-12655476D01*
X9690714Y-12645952D01*
X9700238Y-12626905D01*
X9700238Y-12617381D01*
X9690714Y-12598333D01*
X9671667Y-12588809D01*
X9643095Y-12588809D01*
X9624048Y-12579286D01*
X9614524Y-12560238D01*
X9614524Y-12550714D01*
X9624048Y-12531667D01*
X9643095Y-12522143D01*
X9671667Y-12522143D01*
X9690714Y-12531667D01*
X9766905Y-12731667D02*
X9776429Y-12722143D01*
X9795476Y-12693571D01*
X9805000Y-12674524D01*
X9814524Y-12645952D01*
X9824048Y-12598333D01*
X9824048Y-12560238D01*
X9814524Y-12512619D01*
X9805000Y-12484048D01*
X9795476Y-12465000D01*
X9776429Y-12436428D01*
X9766905Y-12426905D01*
X10128810Y-12731667D02*
X10119286Y-12722143D01*
X10100238Y-12693571D01*
X10090714Y-12674524D01*
X10081190Y-12645952D01*
X10071667Y-12598333D01*
X10071667Y-12560238D01*
X10081190Y-12512619D01*
X10090714Y-12484048D01*
X10100238Y-12465000D01*
X10119286Y-12436428D01*
X10128810Y-12426905D01*
X10205000Y-12522143D02*
X10205000Y-12655476D01*
X10205000Y-12541190D02*
X10214524Y-12531667D01*
X10233571Y-12522143D01*
X10262143Y-12522143D01*
X10281190Y-12531667D01*
X10290714Y-12550714D01*
X10290714Y-12655476D01*
X10414524Y-12655476D02*
X10395476Y-12645952D01*
X10385952Y-12636428D01*
X10376429Y-12617381D01*
X10376429Y-12560238D01*
X10385952Y-12541190D01*
X10395476Y-12531667D01*
X10414524Y-12522143D01*
X10443095Y-12522143D01*
X10462143Y-12531667D01*
X10471667Y-12541190D01*
X10481190Y-12560238D01*
X10481190Y-12617381D01*
X10471667Y-12636428D01*
X10462143Y-12645952D01*
X10443095Y-12655476D01*
X10414524Y-12655476D01*
X10538333Y-12522143D02*
X10614524Y-12522143D01*
X10566905Y-12455476D02*
X10566905Y-12626905D01*
X10576429Y-12645952D01*
X10595476Y-12655476D01*
X10614524Y-12655476D01*
X10833571Y-12522143D02*
X10833571Y-12722143D01*
X10833571Y-12531667D02*
X10852619Y-12522143D01*
X10890714Y-12522143D01*
X10909762Y-12531667D01*
X10919286Y-12541190D01*
X10928810Y-12560238D01*
X10928810Y-12617381D01*
X10919286Y-12636428D01*
X10909762Y-12645952D01*
X10890714Y-12655476D01*
X10852619Y-12655476D01*
X10833571Y-12645952D01*
X11043095Y-12655476D02*
X11024048Y-12645952D01*
X11014524Y-12626905D01*
X11014524Y-12455476D01*
X11205000Y-12655476D02*
X11205000Y-12550714D01*
X11195476Y-12531667D01*
X11176429Y-12522143D01*
X11138333Y-12522143D01*
X11119286Y-12531667D01*
X11205000Y-12645952D02*
X11185952Y-12655476D01*
X11138333Y-12655476D01*
X11119286Y-12645952D01*
X11109762Y-12626905D01*
X11109762Y-12607857D01*
X11119286Y-12588809D01*
X11138333Y-12579286D01*
X11185952Y-12579286D01*
X11205000Y-12569762D01*
X11271667Y-12522143D02*
X11347857Y-12522143D01*
X11300238Y-12455476D02*
X11300238Y-12626905D01*
X11309762Y-12645952D01*
X11328809Y-12655476D01*
X11347857Y-12655476D01*
X11490714Y-12645952D02*
X11471667Y-12655476D01*
X11433571Y-12655476D01*
X11414524Y-12645952D01*
X11405000Y-12626905D01*
X11405000Y-12550714D01*
X11414524Y-12531667D01*
X11433571Y-12522143D01*
X11471667Y-12522143D01*
X11490714Y-12531667D01*
X11500238Y-12550714D01*
X11500238Y-12569762D01*
X11405000Y-12588809D01*
X11671667Y-12655476D02*
X11671667Y-12455476D01*
X11671667Y-12645952D02*
X11652619Y-12655476D01*
X11614524Y-12655476D01*
X11595476Y-12645952D01*
X11585952Y-12636428D01*
X11576428Y-12617381D01*
X11576428Y-12560238D01*
X11585952Y-12541190D01*
X11595476Y-12531667D01*
X11614524Y-12522143D01*
X11652619Y-12522143D01*
X11671667Y-12531667D01*
X11747857Y-12731667D02*
X11757381Y-12722143D01*
X11776428Y-12693571D01*
X11785952Y-12674524D01*
X11795476Y-12645952D01*
X11805000Y-12598333D01*
X11805000Y-12560238D01*
X11795476Y-12512619D01*
X11785952Y-12484048D01*
X11776428Y-12465000D01*
X11757381Y-12436428D01*
X11747857Y-12426905D01*
M02*
