%TF.GenerationSoftware,KiCad,Pcbnew,(6.0.9-0)*%
%TF.CreationDate,2024-08-31T06:56:25+09:00*%
%TF.ProjectId,LEDHat,4c454448-6174-42e6-9b69-6361645f7063,rev?*%
%TF.SameCoordinates,Original*%
%TF.FileFunction,Drillmap*%
%TF.FilePolarity,Positive*%
%FSLAX45Y45*%
G04 Gerber Fmt 4.5, Leading zero omitted, Abs format (unit mm)*
G04 Created by KiCad (PCBNEW (6.0.9-0)) date 2024-08-31 06:56:25*
%MOMM*%
%LPD*%
G01*
G04 APERTURE LIST*
%ADD10C,0.100000*%
%ADD11C,0.200000*%
%ADD12C,0.040000*%
%ADD13C,0.080000*%
%ADD14C,0.090000*%
G04 APERTURE END LIST*
D10*
X5000000Y-11250000D02*
X5000000Y-6350000D01*
X11150000Y-11600000D02*
X5350000Y-11600000D01*
X11500000Y-6350000D02*
X11500000Y-11250000D01*
X5350000Y-6000000D02*
X11150000Y-6000000D01*
X5350000Y-6000000D02*
G75*
G03*
X5000000Y-6350000I0J-350000D01*
G01*
X5000000Y-11250000D02*
G75*
G03*
X5350000Y-11600000I350000J0D01*
G01*
X11150000Y-11600000D02*
G75*
G03*
X11500000Y-11250000I0J350000D01*
G01*
X11500000Y-6350000D02*
G75*
G03*
X11150000Y-6000000I-350000J0D01*
G01*
X9350000Y-9400000D02*
G75*
G03*
X9350000Y-9400000I-1200000J0D01*
G01*
D11*
D12*
X5580000Y-6680000D02*
X5620000Y-6720000D01*
X5620000Y-6680000D02*
X5580000Y-6720000D01*
X5580000Y-9230000D02*
X5620000Y-9270000D01*
X5620000Y-9230000D02*
X5580000Y-9270000D01*
X5630000Y-8230000D02*
X5670000Y-8270000D01*
X5670000Y-8230000D02*
X5630000Y-8270000D01*
X5630000Y-9530000D02*
X5670000Y-9570000D01*
X5670000Y-9530000D02*
X5630000Y-9570000D01*
X5730000Y-10280000D02*
X5770000Y-10320000D01*
X5770000Y-10280000D02*
X5730000Y-10320000D01*
X5830000Y-9230000D02*
X5870000Y-9270000D01*
X5870000Y-9230000D02*
X5830000Y-9270000D01*
X5930000Y-10630000D02*
X5970000Y-10670000D01*
X5970000Y-10630000D02*
X5930000Y-10670000D01*
X5980000Y-8330000D02*
X6020000Y-8370000D01*
X6020000Y-8330000D02*
X5980000Y-8370000D01*
X5980000Y-10280000D02*
X6020000Y-10320000D01*
X6020000Y-10280000D02*
X5980000Y-10320000D01*
X6080000Y-7880000D02*
X6120000Y-7920000D01*
X6120000Y-7880000D02*
X6080000Y-7920000D01*
X6980000Y-10880000D02*
X7020000Y-10920000D01*
X7020000Y-10880000D02*
X6980000Y-10920000D01*
X6980000Y-11180000D02*
X7020000Y-11220000D01*
X7020000Y-11180000D02*
X6980000Y-11220000D01*
X7080000Y-7580000D02*
X7120000Y-7620000D01*
X7120000Y-7580000D02*
X7080000Y-7620000D01*
X7280000Y-7130000D02*
X7320000Y-7170000D01*
X7320000Y-7130000D02*
X7280000Y-7170000D01*
X7830000Y-7080000D02*
X7870000Y-7120000D01*
X7870000Y-7080000D02*
X7830000Y-7120000D01*
X7980000Y-6780000D02*
X8020000Y-6820000D01*
X8020000Y-6780000D02*
X7980000Y-6820000D01*
X8080000Y-11180000D02*
X8120000Y-11220000D01*
X8120000Y-11180000D02*
X8080000Y-11220000D01*
X8380000Y-7330000D02*
X8420000Y-7370000D01*
X8420000Y-7330000D02*
X8380000Y-7370000D01*
X8930000Y-6980000D02*
X8970000Y-7020000D01*
X8970000Y-6980000D02*
X8930000Y-7020000D01*
X9230000Y-7530000D02*
X9270000Y-7570000D01*
X9270000Y-7530000D02*
X9230000Y-7570000D01*
X9230000Y-11130000D02*
X9270000Y-11170000D01*
X9270000Y-11130000D02*
X9230000Y-11170000D01*
X9430000Y-7030000D02*
X9470000Y-7070000D01*
X9470000Y-7030000D02*
X9430000Y-7070000D01*
X9930000Y-10430000D02*
X9970000Y-10470000D01*
X9970000Y-10430000D02*
X9930000Y-10470000D01*
X10030000Y-6780000D02*
X10070000Y-6820000D01*
X10070000Y-6780000D02*
X10030000Y-6820000D01*
X10030000Y-8880000D02*
X10070000Y-8920000D01*
X10070000Y-8880000D02*
X10030000Y-8920000D01*
X10180000Y-9730000D02*
X10220000Y-9770000D01*
X10220000Y-9730000D02*
X10180000Y-9770000D01*
X10430000Y-7830000D02*
X10470000Y-7870000D01*
X10470000Y-7830000D02*
X10430000Y-7870000D01*
X10580000Y-6880000D02*
X10620000Y-6920000D01*
X10620000Y-6880000D02*
X10580000Y-6920000D01*
X10630000Y-9730000D02*
X10670000Y-9770000D01*
X10670000Y-9730000D02*
X10630000Y-9770000D01*
X10730000Y-9230000D02*
X10770000Y-9270000D01*
X10770000Y-9230000D02*
X10730000Y-9270000D01*
X10980000Y-6780000D02*
X11020000Y-6820000D01*
X11020000Y-6780000D02*
X10980000Y-6820000D01*
X11080000Y-7580000D02*
X11120000Y-7620000D01*
X11120000Y-7580000D02*
X11080000Y-7620000D01*
X11080000Y-8530000D02*
X11120000Y-8570000D01*
X11120000Y-8530000D02*
X11080000Y-8570000D01*
X11380000Y-7430000D02*
X11420000Y-7470000D01*
X11420000Y-7430000D02*
X11380000Y-7470000D01*
D13*
X5240000Y-9619000D02*
G75*
G03*
X5240000Y-9619000I-40000J0D01*
G01*
X5240000Y-10381000D02*
G75*
G03*
X5240000Y-10381000I-40000J0D01*
G01*
X5390000Y-7950000D02*
G75*
G03*
X5390000Y-7950000I-40000J0D01*
G01*
X5390000Y-8712000D02*
G75*
G03*
X5390000Y-8712000I-40000J0D01*
G01*
D14*
X10974000Y-10015800D02*
X10974000Y-10105800D01*
X10929000Y-10060800D02*
X11019000Y-10060800D01*
X10974000Y-10346000D02*
X10974000Y-10436000D01*
X10929000Y-10391000D02*
X11019000Y-10391000D01*
X11126400Y-9863400D02*
X11126400Y-9953400D01*
X11081400Y-9908400D02*
X11171400Y-9908400D01*
X11126400Y-10168200D02*
X11126400Y-10258200D01*
X11081400Y-10213200D02*
X11171400Y-10213200D01*
D10*
X5875356Y-6260356D02*
X5875356Y-6189644D01*
X5804644Y-6189644D01*
X5804644Y-6260356D01*
X5875356Y-6260356D01*
X5875356Y-6514356D02*
X5875356Y-6443644D01*
X5804644Y-6443644D01*
X5804644Y-6514356D01*
X5875356Y-6514356D01*
X6129356Y-6260356D02*
X6129356Y-6189644D01*
X6058644Y-6189644D01*
X6058644Y-6260356D01*
X6129356Y-6260356D01*
X6129356Y-6514356D02*
X6129356Y-6443644D01*
X6058644Y-6443644D01*
X6058644Y-6514356D01*
X6129356Y-6514356D01*
X6172856Y-7108856D02*
X6172856Y-7038144D01*
X6102144Y-7038144D01*
X6102144Y-7108856D01*
X6172856Y-7108856D01*
X6172856Y-7362856D02*
X6172856Y-7292144D01*
X6102144Y-7292144D01*
X6102144Y-7362856D01*
X6172856Y-7362856D01*
X6383356Y-6260356D02*
X6383356Y-6189644D01*
X6312644Y-6189644D01*
X6312644Y-6260356D01*
X6383356Y-6260356D01*
X6383356Y-6514356D02*
X6383356Y-6443644D01*
X6312644Y-6443644D01*
X6312644Y-6514356D01*
X6383356Y-6514356D01*
X6637356Y-6260356D02*
X6637356Y-6189644D01*
X6566644Y-6189644D01*
X6566644Y-6260356D01*
X6637356Y-6260356D01*
X6637356Y-6514356D02*
X6637356Y-6443644D01*
X6566644Y-6443644D01*
X6566644Y-6514356D01*
X6637356Y-6514356D01*
X6891356Y-6260356D02*
X6891356Y-6189644D01*
X6820644Y-6189644D01*
X6820644Y-6260356D01*
X6891356Y-6260356D01*
X6891356Y-6514356D02*
X6891356Y-6443644D01*
X6820644Y-6443644D01*
X6820644Y-6514356D01*
X6891356Y-6514356D01*
X7145356Y-6260356D02*
X7145356Y-6189644D01*
X7074644Y-6189644D01*
X7074644Y-6260356D01*
X7145356Y-6260356D01*
X7145356Y-6514356D02*
X7145356Y-6443644D01*
X7074644Y-6443644D01*
X7074644Y-6514356D01*
X7145356Y-6514356D01*
X7399356Y-6260356D02*
X7399356Y-6189644D01*
X7328644Y-6189644D01*
X7328644Y-6260356D01*
X7399356Y-6260356D01*
X7399356Y-6514356D02*
X7399356Y-6443644D01*
X7328644Y-6443644D01*
X7328644Y-6514356D01*
X7399356Y-6514356D01*
X7653356Y-6260356D02*
X7653356Y-6189644D01*
X7582644Y-6189644D01*
X7582644Y-6260356D01*
X7653356Y-6260356D01*
X7653356Y-6514356D02*
X7653356Y-6443644D01*
X7582644Y-6443644D01*
X7582644Y-6514356D01*
X7653356Y-6514356D01*
X7907356Y-6260356D02*
X7907356Y-6189644D01*
X7836644Y-6189644D01*
X7836644Y-6260356D01*
X7907356Y-6260356D01*
X7907356Y-6514356D02*
X7907356Y-6443644D01*
X7836644Y-6443644D01*
X7836644Y-6514356D01*
X7907356Y-6514356D01*
X8161356Y-6260356D02*
X8161356Y-6189644D01*
X8090644Y-6189644D01*
X8090644Y-6260356D01*
X8161356Y-6260356D01*
X8161356Y-6514356D02*
X8161356Y-6443644D01*
X8090644Y-6443644D01*
X8090644Y-6514356D01*
X8161356Y-6514356D01*
X8415356Y-6260356D02*
X8415356Y-6189644D01*
X8344644Y-6189644D01*
X8344644Y-6260356D01*
X8415356Y-6260356D01*
X8415356Y-6514356D02*
X8415356Y-6443644D01*
X8344644Y-6443644D01*
X8344644Y-6514356D01*
X8415356Y-6514356D01*
X8669356Y-6260356D02*
X8669356Y-6189644D01*
X8598644Y-6189644D01*
X8598644Y-6260356D01*
X8669356Y-6260356D01*
X8669356Y-6514356D02*
X8669356Y-6443644D01*
X8598644Y-6443644D01*
X8598644Y-6514356D01*
X8669356Y-6514356D01*
X8923356Y-6260356D02*
X8923356Y-6189644D01*
X8852644Y-6189644D01*
X8852644Y-6260356D01*
X8923356Y-6260356D01*
X8923356Y-6514356D02*
X8923356Y-6443644D01*
X8852644Y-6443644D01*
X8852644Y-6514356D01*
X8923356Y-6514356D01*
X9177356Y-6260356D02*
X9177356Y-6189644D01*
X9106644Y-6189644D01*
X9106644Y-6260356D01*
X9177356Y-6260356D01*
X9177356Y-6514356D02*
X9177356Y-6443644D01*
X9106644Y-6443644D01*
X9106644Y-6514356D01*
X9177356Y-6514356D01*
X9431356Y-6260356D02*
X9431356Y-6189644D01*
X9360644Y-6189644D01*
X9360644Y-6260356D01*
X9431356Y-6260356D01*
X9431356Y-6514356D02*
X9431356Y-6443644D01*
X9360644Y-6443644D01*
X9360644Y-6514356D01*
X9431356Y-6514356D01*
X9685356Y-6260356D02*
X9685356Y-6189644D01*
X9614644Y-6189644D01*
X9614644Y-6260356D01*
X9685356Y-6260356D01*
X9685356Y-6514356D02*
X9685356Y-6443644D01*
X9614644Y-6443644D01*
X9614644Y-6514356D01*
X9685356Y-6514356D01*
X9939356Y-6260356D02*
X9939356Y-6189644D01*
X9868644Y-6189644D01*
X9868644Y-6260356D01*
X9939356Y-6260356D01*
X9939356Y-6514356D02*
X9939356Y-6443644D01*
X9868644Y-6443644D01*
X9868644Y-6514356D01*
X9939356Y-6514356D01*
X10193356Y-6260356D02*
X10193356Y-6189644D01*
X10122644Y-6189644D01*
X10122644Y-6260356D01*
X10193356Y-6260356D01*
X10193356Y-6514356D02*
X10193356Y-6443644D01*
X10122644Y-6443644D01*
X10122644Y-6514356D01*
X10193356Y-6514356D01*
X10447356Y-6260356D02*
X10447356Y-6189644D01*
X10376644Y-6189644D01*
X10376644Y-6260356D01*
X10447356Y-6260356D01*
X10447356Y-6514356D02*
X10447356Y-6443644D01*
X10376644Y-6443644D01*
X10376644Y-6514356D01*
X10447356Y-6514356D01*
X10701356Y-6260356D02*
X10701356Y-6189644D01*
X10630644Y-6189644D01*
X10630644Y-6260356D01*
X10701356Y-6260356D01*
X10701356Y-6514356D02*
X10701356Y-6443644D01*
X10630644Y-6443644D01*
X10630644Y-6514356D01*
X10701356Y-6514356D01*
D11*
X5252619Y-11915476D02*
X5252619Y-11715476D01*
X5300238Y-11715476D01*
X5328810Y-11725000D01*
X5347857Y-11744048D01*
X5357381Y-11763095D01*
X5366905Y-11801190D01*
X5366905Y-11829762D01*
X5357381Y-11867857D01*
X5347857Y-11886905D01*
X5328810Y-11905952D01*
X5300238Y-11915476D01*
X5252619Y-11915476D01*
X5452619Y-11915476D02*
X5452619Y-11782143D01*
X5452619Y-11820238D02*
X5462143Y-11801190D01*
X5471667Y-11791667D01*
X5490714Y-11782143D01*
X5509762Y-11782143D01*
X5576429Y-11915476D02*
X5576429Y-11782143D01*
X5576429Y-11715476D02*
X5566905Y-11725000D01*
X5576429Y-11734524D01*
X5585952Y-11725000D01*
X5576429Y-11715476D01*
X5576429Y-11734524D01*
X5700238Y-11915476D02*
X5681190Y-11905952D01*
X5671667Y-11886905D01*
X5671667Y-11715476D01*
X5805000Y-11915476D02*
X5785952Y-11905952D01*
X5776428Y-11886905D01*
X5776428Y-11715476D01*
X6033571Y-11915476D02*
X6033571Y-11715476D01*
X6100238Y-11858333D01*
X6166905Y-11715476D01*
X6166905Y-11915476D01*
X6347857Y-11915476D02*
X6347857Y-11810714D01*
X6338333Y-11791667D01*
X6319286Y-11782143D01*
X6281190Y-11782143D01*
X6262143Y-11791667D01*
X6347857Y-11905952D02*
X6328809Y-11915476D01*
X6281190Y-11915476D01*
X6262143Y-11905952D01*
X6252619Y-11886905D01*
X6252619Y-11867857D01*
X6262143Y-11848809D01*
X6281190Y-11839286D01*
X6328809Y-11839286D01*
X6347857Y-11829762D01*
X6443095Y-11782143D02*
X6443095Y-11982143D01*
X6443095Y-11791667D02*
X6462143Y-11782143D01*
X6500238Y-11782143D01*
X6519286Y-11791667D01*
X6528809Y-11801190D01*
X6538333Y-11820238D01*
X6538333Y-11877381D01*
X6528809Y-11896428D01*
X6519286Y-11905952D01*
X6500238Y-11915476D01*
X6462143Y-11915476D01*
X6443095Y-11905952D01*
X6624048Y-11896428D02*
X6633571Y-11905952D01*
X6624048Y-11915476D01*
X6614524Y-11905952D01*
X6624048Y-11896428D01*
X6624048Y-11915476D01*
X6624048Y-11791667D02*
X6633571Y-11801190D01*
X6624048Y-11810714D01*
X6614524Y-11801190D01*
X6624048Y-11791667D01*
X6624048Y-11810714D01*
D12*
X4955000Y-12225000D02*
X4995000Y-12265000D01*
X4995000Y-12225000D02*
X4955000Y-12265000D01*
D11*
X5290714Y-12135476D02*
X5309762Y-12135476D01*
X5328810Y-12145000D01*
X5338333Y-12154524D01*
X5347857Y-12173571D01*
X5357381Y-12211667D01*
X5357381Y-12259286D01*
X5347857Y-12297381D01*
X5338333Y-12316428D01*
X5328810Y-12325952D01*
X5309762Y-12335476D01*
X5290714Y-12335476D01*
X5271667Y-12325952D01*
X5262143Y-12316428D01*
X5252619Y-12297381D01*
X5243095Y-12259286D01*
X5243095Y-12211667D01*
X5252619Y-12173571D01*
X5262143Y-12154524D01*
X5271667Y-12145000D01*
X5290714Y-12135476D01*
X5443095Y-12316428D02*
X5452619Y-12325952D01*
X5443095Y-12335476D01*
X5433571Y-12325952D01*
X5443095Y-12316428D01*
X5443095Y-12335476D01*
X5624048Y-12202143D02*
X5624048Y-12335476D01*
X5576429Y-12125952D02*
X5528810Y-12268809D01*
X5652619Y-12268809D01*
X5766905Y-12135476D02*
X5785952Y-12135476D01*
X5805000Y-12145000D01*
X5814524Y-12154524D01*
X5824048Y-12173571D01*
X5833571Y-12211667D01*
X5833571Y-12259286D01*
X5824048Y-12297381D01*
X5814524Y-12316428D01*
X5805000Y-12325952D01*
X5785952Y-12335476D01*
X5766905Y-12335476D01*
X5747857Y-12325952D01*
X5738333Y-12316428D01*
X5728809Y-12297381D01*
X5719286Y-12259286D01*
X5719286Y-12211667D01*
X5728809Y-12173571D01*
X5738333Y-12154524D01*
X5747857Y-12145000D01*
X5766905Y-12135476D01*
X5957381Y-12135476D02*
X5976428Y-12135476D01*
X5995476Y-12145000D01*
X6005000Y-12154524D01*
X6014524Y-12173571D01*
X6024048Y-12211667D01*
X6024048Y-12259286D01*
X6014524Y-12297381D01*
X6005000Y-12316428D01*
X5995476Y-12325952D01*
X5976428Y-12335476D01*
X5957381Y-12335476D01*
X5938333Y-12325952D01*
X5928809Y-12316428D01*
X5919286Y-12297381D01*
X5909762Y-12259286D01*
X5909762Y-12211667D01*
X5919286Y-12173571D01*
X5928809Y-12154524D01*
X5938333Y-12145000D01*
X5957381Y-12135476D01*
X6109762Y-12335476D02*
X6109762Y-12202143D01*
X6109762Y-12221190D02*
X6119286Y-12211667D01*
X6138333Y-12202143D01*
X6166905Y-12202143D01*
X6185952Y-12211667D01*
X6195476Y-12230714D01*
X6195476Y-12335476D01*
X6195476Y-12230714D02*
X6205000Y-12211667D01*
X6224048Y-12202143D01*
X6252619Y-12202143D01*
X6271667Y-12211667D01*
X6281190Y-12230714D01*
X6281190Y-12335476D01*
X6376428Y-12335476D02*
X6376428Y-12202143D01*
X6376428Y-12221190D02*
X6385952Y-12211667D01*
X6405000Y-12202143D01*
X6433571Y-12202143D01*
X6452619Y-12211667D01*
X6462143Y-12230714D01*
X6462143Y-12335476D01*
X6462143Y-12230714D02*
X6471667Y-12211667D01*
X6490714Y-12202143D01*
X6519286Y-12202143D01*
X6538333Y-12211667D01*
X6547857Y-12230714D01*
X6547857Y-12335476D01*
X6938333Y-12125952D02*
X6766905Y-12383095D01*
X7195476Y-12135476D02*
X7214524Y-12135476D01*
X7233571Y-12145000D01*
X7243095Y-12154524D01*
X7252619Y-12173571D01*
X7262143Y-12211667D01*
X7262143Y-12259286D01*
X7252619Y-12297381D01*
X7243095Y-12316428D01*
X7233571Y-12325952D01*
X7214524Y-12335476D01*
X7195476Y-12335476D01*
X7176428Y-12325952D01*
X7166905Y-12316428D01*
X7157381Y-12297381D01*
X7147857Y-12259286D01*
X7147857Y-12211667D01*
X7157381Y-12173571D01*
X7166905Y-12154524D01*
X7176428Y-12145000D01*
X7195476Y-12135476D01*
X7347857Y-12316428D02*
X7357381Y-12325952D01*
X7347857Y-12335476D01*
X7338333Y-12325952D01*
X7347857Y-12316428D01*
X7347857Y-12335476D01*
X7481190Y-12135476D02*
X7500238Y-12135476D01*
X7519286Y-12145000D01*
X7528809Y-12154524D01*
X7538333Y-12173571D01*
X7547857Y-12211667D01*
X7547857Y-12259286D01*
X7538333Y-12297381D01*
X7528809Y-12316428D01*
X7519286Y-12325952D01*
X7500238Y-12335476D01*
X7481190Y-12335476D01*
X7462143Y-12325952D01*
X7452619Y-12316428D01*
X7443095Y-12297381D01*
X7433571Y-12259286D01*
X7433571Y-12211667D01*
X7443095Y-12173571D01*
X7452619Y-12154524D01*
X7462143Y-12145000D01*
X7481190Y-12135476D01*
X7738333Y-12335476D02*
X7624048Y-12335476D01*
X7681190Y-12335476D02*
X7681190Y-12135476D01*
X7662143Y-12164048D01*
X7643095Y-12183095D01*
X7624048Y-12192619D01*
X7919286Y-12135476D02*
X7824048Y-12135476D01*
X7814524Y-12230714D01*
X7824048Y-12221190D01*
X7843095Y-12211667D01*
X7890714Y-12211667D01*
X7909762Y-12221190D01*
X7919286Y-12230714D01*
X7928809Y-12249762D01*
X7928809Y-12297381D01*
X7919286Y-12316428D01*
X7909762Y-12325952D01*
X7890714Y-12335476D01*
X7843095Y-12335476D01*
X7824048Y-12325952D01*
X7814524Y-12316428D01*
X7995476Y-12135476D02*
X8128809Y-12135476D01*
X8043095Y-12335476D01*
X8195476Y-12135476D02*
X8195476Y-12173571D01*
X8271667Y-12135476D02*
X8271667Y-12173571D01*
X8566905Y-12411667D02*
X8557381Y-12402143D01*
X8538333Y-12373571D01*
X8528810Y-12354524D01*
X8519286Y-12325952D01*
X8509762Y-12278333D01*
X8509762Y-12240238D01*
X8519286Y-12192619D01*
X8528810Y-12164048D01*
X8538333Y-12145000D01*
X8557381Y-12116428D01*
X8566905Y-12106905D01*
X8624048Y-12135476D02*
X8747857Y-12135476D01*
X8681190Y-12211667D01*
X8709762Y-12211667D01*
X8728810Y-12221190D01*
X8738333Y-12230714D01*
X8747857Y-12249762D01*
X8747857Y-12297381D01*
X8738333Y-12316428D01*
X8728810Y-12325952D01*
X8709762Y-12335476D01*
X8652619Y-12335476D01*
X8633571Y-12325952D01*
X8624048Y-12316428D01*
X8919286Y-12202143D02*
X8919286Y-12335476D01*
X8871667Y-12125952D02*
X8824048Y-12268809D01*
X8947857Y-12268809D01*
X9176429Y-12335476D02*
X9176429Y-12135476D01*
X9262143Y-12335476D02*
X9262143Y-12230714D01*
X9252619Y-12211667D01*
X9233571Y-12202143D01*
X9205000Y-12202143D01*
X9185952Y-12211667D01*
X9176429Y-12221190D01*
X9385952Y-12335476D02*
X9366905Y-12325952D01*
X9357381Y-12316428D01*
X9347857Y-12297381D01*
X9347857Y-12240238D01*
X9357381Y-12221190D01*
X9366905Y-12211667D01*
X9385952Y-12202143D01*
X9414524Y-12202143D01*
X9433571Y-12211667D01*
X9443095Y-12221190D01*
X9452619Y-12240238D01*
X9452619Y-12297381D01*
X9443095Y-12316428D01*
X9433571Y-12325952D01*
X9414524Y-12335476D01*
X9385952Y-12335476D01*
X9566905Y-12335476D02*
X9547857Y-12325952D01*
X9538333Y-12306905D01*
X9538333Y-12135476D01*
X9719286Y-12325952D02*
X9700238Y-12335476D01*
X9662143Y-12335476D01*
X9643095Y-12325952D01*
X9633571Y-12306905D01*
X9633571Y-12230714D01*
X9643095Y-12211667D01*
X9662143Y-12202143D01*
X9700238Y-12202143D01*
X9719286Y-12211667D01*
X9728810Y-12230714D01*
X9728810Y-12249762D01*
X9633571Y-12268809D01*
X9805000Y-12325952D02*
X9824048Y-12335476D01*
X9862143Y-12335476D01*
X9881190Y-12325952D01*
X9890714Y-12306905D01*
X9890714Y-12297381D01*
X9881190Y-12278333D01*
X9862143Y-12268809D01*
X9833571Y-12268809D01*
X9814524Y-12259286D01*
X9805000Y-12240238D01*
X9805000Y-12230714D01*
X9814524Y-12211667D01*
X9833571Y-12202143D01*
X9862143Y-12202143D01*
X9881190Y-12211667D01*
X9957381Y-12411667D02*
X9966905Y-12402143D01*
X9985952Y-12373571D01*
X9995476Y-12354524D01*
X10005000Y-12325952D01*
X10014524Y-12278333D01*
X10014524Y-12240238D01*
X10005000Y-12192619D01*
X9995476Y-12164048D01*
X9985952Y-12145000D01*
X9966905Y-12116428D01*
X9957381Y-12106905D01*
D13*
X4995000Y-12509000D02*
G75*
G03*
X4995000Y-12509000I-40000J0D01*
G01*
D11*
X5290714Y-12399476D02*
X5309762Y-12399476D01*
X5328810Y-12409000D01*
X5338333Y-12418524D01*
X5347857Y-12437571D01*
X5357381Y-12475667D01*
X5357381Y-12523286D01*
X5347857Y-12561381D01*
X5338333Y-12580428D01*
X5328810Y-12589952D01*
X5309762Y-12599476D01*
X5290714Y-12599476D01*
X5271667Y-12589952D01*
X5262143Y-12580428D01*
X5252619Y-12561381D01*
X5243095Y-12523286D01*
X5243095Y-12475667D01*
X5252619Y-12437571D01*
X5262143Y-12418524D01*
X5271667Y-12409000D01*
X5290714Y-12399476D01*
X5443095Y-12580428D02*
X5452619Y-12589952D01*
X5443095Y-12599476D01*
X5433571Y-12589952D01*
X5443095Y-12580428D01*
X5443095Y-12599476D01*
X5566905Y-12485190D02*
X5547857Y-12475667D01*
X5538333Y-12466143D01*
X5528810Y-12447095D01*
X5528810Y-12437571D01*
X5538333Y-12418524D01*
X5547857Y-12409000D01*
X5566905Y-12399476D01*
X5605000Y-12399476D01*
X5624048Y-12409000D01*
X5633571Y-12418524D01*
X5643095Y-12437571D01*
X5643095Y-12447095D01*
X5633571Y-12466143D01*
X5624048Y-12475667D01*
X5605000Y-12485190D01*
X5566905Y-12485190D01*
X5547857Y-12494714D01*
X5538333Y-12504238D01*
X5528810Y-12523286D01*
X5528810Y-12561381D01*
X5538333Y-12580428D01*
X5547857Y-12589952D01*
X5566905Y-12599476D01*
X5605000Y-12599476D01*
X5624048Y-12589952D01*
X5633571Y-12580428D01*
X5643095Y-12561381D01*
X5643095Y-12523286D01*
X5633571Y-12504238D01*
X5624048Y-12494714D01*
X5605000Y-12485190D01*
X5766905Y-12399476D02*
X5785952Y-12399476D01*
X5805000Y-12409000D01*
X5814524Y-12418524D01*
X5824048Y-12437571D01*
X5833571Y-12475667D01*
X5833571Y-12523286D01*
X5824048Y-12561381D01*
X5814524Y-12580428D01*
X5805000Y-12589952D01*
X5785952Y-12599476D01*
X5766905Y-12599476D01*
X5747857Y-12589952D01*
X5738333Y-12580428D01*
X5728809Y-12561381D01*
X5719286Y-12523286D01*
X5719286Y-12475667D01*
X5728809Y-12437571D01*
X5738333Y-12418524D01*
X5747857Y-12409000D01*
X5766905Y-12399476D01*
X5957381Y-12399476D02*
X5976428Y-12399476D01*
X5995476Y-12409000D01*
X6005000Y-12418524D01*
X6014524Y-12437571D01*
X6024048Y-12475667D01*
X6024048Y-12523286D01*
X6014524Y-12561381D01*
X6005000Y-12580428D01*
X5995476Y-12589952D01*
X5976428Y-12599476D01*
X5957381Y-12599476D01*
X5938333Y-12589952D01*
X5928809Y-12580428D01*
X5919286Y-12561381D01*
X5909762Y-12523286D01*
X5909762Y-12475667D01*
X5919286Y-12437571D01*
X5928809Y-12418524D01*
X5938333Y-12409000D01*
X5957381Y-12399476D01*
X6109762Y-12599476D02*
X6109762Y-12466143D01*
X6109762Y-12485190D02*
X6119286Y-12475667D01*
X6138333Y-12466143D01*
X6166905Y-12466143D01*
X6185952Y-12475667D01*
X6195476Y-12494714D01*
X6195476Y-12599476D01*
X6195476Y-12494714D02*
X6205000Y-12475667D01*
X6224048Y-12466143D01*
X6252619Y-12466143D01*
X6271667Y-12475667D01*
X6281190Y-12494714D01*
X6281190Y-12599476D01*
X6376428Y-12599476D02*
X6376428Y-12466143D01*
X6376428Y-12485190D02*
X6385952Y-12475667D01*
X6405000Y-12466143D01*
X6433571Y-12466143D01*
X6452619Y-12475667D01*
X6462143Y-12494714D01*
X6462143Y-12599476D01*
X6462143Y-12494714D02*
X6471667Y-12475667D01*
X6490714Y-12466143D01*
X6519286Y-12466143D01*
X6538333Y-12475667D01*
X6547857Y-12494714D01*
X6547857Y-12599476D01*
X6938333Y-12389952D02*
X6766905Y-12647095D01*
X7195476Y-12399476D02*
X7214524Y-12399476D01*
X7233571Y-12409000D01*
X7243095Y-12418524D01*
X7252619Y-12437571D01*
X7262143Y-12475667D01*
X7262143Y-12523286D01*
X7252619Y-12561381D01*
X7243095Y-12580428D01*
X7233571Y-12589952D01*
X7214524Y-12599476D01*
X7195476Y-12599476D01*
X7176428Y-12589952D01*
X7166905Y-12580428D01*
X7157381Y-12561381D01*
X7147857Y-12523286D01*
X7147857Y-12475667D01*
X7157381Y-12437571D01*
X7166905Y-12418524D01*
X7176428Y-12409000D01*
X7195476Y-12399476D01*
X7347857Y-12580428D02*
X7357381Y-12589952D01*
X7347857Y-12599476D01*
X7338333Y-12589952D01*
X7347857Y-12580428D01*
X7347857Y-12599476D01*
X7481190Y-12399476D02*
X7500238Y-12399476D01*
X7519286Y-12409000D01*
X7528809Y-12418524D01*
X7538333Y-12437571D01*
X7547857Y-12475667D01*
X7547857Y-12523286D01*
X7538333Y-12561381D01*
X7528809Y-12580428D01*
X7519286Y-12589952D01*
X7500238Y-12599476D01*
X7481190Y-12599476D01*
X7462143Y-12589952D01*
X7452619Y-12580428D01*
X7443095Y-12561381D01*
X7433571Y-12523286D01*
X7433571Y-12475667D01*
X7443095Y-12437571D01*
X7452619Y-12418524D01*
X7462143Y-12409000D01*
X7481190Y-12399476D01*
X7614524Y-12399476D02*
X7738333Y-12399476D01*
X7671667Y-12475667D01*
X7700238Y-12475667D01*
X7719286Y-12485190D01*
X7728809Y-12494714D01*
X7738333Y-12513762D01*
X7738333Y-12561381D01*
X7728809Y-12580428D01*
X7719286Y-12589952D01*
X7700238Y-12599476D01*
X7643095Y-12599476D01*
X7624048Y-12589952D01*
X7614524Y-12580428D01*
X7928809Y-12599476D02*
X7814524Y-12599476D01*
X7871667Y-12599476D02*
X7871667Y-12399476D01*
X7852619Y-12428048D01*
X7833571Y-12447095D01*
X7814524Y-12456619D01*
X8109762Y-12399476D02*
X8014524Y-12399476D01*
X8005000Y-12494714D01*
X8014524Y-12485190D01*
X8033571Y-12475667D01*
X8081190Y-12475667D01*
X8100238Y-12485190D01*
X8109762Y-12494714D01*
X8119286Y-12513762D01*
X8119286Y-12561381D01*
X8109762Y-12580428D01*
X8100238Y-12589952D01*
X8081190Y-12599476D01*
X8033571Y-12599476D01*
X8014524Y-12589952D01*
X8005000Y-12580428D01*
X8195476Y-12399476D02*
X8195476Y-12437571D01*
X8271667Y-12399476D02*
X8271667Y-12437571D01*
X8566905Y-12675667D02*
X8557381Y-12666143D01*
X8538333Y-12637571D01*
X8528810Y-12618524D01*
X8519286Y-12589952D01*
X8509762Y-12542333D01*
X8509762Y-12504238D01*
X8519286Y-12456619D01*
X8528810Y-12428048D01*
X8538333Y-12409000D01*
X8557381Y-12380428D01*
X8566905Y-12370905D01*
X8728810Y-12466143D02*
X8728810Y-12599476D01*
X8681190Y-12389952D02*
X8633571Y-12532809D01*
X8757381Y-12532809D01*
X8985952Y-12599476D02*
X8985952Y-12399476D01*
X9071667Y-12599476D02*
X9071667Y-12494714D01*
X9062143Y-12475667D01*
X9043095Y-12466143D01*
X9014524Y-12466143D01*
X8995476Y-12475667D01*
X8985952Y-12485190D01*
X9195476Y-12599476D02*
X9176429Y-12589952D01*
X9166905Y-12580428D01*
X9157381Y-12561381D01*
X9157381Y-12504238D01*
X9166905Y-12485190D01*
X9176429Y-12475667D01*
X9195476Y-12466143D01*
X9224048Y-12466143D01*
X9243095Y-12475667D01*
X9252619Y-12485190D01*
X9262143Y-12504238D01*
X9262143Y-12561381D01*
X9252619Y-12580428D01*
X9243095Y-12589952D01*
X9224048Y-12599476D01*
X9195476Y-12599476D01*
X9376429Y-12599476D02*
X9357381Y-12589952D01*
X9347857Y-12570905D01*
X9347857Y-12399476D01*
X9528810Y-12589952D02*
X9509762Y-12599476D01*
X9471667Y-12599476D01*
X9452619Y-12589952D01*
X9443095Y-12570905D01*
X9443095Y-12494714D01*
X9452619Y-12475667D01*
X9471667Y-12466143D01*
X9509762Y-12466143D01*
X9528810Y-12475667D01*
X9538333Y-12494714D01*
X9538333Y-12513762D01*
X9443095Y-12532809D01*
X9614524Y-12589952D02*
X9633571Y-12599476D01*
X9671667Y-12599476D01*
X9690714Y-12589952D01*
X9700238Y-12570905D01*
X9700238Y-12561381D01*
X9690714Y-12542333D01*
X9671667Y-12532809D01*
X9643095Y-12532809D01*
X9624048Y-12523286D01*
X9614524Y-12504238D01*
X9614524Y-12494714D01*
X9624048Y-12475667D01*
X9643095Y-12466143D01*
X9671667Y-12466143D01*
X9690714Y-12475667D01*
X9766905Y-12675667D02*
X9776429Y-12666143D01*
X9795476Y-12637571D01*
X9805000Y-12618524D01*
X9814524Y-12589952D01*
X9824048Y-12542333D01*
X9824048Y-12504238D01*
X9814524Y-12456619D01*
X9805000Y-12428048D01*
X9795476Y-12409000D01*
X9776429Y-12380428D01*
X9766905Y-12370905D01*
D14*
X4950000Y-12728000D02*
X4950000Y-12818000D01*
X4905000Y-12773000D02*
X4995000Y-12773000D01*
D11*
X5290714Y-12663476D02*
X5309762Y-12663476D01*
X5328810Y-12673000D01*
X5338333Y-12682524D01*
X5347857Y-12701571D01*
X5357381Y-12739667D01*
X5357381Y-12787286D01*
X5347857Y-12825381D01*
X5338333Y-12844428D01*
X5328810Y-12853952D01*
X5309762Y-12863476D01*
X5290714Y-12863476D01*
X5271667Y-12853952D01*
X5262143Y-12844428D01*
X5252619Y-12825381D01*
X5243095Y-12787286D01*
X5243095Y-12739667D01*
X5252619Y-12701571D01*
X5262143Y-12682524D01*
X5271667Y-12673000D01*
X5290714Y-12663476D01*
X5443095Y-12844428D02*
X5452619Y-12853952D01*
X5443095Y-12863476D01*
X5433571Y-12853952D01*
X5443095Y-12844428D01*
X5443095Y-12863476D01*
X5547857Y-12863476D02*
X5585952Y-12863476D01*
X5605000Y-12853952D01*
X5614524Y-12844428D01*
X5633571Y-12815857D01*
X5643095Y-12777762D01*
X5643095Y-12701571D01*
X5633571Y-12682524D01*
X5624048Y-12673000D01*
X5605000Y-12663476D01*
X5566905Y-12663476D01*
X5547857Y-12673000D01*
X5538333Y-12682524D01*
X5528810Y-12701571D01*
X5528810Y-12749190D01*
X5538333Y-12768238D01*
X5547857Y-12777762D01*
X5566905Y-12787286D01*
X5605000Y-12787286D01*
X5624048Y-12777762D01*
X5633571Y-12768238D01*
X5643095Y-12749190D01*
X5766905Y-12663476D02*
X5785952Y-12663476D01*
X5805000Y-12673000D01*
X5814524Y-12682524D01*
X5824048Y-12701571D01*
X5833571Y-12739667D01*
X5833571Y-12787286D01*
X5824048Y-12825381D01*
X5814524Y-12844428D01*
X5805000Y-12853952D01*
X5785952Y-12863476D01*
X5766905Y-12863476D01*
X5747857Y-12853952D01*
X5738333Y-12844428D01*
X5728809Y-12825381D01*
X5719286Y-12787286D01*
X5719286Y-12739667D01*
X5728809Y-12701571D01*
X5738333Y-12682524D01*
X5747857Y-12673000D01*
X5766905Y-12663476D01*
X5957381Y-12663476D02*
X5976428Y-12663476D01*
X5995476Y-12673000D01*
X6005000Y-12682524D01*
X6014524Y-12701571D01*
X6024048Y-12739667D01*
X6024048Y-12787286D01*
X6014524Y-12825381D01*
X6005000Y-12844428D01*
X5995476Y-12853952D01*
X5976428Y-12863476D01*
X5957381Y-12863476D01*
X5938333Y-12853952D01*
X5928809Y-12844428D01*
X5919286Y-12825381D01*
X5909762Y-12787286D01*
X5909762Y-12739667D01*
X5919286Y-12701571D01*
X5928809Y-12682524D01*
X5938333Y-12673000D01*
X5957381Y-12663476D01*
X6109762Y-12863476D02*
X6109762Y-12730143D01*
X6109762Y-12749190D02*
X6119286Y-12739667D01*
X6138333Y-12730143D01*
X6166905Y-12730143D01*
X6185952Y-12739667D01*
X6195476Y-12758714D01*
X6195476Y-12863476D01*
X6195476Y-12758714D02*
X6205000Y-12739667D01*
X6224048Y-12730143D01*
X6252619Y-12730143D01*
X6271667Y-12739667D01*
X6281190Y-12758714D01*
X6281190Y-12863476D01*
X6376428Y-12863476D02*
X6376428Y-12730143D01*
X6376428Y-12749190D02*
X6385952Y-12739667D01*
X6405000Y-12730143D01*
X6433571Y-12730143D01*
X6452619Y-12739667D01*
X6462143Y-12758714D01*
X6462143Y-12863476D01*
X6462143Y-12758714D02*
X6471667Y-12739667D01*
X6490714Y-12730143D01*
X6519286Y-12730143D01*
X6538333Y-12739667D01*
X6547857Y-12758714D01*
X6547857Y-12863476D01*
X6938333Y-12653952D02*
X6766905Y-12911095D01*
X7195476Y-12663476D02*
X7214524Y-12663476D01*
X7233571Y-12673000D01*
X7243095Y-12682524D01*
X7252619Y-12701571D01*
X7262143Y-12739667D01*
X7262143Y-12787286D01*
X7252619Y-12825381D01*
X7243095Y-12844428D01*
X7233571Y-12853952D01*
X7214524Y-12863476D01*
X7195476Y-12863476D01*
X7176428Y-12853952D01*
X7166905Y-12844428D01*
X7157381Y-12825381D01*
X7147857Y-12787286D01*
X7147857Y-12739667D01*
X7157381Y-12701571D01*
X7166905Y-12682524D01*
X7176428Y-12673000D01*
X7195476Y-12663476D01*
X7347857Y-12844428D02*
X7357381Y-12853952D01*
X7347857Y-12863476D01*
X7338333Y-12853952D01*
X7347857Y-12844428D01*
X7347857Y-12863476D01*
X7481190Y-12663476D02*
X7500238Y-12663476D01*
X7519286Y-12673000D01*
X7528809Y-12682524D01*
X7538333Y-12701571D01*
X7547857Y-12739667D01*
X7547857Y-12787286D01*
X7538333Y-12825381D01*
X7528809Y-12844428D01*
X7519286Y-12853952D01*
X7500238Y-12863476D01*
X7481190Y-12863476D01*
X7462143Y-12853952D01*
X7452619Y-12844428D01*
X7443095Y-12825381D01*
X7433571Y-12787286D01*
X7433571Y-12739667D01*
X7443095Y-12701571D01*
X7452619Y-12682524D01*
X7462143Y-12673000D01*
X7481190Y-12663476D01*
X7614524Y-12663476D02*
X7738333Y-12663476D01*
X7671667Y-12739667D01*
X7700238Y-12739667D01*
X7719286Y-12749190D01*
X7728809Y-12758714D01*
X7738333Y-12777762D01*
X7738333Y-12825381D01*
X7728809Y-12844428D01*
X7719286Y-12853952D01*
X7700238Y-12863476D01*
X7643095Y-12863476D01*
X7624048Y-12853952D01*
X7614524Y-12844428D01*
X7919286Y-12663476D02*
X7824048Y-12663476D01*
X7814524Y-12758714D01*
X7824048Y-12749190D01*
X7843095Y-12739667D01*
X7890714Y-12739667D01*
X7909762Y-12749190D01*
X7919286Y-12758714D01*
X7928809Y-12777762D01*
X7928809Y-12825381D01*
X7919286Y-12844428D01*
X7909762Y-12853952D01*
X7890714Y-12863476D01*
X7843095Y-12863476D01*
X7824048Y-12853952D01*
X7814524Y-12844428D01*
X8100238Y-12730143D02*
X8100238Y-12863476D01*
X8052619Y-12653952D02*
X8005000Y-12796809D01*
X8128809Y-12796809D01*
X8195476Y-12663476D02*
X8195476Y-12701571D01*
X8271667Y-12663476D02*
X8271667Y-12701571D01*
X8566905Y-12939667D02*
X8557381Y-12930143D01*
X8538333Y-12901571D01*
X8528810Y-12882524D01*
X8519286Y-12853952D01*
X8509762Y-12806333D01*
X8509762Y-12768238D01*
X8519286Y-12720619D01*
X8528810Y-12692048D01*
X8538333Y-12673000D01*
X8557381Y-12644428D01*
X8566905Y-12634905D01*
X8728810Y-12730143D02*
X8728810Y-12863476D01*
X8681190Y-12653952D02*
X8633571Y-12796809D01*
X8757381Y-12796809D01*
X8985952Y-12863476D02*
X8985952Y-12663476D01*
X9071667Y-12863476D02*
X9071667Y-12758714D01*
X9062143Y-12739667D01*
X9043095Y-12730143D01*
X9014524Y-12730143D01*
X8995476Y-12739667D01*
X8985952Y-12749190D01*
X9195476Y-12863476D02*
X9176429Y-12853952D01*
X9166905Y-12844428D01*
X9157381Y-12825381D01*
X9157381Y-12768238D01*
X9166905Y-12749190D01*
X9176429Y-12739667D01*
X9195476Y-12730143D01*
X9224048Y-12730143D01*
X9243095Y-12739667D01*
X9252619Y-12749190D01*
X9262143Y-12768238D01*
X9262143Y-12825381D01*
X9252619Y-12844428D01*
X9243095Y-12853952D01*
X9224048Y-12863476D01*
X9195476Y-12863476D01*
X9376429Y-12863476D02*
X9357381Y-12853952D01*
X9347857Y-12834905D01*
X9347857Y-12663476D01*
X9528810Y-12853952D02*
X9509762Y-12863476D01*
X9471667Y-12863476D01*
X9452619Y-12853952D01*
X9443095Y-12834905D01*
X9443095Y-12758714D01*
X9452619Y-12739667D01*
X9471667Y-12730143D01*
X9509762Y-12730143D01*
X9528810Y-12739667D01*
X9538333Y-12758714D01*
X9538333Y-12777762D01*
X9443095Y-12796809D01*
X9614524Y-12853952D02*
X9633571Y-12863476D01*
X9671667Y-12863476D01*
X9690714Y-12853952D01*
X9700238Y-12834905D01*
X9700238Y-12825381D01*
X9690714Y-12806333D01*
X9671667Y-12796809D01*
X9643095Y-12796809D01*
X9624048Y-12787286D01*
X9614524Y-12768238D01*
X9614524Y-12758714D01*
X9624048Y-12739667D01*
X9643095Y-12730143D01*
X9671667Y-12730143D01*
X9690714Y-12739667D01*
X9766905Y-12939667D02*
X9776429Y-12930143D01*
X9795476Y-12901571D01*
X9805000Y-12882524D01*
X9814524Y-12853952D01*
X9824048Y-12806333D01*
X9824048Y-12768238D01*
X9814524Y-12720619D01*
X9805000Y-12692048D01*
X9795476Y-12673000D01*
X9776429Y-12644428D01*
X9766905Y-12634905D01*
D10*
X4980356Y-13072356D02*
X4980356Y-13001644D01*
X4909644Y-13001644D01*
X4909644Y-13072356D01*
X4980356Y-13072356D01*
D11*
X5357381Y-13127476D02*
X5243095Y-13127476D01*
X5300238Y-13127476D02*
X5300238Y-12927476D01*
X5281190Y-12956048D01*
X5262143Y-12975095D01*
X5243095Y-12984619D01*
X5443095Y-13108428D02*
X5452619Y-13117952D01*
X5443095Y-13127476D01*
X5433571Y-13117952D01*
X5443095Y-13108428D01*
X5443095Y-13127476D01*
X5576429Y-12927476D02*
X5595476Y-12927476D01*
X5614524Y-12937000D01*
X5624048Y-12946524D01*
X5633571Y-12965571D01*
X5643095Y-13003667D01*
X5643095Y-13051286D01*
X5633571Y-13089381D01*
X5624048Y-13108428D01*
X5614524Y-13117952D01*
X5595476Y-13127476D01*
X5576429Y-13127476D01*
X5557381Y-13117952D01*
X5547857Y-13108428D01*
X5538333Y-13089381D01*
X5528810Y-13051286D01*
X5528810Y-13003667D01*
X5538333Y-12965571D01*
X5547857Y-12946524D01*
X5557381Y-12937000D01*
X5576429Y-12927476D01*
X5766905Y-12927476D02*
X5785952Y-12927476D01*
X5805000Y-12937000D01*
X5814524Y-12946524D01*
X5824048Y-12965571D01*
X5833571Y-13003667D01*
X5833571Y-13051286D01*
X5824048Y-13089381D01*
X5814524Y-13108428D01*
X5805000Y-13117952D01*
X5785952Y-13127476D01*
X5766905Y-13127476D01*
X5747857Y-13117952D01*
X5738333Y-13108428D01*
X5728809Y-13089381D01*
X5719286Y-13051286D01*
X5719286Y-13003667D01*
X5728809Y-12965571D01*
X5738333Y-12946524D01*
X5747857Y-12937000D01*
X5766905Y-12927476D01*
X5957381Y-12927476D02*
X5976428Y-12927476D01*
X5995476Y-12937000D01*
X6005000Y-12946524D01*
X6014524Y-12965571D01*
X6024048Y-13003667D01*
X6024048Y-13051286D01*
X6014524Y-13089381D01*
X6005000Y-13108428D01*
X5995476Y-13117952D01*
X5976428Y-13127476D01*
X5957381Y-13127476D01*
X5938333Y-13117952D01*
X5928809Y-13108428D01*
X5919286Y-13089381D01*
X5909762Y-13051286D01*
X5909762Y-13003667D01*
X5919286Y-12965571D01*
X5928809Y-12946524D01*
X5938333Y-12937000D01*
X5957381Y-12927476D01*
X6109762Y-13127476D02*
X6109762Y-12994143D01*
X6109762Y-13013190D02*
X6119286Y-13003667D01*
X6138333Y-12994143D01*
X6166905Y-12994143D01*
X6185952Y-13003667D01*
X6195476Y-13022714D01*
X6195476Y-13127476D01*
X6195476Y-13022714D02*
X6205000Y-13003667D01*
X6224048Y-12994143D01*
X6252619Y-12994143D01*
X6271667Y-13003667D01*
X6281190Y-13022714D01*
X6281190Y-13127476D01*
X6376428Y-13127476D02*
X6376428Y-12994143D01*
X6376428Y-13013190D02*
X6385952Y-13003667D01*
X6405000Y-12994143D01*
X6433571Y-12994143D01*
X6452619Y-13003667D01*
X6462143Y-13022714D01*
X6462143Y-13127476D01*
X6462143Y-13022714D02*
X6471667Y-13003667D01*
X6490714Y-12994143D01*
X6519286Y-12994143D01*
X6538333Y-13003667D01*
X6547857Y-13022714D01*
X6547857Y-13127476D01*
X6938333Y-12917952D02*
X6766905Y-13175095D01*
X7195476Y-12927476D02*
X7214524Y-12927476D01*
X7233571Y-12937000D01*
X7243095Y-12946524D01*
X7252619Y-12965571D01*
X7262143Y-13003667D01*
X7262143Y-13051286D01*
X7252619Y-13089381D01*
X7243095Y-13108428D01*
X7233571Y-13117952D01*
X7214524Y-13127476D01*
X7195476Y-13127476D01*
X7176428Y-13117952D01*
X7166905Y-13108428D01*
X7157381Y-13089381D01*
X7147857Y-13051286D01*
X7147857Y-13003667D01*
X7157381Y-12965571D01*
X7166905Y-12946524D01*
X7176428Y-12937000D01*
X7195476Y-12927476D01*
X7347857Y-13108428D02*
X7357381Y-13117952D01*
X7347857Y-13127476D01*
X7338333Y-13117952D01*
X7347857Y-13108428D01*
X7347857Y-13127476D01*
X7481190Y-12927476D02*
X7500238Y-12927476D01*
X7519286Y-12937000D01*
X7528809Y-12946524D01*
X7538333Y-12965571D01*
X7547857Y-13003667D01*
X7547857Y-13051286D01*
X7538333Y-13089381D01*
X7528809Y-13108428D01*
X7519286Y-13117952D01*
X7500238Y-13127476D01*
X7481190Y-13127476D01*
X7462143Y-13117952D01*
X7452619Y-13108428D01*
X7443095Y-13089381D01*
X7433571Y-13051286D01*
X7433571Y-13003667D01*
X7443095Y-12965571D01*
X7452619Y-12946524D01*
X7462143Y-12937000D01*
X7481190Y-12927476D01*
X7614524Y-12927476D02*
X7738333Y-12927476D01*
X7671667Y-13003667D01*
X7700238Y-13003667D01*
X7719286Y-13013190D01*
X7728809Y-13022714D01*
X7738333Y-13041762D01*
X7738333Y-13089381D01*
X7728809Y-13108428D01*
X7719286Y-13117952D01*
X7700238Y-13127476D01*
X7643095Y-13127476D01*
X7624048Y-13117952D01*
X7614524Y-13108428D01*
X7833571Y-13127476D02*
X7871667Y-13127476D01*
X7890714Y-13117952D01*
X7900238Y-13108428D01*
X7919286Y-13079857D01*
X7928809Y-13041762D01*
X7928809Y-12965571D01*
X7919286Y-12946524D01*
X7909762Y-12937000D01*
X7890714Y-12927476D01*
X7852619Y-12927476D01*
X7833571Y-12937000D01*
X7824048Y-12946524D01*
X7814524Y-12965571D01*
X7814524Y-13013190D01*
X7824048Y-13032238D01*
X7833571Y-13041762D01*
X7852619Y-13051286D01*
X7890714Y-13051286D01*
X7909762Y-13041762D01*
X7919286Y-13032238D01*
X7928809Y-13013190D01*
X8100238Y-12994143D02*
X8100238Y-13127476D01*
X8052619Y-12917952D02*
X8005000Y-13060809D01*
X8128809Y-13060809D01*
X8195476Y-12927476D02*
X8195476Y-12965571D01*
X8271667Y-12927476D02*
X8271667Y-12965571D01*
X8566905Y-13203667D02*
X8557381Y-13194143D01*
X8538333Y-13165571D01*
X8528810Y-13146524D01*
X8519286Y-13117952D01*
X8509762Y-13070333D01*
X8509762Y-13032238D01*
X8519286Y-12984619D01*
X8528810Y-12956048D01*
X8538333Y-12937000D01*
X8557381Y-12908428D01*
X8566905Y-12898905D01*
X8728810Y-12994143D02*
X8728810Y-13127476D01*
X8681190Y-12917952D02*
X8633571Y-13060809D01*
X8757381Y-13060809D01*
X8824048Y-12946524D02*
X8833571Y-12937000D01*
X8852619Y-12927476D01*
X8900238Y-12927476D01*
X8919286Y-12937000D01*
X8928810Y-12946524D01*
X8938333Y-12965571D01*
X8938333Y-12984619D01*
X8928810Y-13013190D01*
X8814524Y-13127476D01*
X8938333Y-13127476D01*
X9176429Y-13127476D02*
X9176429Y-12927476D01*
X9262143Y-13127476D02*
X9262143Y-13022714D01*
X9252619Y-13003667D01*
X9233571Y-12994143D01*
X9205000Y-12994143D01*
X9185952Y-13003667D01*
X9176429Y-13013190D01*
X9385952Y-13127476D02*
X9366905Y-13117952D01*
X9357381Y-13108428D01*
X9347857Y-13089381D01*
X9347857Y-13032238D01*
X9357381Y-13013190D01*
X9366905Y-13003667D01*
X9385952Y-12994143D01*
X9414524Y-12994143D01*
X9433571Y-13003667D01*
X9443095Y-13013190D01*
X9452619Y-13032238D01*
X9452619Y-13089381D01*
X9443095Y-13108428D01*
X9433571Y-13117952D01*
X9414524Y-13127476D01*
X9385952Y-13127476D01*
X9566905Y-13127476D02*
X9547857Y-13117952D01*
X9538333Y-13098905D01*
X9538333Y-12927476D01*
X9719286Y-13117952D02*
X9700238Y-13127476D01*
X9662143Y-13127476D01*
X9643095Y-13117952D01*
X9633571Y-13098905D01*
X9633571Y-13022714D01*
X9643095Y-13003667D01*
X9662143Y-12994143D01*
X9700238Y-12994143D01*
X9719286Y-13003667D01*
X9728810Y-13022714D01*
X9728810Y-13041762D01*
X9633571Y-13060809D01*
X9805000Y-13117952D02*
X9824048Y-13127476D01*
X9862143Y-13127476D01*
X9881190Y-13117952D01*
X9890714Y-13098905D01*
X9890714Y-13089381D01*
X9881190Y-13070333D01*
X9862143Y-13060809D01*
X9833571Y-13060809D01*
X9814524Y-13051286D01*
X9805000Y-13032238D01*
X9805000Y-13022714D01*
X9814524Y-13003667D01*
X9833571Y-12994143D01*
X9862143Y-12994143D01*
X9881190Y-13003667D01*
X9957381Y-13203667D02*
X9966905Y-13194143D01*
X9985952Y-13165571D01*
X9995476Y-13146524D01*
X10005000Y-13117952D01*
X10014524Y-13070333D01*
X10014524Y-13032238D01*
X10005000Y-12984619D01*
X9995476Y-12956048D01*
X9985952Y-12937000D01*
X9966905Y-12908428D01*
X9957381Y-12898905D01*
M02*
