G04 #@! TF.GenerationSoftware,KiCad,Pcbnew,(6.0.9-0)*
G04 #@! TF.CreationDate,2024-08-31T06:56:55+09:00*
G04 #@! TF.ProjectId,LEDHat,4c454448-6174-42e6-9b69-6361645f7063,rev?*
G04 #@! TF.SameCoordinates,Original*
G04 #@! TF.FileFunction,Copper,L2,Bot*
G04 #@! TF.FilePolarity,Positive*
%FSLAX46Y46*%
G04 Gerber Fmt 4.6, Leading zero omitted, Abs format (unit mm)*
G04 Created by KiCad (PCBNEW (6.0.9-0)) date 2024-08-31 06:56:55*
%MOMM*%
%LPD*%
G01*
G04 APERTURE LIST*
G04 Aperture macros list*
%AMRoundRect*
0 Rectangle with rounded corners*
0 $1 Rounding radius*
0 $2 $3 $4 $5 $6 $7 $8 $9 X,Y pos of 4 corners*
0 Add a 4 corners polygon primitive as box body*
4,1,4,$2,$3,$4,$5,$6,$7,$8,$9,$2,$3,0*
0 Add four circle primitives for the rounded corners*
1,1,$1+$1,$2,$3*
1,1,$1+$1,$4,$5*
1,1,$1+$1,$6,$7*
1,1,$1+$1,$8,$9*
0 Add four rect primitives between the rounded corners*
20,1,$1+$1,$2,$3,$4,$5,0*
20,1,$1+$1,$4,$5,$6,$7,0*
20,1,$1+$1,$6,$7,$8,$9,0*
20,1,$1+$1,$8,$9,$2,$3,0*%
G04 Aperture macros list end*
G04 #@! TA.AperFunction,ComponentPad*
%ADD10RoundRect,0.450000X0.450000X-0.450000X0.450000X0.450000X-0.450000X0.450000X-0.450000X-0.450000X0*%
G04 #@! TD*
G04 #@! TA.AperFunction,ComponentPad*
%ADD11C,1.800000*%
G04 #@! TD*
G04 #@! TA.AperFunction,ComponentPad*
%ADD12O,1.700000X1.700000*%
G04 #@! TD*
G04 #@! TA.AperFunction,ComponentPad*
%ADD13R,1.700000X1.700000*%
G04 #@! TD*
G04 #@! TA.AperFunction,ComponentPad*
%ADD14C,1.600000*%
G04 #@! TD*
G04 #@! TA.AperFunction,ComponentPad*
%ADD15O,1.600000X1.600000*%
G04 #@! TD*
G04 #@! TA.AperFunction,ViaPad*
%ADD16C,0.800000*%
G04 #@! TD*
G04 #@! TA.AperFunction,Conductor*
%ADD17C,0.500000*%
G04 #@! TD*
G04 #@! TA.AperFunction,Conductor*
%ADD18C,0.600000*%
G04 #@! TD*
G04 APERTURE END LIST*
D10*
X109740000Y-103910000D03*
D11*
X111264000Y-102132000D03*
X109740000Y-100608000D03*
X111264000Y-99084000D03*
D12*
X61375000Y-70735000D03*
D13*
X61375000Y-73275000D03*
D14*
X52000000Y-103810000D03*
D15*
X52000000Y-96190000D03*
D14*
X53500000Y-79500000D03*
D15*
X53500000Y-87120000D03*
D13*
X58400000Y-64790000D03*
D12*
X58400000Y-62250000D03*
X60940000Y-64790000D03*
X60940000Y-62250000D03*
X63480000Y-64790000D03*
X63480000Y-62250000D03*
X66020000Y-64790000D03*
X66020000Y-62250000D03*
X68560000Y-64790000D03*
X68560000Y-62250000D03*
X71100000Y-64790000D03*
X71100000Y-62250000D03*
X73640000Y-64790000D03*
X73640000Y-62250000D03*
X76180000Y-64790000D03*
X76180000Y-62250000D03*
X78720000Y-64790000D03*
X78720000Y-62250000D03*
X81260000Y-64790000D03*
X81260000Y-62250000D03*
X83800000Y-64790000D03*
X83800000Y-62250000D03*
X86340000Y-64790000D03*
X86340000Y-62250000D03*
X88880000Y-64790000D03*
X88880000Y-62250000D03*
X91420000Y-64790000D03*
X91420000Y-62250000D03*
X93960000Y-64790000D03*
X93960000Y-62250000D03*
X96500000Y-64790000D03*
X96500000Y-62250000D03*
X99040000Y-64790000D03*
X99040000Y-62250000D03*
X101580000Y-64790000D03*
X101580000Y-62250000D03*
X104120000Y-64790000D03*
X104120000Y-62250000D03*
X106660000Y-64790000D03*
X106660000Y-62250000D03*
D16*
X92500000Y-75500000D03*
X56000000Y-67000000D03*
X71000000Y-76000000D03*
X110000000Y-68000000D03*
X106000000Y-69000000D03*
X84000000Y-73500000D03*
X107500000Y-92500000D03*
X61000000Y-79000000D03*
X100500000Y-68000000D03*
X73000000Y-71500000D03*
X58500000Y-92500000D03*
X60000000Y-103000000D03*
X56500000Y-95500000D03*
X81000000Y-112000000D03*
X70000000Y-109000000D03*
X70000000Y-112000000D03*
X99500000Y-104500000D03*
X56500000Y-82500000D03*
X102000000Y-97500000D03*
X60000000Y-83500000D03*
X106500000Y-97500000D03*
X57500000Y-103000000D03*
X59500000Y-106500000D03*
X78500000Y-71000000D03*
X92500000Y-111500000D03*
X89500000Y-70000000D03*
X100500000Y-89000000D03*
X56000000Y-92500000D03*
X94500000Y-70500000D03*
X104500000Y-78500000D03*
X80000000Y-68000000D03*
X114000000Y-74500000D03*
X111000000Y-85500000D03*
X111000000Y-76000000D03*
D17*
X105790000Y-69000000D02*
X101580000Y-64790000D01*
X106000000Y-69000000D02*
X105790000Y-69000000D01*
D18*
X84000000Y-73500000D02*
X97450000Y-73500000D01*
X97450000Y-73500000D02*
X100500000Y-76550000D01*
X104500000Y-95500000D02*
X104500000Y-98670000D01*
X104500000Y-98670000D02*
X109740000Y-103910000D01*
X107500000Y-92500000D02*
X104500000Y-95500000D01*
X96500000Y-70500000D02*
X94500000Y-70500000D01*
X104500000Y-78500000D02*
X96500000Y-70500000D01*
X95830000Y-68000000D02*
X80000000Y-68000000D01*
X99040000Y-64790000D02*
X95830000Y-68000000D01*
X112500000Y-76000000D02*
X114000000Y-74500000D01*
X100500000Y-76550000D02*
X100500000Y-82000000D01*
X104000000Y-85500000D02*
X111000000Y-85500000D01*
X100500000Y-82000000D02*
X104000000Y-85500000D01*
X111000000Y-76000000D02*
X112500000Y-76000000D01*
G04 #@! TA.AperFunction,Conductor*
G36*
X111470018Y-60510000D02*
G01*
X111484851Y-60512310D01*
X111484855Y-60512310D01*
X111493724Y-60513691D01*
X111512436Y-60511244D01*
X111535366Y-60510353D01*
X111806103Y-60524542D01*
X111819209Y-60525919D01*
X112034134Y-60559960D01*
X112115445Y-60572838D01*
X112128345Y-60575580D01*
X112273196Y-60614392D01*
X112418052Y-60653207D01*
X112430586Y-60657279D01*
X112710587Y-60764762D01*
X112722635Y-60770126D01*
X112989870Y-60906289D01*
X113001286Y-60912880D01*
X113252832Y-61076236D01*
X113263492Y-61083982D01*
X113301300Y-61114598D01*
X113496573Y-61272727D01*
X113506374Y-61281552D01*
X113718448Y-61493626D01*
X113727273Y-61503427D01*
X113887916Y-61701804D01*
X113916016Y-61736505D01*
X113923764Y-61747168D01*
X114084429Y-61994570D01*
X114087117Y-61998709D01*
X114093711Y-62010130D01*
X114229874Y-62277365D01*
X114235237Y-62289412D01*
X114330689Y-62538069D01*
X114342719Y-62569409D01*
X114346793Y-62581948D01*
X114367075Y-62657639D01*
X114424420Y-62871655D01*
X114427162Y-62884555D01*
X114474080Y-63180785D01*
X114475458Y-63193902D01*
X114489262Y-63457299D01*
X114487935Y-63483276D01*
X114487691Y-63484846D01*
X114487691Y-63484850D01*
X114486309Y-63493724D01*
X114487473Y-63502626D01*
X114487473Y-63502628D01*
X114490436Y-63525283D01*
X114491500Y-63541621D01*
X114491500Y-73530330D01*
X114471498Y-73598451D01*
X114417842Y-73644944D01*
X114347568Y-73655048D01*
X114314252Y-73645437D01*
X114282288Y-73631206D01*
X114188888Y-73611353D01*
X114101944Y-73592872D01*
X114101939Y-73592872D01*
X114095487Y-73591500D01*
X113904513Y-73591500D01*
X113898061Y-73592872D01*
X113898056Y-73592872D01*
X113811112Y-73611353D01*
X113717712Y-73631206D01*
X113711682Y-73633891D01*
X113711681Y-73633891D01*
X113549278Y-73706197D01*
X113549276Y-73706198D01*
X113543248Y-73708882D01*
X113388747Y-73821134D01*
X113260960Y-73963056D01*
X113165473Y-74128444D01*
X113163431Y-74134729D01*
X113144647Y-74192540D01*
X113113909Y-74242700D01*
X112202012Y-75154596D01*
X112139700Y-75188621D01*
X112112917Y-75191500D01*
X111444494Y-75191500D01*
X111393245Y-75180607D01*
X111288319Y-75133891D01*
X111288318Y-75133891D01*
X111282288Y-75131206D01*
X111188888Y-75111353D01*
X111101944Y-75092872D01*
X111101939Y-75092872D01*
X111095487Y-75091500D01*
X110904513Y-75091500D01*
X110898061Y-75092872D01*
X110898056Y-75092872D01*
X110811112Y-75111353D01*
X110717712Y-75131206D01*
X110711682Y-75133891D01*
X110711681Y-75133891D01*
X110549278Y-75206197D01*
X110549276Y-75206198D01*
X110543248Y-75208882D01*
X110388747Y-75321134D01*
X110384326Y-75326044D01*
X110384325Y-75326045D01*
X110343965Y-75370870D01*
X110260960Y-75463056D01*
X110165473Y-75628444D01*
X110106458Y-75810072D01*
X110086496Y-76000000D01*
X110106458Y-76189928D01*
X110165473Y-76371556D01*
X110260960Y-76536944D01*
X110265378Y-76541851D01*
X110265379Y-76541852D01*
X110375345Y-76663982D01*
X110388747Y-76678866D01*
X110469377Y-76737447D01*
X110517773Y-76772609D01*
X110543248Y-76791118D01*
X110549276Y-76793802D01*
X110549278Y-76793803D01*
X110670978Y-76847987D01*
X110717712Y-76868794D01*
X110793447Y-76884892D01*
X110898056Y-76907128D01*
X110898061Y-76907128D01*
X110904513Y-76908500D01*
X111095487Y-76908500D01*
X111101939Y-76907128D01*
X111101944Y-76907128D01*
X111206553Y-76884892D01*
X111282288Y-76868794D01*
X111329022Y-76847987D01*
X111393245Y-76819393D01*
X111444494Y-76808500D01*
X112490786Y-76808500D01*
X112492106Y-76808507D01*
X112582221Y-76809451D01*
X112624597Y-76800289D01*
X112637163Y-76798231D01*
X112680255Y-76793397D01*
X112686906Y-76791081D01*
X112686910Y-76791080D01*
X112711930Y-76782367D01*
X112726742Y-76778204D01*
X112752619Y-76772609D01*
X112759510Y-76771119D01*
X112798813Y-76752792D01*
X112810589Y-76748010D01*
X112851552Y-76733745D01*
X112857527Y-76730011D01*
X112857530Y-76730010D01*
X112879995Y-76715973D01*
X112893512Y-76708634D01*
X112917514Y-76697441D01*
X112917515Y-76697440D01*
X112923902Y-76694462D01*
X112958153Y-76667894D01*
X112968612Y-76660598D01*
X112999404Y-76641358D01*
X112999407Y-76641356D01*
X113005376Y-76637626D01*
X113034179Y-76609024D01*
X113034804Y-76608439D01*
X113035470Y-76607922D01*
X113061460Y-76581932D01*
X113134082Y-76509815D01*
X113134740Y-76508778D01*
X113135843Y-76507549D01*
X114251912Y-75391480D01*
X114289758Y-75365468D01*
X114314252Y-75354563D01*
X114384618Y-75345129D01*
X114448915Y-75375235D01*
X114486729Y-75435324D01*
X114491500Y-75469670D01*
X114491500Y-112450633D01*
X114490000Y-112470018D01*
X114487690Y-112484851D01*
X114487690Y-112484855D01*
X114486309Y-112493724D01*
X114488135Y-112507683D01*
X114488756Y-112512433D01*
X114489647Y-112535366D01*
X114483166Y-112659036D01*
X114475458Y-112806099D01*
X114474080Y-112819215D01*
X114427162Y-113115445D01*
X114424420Y-113128345D01*
X114346795Y-113418047D01*
X114342721Y-113430586D01*
X114325592Y-113475208D01*
X114235238Y-113710587D01*
X114229874Y-113722635D01*
X114093711Y-113989870D01*
X114087120Y-114001286D01*
X113923764Y-114252832D01*
X113916018Y-114263492D01*
X113882173Y-114305287D01*
X113727273Y-114496573D01*
X113718448Y-114506374D01*
X113506374Y-114718448D01*
X113496573Y-114727273D01*
X113263495Y-114916016D01*
X113252832Y-114923764D01*
X113001286Y-115087120D01*
X112989870Y-115093711D01*
X112722635Y-115229874D01*
X112710588Y-115235237D01*
X112430586Y-115342721D01*
X112418052Y-115346793D01*
X112273196Y-115385608D01*
X112128345Y-115424420D01*
X112115445Y-115427162D01*
X112034134Y-115440040D01*
X111819209Y-115474081D01*
X111806101Y-115475458D01*
X111730937Y-115479397D01*
X111542701Y-115489262D01*
X111516724Y-115487935D01*
X111515154Y-115487691D01*
X111515150Y-115487691D01*
X111506276Y-115486309D01*
X111497374Y-115487473D01*
X111497372Y-115487473D01*
X111482323Y-115489441D01*
X111474714Y-115490436D01*
X111458379Y-115491500D01*
X53549367Y-115491500D01*
X53529982Y-115490000D01*
X53515149Y-115487690D01*
X53515145Y-115487690D01*
X53506276Y-115486309D01*
X53487564Y-115488756D01*
X53464634Y-115489647D01*
X53193897Y-115475458D01*
X53180791Y-115474081D01*
X52965866Y-115440040D01*
X52884555Y-115427162D01*
X52871655Y-115424420D01*
X52726804Y-115385608D01*
X52581948Y-115346793D01*
X52569414Y-115342721D01*
X52289412Y-115235237D01*
X52277365Y-115229874D01*
X52010130Y-115093711D01*
X51998714Y-115087120D01*
X51747168Y-114923764D01*
X51736505Y-114916016D01*
X51503427Y-114727273D01*
X51493626Y-114718448D01*
X51281552Y-114506374D01*
X51272727Y-114496573D01*
X51117827Y-114305287D01*
X51083982Y-114263492D01*
X51076236Y-114252832D01*
X50912880Y-114001286D01*
X50906289Y-113989870D01*
X50770126Y-113722635D01*
X50764762Y-113710587D01*
X50674408Y-113475208D01*
X50657279Y-113430586D01*
X50653205Y-113418047D01*
X50575580Y-113128345D01*
X50572838Y-113115445D01*
X50525920Y-112819215D01*
X50524542Y-112806098D01*
X50515455Y-112632703D01*
X51390743Y-112632703D01*
X51428268Y-112917734D01*
X51504129Y-113195036D01*
X51616923Y-113459476D01*
X51764561Y-113706161D01*
X51944313Y-113930528D01*
X52152851Y-114128423D01*
X52386317Y-114296186D01*
X52390112Y-114298195D01*
X52390113Y-114298196D01*
X52411869Y-114309715D01*
X52640392Y-114430712D01*
X52910373Y-114529511D01*
X53191264Y-114590755D01*
X53219841Y-114593004D01*
X53414282Y-114608307D01*
X53414291Y-114608307D01*
X53416739Y-114608500D01*
X53572271Y-114608500D01*
X53574407Y-114608354D01*
X53574418Y-114608354D01*
X53782548Y-114594165D01*
X53782554Y-114594164D01*
X53786825Y-114593873D01*
X53791020Y-114593004D01*
X53791022Y-114593004D01*
X53927583Y-114564724D01*
X54068342Y-114535574D01*
X54339343Y-114439607D01*
X54594812Y-114307750D01*
X54598313Y-114305289D01*
X54598317Y-114305287D01*
X54712417Y-114225096D01*
X54830023Y-114142441D01*
X55040622Y-113946740D01*
X55222713Y-113724268D01*
X55372927Y-113479142D01*
X55488483Y-113215898D01*
X55567244Y-112939406D01*
X55607751Y-112654784D01*
X55607845Y-112636951D01*
X55607867Y-112632703D01*
X109390743Y-112632703D01*
X109428268Y-112917734D01*
X109504129Y-113195036D01*
X109616923Y-113459476D01*
X109764561Y-113706161D01*
X109944313Y-113930528D01*
X110152851Y-114128423D01*
X110386317Y-114296186D01*
X110390112Y-114298195D01*
X110390113Y-114298196D01*
X110411869Y-114309715D01*
X110640392Y-114430712D01*
X110910373Y-114529511D01*
X111191264Y-114590755D01*
X111219841Y-114593004D01*
X111414282Y-114608307D01*
X111414291Y-114608307D01*
X111416739Y-114608500D01*
X111572271Y-114608500D01*
X111574407Y-114608354D01*
X111574418Y-114608354D01*
X111782548Y-114594165D01*
X111782554Y-114594164D01*
X111786825Y-114593873D01*
X111791020Y-114593004D01*
X111791022Y-114593004D01*
X111927583Y-114564724D01*
X112068342Y-114535574D01*
X112339343Y-114439607D01*
X112594812Y-114307750D01*
X112598313Y-114305289D01*
X112598317Y-114305287D01*
X112712417Y-114225096D01*
X112830023Y-114142441D01*
X113040622Y-113946740D01*
X113222713Y-113724268D01*
X113372927Y-113479142D01*
X113488483Y-113215898D01*
X113567244Y-112939406D01*
X113607751Y-112654784D01*
X113607845Y-112636951D01*
X113609235Y-112371583D01*
X113609235Y-112371576D01*
X113609257Y-112367297D01*
X113571732Y-112082266D01*
X113495871Y-111804964D01*
X113411006Y-111606001D01*
X113384763Y-111544476D01*
X113384761Y-111544472D01*
X113383077Y-111540524D01*
X113235439Y-111293839D01*
X113055687Y-111069472D01*
X112847149Y-110871577D01*
X112613683Y-110703814D01*
X112591843Y-110692250D01*
X112568654Y-110679972D01*
X112359608Y-110569288D01*
X112159429Y-110496033D01*
X112093658Y-110471964D01*
X112093656Y-110471963D01*
X112089627Y-110470489D01*
X111808736Y-110409245D01*
X111777685Y-110406801D01*
X111585718Y-110391693D01*
X111585709Y-110391693D01*
X111583261Y-110391500D01*
X111427729Y-110391500D01*
X111425593Y-110391646D01*
X111425582Y-110391646D01*
X111217452Y-110405835D01*
X111217446Y-110405836D01*
X111213175Y-110406127D01*
X111208980Y-110406996D01*
X111208978Y-110406996D01*
X111072417Y-110435276D01*
X110931658Y-110464426D01*
X110660657Y-110560393D01*
X110405188Y-110692250D01*
X110401687Y-110694711D01*
X110401683Y-110694713D01*
X110287582Y-110774905D01*
X110169977Y-110857559D01*
X109959378Y-111053260D01*
X109777287Y-111275732D01*
X109627073Y-111520858D01*
X109511517Y-111784102D01*
X109432756Y-112060594D01*
X109392249Y-112345216D01*
X109392227Y-112349505D01*
X109392226Y-112349512D01*
X109391195Y-112546410D01*
X109390743Y-112632703D01*
X55607867Y-112632703D01*
X55609235Y-112371583D01*
X55609235Y-112371576D01*
X55609257Y-112367297D01*
X55571732Y-112082266D01*
X55495871Y-111804964D01*
X55411006Y-111606001D01*
X55384763Y-111544476D01*
X55384761Y-111544472D01*
X55383077Y-111540524D01*
X55235439Y-111293839D01*
X55055687Y-111069472D01*
X54847149Y-110871577D01*
X54613683Y-110703814D01*
X54591843Y-110692250D01*
X54568654Y-110679972D01*
X54359608Y-110569288D01*
X54159429Y-110496033D01*
X54093658Y-110471964D01*
X54093656Y-110471963D01*
X54089627Y-110470489D01*
X53808736Y-110409245D01*
X53777685Y-110406801D01*
X53585718Y-110391693D01*
X53585709Y-110391693D01*
X53583261Y-110391500D01*
X53427729Y-110391500D01*
X53425593Y-110391646D01*
X53425582Y-110391646D01*
X53217452Y-110405835D01*
X53217446Y-110405836D01*
X53213175Y-110406127D01*
X53208980Y-110406996D01*
X53208978Y-110406996D01*
X53072417Y-110435276D01*
X52931658Y-110464426D01*
X52660657Y-110560393D01*
X52405188Y-110692250D01*
X52401687Y-110694711D01*
X52401683Y-110694713D01*
X52287582Y-110774905D01*
X52169977Y-110857559D01*
X51959378Y-111053260D01*
X51777287Y-111275732D01*
X51627073Y-111520858D01*
X51511517Y-111784102D01*
X51432756Y-112060594D01*
X51392249Y-112345216D01*
X51392227Y-112349505D01*
X51392226Y-112349512D01*
X51391195Y-112546410D01*
X51390743Y-112632703D01*
X50515455Y-112632703D01*
X50510932Y-112546410D01*
X50512505Y-112518915D01*
X50513576Y-112512552D01*
X50513729Y-112500000D01*
X50509773Y-112472376D01*
X50508500Y-112454514D01*
X50508500Y-110042277D01*
X63637009Y-110042277D01*
X63662625Y-110310769D01*
X63663710Y-110315203D01*
X63663711Y-110315209D01*
X63723357Y-110558962D01*
X63726731Y-110572750D01*
X63827985Y-110822733D01*
X63964265Y-111055482D01*
X63975453Y-111069472D01*
X64084686Y-111206060D01*
X64132716Y-111266119D01*
X64329809Y-111450234D01*
X64551416Y-111603968D01*
X64555499Y-111605999D01*
X64555502Y-111606001D01*
X64671013Y-111663466D01*
X64792894Y-111724101D01*
X64797228Y-111725522D01*
X64797231Y-111725523D01*
X65044853Y-111806698D01*
X65044859Y-111806699D01*
X65049186Y-111808118D01*
X65053677Y-111808898D01*
X65053678Y-111808898D01*
X65311140Y-111853601D01*
X65311148Y-111853602D01*
X65314921Y-111854257D01*
X65318758Y-111854448D01*
X65398578Y-111858422D01*
X65398586Y-111858422D01*
X65400149Y-111858500D01*
X65568512Y-111858500D01*
X65570780Y-111858335D01*
X65570792Y-111858335D01*
X65701884Y-111848823D01*
X65769004Y-111843953D01*
X65773459Y-111842969D01*
X65773462Y-111842969D01*
X66027912Y-111786791D01*
X66027916Y-111786790D01*
X66032372Y-111785806D01*
X66158480Y-111738028D01*
X66280318Y-111691868D01*
X66280321Y-111691867D01*
X66284588Y-111690250D01*
X66520368Y-111559286D01*
X66734773Y-111395657D01*
X66923312Y-111202792D01*
X67082034Y-110984730D01*
X67140014Y-110874527D01*
X67205490Y-110750079D01*
X67205493Y-110750073D01*
X67207615Y-110746039D01*
X67222527Y-110703814D01*
X67295902Y-110496033D01*
X67295902Y-110496032D01*
X67297425Y-110491720D01*
X67349581Y-110227100D01*
X67358782Y-110042277D01*
X95637009Y-110042277D01*
X95662625Y-110310769D01*
X95663710Y-110315203D01*
X95663711Y-110315209D01*
X95723357Y-110558962D01*
X95726731Y-110572750D01*
X95827985Y-110822733D01*
X95964265Y-111055482D01*
X95975453Y-111069472D01*
X96084686Y-111206060D01*
X96132716Y-111266119D01*
X96329809Y-111450234D01*
X96551416Y-111603968D01*
X96555499Y-111605999D01*
X96555502Y-111606001D01*
X96671013Y-111663466D01*
X96792894Y-111724101D01*
X96797228Y-111725522D01*
X96797231Y-111725523D01*
X97044853Y-111806698D01*
X97044859Y-111806699D01*
X97049186Y-111808118D01*
X97053677Y-111808898D01*
X97053678Y-111808898D01*
X97311140Y-111853601D01*
X97311148Y-111853602D01*
X97314921Y-111854257D01*
X97318758Y-111854448D01*
X97398578Y-111858422D01*
X97398586Y-111858422D01*
X97400149Y-111858500D01*
X97568512Y-111858500D01*
X97570780Y-111858335D01*
X97570792Y-111858335D01*
X97701884Y-111848823D01*
X97769004Y-111843953D01*
X97773459Y-111842969D01*
X97773462Y-111842969D01*
X98027912Y-111786791D01*
X98027916Y-111786790D01*
X98032372Y-111785806D01*
X98158480Y-111738028D01*
X98280318Y-111691868D01*
X98280321Y-111691867D01*
X98284588Y-111690250D01*
X98520368Y-111559286D01*
X98734773Y-111395657D01*
X98923312Y-111202792D01*
X99082034Y-110984730D01*
X99140014Y-110874527D01*
X99205490Y-110750079D01*
X99205493Y-110750073D01*
X99207615Y-110746039D01*
X99222527Y-110703814D01*
X99295902Y-110496033D01*
X99295902Y-110496032D01*
X99297425Y-110491720D01*
X99349581Y-110227100D01*
X99358782Y-110042277D01*
X99362764Y-109962292D01*
X99362764Y-109962286D01*
X99362991Y-109957723D01*
X99337375Y-109689231D01*
X99292042Y-109503967D01*
X99274355Y-109431688D01*
X99273269Y-109427250D01*
X99172015Y-109177267D01*
X99035735Y-108944518D01*
X98917928Y-108797208D01*
X98870136Y-108737447D01*
X98870135Y-108737445D01*
X98867284Y-108733881D01*
X98670191Y-108549766D01*
X98448584Y-108396032D01*
X98444501Y-108394001D01*
X98444498Y-108393999D01*
X98279606Y-108311967D01*
X98207106Y-108275899D01*
X98202772Y-108274478D01*
X98202769Y-108274477D01*
X97955147Y-108193302D01*
X97955141Y-108193301D01*
X97950814Y-108191882D01*
X97946322Y-108191102D01*
X97688860Y-108146399D01*
X97688852Y-108146398D01*
X97685079Y-108145743D01*
X97673817Y-108145182D01*
X97601422Y-108141578D01*
X97601414Y-108141578D01*
X97599851Y-108141500D01*
X97431488Y-108141500D01*
X97429220Y-108141665D01*
X97429208Y-108141665D01*
X97298116Y-108151177D01*
X97230996Y-108156047D01*
X97226541Y-108157031D01*
X97226538Y-108157031D01*
X96972088Y-108213209D01*
X96972084Y-108213210D01*
X96967628Y-108214194D01*
X96841520Y-108261972D01*
X96719682Y-108308132D01*
X96719679Y-108308133D01*
X96715412Y-108309750D01*
X96479632Y-108440714D01*
X96265227Y-108604343D01*
X96076688Y-108797208D01*
X95917966Y-109015270D01*
X95915844Y-109019304D01*
X95794510Y-109249921D01*
X95794507Y-109249927D01*
X95792385Y-109253961D01*
X95790865Y-109258266D01*
X95790863Y-109258270D01*
X95704098Y-109503967D01*
X95702575Y-109508280D01*
X95650419Y-109772900D01*
X95650192Y-109777453D01*
X95650192Y-109777456D01*
X95640991Y-109962292D01*
X95637009Y-110042277D01*
X67358782Y-110042277D01*
X67362764Y-109962292D01*
X67362764Y-109962286D01*
X67362991Y-109957723D01*
X67337375Y-109689231D01*
X67292042Y-109503967D01*
X67274355Y-109431688D01*
X67273269Y-109427250D01*
X67172015Y-109177267D01*
X67035735Y-108944518D01*
X66917928Y-108797208D01*
X66870136Y-108737447D01*
X66870135Y-108737445D01*
X66867284Y-108733881D01*
X66670191Y-108549766D01*
X66448584Y-108396032D01*
X66444501Y-108394001D01*
X66444498Y-108393999D01*
X66279606Y-108311967D01*
X66207106Y-108275899D01*
X66202772Y-108274478D01*
X66202769Y-108274477D01*
X65955147Y-108193302D01*
X65955141Y-108193301D01*
X65950814Y-108191882D01*
X65946322Y-108191102D01*
X65688860Y-108146399D01*
X65688852Y-108146398D01*
X65685079Y-108145743D01*
X65673817Y-108145182D01*
X65601422Y-108141578D01*
X65601414Y-108141578D01*
X65599851Y-108141500D01*
X65431488Y-108141500D01*
X65429220Y-108141665D01*
X65429208Y-108141665D01*
X65298116Y-108151177D01*
X65230996Y-108156047D01*
X65226541Y-108157031D01*
X65226538Y-108157031D01*
X64972088Y-108213209D01*
X64972084Y-108213210D01*
X64967628Y-108214194D01*
X64841520Y-108261972D01*
X64719682Y-108308132D01*
X64719679Y-108308133D01*
X64715412Y-108309750D01*
X64479632Y-108440714D01*
X64265227Y-108604343D01*
X64076688Y-108797208D01*
X63917966Y-109015270D01*
X63915844Y-109019304D01*
X63794510Y-109249921D01*
X63794507Y-109249927D01*
X63792385Y-109253961D01*
X63790865Y-109258266D01*
X63790863Y-109258270D01*
X63704098Y-109503967D01*
X63702575Y-109508280D01*
X63650419Y-109772900D01*
X63650192Y-109777453D01*
X63650192Y-109777456D01*
X63640991Y-109962292D01*
X63637009Y-110042277D01*
X50508500Y-110042277D01*
X50508500Y-104256366D01*
X50528502Y-104188245D01*
X50582158Y-104141752D01*
X50652432Y-104131648D01*
X50717012Y-104161142D01*
X50756207Y-104223755D01*
X50765716Y-104259243D01*
X50768039Y-104264224D01*
X50768039Y-104264225D01*
X50860151Y-104461762D01*
X50860154Y-104461767D01*
X50862477Y-104466749D01*
X50907194Y-104530611D01*
X50967518Y-104616762D01*
X50993802Y-104654300D01*
X51155700Y-104816198D01*
X51160208Y-104819355D01*
X51160211Y-104819357D01*
X51207260Y-104852301D01*
X51343251Y-104947523D01*
X51348233Y-104949846D01*
X51348238Y-104949849D01*
X51545775Y-105041961D01*
X51550757Y-105044284D01*
X51556065Y-105045706D01*
X51556067Y-105045707D01*
X51766598Y-105102119D01*
X51766600Y-105102119D01*
X51771913Y-105103543D01*
X52000000Y-105123498D01*
X52228087Y-105103543D01*
X52233400Y-105102119D01*
X52233402Y-105102119D01*
X52443933Y-105045707D01*
X52443935Y-105045706D01*
X52449243Y-105044284D01*
X52454225Y-105041961D01*
X52651762Y-104949849D01*
X52651767Y-104949846D01*
X52656749Y-104947523D01*
X52792740Y-104852301D01*
X52839789Y-104819357D01*
X52839792Y-104819355D01*
X52844300Y-104816198D01*
X53006198Y-104654300D01*
X53032483Y-104616762D01*
X53092806Y-104530611D01*
X53137523Y-104466749D01*
X53139846Y-104461767D01*
X53139849Y-104461762D01*
X53231961Y-104264225D01*
X53231961Y-104264224D01*
X53234284Y-104259243D01*
X53284463Y-104071976D01*
X53292119Y-104043402D01*
X53292119Y-104043400D01*
X53293543Y-104038087D01*
X53313498Y-103810000D01*
X53293543Y-103581913D01*
X53290757Y-103571514D01*
X53235707Y-103366067D01*
X53235706Y-103366065D01*
X53234284Y-103360757D01*
X53154462Y-103189576D01*
X53139849Y-103158238D01*
X53139846Y-103158233D01*
X53137523Y-103153251D01*
X53006198Y-102965700D01*
X52844300Y-102803802D01*
X52839792Y-102800645D01*
X52839789Y-102800643D01*
X52685420Y-102692553D01*
X52656749Y-102672477D01*
X52651767Y-102670154D01*
X52651762Y-102670151D01*
X52454225Y-102578039D01*
X52454224Y-102578039D01*
X52449243Y-102575716D01*
X52443935Y-102574294D01*
X52443933Y-102574293D01*
X52233402Y-102517881D01*
X52233400Y-102517881D01*
X52228087Y-102516457D01*
X52000000Y-102496502D01*
X51771913Y-102516457D01*
X51766600Y-102517881D01*
X51766598Y-102517881D01*
X51556067Y-102574293D01*
X51556065Y-102574294D01*
X51550757Y-102575716D01*
X51545776Y-102578039D01*
X51545775Y-102578039D01*
X51348238Y-102670151D01*
X51348233Y-102670154D01*
X51343251Y-102672477D01*
X51314580Y-102692553D01*
X51160211Y-102800643D01*
X51160208Y-102800645D01*
X51155700Y-102803802D01*
X50993802Y-102965700D01*
X50862477Y-103153251D01*
X50860154Y-103158233D01*
X50860151Y-103158238D01*
X50845538Y-103189576D01*
X50765716Y-103360757D01*
X50764294Y-103366065D01*
X50764293Y-103366067D01*
X50756207Y-103396245D01*
X50719255Y-103456868D01*
X50655395Y-103487889D01*
X50584900Y-103479461D01*
X50530153Y-103434258D01*
X50508500Y-103363634D01*
X50508500Y-96634436D01*
X50528502Y-96566315D01*
X50582158Y-96519822D01*
X50652432Y-96509718D01*
X50717012Y-96539212D01*
X50756207Y-96601825D01*
X50764764Y-96633761D01*
X50768510Y-96644053D01*
X50860586Y-96841511D01*
X50866069Y-96851007D01*
X50991028Y-97029467D01*
X50998084Y-97037875D01*
X51152125Y-97191916D01*
X51160533Y-97198972D01*
X51338993Y-97323931D01*
X51348489Y-97329414D01*
X51545947Y-97421490D01*
X51556239Y-97425236D01*
X51728503Y-97471394D01*
X51742599Y-97471058D01*
X51746000Y-97463116D01*
X51746000Y-97457967D01*
X52254000Y-97457967D01*
X52257973Y-97471498D01*
X52266522Y-97472727D01*
X52443761Y-97425236D01*
X52454053Y-97421490D01*
X52651511Y-97329414D01*
X52661007Y-97323931D01*
X52839467Y-97198972D01*
X52847875Y-97191916D01*
X53001916Y-97037875D01*
X53008972Y-97029467D01*
X53133931Y-96851007D01*
X53139414Y-96841511D01*
X53231490Y-96644053D01*
X53235236Y-96633761D01*
X53281394Y-96461497D01*
X53281058Y-96447401D01*
X53273116Y-96444000D01*
X52272115Y-96444000D01*
X52256876Y-96448475D01*
X52255671Y-96449865D01*
X52254000Y-96457548D01*
X52254000Y-97457967D01*
X51746000Y-97457967D01*
X51746000Y-95917885D01*
X52254000Y-95917885D01*
X52258475Y-95933124D01*
X52259865Y-95934329D01*
X52267548Y-95936000D01*
X53267967Y-95936000D01*
X53281498Y-95932027D01*
X53282727Y-95923478D01*
X53235236Y-95746239D01*
X53231490Y-95735947D01*
X53139414Y-95538489D01*
X53133931Y-95528993D01*
X53008972Y-95350533D01*
X53001916Y-95342125D01*
X52847875Y-95188084D01*
X52839467Y-95181028D01*
X52661007Y-95056069D01*
X52651511Y-95050586D01*
X52454053Y-94958510D01*
X52443761Y-94954764D01*
X52271497Y-94908606D01*
X52257401Y-94908942D01*
X52254000Y-94916884D01*
X52254000Y-95917885D01*
X51746000Y-95917885D01*
X51746000Y-94922033D01*
X51742027Y-94908502D01*
X51733478Y-94907273D01*
X51556239Y-94954764D01*
X51545947Y-94958510D01*
X51348489Y-95050586D01*
X51338993Y-95056069D01*
X51160533Y-95181028D01*
X51152125Y-95188084D01*
X50998084Y-95342125D01*
X50991028Y-95350533D01*
X50866069Y-95528993D01*
X50860586Y-95538489D01*
X50768510Y-95735947D01*
X50764764Y-95746239D01*
X50756207Y-95778175D01*
X50719255Y-95838798D01*
X50655395Y-95869819D01*
X50584900Y-95861391D01*
X50530153Y-95816188D01*
X50508500Y-95745564D01*
X50508500Y-93825285D01*
X68987798Y-93825285D01*
X68994438Y-94300812D01*
X68997554Y-94524008D01*
X69046300Y-95221096D01*
X69133881Y-95914376D01*
X69134200Y-95916112D01*
X69134201Y-95916121D01*
X69248560Y-96539212D01*
X69260026Y-96601687D01*
X69260441Y-96603403D01*
X69260442Y-96603407D01*
X69383058Y-97110239D01*
X69424341Y-97280884D01*
X69424845Y-97282554D01*
X69424849Y-97282568D01*
X69625805Y-97948166D01*
X69625811Y-97948184D01*
X69626314Y-97949850D01*
X69865314Y-98606498D01*
X69865998Y-98608095D01*
X69866004Y-98608109D01*
X70062209Y-99065889D01*
X70140597Y-99248781D01*
X70451304Y-99874696D01*
X70796466Y-100482291D01*
X71175007Y-101069671D01*
X71585745Y-101635004D01*
X71586851Y-101636360D01*
X71586854Y-101636364D01*
X71619615Y-101676533D01*
X72027401Y-102176528D01*
X72028582Y-102177821D01*
X72028586Y-102177826D01*
X72466062Y-102656922D01*
X72498598Y-102692553D01*
X72499855Y-102693784D01*
X72499857Y-102693786D01*
X72876935Y-103063048D01*
X72997864Y-103181471D01*
X72999188Y-103182630D01*
X72999189Y-103182631D01*
X73522318Y-103640596D01*
X73522332Y-103640608D01*
X73523645Y-103641757D01*
X73525038Y-103642845D01*
X73525040Y-103642847D01*
X73557222Y-103667990D01*
X74074299Y-104071976D01*
X74648110Y-104470785D01*
X75039638Y-104711654D01*
X75214707Y-104819357D01*
X75243289Y-104836941D01*
X75244839Y-104837779D01*
X75856443Y-105168473D01*
X75856457Y-105168480D01*
X75857979Y-105169303D01*
X75859560Y-105170047D01*
X75859570Y-105170052D01*
X75954552Y-105214747D01*
X76490264Y-105466834D01*
X76491896Y-105467493D01*
X76491902Y-105467496D01*
X76549755Y-105490870D01*
X77138171Y-105728605D01*
X77139845Y-105729175D01*
X77139848Y-105729176D01*
X77797999Y-105953229D01*
X77798007Y-105953232D01*
X77799680Y-105953801D01*
X77801387Y-105954278D01*
X77801398Y-105954281D01*
X78471020Y-106141243D01*
X78471025Y-106141244D01*
X78472729Y-106141720D01*
X79155219Y-106291775D01*
X79845020Y-106403498D01*
X80539982Y-106476542D01*
X81009275Y-106499494D01*
X81236176Y-106510592D01*
X81236184Y-106510592D01*
X81237939Y-106510678D01*
X81239697Y-106510666D01*
X81239710Y-106510666D01*
X81624035Y-106507982D01*
X81936712Y-106505799D01*
X81938474Y-106505688D01*
X81938478Y-106505688D01*
X82632344Y-106462034D01*
X82634124Y-106461922D01*
X82939875Y-106425463D01*
X83326267Y-106379389D01*
X83326283Y-106379387D01*
X83327999Y-106379182D01*
X83329714Y-106378880D01*
X83329718Y-106378879D01*
X84014428Y-106258146D01*
X84014439Y-106258144D01*
X84016173Y-106257838D01*
X84509635Y-106142098D01*
X84694780Y-106098673D01*
X84694792Y-106098670D01*
X84696501Y-106098269D01*
X85366860Y-105900972D01*
X86025161Y-105666561D01*
X86669350Y-105395769D01*
X87297419Y-105089439D01*
X87298960Y-105088578D01*
X87298971Y-105088572D01*
X87749211Y-104836941D01*
X87907408Y-104748528D01*
X87908905Y-104747578D01*
X87908915Y-104747572D01*
X88495920Y-104375047D01*
X88495919Y-104375047D01*
X88497417Y-104374097D01*
X89065604Y-103967315D01*
X89276654Y-103797626D01*
X89608838Y-103530544D01*
X89608849Y-103530534D01*
X89610198Y-103529450D01*
X89797550Y-103360757D01*
X90128190Y-103063048D01*
X90128199Y-103063039D01*
X90129500Y-103061868D01*
X90621892Y-102566027D01*
X91085837Y-102043473D01*
X91519890Y-101495835D01*
X91922695Y-100924822D01*
X92209123Y-100466442D01*
X92292067Y-100333704D01*
X92292068Y-100333703D01*
X92292998Y-100332214D01*
X92629642Y-99719859D01*
X92828429Y-99304959D01*
X92930826Y-99091242D01*
X92930834Y-99091224D01*
X92931580Y-99089667D01*
X92932468Y-99087514D01*
X93070665Y-98752221D01*
X103690549Y-98752221D01*
X103699711Y-98794597D01*
X103701769Y-98807163D01*
X103706603Y-98850255D01*
X103708919Y-98856906D01*
X103708920Y-98856910D01*
X103717633Y-98881930D01*
X103721796Y-98896742D01*
X103728881Y-98929510D01*
X103747208Y-98968813D01*
X103751990Y-98980589D01*
X103766255Y-99021552D01*
X103769989Y-99027527D01*
X103769990Y-99027530D01*
X103784027Y-99049995D01*
X103791366Y-99063512D01*
X103802490Y-99087365D01*
X103805538Y-99093902D01*
X103809855Y-99099467D01*
X103809856Y-99099469D01*
X103832106Y-99128153D01*
X103839402Y-99138612D01*
X103862374Y-99175376D01*
X103867334Y-99180371D01*
X103867335Y-99180372D01*
X103890976Y-99204179D01*
X103891561Y-99204804D01*
X103892078Y-99205470D01*
X103918068Y-99231460D01*
X103990185Y-99304082D01*
X103991222Y-99304740D01*
X103992451Y-99305843D01*
X108294595Y-103607987D01*
X108328621Y-103670299D01*
X108331500Y-103697082D01*
X108331500Y-104415384D01*
X108331749Y-104418171D01*
X108331749Y-104418177D01*
X108336487Y-104471257D01*
X108341784Y-104530611D01*
X108395457Y-104717792D01*
X108485672Y-104890357D01*
X108489703Y-104895300D01*
X108489704Y-104895301D01*
X108532295Y-104947523D01*
X108608743Y-105041257D01*
X108613683Y-105045286D01*
X108685701Y-105104022D01*
X108759643Y-105164328D01*
X108765296Y-105167283D01*
X108765297Y-105167284D01*
X108769159Y-105169303D01*
X108932208Y-105254543D01*
X109119389Y-105308216D01*
X109151556Y-105311087D01*
X109231823Y-105318251D01*
X109231829Y-105318251D01*
X109234616Y-105318500D01*
X110245384Y-105318500D01*
X110248171Y-105318251D01*
X110248177Y-105318251D01*
X110328444Y-105311087D01*
X110360611Y-105308216D01*
X110547792Y-105254543D01*
X110710841Y-105169303D01*
X110714703Y-105167284D01*
X110714704Y-105167283D01*
X110720357Y-105164328D01*
X110794300Y-105104022D01*
X110866317Y-105045286D01*
X110871257Y-105041257D01*
X110947705Y-104947523D01*
X110990296Y-104895301D01*
X110990297Y-104895300D01*
X110994328Y-104890357D01*
X111084543Y-104717792D01*
X111138216Y-104530611D01*
X111143513Y-104471257D01*
X111148251Y-104418177D01*
X111148251Y-104418171D01*
X111148500Y-104415384D01*
X111148500Y-103667990D01*
X111168502Y-103599869D01*
X111222158Y-103553376D01*
X111279116Y-103542075D01*
X111305229Y-103543033D01*
X111322950Y-103543683D01*
X111322954Y-103543683D01*
X111328113Y-103543872D01*
X111333233Y-103543216D01*
X111333235Y-103543216D01*
X111406270Y-103533860D01*
X111557847Y-103514442D01*
X111562795Y-103512957D01*
X111562802Y-103512956D01*
X111774747Y-103449369D01*
X111779690Y-103447886D01*
X111784324Y-103445616D01*
X111983049Y-103348262D01*
X111983052Y-103348260D01*
X111987684Y-103345991D01*
X112176243Y-103211494D01*
X112340303Y-103048005D01*
X112475458Y-102859917D01*
X112558824Y-102691239D01*
X112575784Y-102656922D01*
X112575785Y-102656920D01*
X112578078Y-102652280D01*
X112645408Y-102430671D01*
X112675640Y-102201041D01*
X112677327Y-102132000D01*
X112668108Y-102019872D01*
X112658773Y-101906318D01*
X112658772Y-101906312D01*
X112658349Y-101901167D01*
X112601925Y-101676533D01*
X112576380Y-101617784D01*
X112511630Y-101468868D01*
X112511628Y-101468865D01*
X112509570Y-101464131D01*
X112383764Y-101269665D01*
X112227887Y-101098358D01*
X112223836Y-101095159D01*
X112223832Y-101095155D01*
X112050177Y-100958011D01*
X112050172Y-100958008D01*
X112046123Y-100954810D01*
X112041607Y-100952317D01*
X112041604Y-100952315D01*
X111847879Y-100845373D01*
X111847875Y-100845371D01*
X111843355Y-100842876D01*
X111838486Y-100841152D01*
X111838482Y-100841150D01*
X111629903Y-100767288D01*
X111629899Y-100767287D01*
X111625028Y-100765562D01*
X111619935Y-100764655D01*
X111619932Y-100764654D01*
X111430797Y-100730964D01*
X111367239Y-100699326D01*
X111330876Y-100638349D01*
X111333253Y-100567392D01*
X111373614Y-100508984D01*
X111436883Y-100481938D01*
X111446102Y-100480757D01*
X111557847Y-100466442D01*
X111562795Y-100464957D01*
X111562802Y-100464956D01*
X111774747Y-100401369D01*
X111779690Y-100399886D01*
X111784324Y-100397616D01*
X111983049Y-100300262D01*
X111983052Y-100300260D01*
X111987684Y-100297991D01*
X112176243Y-100163494D01*
X112340303Y-100000005D01*
X112475458Y-99811917D01*
X112578078Y-99604280D01*
X112645408Y-99382671D01*
X112675640Y-99153041D01*
X112677327Y-99084000D01*
X112668331Y-98974582D01*
X112658773Y-98858318D01*
X112658772Y-98858312D01*
X112658349Y-98853167D01*
X112610190Y-98661438D01*
X112603184Y-98633544D01*
X112603183Y-98633540D01*
X112601925Y-98628533D01*
X112599866Y-98623797D01*
X112511630Y-98420868D01*
X112511628Y-98420865D01*
X112509570Y-98416131D01*
X112383764Y-98221665D01*
X112227887Y-98050358D01*
X112223836Y-98047159D01*
X112223832Y-98047155D01*
X112050177Y-97910011D01*
X112050172Y-97910008D01*
X112046123Y-97906810D01*
X112041607Y-97904317D01*
X112041604Y-97904315D01*
X111847879Y-97797373D01*
X111847875Y-97797371D01*
X111843355Y-97794876D01*
X111838486Y-97793152D01*
X111838482Y-97793150D01*
X111629903Y-97719288D01*
X111629899Y-97719287D01*
X111625028Y-97717562D01*
X111619935Y-97716655D01*
X111619932Y-97716654D01*
X111402095Y-97677851D01*
X111402089Y-97677850D01*
X111397006Y-97676945D01*
X111324096Y-97676054D01*
X111170581Y-97674179D01*
X111170579Y-97674179D01*
X111165411Y-97674116D01*
X110936464Y-97709150D01*
X110716314Y-97781106D01*
X110711726Y-97783494D01*
X110711722Y-97783496D01*
X110685065Y-97797373D01*
X110510872Y-97888052D01*
X110506739Y-97891155D01*
X110506736Y-97891157D01*
X110426359Y-97951506D01*
X110325655Y-98027117D01*
X110165639Y-98194564D01*
X110162725Y-98198836D01*
X110162724Y-98198837D01*
X110147152Y-98221665D01*
X110035119Y-98385899D01*
X109937602Y-98595981D01*
X109875707Y-98819169D01*
X109851095Y-99049469D01*
X109851392Y-99054621D01*
X109851392Y-99054623D01*
X109852042Y-99065889D01*
X109835995Y-99135048D01*
X109785105Y-99184553D01*
X109724713Y-99199134D01*
X109665899Y-99198415D01*
X109646580Y-99198179D01*
X109646578Y-99198179D01*
X109641411Y-99198116D01*
X109412464Y-99233150D01*
X109192314Y-99305106D01*
X109187726Y-99307494D01*
X109187722Y-99307496D01*
X109033811Y-99387617D01*
X108986872Y-99412052D01*
X108982739Y-99415155D01*
X108982736Y-99415157D01*
X108805790Y-99548012D01*
X108801655Y-99551117D01*
X108641639Y-99718564D01*
X108511119Y-99909899D01*
X108413602Y-100119981D01*
X108351707Y-100343169D01*
X108327095Y-100573469D01*
X108327392Y-100578622D01*
X108327392Y-100578625D01*
X108335829Y-100724945D01*
X108340427Y-100804697D01*
X108341564Y-100809743D01*
X108341565Y-100809749D01*
X108367161Y-100923327D01*
X108391346Y-101030642D01*
X108393288Y-101035424D01*
X108393289Y-101035428D01*
X108422094Y-101106365D01*
X108429190Y-101177006D01*
X108396968Y-101240269D01*
X108335659Y-101276070D01*
X108264727Y-101273040D01*
X108216256Y-101242864D01*
X105345405Y-98372013D01*
X105311379Y-98309701D01*
X105308500Y-98282918D01*
X105308500Y-95887082D01*
X105328502Y-95818961D01*
X105345405Y-95797987D01*
X107751910Y-93391481D01*
X107789756Y-93365469D01*
X107950722Y-93293803D01*
X107950724Y-93293802D01*
X107956752Y-93291118D01*
X108111253Y-93178866D01*
X108239040Y-93036944D01*
X108334527Y-92871556D01*
X108393542Y-92689928D01*
X108402271Y-92606882D01*
X108412814Y-92506565D01*
X108413504Y-92500000D01*
X108393542Y-92310072D01*
X108334527Y-92128444D01*
X108239040Y-91963056D01*
X108111253Y-91821134D01*
X107956752Y-91708882D01*
X107950724Y-91706198D01*
X107950722Y-91706197D01*
X107788319Y-91633891D01*
X107788318Y-91633891D01*
X107782288Y-91631206D01*
X107688887Y-91611353D01*
X107601944Y-91592872D01*
X107601939Y-91592872D01*
X107595487Y-91591500D01*
X107404513Y-91591500D01*
X107398061Y-91592872D01*
X107398056Y-91592872D01*
X107311113Y-91611353D01*
X107217712Y-91631206D01*
X107211682Y-91633891D01*
X107211681Y-91633891D01*
X107049278Y-91706197D01*
X107049276Y-91706198D01*
X107043248Y-91708882D01*
X106888747Y-91821134D01*
X106760960Y-91963056D01*
X106665473Y-92128444D01*
X106663433Y-92134724D01*
X106663432Y-92134725D01*
X106644646Y-92192542D01*
X106613908Y-92242700D01*
X103934842Y-94921766D01*
X103933905Y-94922694D01*
X103869493Y-94985771D01*
X103846002Y-95022221D01*
X103838583Y-95032546D01*
X103811524Y-95066443D01*
X103808459Y-95072784D01*
X103808458Y-95072785D01*
X103796928Y-95096637D01*
X103789399Y-95110054D01*
X103771235Y-95138238D01*
X103768827Y-95144855D01*
X103768824Y-95144860D01*
X103756408Y-95178973D01*
X103751447Y-95190716D01*
X103735646Y-95223403D01*
X103735644Y-95223408D01*
X103732579Y-95229749D01*
X103730996Y-95236607D01*
X103730995Y-95236609D01*
X103725035Y-95262426D01*
X103720668Y-95277169D01*
X103709197Y-95308685D01*
X103708314Y-95315675D01*
X103708312Y-95315683D01*
X103703762Y-95351701D01*
X103701526Y-95364253D01*
X103691776Y-95406485D01*
X103691751Y-95413531D01*
X103691751Y-95413534D01*
X103691634Y-95447056D01*
X103691605Y-95447938D01*
X103691500Y-95448769D01*
X103691500Y-95485572D01*
X103691143Y-95587870D01*
X103691411Y-95589070D01*
X103691500Y-95590707D01*
X103691500Y-98660786D01*
X103691493Y-98662106D01*
X103690549Y-98752221D01*
X93070665Y-98752221D01*
X93197203Y-98445216D01*
X93197868Y-98443603D01*
X93208946Y-98411793D01*
X93427094Y-97785356D01*
X93427677Y-97783682D01*
X93428877Y-97779499D01*
X93619802Y-97113664D01*
X93619802Y-97113663D01*
X93620290Y-97111962D01*
X93728781Y-96634436D01*
X93774719Y-96432241D01*
X93774721Y-96432229D01*
X93775106Y-96430536D01*
X93891642Y-95741532D01*
X93969536Y-95047096D01*
X93977285Y-94908502D01*
X93998683Y-94525756D01*
X94008543Y-94349395D01*
X94008561Y-94348110D01*
X94013404Y-94001312D01*
X94013404Y-94001297D01*
X94013422Y-94000000D01*
X93995791Y-93368794D01*
X93993960Y-93303226D01*
X93993959Y-93303216D01*
X93993911Y-93301482D01*
X93935437Y-92605142D01*
X93920661Y-92500000D01*
X93845198Y-91963056D01*
X93838185Y-91913152D01*
X93702455Y-91227670D01*
X93528673Y-90550833D01*
X93317380Y-89884753D01*
X93273675Y-89769697D01*
X93069855Y-89233139D01*
X93069235Y-89231506D01*
X92785011Y-88593129D01*
X92772962Y-88569683D01*
X92466411Y-87973200D01*
X92466405Y-87973189D01*
X92465595Y-87971613D01*
X92111984Y-87368897D01*
X91725279Y-86786859D01*
X91634697Y-86665775D01*
X91307738Y-86228720D01*
X91307726Y-86228705D01*
X91306687Y-86227316D01*
X91304700Y-86224947D01*
X90858634Y-85693347D01*
X90857513Y-85692011D01*
X90379158Y-85182615D01*
X89873114Y-84700715D01*
X89340958Y-84247815D01*
X88784350Y-83825327D01*
X88205027Y-83434568D01*
X87604794Y-83076758D01*
X87603264Y-83075958D01*
X87603253Y-83075952D01*
X87319855Y-82927796D01*
X86985523Y-82753011D01*
X86349146Y-82464337D01*
X85937272Y-82304582D01*
X85699280Y-82212271D01*
X85699268Y-82212267D01*
X85697647Y-82211638D01*
X85695987Y-82211099D01*
X85695974Y-82211094D01*
X85299344Y-82082221D01*
X85033058Y-81995699D01*
X84357451Y-81817196D01*
X84355709Y-81816839D01*
X84355703Y-81816837D01*
X83674687Y-81677045D01*
X83674686Y-81677045D01*
X83672933Y-81676685D01*
X83167014Y-81601978D01*
X82983401Y-81574864D01*
X82983394Y-81574863D01*
X82981639Y-81574604D01*
X82285724Y-81511270D01*
X82283981Y-81511209D01*
X82283963Y-81511208D01*
X81779895Y-81493606D01*
X81587359Y-81486883D01*
X81585591Y-81486920D01*
X81585586Y-81486920D01*
X80890480Y-81501480D01*
X80890474Y-81501480D01*
X80888722Y-81501517D01*
X80191991Y-81555128D01*
X80190249Y-81555360D01*
X80190234Y-81555362D01*
X79501084Y-81647314D01*
X79501078Y-81647315D01*
X79499339Y-81647547D01*
X78812926Y-81778488D01*
X78811243Y-81778908D01*
X78811223Y-81778912D01*
X78384997Y-81885182D01*
X78134893Y-81947540D01*
X78133220Y-81948058D01*
X78133216Y-81948059D01*
X77993081Y-81991438D01*
X77467353Y-82154178D01*
X77465731Y-82154781D01*
X77465714Y-82154787D01*
X77184124Y-82259510D01*
X76812390Y-82397757D01*
X76739804Y-82429469D01*
X76269456Y-82634959D01*
X76172044Y-82677517D01*
X76170479Y-82678307D01*
X76170478Y-82678308D01*
X75549871Y-82991799D01*
X75549857Y-82991807D01*
X75548314Y-82992586D01*
X74943143Y-83341981D01*
X74358420Y-83724613D01*
X73795968Y-84139289D01*
X73257541Y-84584715D01*
X73256257Y-84585904D01*
X73256249Y-84585911D01*
X73006425Y-84817251D01*
X72744817Y-85059502D01*
X72259397Y-85562170D01*
X71802793Y-86091151D01*
X71376429Y-86644795D01*
X70981635Y-87221377D01*
X70980724Y-87222881D01*
X70980719Y-87222889D01*
X70620556Y-87817589D01*
X70619643Y-87819097D01*
X70291581Y-88436092D01*
X69998472Y-89070439D01*
X69741230Y-89720158D01*
X69740672Y-89721837D01*
X69740666Y-89721852D01*
X69686476Y-89884753D01*
X69520657Y-90383223D01*
X69337442Y-91057568D01*
X69337082Y-91059261D01*
X69337079Y-91059274D01*
X69192519Y-91739373D01*
X69192516Y-91739391D01*
X69192155Y-91741088D01*
X69191887Y-91742822D01*
X69191886Y-91742825D01*
X69156907Y-91968774D01*
X69085250Y-92431652D01*
X69017060Y-93127108D01*
X68987798Y-93825285D01*
X50508500Y-93825285D01*
X50508500Y-87120000D01*
X52186502Y-87120000D01*
X52206457Y-87348087D01*
X52265716Y-87569243D01*
X52268039Y-87574224D01*
X52268039Y-87574225D01*
X52360151Y-87771762D01*
X52360154Y-87771767D01*
X52362477Y-87776749D01*
X52493802Y-87964300D01*
X52655700Y-88126198D01*
X52660208Y-88129355D01*
X52660211Y-88129357D01*
X52738389Y-88184098D01*
X52843251Y-88257523D01*
X52848233Y-88259846D01*
X52848238Y-88259849D01*
X53045775Y-88351961D01*
X53050757Y-88354284D01*
X53056065Y-88355706D01*
X53056067Y-88355707D01*
X53266598Y-88412119D01*
X53266600Y-88412119D01*
X53271913Y-88413543D01*
X53500000Y-88433498D01*
X53728087Y-88413543D01*
X53733400Y-88412119D01*
X53733402Y-88412119D01*
X53943933Y-88355707D01*
X53943935Y-88355706D01*
X53949243Y-88354284D01*
X53954225Y-88351961D01*
X54151762Y-88259849D01*
X54151767Y-88259846D01*
X54156749Y-88257523D01*
X54261611Y-88184098D01*
X54339789Y-88129357D01*
X54339792Y-88129355D01*
X54344300Y-88126198D01*
X54506198Y-87964300D01*
X54637523Y-87776749D01*
X54639846Y-87771767D01*
X54639849Y-87771762D01*
X54731961Y-87574225D01*
X54731961Y-87574224D01*
X54734284Y-87569243D01*
X54793543Y-87348087D01*
X54813498Y-87120000D01*
X54793543Y-86891913D01*
X54734284Y-86670757D01*
X54721519Y-86643382D01*
X54639849Y-86468238D01*
X54639846Y-86468233D01*
X54637523Y-86463251D01*
X54529415Y-86308857D01*
X54509357Y-86280211D01*
X54509355Y-86280208D01*
X54506198Y-86275700D01*
X54344300Y-86113802D01*
X54339792Y-86110645D01*
X54339789Y-86110643D01*
X54234536Y-86036944D01*
X54156749Y-85982477D01*
X54151767Y-85980154D01*
X54151762Y-85980151D01*
X53954225Y-85888039D01*
X53954224Y-85888039D01*
X53949243Y-85885716D01*
X53943935Y-85884294D01*
X53943933Y-85884293D01*
X53733402Y-85827881D01*
X53733400Y-85827881D01*
X53728087Y-85826457D01*
X53500000Y-85806502D01*
X53271913Y-85826457D01*
X53266600Y-85827881D01*
X53266598Y-85827881D01*
X53056067Y-85884293D01*
X53056065Y-85884294D01*
X53050757Y-85885716D01*
X53045776Y-85888039D01*
X53045775Y-85888039D01*
X52848238Y-85980151D01*
X52848233Y-85980154D01*
X52843251Y-85982477D01*
X52765464Y-86036944D01*
X52660211Y-86110643D01*
X52660208Y-86110645D01*
X52655700Y-86113802D01*
X52493802Y-86275700D01*
X52490645Y-86280208D01*
X52490643Y-86280211D01*
X52470585Y-86308857D01*
X52362477Y-86463251D01*
X52360154Y-86468233D01*
X52360151Y-86468238D01*
X52278481Y-86643382D01*
X52265716Y-86670757D01*
X52206457Y-86891913D01*
X52186502Y-87120000D01*
X50508500Y-87120000D01*
X50508500Y-79500000D01*
X52186502Y-79500000D01*
X52206457Y-79728087D01*
X52207881Y-79733400D01*
X52207881Y-79733402D01*
X52240316Y-79854448D01*
X52265716Y-79949243D01*
X52268039Y-79954224D01*
X52268039Y-79954225D01*
X52360151Y-80151762D01*
X52360154Y-80151767D01*
X52362477Y-80156749D01*
X52493802Y-80344300D01*
X52655700Y-80506198D01*
X52660208Y-80509355D01*
X52660211Y-80509357D01*
X52738389Y-80564098D01*
X52843251Y-80637523D01*
X52848233Y-80639846D01*
X52848238Y-80639849D01*
X53045775Y-80731961D01*
X53050757Y-80734284D01*
X53056065Y-80735706D01*
X53056067Y-80735707D01*
X53266598Y-80792119D01*
X53266600Y-80792119D01*
X53271913Y-80793543D01*
X53500000Y-80813498D01*
X53728087Y-80793543D01*
X53733400Y-80792119D01*
X53733402Y-80792119D01*
X53943933Y-80735707D01*
X53943935Y-80735706D01*
X53949243Y-80734284D01*
X53954225Y-80731961D01*
X54151762Y-80639849D01*
X54151767Y-80639846D01*
X54156749Y-80637523D01*
X54261611Y-80564098D01*
X54339789Y-80509357D01*
X54339792Y-80509355D01*
X54344300Y-80506198D01*
X54506198Y-80344300D01*
X54637523Y-80156749D01*
X54639846Y-80151767D01*
X54639849Y-80151762D01*
X54731961Y-79954225D01*
X54731961Y-79954224D01*
X54734284Y-79949243D01*
X54759685Y-79854448D01*
X54792119Y-79733402D01*
X54792119Y-79733400D01*
X54793543Y-79728087D01*
X54813498Y-79500000D01*
X54793543Y-79271913D01*
X54792119Y-79266598D01*
X54735707Y-79056067D01*
X54735706Y-79056065D01*
X54734284Y-79050757D01*
X54705213Y-78988414D01*
X54639849Y-78848238D01*
X54639846Y-78848233D01*
X54637523Y-78843251D01*
X54530165Y-78689928D01*
X54509357Y-78660211D01*
X54509355Y-78660208D01*
X54506198Y-78655700D01*
X54344300Y-78493802D01*
X54339792Y-78490645D01*
X54339789Y-78490643D01*
X54261611Y-78435902D01*
X54156749Y-78362477D01*
X54151767Y-78360154D01*
X54151762Y-78360151D01*
X53954225Y-78268039D01*
X53954224Y-78268039D01*
X53949243Y-78265716D01*
X53943935Y-78264294D01*
X53943933Y-78264293D01*
X53733402Y-78207881D01*
X53733400Y-78207881D01*
X53728087Y-78206457D01*
X53500000Y-78186502D01*
X53271913Y-78206457D01*
X53266600Y-78207881D01*
X53266598Y-78207881D01*
X53056067Y-78264293D01*
X53056065Y-78264294D01*
X53050757Y-78265716D01*
X53045776Y-78268039D01*
X53045775Y-78268039D01*
X52848238Y-78360151D01*
X52848233Y-78360154D01*
X52843251Y-78362477D01*
X52738389Y-78435902D01*
X52660211Y-78490643D01*
X52660208Y-78490645D01*
X52655700Y-78493802D01*
X52493802Y-78655700D01*
X52490645Y-78660208D01*
X52490643Y-78660211D01*
X52469835Y-78689928D01*
X52362477Y-78843251D01*
X52360154Y-78848233D01*
X52360151Y-78848238D01*
X52294787Y-78988414D01*
X52265716Y-79050757D01*
X52264294Y-79056065D01*
X52264293Y-79056067D01*
X52207881Y-79266598D01*
X52206457Y-79271913D01*
X52186502Y-79500000D01*
X50508500Y-79500000D01*
X50508500Y-78042277D01*
X63637009Y-78042277D01*
X63662625Y-78310769D01*
X63663710Y-78315203D01*
X63663711Y-78315209D01*
X63708366Y-78497699D01*
X63726731Y-78572750D01*
X63827985Y-78822733D01*
X63856572Y-78871556D01*
X63953411Y-79036944D01*
X63964265Y-79055482D01*
X64062938Y-79178866D01*
X64084686Y-79206060D01*
X64132716Y-79266119D01*
X64329809Y-79450234D01*
X64551416Y-79603968D01*
X64555499Y-79605999D01*
X64555502Y-79606001D01*
X64671013Y-79663466D01*
X64792894Y-79724101D01*
X64797228Y-79725522D01*
X64797231Y-79725523D01*
X65044853Y-79806698D01*
X65044859Y-79806699D01*
X65049186Y-79808118D01*
X65053677Y-79808898D01*
X65053678Y-79808898D01*
X65311140Y-79853601D01*
X65311148Y-79853602D01*
X65314921Y-79854257D01*
X65318758Y-79854448D01*
X65398578Y-79858422D01*
X65398586Y-79858422D01*
X65400149Y-79858500D01*
X65568512Y-79858500D01*
X65570780Y-79858335D01*
X65570792Y-79858335D01*
X65701884Y-79848823D01*
X65769004Y-79843953D01*
X65773459Y-79842969D01*
X65773462Y-79842969D01*
X66027912Y-79786791D01*
X66027916Y-79786790D01*
X66032372Y-79785806D01*
X66184719Y-79728087D01*
X66280318Y-79691868D01*
X66280321Y-79691867D01*
X66284588Y-79690250D01*
X66520368Y-79559286D01*
X66717945Y-79408500D01*
X66731141Y-79398429D01*
X66731142Y-79398428D01*
X66734773Y-79395657D01*
X66761034Y-79368794D01*
X66920117Y-79206060D01*
X66923312Y-79202792D01*
X67082034Y-78984730D01*
X67153846Y-78848238D01*
X67205490Y-78750079D01*
X67205493Y-78750073D01*
X67207615Y-78746039D01*
X67240894Y-78651803D01*
X67295902Y-78496033D01*
X67295902Y-78496032D01*
X67297425Y-78491720D01*
X67333090Y-78310769D01*
X67348700Y-78231572D01*
X67348701Y-78231566D01*
X67349581Y-78227100D01*
X67350609Y-78206457D01*
X67358782Y-78042277D01*
X95637009Y-78042277D01*
X95662625Y-78310769D01*
X95663710Y-78315203D01*
X95663711Y-78315209D01*
X95708366Y-78497699D01*
X95726731Y-78572750D01*
X95827985Y-78822733D01*
X95856572Y-78871556D01*
X95953411Y-79036944D01*
X95964265Y-79055482D01*
X96062938Y-79178866D01*
X96084686Y-79206060D01*
X96132716Y-79266119D01*
X96329809Y-79450234D01*
X96551416Y-79603968D01*
X96555499Y-79605999D01*
X96555502Y-79606001D01*
X96671013Y-79663466D01*
X96792894Y-79724101D01*
X96797228Y-79725522D01*
X96797231Y-79725523D01*
X97044853Y-79806698D01*
X97044859Y-79806699D01*
X97049186Y-79808118D01*
X97053677Y-79808898D01*
X97053678Y-79808898D01*
X97311140Y-79853601D01*
X97311148Y-79853602D01*
X97314921Y-79854257D01*
X97318758Y-79854448D01*
X97398578Y-79858422D01*
X97398586Y-79858422D01*
X97400149Y-79858500D01*
X97568512Y-79858500D01*
X97570780Y-79858335D01*
X97570792Y-79858335D01*
X97701884Y-79848823D01*
X97769004Y-79843953D01*
X97773459Y-79842969D01*
X97773462Y-79842969D01*
X98027912Y-79786791D01*
X98027916Y-79786790D01*
X98032372Y-79785806D01*
X98184719Y-79728087D01*
X98280318Y-79691868D01*
X98280321Y-79691867D01*
X98284588Y-79690250D01*
X98520368Y-79559286D01*
X98717945Y-79408500D01*
X98731141Y-79398429D01*
X98731142Y-79398428D01*
X98734773Y-79395657D01*
X98761034Y-79368794D01*
X98920117Y-79206060D01*
X98923312Y-79202792D01*
X99082034Y-78984730D01*
X99153846Y-78848238D01*
X99205490Y-78750079D01*
X99205493Y-78750073D01*
X99207615Y-78746039D01*
X99240894Y-78651803D01*
X99295902Y-78496033D01*
X99295902Y-78496032D01*
X99297425Y-78491720D01*
X99333090Y-78310769D01*
X99348700Y-78231572D01*
X99348701Y-78231566D01*
X99349581Y-78227100D01*
X99350609Y-78206457D01*
X99362764Y-77962292D01*
X99362764Y-77962286D01*
X99362991Y-77957723D01*
X99337375Y-77689231D01*
X99323177Y-77631206D01*
X99274355Y-77431688D01*
X99273269Y-77427250D01*
X99172015Y-77177267D01*
X99035735Y-76944518D01*
X98915508Y-76794182D01*
X98870136Y-76737447D01*
X98870135Y-76737445D01*
X98867284Y-76733881D01*
X98670191Y-76549766D01*
X98448584Y-76396032D01*
X98444501Y-76394001D01*
X98444498Y-76393999D01*
X98279606Y-76311967D01*
X98207106Y-76275899D01*
X98202772Y-76274478D01*
X98202769Y-76274477D01*
X97955147Y-76193302D01*
X97955141Y-76193301D01*
X97950814Y-76191882D01*
X97939560Y-76189928D01*
X97688860Y-76146399D01*
X97688852Y-76146398D01*
X97685079Y-76145743D01*
X97673817Y-76145182D01*
X97601422Y-76141578D01*
X97601414Y-76141578D01*
X97599851Y-76141500D01*
X97431488Y-76141500D01*
X97429220Y-76141665D01*
X97429208Y-76141665D01*
X97298116Y-76151177D01*
X97230996Y-76156047D01*
X97226541Y-76157031D01*
X97226538Y-76157031D01*
X96972088Y-76213209D01*
X96972084Y-76213210D01*
X96967628Y-76214194D01*
X96841520Y-76261972D01*
X96719682Y-76308132D01*
X96719679Y-76308133D01*
X96715412Y-76309750D01*
X96479632Y-76440714D01*
X96265227Y-76604343D01*
X96262034Y-76607609D01*
X96262032Y-76607611D01*
X96177129Y-76694462D01*
X96076688Y-76797208D01*
X95917966Y-77015270D01*
X95915844Y-77019304D01*
X95794510Y-77249921D01*
X95794507Y-77249927D01*
X95792385Y-77253961D01*
X95790865Y-77258266D01*
X95790863Y-77258270D01*
X95704098Y-77503967D01*
X95702575Y-77508280D01*
X95650419Y-77772900D01*
X95650192Y-77777453D01*
X95650192Y-77777456D01*
X95640953Y-77963056D01*
X95637009Y-78042277D01*
X67358782Y-78042277D01*
X67362764Y-77962292D01*
X67362764Y-77962286D01*
X67362991Y-77957723D01*
X67337375Y-77689231D01*
X67323177Y-77631206D01*
X67274355Y-77431688D01*
X67273269Y-77427250D01*
X67172015Y-77177267D01*
X67035735Y-76944518D01*
X66915508Y-76794182D01*
X66870136Y-76737447D01*
X66870135Y-76737445D01*
X66867284Y-76733881D01*
X66670191Y-76549766D01*
X66448584Y-76396032D01*
X66444501Y-76394001D01*
X66444498Y-76393999D01*
X66279606Y-76311967D01*
X66207106Y-76275899D01*
X66202772Y-76274478D01*
X66202769Y-76274477D01*
X65955147Y-76193302D01*
X65955141Y-76193301D01*
X65950814Y-76191882D01*
X65939560Y-76189928D01*
X65688860Y-76146399D01*
X65688852Y-76146398D01*
X65685079Y-76145743D01*
X65673817Y-76145182D01*
X65601422Y-76141578D01*
X65601414Y-76141578D01*
X65599851Y-76141500D01*
X65431488Y-76141500D01*
X65429220Y-76141665D01*
X65429208Y-76141665D01*
X65298116Y-76151177D01*
X65230996Y-76156047D01*
X65226541Y-76157031D01*
X65226538Y-76157031D01*
X64972088Y-76213209D01*
X64972084Y-76213210D01*
X64967628Y-76214194D01*
X64841520Y-76261972D01*
X64719682Y-76308132D01*
X64719679Y-76308133D01*
X64715412Y-76309750D01*
X64479632Y-76440714D01*
X64265227Y-76604343D01*
X64262034Y-76607609D01*
X64262032Y-76607611D01*
X64177129Y-76694462D01*
X64076688Y-76797208D01*
X63917966Y-77015270D01*
X63915844Y-77019304D01*
X63794510Y-77249921D01*
X63794507Y-77249927D01*
X63792385Y-77253961D01*
X63790865Y-77258266D01*
X63790863Y-77258270D01*
X63704098Y-77503967D01*
X63702575Y-77508280D01*
X63650419Y-77772900D01*
X63650192Y-77777453D01*
X63650192Y-77777456D01*
X63640953Y-77963056D01*
X63637009Y-78042277D01*
X50508500Y-78042277D01*
X50508500Y-74173134D01*
X60016500Y-74173134D01*
X60023255Y-74235316D01*
X60074385Y-74371705D01*
X60161739Y-74488261D01*
X60278295Y-74575615D01*
X60414684Y-74626745D01*
X60476866Y-74633500D01*
X62273134Y-74633500D01*
X62335316Y-74626745D01*
X62471705Y-74575615D01*
X62588261Y-74488261D01*
X62675615Y-74371705D01*
X62726745Y-74235316D01*
X62733500Y-74173134D01*
X62733500Y-73500000D01*
X83086496Y-73500000D01*
X83106458Y-73689928D01*
X83165473Y-73871556D01*
X83260960Y-74036944D01*
X83388747Y-74178866D01*
X83543248Y-74291118D01*
X83549276Y-74293802D01*
X83549278Y-74293803D01*
X83627214Y-74328502D01*
X83717712Y-74368794D01*
X83811113Y-74388647D01*
X83898056Y-74407128D01*
X83898061Y-74407128D01*
X83904513Y-74408500D01*
X84095487Y-74408500D01*
X84101939Y-74407128D01*
X84101944Y-74407128D01*
X84188887Y-74388647D01*
X84282288Y-74368794D01*
X84393245Y-74319393D01*
X84444494Y-74308500D01*
X97062918Y-74308500D01*
X97131039Y-74328502D01*
X97152013Y-74345405D01*
X99654595Y-76847987D01*
X99688621Y-76910299D01*
X99691500Y-76937082D01*
X99691500Y-81990786D01*
X99691493Y-81992106D01*
X99690549Y-82082221D01*
X99699711Y-82124597D01*
X99701769Y-82137163D01*
X99706603Y-82180255D01*
X99708919Y-82186906D01*
X99708920Y-82186910D01*
X99717633Y-82211930D01*
X99721796Y-82226742D01*
X99728881Y-82259510D01*
X99747208Y-82298813D01*
X99751990Y-82310589D01*
X99766255Y-82351552D01*
X99769989Y-82357527D01*
X99769990Y-82357530D01*
X99784027Y-82379995D01*
X99791366Y-82393512D01*
X99793346Y-82397757D01*
X99805538Y-82423902D01*
X99809855Y-82429467D01*
X99809856Y-82429469D01*
X99832106Y-82458153D01*
X99839402Y-82468612D01*
X99862374Y-82505376D01*
X99867334Y-82510371D01*
X99867335Y-82510372D01*
X99890976Y-82534179D01*
X99891561Y-82534804D01*
X99892078Y-82535470D01*
X99918068Y-82561460D01*
X99990185Y-82634082D01*
X99991222Y-82634740D01*
X99992451Y-82635843D01*
X103421766Y-86065158D01*
X103422694Y-86066095D01*
X103466319Y-86110643D01*
X103485771Y-86130507D01*
X103522221Y-86153998D01*
X103532546Y-86161417D01*
X103566443Y-86188476D01*
X103572782Y-86191540D01*
X103572786Y-86191543D01*
X103596638Y-86203074D01*
X103610051Y-86210601D01*
X103632313Y-86224947D01*
X103632316Y-86224948D01*
X103638238Y-86228765D01*
X103644857Y-86231174D01*
X103644861Y-86231176D01*
X103678973Y-86243592D01*
X103690717Y-86248553D01*
X103723399Y-86264352D01*
X103723401Y-86264353D01*
X103729748Y-86267421D01*
X103746683Y-86271331D01*
X103762427Y-86274966D01*
X103777168Y-86279332D01*
X103808685Y-86290803D01*
X103815671Y-86291685D01*
X103815677Y-86291687D01*
X103851701Y-86296238D01*
X103864253Y-86298474D01*
X103899614Y-86306638D01*
X103899617Y-86306638D01*
X103906485Y-86308224D01*
X103913531Y-86308249D01*
X103913534Y-86308249D01*
X103947056Y-86308366D01*
X103947938Y-86308395D01*
X103948769Y-86308500D01*
X103985419Y-86308500D01*
X103985859Y-86308501D01*
X104084343Y-86308845D01*
X104084348Y-86308845D01*
X104087870Y-86308857D01*
X104089070Y-86308589D01*
X104090707Y-86308500D01*
X110555506Y-86308500D01*
X110606755Y-86319393D01*
X110717712Y-86368794D01*
X110811113Y-86388647D01*
X110898056Y-86407128D01*
X110898061Y-86407128D01*
X110904513Y-86408500D01*
X111095487Y-86408500D01*
X111101939Y-86407128D01*
X111101944Y-86407128D01*
X111188887Y-86388647D01*
X111282288Y-86368794D01*
X111288319Y-86366109D01*
X111450722Y-86293803D01*
X111450724Y-86293802D01*
X111456752Y-86291118D01*
X111611253Y-86178866D01*
X111654796Y-86130507D01*
X111734621Y-86041852D01*
X111734622Y-86041851D01*
X111739040Y-86036944D01*
X111797314Y-85936010D01*
X111831223Y-85877279D01*
X111831224Y-85877278D01*
X111834527Y-85871556D01*
X111893542Y-85689928D01*
X111913504Y-85500000D01*
X111893542Y-85310072D01*
X111834527Y-85128444D01*
X111739040Y-84963056D01*
X111611253Y-84821134D01*
X111456752Y-84708882D01*
X111450724Y-84706198D01*
X111450722Y-84706197D01*
X111288319Y-84633891D01*
X111288318Y-84633891D01*
X111282288Y-84631206D01*
X111188887Y-84611353D01*
X111101944Y-84592872D01*
X111101939Y-84592872D01*
X111095487Y-84591500D01*
X110904513Y-84591500D01*
X110898061Y-84592872D01*
X110898056Y-84592872D01*
X110811113Y-84611353D01*
X110717712Y-84631206D01*
X110711682Y-84633891D01*
X110711681Y-84633891D01*
X110606755Y-84680607D01*
X110555506Y-84691500D01*
X104387081Y-84691500D01*
X104318960Y-84671498D01*
X104297986Y-84654595D01*
X101345405Y-81702013D01*
X101311379Y-81639701D01*
X101308500Y-81612918D01*
X101308500Y-76756082D01*
X101328502Y-76687961D01*
X101382158Y-76641468D01*
X101452432Y-76631364D01*
X101517012Y-76660858D01*
X101523595Y-76666987D01*
X103613908Y-78757300D01*
X103644646Y-78807458D01*
X103665473Y-78871556D01*
X103760960Y-79036944D01*
X103765378Y-79041851D01*
X103765379Y-79041852D01*
X103778178Y-79056067D01*
X103888747Y-79178866D01*
X103987843Y-79250864D01*
X104013136Y-79269240D01*
X104043248Y-79291118D01*
X104049276Y-79293802D01*
X104049278Y-79293803D01*
X104211681Y-79366109D01*
X104217712Y-79368794D01*
X104311113Y-79388647D01*
X104398056Y-79407128D01*
X104398061Y-79407128D01*
X104404513Y-79408500D01*
X104595487Y-79408500D01*
X104601939Y-79407128D01*
X104601944Y-79407128D01*
X104688887Y-79388647D01*
X104782288Y-79368794D01*
X104788319Y-79366109D01*
X104950722Y-79293803D01*
X104950724Y-79293802D01*
X104956752Y-79291118D01*
X104986865Y-79269240D01*
X105012157Y-79250864D01*
X105111253Y-79178866D01*
X105221822Y-79056067D01*
X105234621Y-79041852D01*
X105234622Y-79041851D01*
X105239040Y-79036944D01*
X105334527Y-78871556D01*
X105393542Y-78689928D01*
X105396666Y-78660211D01*
X105412814Y-78506565D01*
X105413504Y-78500000D01*
X105399050Y-78362477D01*
X105394232Y-78316635D01*
X105394232Y-78316633D01*
X105393542Y-78310072D01*
X105334527Y-78128444D01*
X105239040Y-77963056D01*
X105111253Y-77821134D01*
X104956752Y-77708882D01*
X104950724Y-77706198D01*
X104950722Y-77706197D01*
X104789756Y-77634531D01*
X104751910Y-77608519D01*
X97078234Y-69934842D01*
X97077306Y-69933905D01*
X97019157Y-69874525D01*
X97019156Y-69874524D01*
X97014229Y-69869493D01*
X96977779Y-69846002D01*
X96967454Y-69838583D01*
X96933557Y-69811524D01*
X96903362Y-69796927D01*
X96889945Y-69789398D01*
X96886592Y-69787237D01*
X96861762Y-69771235D01*
X96855145Y-69768827D01*
X96855140Y-69768824D01*
X96821027Y-69756408D01*
X96809284Y-69751447D01*
X96776597Y-69735646D01*
X96776592Y-69735644D01*
X96770251Y-69732579D01*
X96763393Y-69730996D01*
X96763391Y-69730995D01*
X96737574Y-69725035D01*
X96722831Y-69720668D01*
X96691315Y-69709197D01*
X96684325Y-69708314D01*
X96684317Y-69708312D01*
X96648299Y-69703762D01*
X96635747Y-69701526D01*
X96600386Y-69693362D01*
X96600383Y-69693362D01*
X96593515Y-69691776D01*
X96586469Y-69691751D01*
X96586466Y-69691751D01*
X96552944Y-69691634D01*
X96552062Y-69691605D01*
X96551231Y-69691500D01*
X96514581Y-69691500D01*
X96514141Y-69691499D01*
X96415657Y-69691155D01*
X96415652Y-69691155D01*
X96412130Y-69691143D01*
X96410930Y-69691411D01*
X96409293Y-69691500D01*
X94944494Y-69691500D01*
X94893245Y-69680607D01*
X94788319Y-69633891D01*
X94788318Y-69633891D01*
X94782288Y-69631206D01*
X94688888Y-69611353D01*
X94601944Y-69592872D01*
X94601939Y-69592872D01*
X94595487Y-69591500D01*
X94404513Y-69591500D01*
X94398061Y-69592872D01*
X94398056Y-69592872D01*
X94311112Y-69611353D01*
X94217712Y-69631206D01*
X94211682Y-69633891D01*
X94211681Y-69633891D01*
X94049278Y-69706197D01*
X94049276Y-69706198D01*
X94043248Y-69708882D01*
X94037907Y-69712762D01*
X94037906Y-69712763D01*
X94021015Y-69725035D01*
X93888747Y-69821134D01*
X93884326Y-69826044D01*
X93884325Y-69826045D01*
X93787208Y-69933905D01*
X93760960Y-69963056D01*
X93665473Y-70128444D01*
X93606458Y-70310072D01*
X93586496Y-70500000D01*
X93606458Y-70689928D01*
X93665473Y-70871556D01*
X93760960Y-71036944D01*
X93888747Y-71178866D01*
X94043248Y-71291118D01*
X94049276Y-71293802D01*
X94049278Y-71293803D01*
X94165179Y-71345405D01*
X94217712Y-71368794D01*
X94311113Y-71388647D01*
X94398056Y-71407128D01*
X94398061Y-71407128D01*
X94404513Y-71408500D01*
X94595487Y-71408500D01*
X94601939Y-71407128D01*
X94601944Y-71407128D01*
X94688887Y-71388647D01*
X94782288Y-71368794D01*
X94893245Y-71319393D01*
X94944494Y-71308500D01*
X96112918Y-71308500D01*
X96181039Y-71328502D01*
X96202013Y-71345405D01*
X97333013Y-72476405D01*
X97367039Y-72538717D01*
X97361974Y-72609532D01*
X97319427Y-72666368D01*
X97252907Y-72691179D01*
X97243918Y-72691500D01*
X84444494Y-72691500D01*
X84393245Y-72680607D01*
X84288319Y-72633891D01*
X84288318Y-72633891D01*
X84282288Y-72631206D01*
X84188887Y-72611353D01*
X84101944Y-72592872D01*
X84101939Y-72592872D01*
X84095487Y-72591500D01*
X83904513Y-72591500D01*
X83898061Y-72592872D01*
X83898056Y-72592872D01*
X83811113Y-72611353D01*
X83717712Y-72631206D01*
X83711682Y-72633891D01*
X83711681Y-72633891D01*
X83549278Y-72706197D01*
X83549276Y-72706198D01*
X83543248Y-72708882D01*
X83388747Y-72821134D01*
X83260960Y-72963056D01*
X83165473Y-73128444D01*
X83106458Y-73310072D01*
X83086496Y-73500000D01*
X62733500Y-73500000D01*
X62733500Y-72376866D01*
X62726745Y-72314684D01*
X62675615Y-72178295D01*
X62588261Y-72061739D01*
X62471705Y-71974385D01*
X62352687Y-71929767D01*
X62295923Y-71887125D01*
X62271223Y-71820564D01*
X62286430Y-71751215D01*
X62307977Y-71722535D01*
X62409052Y-71621812D01*
X62415730Y-71613965D01*
X62540003Y-71441020D01*
X62545313Y-71432183D01*
X62639670Y-71241267D01*
X62643469Y-71231672D01*
X62705377Y-71027910D01*
X62707555Y-71017837D01*
X62708986Y-71006962D01*
X62706775Y-70992778D01*
X62693617Y-70989000D01*
X60058225Y-70989000D01*
X60044694Y-70992973D01*
X60043257Y-71002966D01*
X60073565Y-71137446D01*
X60076645Y-71147275D01*
X60156770Y-71344603D01*
X60161413Y-71353794D01*
X60272694Y-71535388D01*
X60278777Y-71543699D01*
X60418213Y-71704667D01*
X60425577Y-71711879D01*
X60430522Y-71715985D01*
X60470156Y-71774889D01*
X60471653Y-71845870D01*
X60434537Y-71906392D01*
X60394264Y-71930910D01*
X60286705Y-71971232D01*
X60286704Y-71971233D01*
X60278295Y-71974385D01*
X60161739Y-72061739D01*
X60074385Y-72178295D01*
X60023255Y-72314684D01*
X60016500Y-72376866D01*
X60016500Y-74173134D01*
X50508500Y-74173134D01*
X50508500Y-70469183D01*
X60039389Y-70469183D01*
X60040912Y-70477607D01*
X60053292Y-70481000D01*
X61102885Y-70481000D01*
X61118124Y-70476525D01*
X61119329Y-70475135D01*
X61121000Y-70467452D01*
X61121000Y-70462885D01*
X61629000Y-70462885D01*
X61633475Y-70478124D01*
X61634865Y-70479329D01*
X61642548Y-70481000D01*
X62693344Y-70481000D01*
X62706875Y-70477027D01*
X62708180Y-70467947D01*
X62666214Y-70300875D01*
X62662894Y-70291124D01*
X62577972Y-70095814D01*
X62573105Y-70086739D01*
X62457426Y-69907926D01*
X62451136Y-69899757D01*
X62307806Y-69742240D01*
X62300273Y-69735215D01*
X62133139Y-69603222D01*
X62124552Y-69597517D01*
X61938117Y-69494599D01*
X61928705Y-69490369D01*
X61727959Y-69419280D01*
X61717988Y-69416646D01*
X61646837Y-69403972D01*
X61633540Y-69405432D01*
X61629000Y-69419989D01*
X61629000Y-70462885D01*
X61121000Y-70462885D01*
X61121000Y-69418102D01*
X61117082Y-69404758D01*
X61102806Y-69402771D01*
X61064324Y-69408660D01*
X61054288Y-69411051D01*
X60851868Y-69477212D01*
X60842359Y-69481209D01*
X60653463Y-69579542D01*
X60644738Y-69585036D01*
X60474433Y-69712905D01*
X60466726Y-69719748D01*
X60319590Y-69873717D01*
X60313104Y-69881727D01*
X60193098Y-70057649D01*
X60188000Y-70066623D01*
X60098338Y-70259783D01*
X60094775Y-70269470D01*
X60039389Y-70469183D01*
X50508500Y-70469183D01*
X50508500Y-63632703D01*
X51390743Y-63632703D01*
X51391302Y-63636947D01*
X51391302Y-63636951D01*
X51394210Y-63659036D01*
X51428268Y-63917734D01*
X51429401Y-63921874D01*
X51429401Y-63921876D01*
X51434197Y-63939406D01*
X51504129Y-64195036D01*
X51505813Y-64198984D01*
X51570527Y-64350702D01*
X51616923Y-64459476D01*
X51764561Y-64706161D01*
X51944313Y-64930528D01*
X52152851Y-65128423D01*
X52175787Y-65144904D01*
X52380229Y-65291811D01*
X52386317Y-65296186D01*
X52390112Y-65298195D01*
X52390113Y-65298196D01*
X52411869Y-65309715D01*
X52640392Y-65430712D01*
X52734482Y-65465144D01*
X52810679Y-65493028D01*
X52910373Y-65529511D01*
X53191264Y-65590755D01*
X53219841Y-65593004D01*
X53414282Y-65608307D01*
X53414291Y-65608307D01*
X53416739Y-65608500D01*
X53572271Y-65608500D01*
X53574407Y-65608354D01*
X53574418Y-65608354D01*
X53782548Y-65594165D01*
X53782554Y-65594164D01*
X53786825Y-65593873D01*
X53791020Y-65593004D01*
X53791022Y-65593004D01*
X53927583Y-65564724D01*
X54068342Y-65535574D01*
X54339343Y-65439607D01*
X54594812Y-65307750D01*
X54598313Y-65305289D01*
X54598317Y-65305287D01*
X54751484Y-65197639D01*
X54830023Y-65142441D01*
X55040622Y-64946740D01*
X55222713Y-64724268D01*
X55372927Y-64479142D01*
X55427106Y-64355720D01*
X55486757Y-64219830D01*
X55488483Y-64215898D01*
X55567244Y-63939406D01*
X55607751Y-63654784D01*
X55607829Y-63640036D01*
X55609235Y-63371583D01*
X55609235Y-63371576D01*
X55609257Y-63367297D01*
X55608438Y-63361071D01*
X55578956Y-63137137D01*
X55571732Y-63082266D01*
X55565365Y-63058990D01*
X55549585Y-63001311D01*
X55495871Y-62804964D01*
X55383077Y-62540524D01*
X55251041Y-62319908D01*
X55237643Y-62297521D01*
X55237640Y-62297517D01*
X55235439Y-62293839D01*
X55173635Y-62216695D01*
X57037251Y-62216695D01*
X57037548Y-62221848D01*
X57037548Y-62221851D01*
X57043011Y-62316590D01*
X57050110Y-62439715D01*
X57051247Y-62444761D01*
X57051248Y-62444767D01*
X57069283Y-62524792D01*
X57099222Y-62657639D01*
X57183266Y-62864616D01*
X57234019Y-62947438D01*
X57297291Y-63050688D01*
X57299987Y-63055088D01*
X57446250Y-63223938D01*
X57450230Y-63227242D01*
X57454981Y-63231187D01*
X57494616Y-63290090D01*
X57496113Y-63361071D01*
X57458997Y-63421593D01*
X57418725Y-63446112D01*
X57377913Y-63461412D01*
X57303295Y-63489385D01*
X57186739Y-63576739D01*
X57099385Y-63693295D01*
X57048255Y-63829684D01*
X57041500Y-63891866D01*
X57041500Y-65688134D01*
X57048255Y-65750316D01*
X57099385Y-65886705D01*
X57186739Y-66003261D01*
X57303295Y-66090615D01*
X57439684Y-66141745D01*
X57501866Y-66148500D01*
X59298134Y-66148500D01*
X59360316Y-66141745D01*
X59496705Y-66090615D01*
X59613261Y-66003261D01*
X59700615Y-65886705D01*
X59722799Y-65827529D01*
X59744598Y-65769382D01*
X59787240Y-65712618D01*
X59853802Y-65687918D01*
X59923150Y-65703126D01*
X59957817Y-65731114D01*
X59986250Y-65763938D01*
X60158126Y-65906632D01*
X60351000Y-66019338D01*
X60559692Y-66099030D01*
X60564760Y-66100061D01*
X60564763Y-66100062D01*
X60659862Y-66119410D01*
X60778597Y-66143567D01*
X60783772Y-66143757D01*
X60783774Y-66143757D01*
X60996673Y-66151564D01*
X60996677Y-66151564D01*
X61001837Y-66151753D01*
X61006957Y-66151097D01*
X61006959Y-66151097D01*
X61218288Y-66124025D01*
X61218289Y-66124025D01*
X61223416Y-66123368D01*
X61228366Y-66121883D01*
X61432429Y-66060661D01*
X61432434Y-66060659D01*
X61437384Y-66059174D01*
X61637994Y-65960896D01*
X61819860Y-65831173D01*
X61978096Y-65673489D01*
X62108453Y-65492077D01*
X62109776Y-65493028D01*
X62156645Y-65449857D01*
X62226580Y-65437625D01*
X62292026Y-65465144D01*
X62319875Y-65496994D01*
X62379987Y-65595088D01*
X62526250Y-65763938D01*
X62698126Y-65906632D01*
X62891000Y-66019338D01*
X63099692Y-66099030D01*
X63104760Y-66100061D01*
X63104763Y-66100062D01*
X63199862Y-66119410D01*
X63318597Y-66143567D01*
X63323772Y-66143757D01*
X63323774Y-66143757D01*
X63536673Y-66151564D01*
X63536677Y-66151564D01*
X63541837Y-66151753D01*
X63546957Y-66151097D01*
X63546959Y-66151097D01*
X63758288Y-66124025D01*
X63758289Y-66124025D01*
X63763416Y-66123368D01*
X63768366Y-66121883D01*
X63972429Y-66060661D01*
X63972434Y-66060659D01*
X63977384Y-66059174D01*
X64177994Y-65960896D01*
X64359860Y-65831173D01*
X64518096Y-65673489D01*
X64648453Y-65492077D01*
X64649776Y-65493028D01*
X64696645Y-65449857D01*
X64766580Y-65437625D01*
X64832026Y-65465144D01*
X64859875Y-65496994D01*
X64919987Y-65595088D01*
X65066250Y-65763938D01*
X65238126Y-65906632D01*
X65431000Y-66019338D01*
X65639692Y-66099030D01*
X65644760Y-66100061D01*
X65644763Y-66100062D01*
X65739862Y-66119410D01*
X65858597Y-66143567D01*
X65863772Y-66143757D01*
X65863774Y-66143757D01*
X66076673Y-66151564D01*
X66076677Y-66151564D01*
X66081837Y-66151753D01*
X66086957Y-66151097D01*
X66086959Y-66151097D01*
X66298288Y-66124025D01*
X66298289Y-66124025D01*
X66303416Y-66123368D01*
X66308366Y-66121883D01*
X66512429Y-66060661D01*
X66512434Y-66060659D01*
X66517384Y-66059174D01*
X66717994Y-65960896D01*
X66899860Y-65831173D01*
X67058096Y-65673489D01*
X67188453Y-65492077D01*
X67189640Y-65492930D01*
X67236960Y-65449362D01*
X67306897Y-65437145D01*
X67372338Y-65464678D01*
X67400166Y-65496511D01*
X67457694Y-65590388D01*
X67463777Y-65598699D01*
X67603213Y-65759667D01*
X67610580Y-65766883D01*
X67774434Y-65902916D01*
X67782881Y-65908831D01*
X67966756Y-66016279D01*
X67976042Y-66020729D01*
X68175001Y-66096703D01*
X68184899Y-66099579D01*
X68288250Y-66120606D01*
X68302299Y-66119410D01*
X68306000Y-66109065D01*
X68306000Y-64662000D01*
X68326002Y-64593879D01*
X68379658Y-64547386D01*
X68432000Y-64536000D01*
X68688000Y-64536000D01*
X68756121Y-64556002D01*
X68802614Y-64609658D01*
X68814000Y-64662000D01*
X68814000Y-66108517D01*
X68818064Y-66122359D01*
X68831478Y-66124393D01*
X68838184Y-66123534D01*
X68848262Y-66121392D01*
X69052255Y-66060191D01*
X69061842Y-66056433D01*
X69253095Y-65962739D01*
X69261945Y-65957464D01*
X69435328Y-65833792D01*
X69443200Y-65827139D01*
X69594052Y-65676812D01*
X69600730Y-65668965D01*
X69728022Y-65491819D01*
X69729279Y-65492722D01*
X69776373Y-65449362D01*
X69846311Y-65437145D01*
X69911751Y-65464678D01*
X69939579Y-65496511D01*
X69999987Y-65595088D01*
X70146250Y-65763938D01*
X70318126Y-65906632D01*
X70511000Y-66019338D01*
X70719692Y-66099030D01*
X70724760Y-66100061D01*
X70724763Y-66100062D01*
X70819862Y-66119410D01*
X70938597Y-66143567D01*
X70943772Y-66143757D01*
X70943774Y-66143757D01*
X71156673Y-66151564D01*
X71156677Y-66151564D01*
X71161837Y-66151753D01*
X71166957Y-66151097D01*
X71166959Y-66151097D01*
X71378288Y-66124025D01*
X71378289Y-66124025D01*
X71383416Y-66123368D01*
X71388366Y-66121883D01*
X71592429Y-66060661D01*
X71592434Y-66060659D01*
X71597384Y-66059174D01*
X71797994Y-65960896D01*
X71979860Y-65831173D01*
X72138096Y-65673489D01*
X72268453Y-65492077D01*
X72269776Y-65493028D01*
X72316645Y-65449857D01*
X72386580Y-65437625D01*
X72452026Y-65465144D01*
X72479875Y-65496994D01*
X72539987Y-65595088D01*
X72686250Y-65763938D01*
X72858126Y-65906632D01*
X73051000Y-66019338D01*
X73259692Y-66099030D01*
X73264760Y-66100061D01*
X73264763Y-66100062D01*
X73359862Y-66119410D01*
X73478597Y-66143567D01*
X73483772Y-66143757D01*
X73483774Y-66143757D01*
X73696673Y-66151564D01*
X73696677Y-66151564D01*
X73701837Y-66151753D01*
X73706957Y-66151097D01*
X73706959Y-66151097D01*
X73918288Y-66124025D01*
X73918289Y-66124025D01*
X73923416Y-66123368D01*
X73928366Y-66121883D01*
X74132429Y-66060661D01*
X74132434Y-66060659D01*
X74137384Y-66059174D01*
X74337994Y-65960896D01*
X74519860Y-65831173D01*
X74678096Y-65673489D01*
X74808453Y-65492077D01*
X74809776Y-65493028D01*
X74856645Y-65449857D01*
X74926580Y-65437625D01*
X74992026Y-65465144D01*
X75019875Y-65496994D01*
X75079987Y-65595088D01*
X75226250Y-65763938D01*
X75398126Y-65906632D01*
X75591000Y-66019338D01*
X75799692Y-66099030D01*
X75804760Y-66100061D01*
X75804763Y-66100062D01*
X75899862Y-66119410D01*
X76018597Y-66143567D01*
X76023772Y-66143757D01*
X76023774Y-66143757D01*
X76236673Y-66151564D01*
X76236677Y-66151564D01*
X76241837Y-66151753D01*
X76246957Y-66151097D01*
X76246959Y-66151097D01*
X76458288Y-66124025D01*
X76458289Y-66124025D01*
X76463416Y-66123368D01*
X76468366Y-66121883D01*
X76672429Y-66060661D01*
X76672434Y-66060659D01*
X76677384Y-66059174D01*
X76877994Y-65960896D01*
X77059860Y-65831173D01*
X77218096Y-65673489D01*
X77348453Y-65492077D01*
X77349776Y-65493028D01*
X77396645Y-65449857D01*
X77466580Y-65437625D01*
X77532026Y-65465144D01*
X77559875Y-65496994D01*
X77619987Y-65595088D01*
X77766250Y-65763938D01*
X77938126Y-65906632D01*
X78131000Y-66019338D01*
X78339692Y-66099030D01*
X78344760Y-66100061D01*
X78344763Y-66100062D01*
X78439862Y-66119410D01*
X78558597Y-66143567D01*
X78563772Y-66143757D01*
X78563774Y-66143757D01*
X78776673Y-66151564D01*
X78776677Y-66151564D01*
X78781837Y-66151753D01*
X78786957Y-66151097D01*
X78786959Y-66151097D01*
X78998288Y-66124025D01*
X78998289Y-66124025D01*
X79003416Y-66123368D01*
X79008366Y-66121883D01*
X79212429Y-66060661D01*
X79212434Y-66060659D01*
X79217384Y-66059174D01*
X79417994Y-65960896D01*
X79599860Y-65831173D01*
X79758096Y-65673489D01*
X79888453Y-65492077D01*
X79889776Y-65493028D01*
X79936645Y-65449857D01*
X80006580Y-65437625D01*
X80072026Y-65465144D01*
X80099875Y-65496994D01*
X80159987Y-65595088D01*
X80306250Y-65763938D01*
X80478126Y-65906632D01*
X80671000Y-66019338D01*
X80879692Y-66099030D01*
X80884760Y-66100061D01*
X80884763Y-66100062D01*
X80979862Y-66119410D01*
X81098597Y-66143567D01*
X81103772Y-66143757D01*
X81103774Y-66143757D01*
X81316673Y-66151564D01*
X81316677Y-66151564D01*
X81321837Y-66151753D01*
X81326957Y-66151097D01*
X81326959Y-66151097D01*
X81538288Y-66124025D01*
X81538289Y-66124025D01*
X81543416Y-66123368D01*
X81548366Y-66121883D01*
X81752429Y-66060661D01*
X81752434Y-66060659D01*
X81757384Y-66059174D01*
X81957994Y-65960896D01*
X82139860Y-65831173D01*
X82298096Y-65673489D01*
X82428453Y-65492077D01*
X82429776Y-65493028D01*
X82476645Y-65449857D01*
X82546580Y-65437625D01*
X82612026Y-65465144D01*
X82639875Y-65496994D01*
X82699987Y-65595088D01*
X82846250Y-65763938D01*
X83018126Y-65906632D01*
X83211000Y-66019338D01*
X83419692Y-66099030D01*
X83424760Y-66100061D01*
X83424763Y-66100062D01*
X83519862Y-66119410D01*
X83638597Y-66143567D01*
X83643772Y-66143757D01*
X83643774Y-66143757D01*
X83856673Y-66151564D01*
X83856677Y-66151564D01*
X83861837Y-66151753D01*
X83866957Y-66151097D01*
X83866959Y-66151097D01*
X84078288Y-66124025D01*
X84078289Y-66124025D01*
X84083416Y-66123368D01*
X84088366Y-66121883D01*
X84292429Y-66060661D01*
X84292434Y-66060659D01*
X84297384Y-66059174D01*
X84497994Y-65960896D01*
X84679860Y-65831173D01*
X84838096Y-65673489D01*
X84968453Y-65492077D01*
X84969776Y-65493028D01*
X85016645Y-65449857D01*
X85086580Y-65437625D01*
X85152026Y-65465144D01*
X85179875Y-65496994D01*
X85239987Y-65595088D01*
X85386250Y-65763938D01*
X85558126Y-65906632D01*
X85751000Y-66019338D01*
X85959692Y-66099030D01*
X85964760Y-66100061D01*
X85964763Y-66100062D01*
X86059862Y-66119410D01*
X86178597Y-66143567D01*
X86183772Y-66143757D01*
X86183774Y-66143757D01*
X86396673Y-66151564D01*
X86396677Y-66151564D01*
X86401837Y-66151753D01*
X86406957Y-66151097D01*
X86406959Y-66151097D01*
X86618288Y-66124025D01*
X86618289Y-66124025D01*
X86623416Y-66123368D01*
X86628366Y-66121883D01*
X86832429Y-66060661D01*
X86832434Y-66060659D01*
X86837384Y-66059174D01*
X87037994Y-65960896D01*
X87219860Y-65831173D01*
X87378096Y-65673489D01*
X87508453Y-65492077D01*
X87509776Y-65493028D01*
X87556645Y-65449857D01*
X87626580Y-65437625D01*
X87692026Y-65465144D01*
X87719875Y-65496994D01*
X87779987Y-65595088D01*
X87926250Y-65763938D01*
X88098126Y-65906632D01*
X88291000Y-66019338D01*
X88499692Y-66099030D01*
X88504760Y-66100061D01*
X88504763Y-66100062D01*
X88599862Y-66119410D01*
X88718597Y-66143567D01*
X88723772Y-66143757D01*
X88723774Y-66143757D01*
X88936673Y-66151564D01*
X88936677Y-66151564D01*
X88941837Y-66151753D01*
X88946957Y-66151097D01*
X88946959Y-66151097D01*
X89158288Y-66124025D01*
X89158289Y-66124025D01*
X89163416Y-66123368D01*
X89168366Y-66121883D01*
X89372429Y-66060661D01*
X89372434Y-66060659D01*
X89377384Y-66059174D01*
X89577994Y-65960896D01*
X89759860Y-65831173D01*
X89918096Y-65673489D01*
X90048453Y-65492077D01*
X90049776Y-65493028D01*
X90096645Y-65449857D01*
X90166580Y-65437625D01*
X90232026Y-65465144D01*
X90259875Y-65496994D01*
X90319987Y-65595088D01*
X90466250Y-65763938D01*
X90638126Y-65906632D01*
X90831000Y-66019338D01*
X91039692Y-66099030D01*
X91044760Y-66100061D01*
X91044763Y-66100062D01*
X91139862Y-66119410D01*
X91258597Y-66143567D01*
X91263772Y-66143757D01*
X91263774Y-66143757D01*
X91476673Y-66151564D01*
X91476677Y-66151564D01*
X91481837Y-66151753D01*
X91486957Y-66151097D01*
X91486959Y-66151097D01*
X91698288Y-66124025D01*
X91698289Y-66124025D01*
X91703416Y-66123368D01*
X91708366Y-66121883D01*
X91912429Y-66060661D01*
X91912434Y-66060659D01*
X91917384Y-66059174D01*
X92117994Y-65960896D01*
X92299860Y-65831173D01*
X92458096Y-65673489D01*
X92588453Y-65492077D01*
X92589776Y-65493028D01*
X92636645Y-65449857D01*
X92706580Y-65437625D01*
X92772026Y-65465144D01*
X92799875Y-65496994D01*
X92859987Y-65595088D01*
X93006250Y-65763938D01*
X93178126Y-65906632D01*
X93371000Y-66019338D01*
X93579692Y-66099030D01*
X93584760Y-66100061D01*
X93584763Y-66100062D01*
X93679862Y-66119410D01*
X93798597Y-66143567D01*
X93803772Y-66143757D01*
X93803774Y-66143757D01*
X94016673Y-66151564D01*
X94016677Y-66151564D01*
X94021837Y-66151753D01*
X94026957Y-66151097D01*
X94026959Y-66151097D01*
X94238288Y-66124025D01*
X94238289Y-66124025D01*
X94243416Y-66123368D01*
X94248366Y-66121883D01*
X94452429Y-66060661D01*
X94452434Y-66060659D01*
X94457384Y-66059174D01*
X94657994Y-65960896D01*
X94839860Y-65831173D01*
X94998096Y-65673489D01*
X95128453Y-65492077D01*
X95129776Y-65493028D01*
X95176645Y-65449857D01*
X95246580Y-65437625D01*
X95312026Y-65465144D01*
X95339875Y-65496994D01*
X95399987Y-65595088D01*
X95546250Y-65763938D01*
X95718126Y-65906632D01*
X95911000Y-66019338D01*
X96119692Y-66099030D01*
X96124760Y-66100061D01*
X96124763Y-66100062D01*
X96278690Y-66131379D01*
X96341455Y-66164560D01*
X96376317Y-66226408D01*
X96372208Y-66297286D01*
X96342664Y-66343944D01*
X95532013Y-67154595D01*
X95469701Y-67188621D01*
X95442918Y-67191500D01*
X80444494Y-67191500D01*
X80393245Y-67180607D01*
X80288319Y-67133891D01*
X80288318Y-67133891D01*
X80282288Y-67131206D01*
X80188888Y-67111353D01*
X80101944Y-67092872D01*
X80101939Y-67092872D01*
X80095487Y-67091500D01*
X79904513Y-67091500D01*
X79898061Y-67092872D01*
X79898056Y-67092872D01*
X79811112Y-67111353D01*
X79717712Y-67131206D01*
X79711682Y-67133891D01*
X79711681Y-67133891D01*
X79549278Y-67206197D01*
X79549276Y-67206198D01*
X79543248Y-67208882D01*
X79388747Y-67321134D01*
X79260960Y-67463056D01*
X79165473Y-67628444D01*
X79106458Y-67810072D01*
X79086496Y-68000000D01*
X79106458Y-68189928D01*
X79165473Y-68371556D01*
X79260960Y-68536944D01*
X79265378Y-68541851D01*
X79265379Y-68541852D01*
X79325861Y-68609024D01*
X79388747Y-68678866D01*
X79483904Y-68748002D01*
X79517773Y-68772609D01*
X79543248Y-68791118D01*
X79549276Y-68793802D01*
X79549278Y-68793803D01*
X79711681Y-68866109D01*
X79717712Y-68868794D01*
X79811113Y-68888647D01*
X79898056Y-68907128D01*
X79898061Y-68907128D01*
X79904513Y-68908500D01*
X80095487Y-68908500D01*
X80101939Y-68907128D01*
X80101944Y-68907128D01*
X80188887Y-68888647D01*
X80282288Y-68868794D01*
X80393245Y-68819393D01*
X80444494Y-68808500D01*
X95820786Y-68808500D01*
X95822106Y-68808507D01*
X95912221Y-68809451D01*
X95954597Y-68800289D01*
X95967163Y-68798231D01*
X96010255Y-68793397D01*
X96016906Y-68791081D01*
X96016910Y-68791080D01*
X96041930Y-68782367D01*
X96056742Y-68778204D01*
X96082619Y-68772609D01*
X96089510Y-68771119D01*
X96128813Y-68752792D01*
X96140589Y-68748010D01*
X96181552Y-68733745D01*
X96187527Y-68730011D01*
X96187530Y-68730010D01*
X96209995Y-68715973D01*
X96223512Y-68708634D01*
X96247514Y-68697441D01*
X96247515Y-68697440D01*
X96253902Y-68694462D01*
X96288153Y-68667894D01*
X96298612Y-68660598D01*
X96329404Y-68641358D01*
X96329407Y-68641356D01*
X96335376Y-68637626D01*
X96340372Y-68632665D01*
X96364179Y-68609024D01*
X96364804Y-68608439D01*
X96365470Y-68607922D01*
X96391459Y-68581933D01*
X96464082Y-68509815D01*
X96464740Y-68508778D01*
X96465843Y-68507549D01*
X98792718Y-66180674D01*
X98855030Y-66146648D01*
X98886428Y-66143854D01*
X98962619Y-66146648D01*
X99096673Y-66151564D01*
X99096677Y-66151564D01*
X99101837Y-66151753D01*
X99106957Y-66151097D01*
X99106959Y-66151097D01*
X99318288Y-66124025D01*
X99318289Y-66124025D01*
X99323416Y-66123368D01*
X99328366Y-66121883D01*
X99532429Y-66060661D01*
X99532434Y-66060659D01*
X99537384Y-66059174D01*
X99737994Y-65960896D01*
X99919860Y-65831173D01*
X100078096Y-65673489D01*
X100208453Y-65492077D01*
X100209776Y-65493028D01*
X100256645Y-65449857D01*
X100326580Y-65437625D01*
X100392026Y-65465144D01*
X100419875Y-65496994D01*
X100479987Y-65595088D01*
X100626250Y-65763938D01*
X100798126Y-65906632D01*
X100991000Y-66019338D01*
X101199692Y-66099030D01*
X101204760Y-66100061D01*
X101204763Y-66100062D01*
X101299862Y-66119410D01*
X101418597Y-66143567D01*
X101423772Y-66143757D01*
X101423774Y-66143757D01*
X101636673Y-66151564D01*
X101636677Y-66151564D01*
X101641837Y-66151753D01*
X101781908Y-66133809D01*
X101852017Y-66144993D01*
X101887012Y-66169693D01*
X105206230Y-69488911D01*
X105218616Y-69503323D01*
X105227149Y-69514918D01*
X105227154Y-69514923D01*
X105231492Y-69520818D01*
X105237070Y-69525557D01*
X105237073Y-69525560D01*
X105271768Y-69555035D01*
X105279284Y-69561965D01*
X105284979Y-69567660D01*
X105289284Y-69571066D01*
X105304742Y-69585568D01*
X105388747Y-69678866D01*
X105394089Y-69682747D01*
X105394091Y-69682749D01*
X105521135Y-69775052D01*
X105543248Y-69791118D01*
X105549276Y-69793802D01*
X105549278Y-69793803D01*
X105666547Y-69846014D01*
X105717712Y-69868794D01*
X105778557Y-69881727D01*
X105898056Y-69907128D01*
X105898061Y-69907128D01*
X105904513Y-69908500D01*
X106095487Y-69908500D01*
X106101939Y-69907128D01*
X106101944Y-69907128D01*
X106221443Y-69881727D01*
X106282288Y-69868794D01*
X106333453Y-69846014D01*
X106450722Y-69793803D01*
X106450724Y-69793802D01*
X106456752Y-69791118D01*
X106484119Y-69771235D01*
X106512157Y-69750864D01*
X106611253Y-69678866D01*
X106716511Y-69561965D01*
X106734621Y-69541852D01*
X106734622Y-69541851D01*
X106739040Y-69536944D01*
X106806564Y-69419989D01*
X106831223Y-69377279D01*
X106831224Y-69377278D01*
X106834527Y-69371556D01*
X106893542Y-69189928D01*
X106913504Y-69000000D01*
X106893542Y-68810072D01*
X106834527Y-68628444D01*
X106739040Y-68463056D01*
X106611253Y-68321134D01*
X106456752Y-68208882D01*
X106450724Y-68206198D01*
X106450722Y-68206197D01*
X106288319Y-68133891D01*
X106288318Y-68133891D01*
X106282288Y-68131206D01*
X106188888Y-68111353D01*
X106101944Y-68092872D01*
X106101939Y-68092872D01*
X106095487Y-68091500D01*
X106006371Y-68091500D01*
X105938250Y-68071498D01*
X105917276Y-68054595D01*
X104214909Y-66352228D01*
X104180883Y-66289916D01*
X104185948Y-66219101D01*
X104228495Y-66162265D01*
X104287994Y-66138154D01*
X104398288Y-66124025D01*
X104398289Y-66124025D01*
X104403416Y-66123368D01*
X104408366Y-66121883D01*
X104612429Y-66060661D01*
X104612434Y-66060659D01*
X104617384Y-66059174D01*
X104817994Y-65960896D01*
X104999860Y-65831173D01*
X105158096Y-65673489D01*
X105288453Y-65492077D01*
X105289776Y-65493028D01*
X105336645Y-65449857D01*
X105406580Y-65437625D01*
X105472026Y-65465144D01*
X105499875Y-65496994D01*
X105559987Y-65595088D01*
X105706250Y-65763938D01*
X105878126Y-65906632D01*
X106071000Y-66019338D01*
X106279692Y-66099030D01*
X106284760Y-66100061D01*
X106284763Y-66100062D01*
X106379862Y-66119410D01*
X106498597Y-66143567D01*
X106503772Y-66143757D01*
X106503774Y-66143757D01*
X106716673Y-66151564D01*
X106716677Y-66151564D01*
X106721837Y-66151753D01*
X106726957Y-66151097D01*
X106726959Y-66151097D01*
X106938288Y-66124025D01*
X106938289Y-66124025D01*
X106943416Y-66123368D01*
X106948366Y-66121883D01*
X107152429Y-66060661D01*
X107152434Y-66060659D01*
X107157384Y-66059174D01*
X107357994Y-65960896D01*
X107539860Y-65831173D01*
X107698096Y-65673489D01*
X107828453Y-65492077D01*
X107841995Y-65464678D01*
X107925136Y-65296453D01*
X107925137Y-65296451D01*
X107927430Y-65291811D01*
X107992370Y-65078069D01*
X108021529Y-64856590D01*
X108023156Y-64790000D01*
X108004852Y-64567361D01*
X107950431Y-64350702D01*
X107861354Y-64145840D01*
X107740014Y-63958277D01*
X107589670Y-63793051D01*
X107585619Y-63789852D01*
X107585615Y-63789848D01*
X107418414Y-63657800D01*
X107418410Y-63657798D01*
X107414359Y-63654598D01*
X107374696Y-63632703D01*
X109390743Y-63632703D01*
X109391302Y-63636947D01*
X109391302Y-63636951D01*
X109394210Y-63659036D01*
X109428268Y-63917734D01*
X109429401Y-63921874D01*
X109429401Y-63921876D01*
X109434197Y-63939406D01*
X109504129Y-64195036D01*
X109505813Y-64198984D01*
X109570527Y-64350702D01*
X109616923Y-64459476D01*
X109764561Y-64706161D01*
X109944313Y-64930528D01*
X110152851Y-65128423D01*
X110175787Y-65144904D01*
X110380229Y-65291811D01*
X110386317Y-65296186D01*
X110390112Y-65298195D01*
X110390113Y-65298196D01*
X110411869Y-65309715D01*
X110640392Y-65430712D01*
X110734482Y-65465144D01*
X110810679Y-65493028D01*
X110910373Y-65529511D01*
X111191264Y-65590755D01*
X111219841Y-65593004D01*
X111414282Y-65608307D01*
X111414291Y-65608307D01*
X111416739Y-65608500D01*
X111572271Y-65608500D01*
X111574407Y-65608354D01*
X111574418Y-65608354D01*
X111782548Y-65594165D01*
X111782554Y-65594164D01*
X111786825Y-65593873D01*
X111791020Y-65593004D01*
X111791022Y-65593004D01*
X111927583Y-65564724D01*
X112068342Y-65535574D01*
X112339343Y-65439607D01*
X112594812Y-65307750D01*
X112598313Y-65305289D01*
X112598317Y-65305287D01*
X112751484Y-65197639D01*
X112830023Y-65142441D01*
X113040622Y-64946740D01*
X113222713Y-64724268D01*
X113372927Y-64479142D01*
X113427106Y-64355720D01*
X113486757Y-64219830D01*
X113488483Y-64215898D01*
X113567244Y-63939406D01*
X113607751Y-63654784D01*
X113607829Y-63640036D01*
X113609235Y-63371583D01*
X113609235Y-63371576D01*
X113609257Y-63367297D01*
X113608438Y-63361071D01*
X113578956Y-63137137D01*
X113571732Y-63082266D01*
X113565365Y-63058990D01*
X113549585Y-63001311D01*
X113495871Y-62804964D01*
X113383077Y-62540524D01*
X113251041Y-62319908D01*
X113237643Y-62297521D01*
X113237640Y-62297517D01*
X113235439Y-62293839D01*
X113055687Y-62069472D01*
X112847149Y-61871577D01*
X112613683Y-61703814D01*
X112591843Y-61692250D01*
X112568654Y-61679972D01*
X112359608Y-61569288D01*
X112089627Y-61470489D01*
X111808736Y-61409245D01*
X111777685Y-61406801D01*
X111585718Y-61391693D01*
X111585709Y-61391693D01*
X111583261Y-61391500D01*
X111427729Y-61391500D01*
X111425593Y-61391646D01*
X111425582Y-61391646D01*
X111217452Y-61405835D01*
X111217446Y-61405836D01*
X111213175Y-61406127D01*
X111208980Y-61406996D01*
X111208978Y-61406996D01*
X111154504Y-61418277D01*
X110931658Y-61464426D01*
X110660657Y-61560393D01*
X110405188Y-61692250D01*
X110401687Y-61694711D01*
X110401683Y-61694713D01*
X110306789Y-61761406D01*
X110169977Y-61857559D01*
X110154892Y-61871577D01*
X109981695Y-62032522D01*
X109959378Y-62053260D01*
X109777287Y-62275732D01*
X109627073Y-62520858D01*
X109511517Y-62784102D01*
X109510342Y-62788229D01*
X109510341Y-62788230D01*
X109488582Y-62864616D01*
X109432756Y-63060594D01*
X109392249Y-63345216D01*
X109392227Y-63349505D01*
X109392226Y-63349512D01*
X109390765Y-63628417D01*
X109390743Y-63632703D01*
X107374696Y-63632703D01*
X107373053Y-63631796D01*
X107323084Y-63581364D01*
X107308312Y-63511921D01*
X107333428Y-63445516D01*
X107360780Y-63418909D01*
X107427129Y-63371583D01*
X107539860Y-63291173D01*
X107698096Y-63133489D01*
X107757594Y-63050689D01*
X107825435Y-62956277D01*
X107828453Y-62952077D01*
X107849320Y-62909857D01*
X107925136Y-62756453D01*
X107925137Y-62756451D01*
X107927430Y-62751811D01*
X107979037Y-62581953D01*
X107990865Y-62543023D01*
X107990865Y-62543021D01*
X107992370Y-62538069D01*
X108021529Y-62316590D01*
X108022438Y-62279386D01*
X108023074Y-62253365D01*
X108023074Y-62253361D01*
X108023156Y-62250000D01*
X108004852Y-62027361D01*
X107950431Y-61810702D01*
X107861354Y-61605840D01*
X107791781Y-61498296D01*
X107742822Y-61422617D01*
X107742820Y-61422614D01*
X107740014Y-61418277D01*
X107589670Y-61253051D01*
X107585619Y-61249852D01*
X107585615Y-61249848D01*
X107418414Y-61117800D01*
X107418410Y-61117798D01*
X107414359Y-61114598D01*
X107218789Y-61006638D01*
X107213920Y-61004914D01*
X107213916Y-61004912D01*
X107013087Y-60933795D01*
X107013083Y-60933794D01*
X107008212Y-60932069D01*
X107003119Y-60931162D01*
X107003116Y-60931161D01*
X106793373Y-60893800D01*
X106793367Y-60893799D01*
X106788284Y-60892894D01*
X106714452Y-60891992D01*
X106570081Y-60890228D01*
X106570079Y-60890228D01*
X106564911Y-60890165D01*
X106344091Y-60923955D01*
X106131756Y-60993357D01*
X106101443Y-61009137D01*
X105961938Y-61081759D01*
X105933607Y-61096507D01*
X105929474Y-61099610D01*
X105929471Y-61099612D01*
X105905247Y-61117800D01*
X105754965Y-61230635D01*
X105600629Y-61392138D01*
X105493201Y-61549621D01*
X105438293Y-61594621D01*
X105367768Y-61602792D01*
X105304021Y-61571538D01*
X105283324Y-61547054D01*
X105202822Y-61422617D01*
X105202820Y-61422614D01*
X105200014Y-61418277D01*
X105049670Y-61253051D01*
X105045619Y-61249852D01*
X105045615Y-61249848D01*
X104878414Y-61117800D01*
X104878410Y-61117798D01*
X104874359Y-61114598D01*
X104678789Y-61006638D01*
X104673920Y-61004914D01*
X104673916Y-61004912D01*
X104473087Y-60933795D01*
X104473083Y-60933794D01*
X104468212Y-60932069D01*
X104463119Y-60931162D01*
X104463116Y-60931161D01*
X104253373Y-60893800D01*
X104253367Y-60893799D01*
X104248284Y-60892894D01*
X104174452Y-60891992D01*
X104030081Y-60890228D01*
X104030079Y-60890228D01*
X104024911Y-60890165D01*
X103804091Y-60923955D01*
X103591756Y-60993357D01*
X103561443Y-61009137D01*
X103421938Y-61081759D01*
X103393607Y-61096507D01*
X103389474Y-61099610D01*
X103389471Y-61099612D01*
X103365247Y-61117800D01*
X103214965Y-61230635D01*
X103060629Y-61392138D01*
X102953201Y-61549621D01*
X102898293Y-61594621D01*
X102827768Y-61602792D01*
X102764021Y-61571538D01*
X102743324Y-61547054D01*
X102662822Y-61422617D01*
X102662820Y-61422614D01*
X102660014Y-61418277D01*
X102509670Y-61253051D01*
X102505619Y-61249852D01*
X102505615Y-61249848D01*
X102338414Y-61117800D01*
X102338410Y-61117798D01*
X102334359Y-61114598D01*
X102138789Y-61006638D01*
X102133920Y-61004914D01*
X102133916Y-61004912D01*
X101933087Y-60933795D01*
X101933083Y-60933794D01*
X101928212Y-60932069D01*
X101923119Y-60931162D01*
X101923116Y-60931161D01*
X101713373Y-60893800D01*
X101713367Y-60893799D01*
X101708284Y-60892894D01*
X101634452Y-60891992D01*
X101490081Y-60890228D01*
X101490079Y-60890228D01*
X101484911Y-60890165D01*
X101264091Y-60923955D01*
X101051756Y-60993357D01*
X101021443Y-61009137D01*
X100881938Y-61081759D01*
X100853607Y-61096507D01*
X100849474Y-61099610D01*
X100849471Y-61099612D01*
X100825247Y-61117800D01*
X100674965Y-61230635D01*
X100520629Y-61392138D01*
X100413201Y-61549621D01*
X100358293Y-61594621D01*
X100287768Y-61602792D01*
X100224021Y-61571538D01*
X100203324Y-61547054D01*
X100122822Y-61422617D01*
X100122820Y-61422614D01*
X100120014Y-61418277D01*
X99969670Y-61253051D01*
X99965619Y-61249852D01*
X99965615Y-61249848D01*
X99798414Y-61117800D01*
X99798410Y-61117798D01*
X99794359Y-61114598D01*
X99598789Y-61006638D01*
X99593920Y-61004914D01*
X99593916Y-61004912D01*
X99393087Y-60933795D01*
X99393083Y-60933794D01*
X99388212Y-60932069D01*
X99383119Y-60931162D01*
X99383116Y-60931161D01*
X99173373Y-60893800D01*
X99173367Y-60893799D01*
X99168284Y-60892894D01*
X99094452Y-60891992D01*
X98950081Y-60890228D01*
X98950079Y-60890228D01*
X98944911Y-60890165D01*
X98724091Y-60923955D01*
X98511756Y-60993357D01*
X98481443Y-61009137D01*
X98341938Y-61081759D01*
X98313607Y-61096507D01*
X98309474Y-61099610D01*
X98309471Y-61099612D01*
X98285247Y-61117800D01*
X98134965Y-61230635D01*
X97980629Y-61392138D01*
X97873201Y-61549621D01*
X97818293Y-61594621D01*
X97747768Y-61602792D01*
X97684021Y-61571538D01*
X97663324Y-61547054D01*
X97582822Y-61422617D01*
X97582820Y-61422614D01*
X97580014Y-61418277D01*
X97429670Y-61253051D01*
X97425619Y-61249852D01*
X97425615Y-61249848D01*
X97258414Y-61117800D01*
X97258410Y-61117798D01*
X97254359Y-61114598D01*
X97058789Y-61006638D01*
X97053920Y-61004914D01*
X97053916Y-61004912D01*
X96853087Y-60933795D01*
X96853083Y-60933794D01*
X96848212Y-60932069D01*
X96843119Y-60931162D01*
X96843116Y-60931161D01*
X96633373Y-60893800D01*
X96633367Y-60893799D01*
X96628284Y-60892894D01*
X96554452Y-60891992D01*
X96410081Y-60890228D01*
X96410079Y-60890228D01*
X96404911Y-60890165D01*
X96184091Y-60923955D01*
X95971756Y-60993357D01*
X95941443Y-61009137D01*
X95801938Y-61081759D01*
X95773607Y-61096507D01*
X95769474Y-61099610D01*
X95769471Y-61099612D01*
X95745247Y-61117800D01*
X95594965Y-61230635D01*
X95440629Y-61392138D01*
X95333201Y-61549621D01*
X95278293Y-61594621D01*
X95207768Y-61602792D01*
X95144021Y-61571538D01*
X95123324Y-61547054D01*
X95042822Y-61422617D01*
X95042820Y-61422614D01*
X95040014Y-61418277D01*
X94889670Y-61253051D01*
X94885619Y-61249852D01*
X94885615Y-61249848D01*
X94718414Y-61117800D01*
X94718410Y-61117798D01*
X94714359Y-61114598D01*
X94518789Y-61006638D01*
X94513920Y-61004914D01*
X94513916Y-61004912D01*
X94313087Y-60933795D01*
X94313083Y-60933794D01*
X94308212Y-60932069D01*
X94303119Y-60931162D01*
X94303116Y-60931161D01*
X94093373Y-60893800D01*
X94093367Y-60893799D01*
X94088284Y-60892894D01*
X94014452Y-60891992D01*
X93870081Y-60890228D01*
X93870079Y-60890228D01*
X93864911Y-60890165D01*
X93644091Y-60923955D01*
X93431756Y-60993357D01*
X93401443Y-61009137D01*
X93261938Y-61081759D01*
X93233607Y-61096507D01*
X93229474Y-61099610D01*
X93229471Y-61099612D01*
X93205247Y-61117800D01*
X93054965Y-61230635D01*
X92900629Y-61392138D01*
X92793201Y-61549621D01*
X92738293Y-61594621D01*
X92667768Y-61602792D01*
X92604021Y-61571538D01*
X92583324Y-61547054D01*
X92502822Y-61422617D01*
X92502820Y-61422614D01*
X92500014Y-61418277D01*
X92349670Y-61253051D01*
X92345619Y-61249852D01*
X92345615Y-61249848D01*
X92178414Y-61117800D01*
X92178410Y-61117798D01*
X92174359Y-61114598D01*
X91978789Y-61006638D01*
X91973920Y-61004914D01*
X91973916Y-61004912D01*
X91773087Y-60933795D01*
X91773083Y-60933794D01*
X91768212Y-60932069D01*
X91763119Y-60931162D01*
X91763116Y-60931161D01*
X91553373Y-60893800D01*
X91553367Y-60893799D01*
X91548284Y-60892894D01*
X91474452Y-60891992D01*
X91330081Y-60890228D01*
X91330079Y-60890228D01*
X91324911Y-60890165D01*
X91104091Y-60923955D01*
X90891756Y-60993357D01*
X90861443Y-61009137D01*
X90721938Y-61081759D01*
X90693607Y-61096507D01*
X90689474Y-61099610D01*
X90689471Y-61099612D01*
X90665247Y-61117800D01*
X90514965Y-61230635D01*
X90360629Y-61392138D01*
X90253201Y-61549621D01*
X90198293Y-61594621D01*
X90127768Y-61602792D01*
X90064021Y-61571538D01*
X90043324Y-61547054D01*
X89962822Y-61422617D01*
X89962820Y-61422614D01*
X89960014Y-61418277D01*
X89809670Y-61253051D01*
X89805619Y-61249852D01*
X89805615Y-61249848D01*
X89638414Y-61117800D01*
X89638410Y-61117798D01*
X89634359Y-61114598D01*
X89438789Y-61006638D01*
X89433920Y-61004914D01*
X89433916Y-61004912D01*
X89233087Y-60933795D01*
X89233083Y-60933794D01*
X89228212Y-60932069D01*
X89223119Y-60931162D01*
X89223116Y-60931161D01*
X89013373Y-60893800D01*
X89013367Y-60893799D01*
X89008284Y-60892894D01*
X88934452Y-60891992D01*
X88790081Y-60890228D01*
X88790079Y-60890228D01*
X88784911Y-60890165D01*
X88564091Y-60923955D01*
X88351756Y-60993357D01*
X88321443Y-61009137D01*
X88181938Y-61081759D01*
X88153607Y-61096507D01*
X88149474Y-61099610D01*
X88149471Y-61099612D01*
X88125247Y-61117800D01*
X87974965Y-61230635D01*
X87820629Y-61392138D01*
X87713201Y-61549621D01*
X87658293Y-61594621D01*
X87587768Y-61602792D01*
X87524021Y-61571538D01*
X87503324Y-61547054D01*
X87422822Y-61422617D01*
X87422820Y-61422614D01*
X87420014Y-61418277D01*
X87269670Y-61253051D01*
X87265619Y-61249852D01*
X87265615Y-61249848D01*
X87098414Y-61117800D01*
X87098410Y-61117798D01*
X87094359Y-61114598D01*
X86898789Y-61006638D01*
X86893920Y-61004914D01*
X86893916Y-61004912D01*
X86693087Y-60933795D01*
X86693083Y-60933794D01*
X86688212Y-60932069D01*
X86683119Y-60931162D01*
X86683116Y-60931161D01*
X86473373Y-60893800D01*
X86473367Y-60893799D01*
X86468284Y-60892894D01*
X86394452Y-60891992D01*
X86250081Y-60890228D01*
X86250079Y-60890228D01*
X86244911Y-60890165D01*
X86024091Y-60923955D01*
X85811756Y-60993357D01*
X85781443Y-61009137D01*
X85641938Y-61081759D01*
X85613607Y-61096507D01*
X85609474Y-61099610D01*
X85609471Y-61099612D01*
X85585247Y-61117800D01*
X85434965Y-61230635D01*
X85280629Y-61392138D01*
X85173201Y-61549621D01*
X85118293Y-61594621D01*
X85047768Y-61602792D01*
X84984021Y-61571538D01*
X84963324Y-61547054D01*
X84882822Y-61422617D01*
X84882820Y-61422614D01*
X84880014Y-61418277D01*
X84729670Y-61253051D01*
X84725619Y-61249852D01*
X84725615Y-61249848D01*
X84558414Y-61117800D01*
X84558410Y-61117798D01*
X84554359Y-61114598D01*
X84358789Y-61006638D01*
X84353920Y-61004914D01*
X84353916Y-61004912D01*
X84153087Y-60933795D01*
X84153083Y-60933794D01*
X84148212Y-60932069D01*
X84143119Y-60931162D01*
X84143116Y-60931161D01*
X83933373Y-60893800D01*
X83933367Y-60893799D01*
X83928284Y-60892894D01*
X83854452Y-60891992D01*
X83710081Y-60890228D01*
X83710079Y-60890228D01*
X83704911Y-60890165D01*
X83484091Y-60923955D01*
X83271756Y-60993357D01*
X83241443Y-61009137D01*
X83101938Y-61081759D01*
X83073607Y-61096507D01*
X83069474Y-61099610D01*
X83069471Y-61099612D01*
X83045247Y-61117800D01*
X82894965Y-61230635D01*
X82740629Y-61392138D01*
X82633201Y-61549621D01*
X82578293Y-61594621D01*
X82507768Y-61602792D01*
X82444021Y-61571538D01*
X82423324Y-61547054D01*
X82342822Y-61422617D01*
X82342820Y-61422614D01*
X82340014Y-61418277D01*
X82189670Y-61253051D01*
X82185619Y-61249852D01*
X82185615Y-61249848D01*
X82018414Y-61117800D01*
X82018410Y-61117798D01*
X82014359Y-61114598D01*
X81818789Y-61006638D01*
X81813920Y-61004914D01*
X81813916Y-61004912D01*
X81613087Y-60933795D01*
X81613083Y-60933794D01*
X81608212Y-60932069D01*
X81603119Y-60931162D01*
X81603116Y-60931161D01*
X81393373Y-60893800D01*
X81393367Y-60893799D01*
X81388284Y-60892894D01*
X81314452Y-60891992D01*
X81170081Y-60890228D01*
X81170079Y-60890228D01*
X81164911Y-60890165D01*
X80944091Y-60923955D01*
X80731756Y-60993357D01*
X80701443Y-61009137D01*
X80561938Y-61081759D01*
X80533607Y-61096507D01*
X80529474Y-61099610D01*
X80529471Y-61099612D01*
X80505247Y-61117800D01*
X80354965Y-61230635D01*
X80200629Y-61392138D01*
X80093201Y-61549621D01*
X80038293Y-61594621D01*
X79967768Y-61602792D01*
X79904021Y-61571538D01*
X79883324Y-61547054D01*
X79802822Y-61422617D01*
X79802820Y-61422614D01*
X79800014Y-61418277D01*
X79649670Y-61253051D01*
X79645619Y-61249852D01*
X79645615Y-61249848D01*
X79478414Y-61117800D01*
X79478410Y-61117798D01*
X79474359Y-61114598D01*
X79278789Y-61006638D01*
X79273920Y-61004914D01*
X79273916Y-61004912D01*
X79073087Y-60933795D01*
X79073083Y-60933794D01*
X79068212Y-60932069D01*
X79063119Y-60931162D01*
X79063116Y-60931161D01*
X78853373Y-60893800D01*
X78853367Y-60893799D01*
X78848284Y-60892894D01*
X78774452Y-60891992D01*
X78630081Y-60890228D01*
X78630079Y-60890228D01*
X78624911Y-60890165D01*
X78404091Y-60923955D01*
X78191756Y-60993357D01*
X78161443Y-61009137D01*
X78021938Y-61081759D01*
X77993607Y-61096507D01*
X77989474Y-61099610D01*
X77989471Y-61099612D01*
X77965247Y-61117800D01*
X77814965Y-61230635D01*
X77660629Y-61392138D01*
X77553201Y-61549621D01*
X77498293Y-61594621D01*
X77427768Y-61602792D01*
X77364021Y-61571538D01*
X77343324Y-61547054D01*
X77262822Y-61422617D01*
X77262820Y-61422614D01*
X77260014Y-61418277D01*
X77109670Y-61253051D01*
X77105619Y-61249852D01*
X77105615Y-61249848D01*
X76938414Y-61117800D01*
X76938410Y-61117798D01*
X76934359Y-61114598D01*
X76738789Y-61006638D01*
X76733920Y-61004914D01*
X76733916Y-61004912D01*
X76533087Y-60933795D01*
X76533083Y-60933794D01*
X76528212Y-60932069D01*
X76523119Y-60931162D01*
X76523116Y-60931161D01*
X76313373Y-60893800D01*
X76313367Y-60893799D01*
X76308284Y-60892894D01*
X76234452Y-60891992D01*
X76090081Y-60890228D01*
X76090079Y-60890228D01*
X76084911Y-60890165D01*
X75864091Y-60923955D01*
X75651756Y-60993357D01*
X75621443Y-61009137D01*
X75481938Y-61081759D01*
X75453607Y-61096507D01*
X75449474Y-61099610D01*
X75449471Y-61099612D01*
X75425247Y-61117800D01*
X75274965Y-61230635D01*
X75120629Y-61392138D01*
X75013201Y-61549621D01*
X74958293Y-61594621D01*
X74887768Y-61602792D01*
X74824021Y-61571538D01*
X74803324Y-61547054D01*
X74722822Y-61422617D01*
X74722820Y-61422614D01*
X74720014Y-61418277D01*
X74569670Y-61253051D01*
X74565619Y-61249852D01*
X74565615Y-61249848D01*
X74398414Y-61117800D01*
X74398410Y-61117798D01*
X74394359Y-61114598D01*
X74198789Y-61006638D01*
X74193920Y-61004914D01*
X74193916Y-61004912D01*
X73993087Y-60933795D01*
X73993083Y-60933794D01*
X73988212Y-60932069D01*
X73983119Y-60931162D01*
X73983116Y-60931161D01*
X73773373Y-60893800D01*
X73773367Y-60893799D01*
X73768284Y-60892894D01*
X73694452Y-60891992D01*
X73550081Y-60890228D01*
X73550079Y-60890228D01*
X73544911Y-60890165D01*
X73324091Y-60923955D01*
X73111756Y-60993357D01*
X73081443Y-61009137D01*
X72941938Y-61081759D01*
X72913607Y-61096507D01*
X72909474Y-61099610D01*
X72909471Y-61099612D01*
X72885247Y-61117800D01*
X72734965Y-61230635D01*
X72580629Y-61392138D01*
X72473201Y-61549621D01*
X72418293Y-61594621D01*
X72347768Y-61602792D01*
X72284021Y-61571538D01*
X72263324Y-61547054D01*
X72182822Y-61422617D01*
X72182820Y-61422614D01*
X72180014Y-61418277D01*
X72029670Y-61253051D01*
X72025619Y-61249852D01*
X72025615Y-61249848D01*
X71858414Y-61117800D01*
X71858410Y-61117798D01*
X71854359Y-61114598D01*
X71658789Y-61006638D01*
X71653920Y-61004914D01*
X71653916Y-61004912D01*
X71453087Y-60933795D01*
X71453083Y-60933794D01*
X71448212Y-60932069D01*
X71443119Y-60931162D01*
X71443116Y-60931161D01*
X71233373Y-60893800D01*
X71233367Y-60893799D01*
X71228284Y-60892894D01*
X71154452Y-60891992D01*
X71010081Y-60890228D01*
X71010079Y-60890228D01*
X71004911Y-60890165D01*
X70784091Y-60923955D01*
X70571756Y-60993357D01*
X70541443Y-61009137D01*
X70401938Y-61081759D01*
X70373607Y-61096507D01*
X70369474Y-61099610D01*
X70369471Y-61099612D01*
X70345247Y-61117800D01*
X70194965Y-61230635D01*
X70040629Y-61392138D01*
X69933201Y-61549621D01*
X69878293Y-61594621D01*
X69807768Y-61602792D01*
X69744021Y-61571538D01*
X69723324Y-61547054D01*
X69642822Y-61422617D01*
X69642820Y-61422614D01*
X69640014Y-61418277D01*
X69489670Y-61253051D01*
X69485619Y-61249852D01*
X69485615Y-61249848D01*
X69318414Y-61117800D01*
X69318410Y-61117798D01*
X69314359Y-61114598D01*
X69118789Y-61006638D01*
X69113920Y-61004914D01*
X69113916Y-61004912D01*
X68913087Y-60933795D01*
X68913083Y-60933794D01*
X68908212Y-60932069D01*
X68903119Y-60931162D01*
X68903116Y-60931161D01*
X68693373Y-60893800D01*
X68693367Y-60893799D01*
X68688284Y-60892894D01*
X68614452Y-60891992D01*
X68470081Y-60890228D01*
X68470079Y-60890228D01*
X68464911Y-60890165D01*
X68244091Y-60923955D01*
X68031756Y-60993357D01*
X68001443Y-61009137D01*
X67861938Y-61081759D01*
X67833607Y-61096507D01*
X67829474Y-61099610D01*
X67829471Y-61099612D01*
X67805247Y-61117800D01*
X67654965Y-61230635D01*
X67500629Y-61392138D01*
X67393201Y-61549621D01*
X67338293Y-61594621D01*
X67267768Y-61602792D01*
X67204021Y-61571538D01*
X67183324Y-61547054D01*
X67102822Y-61422617D01*
X67102820Y-61422614D01*
X67100014Y-61418277D01*
X66949670Y-61253051D01*
X66945619Y-61249852D01*
X66945615Y-61249848D01*
X66778414Y-61117800D01*
X66778410Y-61117798D01*
X66774359Y-61114598D01*
X66578789Y-61006638D01*
X66573920Y-61004914D01*
X66573916Y-61004912D01*
X66373087Y-60933795D01*
X66373083Y-60933794D01*
X66368212Y-60932069D01*
X66363119Y-60931162D01*
X66363116Y-60931161D01*
X66153373Y-60893800D01*
X66153367Y-60893799D01*
X66148284Y-60892894D01*
X66074452Y-60891992D01*
X65930081Y-60890228D01*
X65930079Y-60890228D01*
X65924911Y-60890165D01*
X65704091Y-60923955D01*
X65491756Y-60993357D01*
X65461443Y-61009137D01*
X65321938Y-61081759D01*
X65293607Y-61096507D01*
X65289474Y-61099610D01*
X65289471Y-61099612D01*
X65265247Y-61117800D01*
X65114965Y-61230635D01*
X64960629Y-61392138D01*
X64853201Y-61549621D01*
X64798293Y-61594621D01*
X64727768Y-61602792D01*
X64664021Y-61571538D01*
X64643324Y-61547054D01*
X64562822Y-61422617D01*
X64562820Y-61422614D01*
X64560014Y-61418277D01*
X64409670Y-61253051D01*
X64405619Y-61249852D01*
X64405615Y-61249848D01*
X64238414Y-61117800D01*
X64238410Y-61117798D01*
X64234359Y-61114598D01*
X64038789Y-61006638D01*
X64033920Y-61004914D01*
X64033916Y-61004912D01*
X63833087Y-60933795D01*
X63833083Y-60933794D01*
X63828212Y-60932069D01*
X63823119Y-60931162D01*
X63823116Y-60931161D01*
X63613373Y-60893800D01*
X63613367Y-60893799D01*
X63608284Y-60892894D01*
X63534452Y-60891992D01*
X63390081Y-60890228D01*
X63390079Y-60890228D01*
X63384911Y-60890165D01*
X63164091Y-60923955D01*
X62951756Y-60993357D01*
X62921443Y-61009137D01*
X62781938Y-61081759D01*
X62753607Y-61096507D01*
X62749474Y-61099610D01*
X62749471Y-61099612D01*
X62725247Y-61117800D01*
X62574965Y-61230635D01*
X62420629Y-61392138D01*
X62313201Y-61549621D01*
X62258293Y-61594621D01*
X62187768Y-61602792D01*
X62124021Y-61571538D01*
X62103324Y-61547054D01*
X62022822Y-61422617D01*
X62022820Y-61422614D01*
X62020014Y-61418277D01*
X61869670Y-61253051D01*
X61865619Y-61249852D01*
X61865615Y-61249848D01*
X61698414Y-61117800D01*
X61698410Y-61117798D01*
X61694359Y-61114598D01*
X61498789Y-61006638D01*
X61493920Y-61004914D01*
X61493916Y-61004912D01*
X61293087Y-60933795D01*
X61293083Y-60933794D01*
X61288212Y-60932069D01*
X61283119Y-60931162D01*
X61283116Y-60931161D01*
X61073373Y-60893800D01*
X61073367Y-60893799D01*
X61068284Y-60892894D01*
X60994452Y-60891992D01*
X60850081Y-60890228D01*
X60850079Y-60890228D01*
X60844911Y-60890165D01*
X60624091Y-60923955D01*
X60411756Y-60993357D01*
X60381443Y-61009137D01*
X60241938Y-61081759D01*
X60213607Y-61096507D01*
X60209474Y-61099610D01*
X60209471Y-61099612D01*
X60185247Y-61117800D01*
X60034965Y-61230635D01*
X59880629Y-61392138D01*
X59773201Y-61549621D01*
X59718293Y-61594621D01*
X59647768Y-61602792D01*
X59584021Y-61571538D01*
X59563324Y-61547054D01*
X59482822Y-61422617D01*
X59482820Y-61422614D01*
X59480014Y-61418277D01*
X59329670Y-61253051D01*
X59325619Y-61249852D01*
X59325615Y-61249848D01*
X59158414Y-61117800D01*
X59158410Y-61117798D01*
X59154359Y-61114598D01*
X58958789Y-61006638D01*
X58953920Y-61004914D01*
X58953916Y-61004912D01*
X58753087Y-60933795D01*
X58753083Y-60933794D01*
X58748212Y-60932069D01*
X58743119Y-60931162D01*
X58743116Y-60931161D01*
X58533373Y-60893800D01*
X58533367Y-60893799D01*
X58528284Y-60892894D01*
X58454452Y-60891992D01*
X58310081Y-60890228D01*
X58310079Y-60890228D01*
X58304911Y-60890165D01*
X58084091Y-60923955D01*
X57871756Y-60993357D01*
X57841443Y-61009137D01*
X57701938Y-61081759D01*
X57673607Y-61096507D01*
X57669474Y-61099610D01*
X57669471Y-61099612D01*
X57645247Y-61117800D01*
X57494965Y-61230635D01*
X57340629Y-61392138D01*
X57337720Y-61396403D01*
X57337714Y-61396411D01*
X57325404Y-61414457D01*
X57214743Y-61576680D01*
X57199003Y-61610590D01*
X57162010Y-61690285D01*
X57120688Y-61779305D01*
X57060989Y-61994570D01*
X57037251Y-62216695D01*
X55173635Y-62216695D01*
X55055687Y-62069472D01*
X54847149Y-61871577D01*
X54613683Y-61703814D01*
X54591843Y-61692250D01*
X54568654Y-61679972D01*
X54359608Y-61569288D01*
X54089627Y-61470489D01*
X53808736Y-61409245D01*
X53777685Y-61406801D01*
X53585718Y-61391693D01*
X53585709Y-61391693D01*
X53583261Y-61391500D01*
X53427729Y-61391500D01*
X53425593Y-61391646D01*
X53425582Y-61391646D01*
X53217452Y-61405835D01*
X53217446Y-61405836D01*
X53213175Y-61406127D01*
X53208980Y-61406996D01*
X53208978Y-61406996D01*
X53154504Y-61418277D01*
X52931658Y-61464426D01*
X52660657Y-61560393D01*
X52405188Y-61692250D01*
X52401687Y-61694711D01*
X52401683Y-61694713D01*
X52306789Y-61761406D01*
X52169977Y-61857559D01*
X52154892Y-61871577D01*
X51981695Y-62032522D01*
X51959378Y-62053260D01*
X51777287Y-62275732D01*
X51627073Y-62520858D01*
X51511517Y-62784102D01*
X51510342Y-62788229D01*
X51510341Y-62788230D01*
X51488582Y-62864616D01*
X51432756Y-63060594D01*
X51392249Y-63345216D01*
X51392227Y-63349505D01*
X51392226Y-63349512D01*
X51390765Y-63628417D01*
X51390743Y-63632703D01*
X50508500Y-63632703D01*
X50508500Y-63553250D01*
X50510246Y-63532345D01*
X50512770Y-63517344D01*
X50512770Y-63517341D01*
X50513576Y-63512552D01*
X50513729Y-63500000D01*
X50512980Y-63494771D01*
X50511644Y-63485437D01*
X50510545Y-63460983D01*
X50524542Y-63193902D01*
X50525920Y-63180785D01*
X50572838Y-62884555D01*
X50575580Y-62871655D01*
X50632925Y-62657639D01*
X50653207Y-62581948D01*
X50657281Y-62569409D01*
X50669312Y-62538069D01*
X50764763Y-62289412D01*
X50770126Y-62277365D01*
X50906289Y-62010130D01*
X50912883Y-61998709D01*
X50915571Y-61994570D01*
X51076236Y-61747168D01*
X51083984Y-61736505D01*
X51112085Y-61701804D01*
X51272727Y-61503427D01*
X51281552Y-61493626D01*
X51493626Y-61281552D01*
X51503427Y-61272727D01*
X51698700Y-61114598D01*
X51736508Y-61083982D01*
X51747168Y-61076236D01*
X51998714Y-60912880D01*
X52010130Y-60906289D01*
X52277365Y-60770126D01*
X52289413Y-60764762D01*
X52569414Y-60657279D01*
X52581948Y-60653207D01*
X52726804Y-60614392D01*
X52871655Y-60575580D01*
X52884555Y-60572838D01*
X52965866Y-60559960D01*
X53180791Y-60525919D01*
X53193899Y-60524542D01*
X53269063Y-60520603D01*
X53457299Y-60510738D01*
X53483276Y-60512065D01*
X53484846Y-60512309D01*
X53484850Y-60512309D01*
X53493724Y-60513691D01*
X53502626Y-60512527D01*
X53502628Y-60512527D01*
X53517677Y-60510559D01*
X53525286Y-60509564D01*
X53541621Y-60508500D01*
X111450633Y-60508500D01*
X111470018Y-60510000D01*
G37*
G04 #@! TD.AperFunction*
M02*
