G04 #@! TF.GenerationSoftware,KiCad,Pcbnew,(6.0.9-0)*
G04 #@! TF.CreationDate,2024-08-31T06:56:55+09:00*
G04 #@! TF.ProjectId,LEDHat,4c454448-6174-42e6-9b69-6361645f7063,rev?*
G04 #@! TF.SameCoordinates,Original*
G04 #@! TF.FileFunction,Copper,L1,Top*
G04 #@! TF.FilePolarity,Positive*
%FSLAX46Y46*%
G04 Gerber Fmt 4.6, Leading zero omitted, Abs format (unit mm)*
G04 Created by KiCad (PCBNEW (6.0.9-0)) date 2024-08-31 06:56:55*
%MOMM*%
%LPD*%
G01*
G04 APERTURE LIST*
G04 Aperture macros list*
%AMRoundRect*
0 Rectangle with rounded corners*
0 $1 Rounding radius*
0 $2 $3 $4 $5 $6 $7 $8 $9 X,Y pos of 4 corners*
0 Add a 4 corners polygon primitive as box body*
4,1,4,$2,$3,$4,$5,$6,$7,$8,$9,$2,$3,0*
0 Add four circle primitives for the rounded corners*
1,1,$1+$1,$2,$3*
1,1,$1+$1,$4,$5*
1,1,$1+$1,$6,$7*
1,1,$1+$1,$8,$9*
0 Add four rect primitives between the rounded corners*
20,1,$1+$1,$2,$3,$4,$5,0*
20,1,$1+$1,$4,$5,$6,$7,0*
20,1,$1+$1,$6,$7,$8,$9,0*
20,1,$1+$1,$8,$9,$2,$3,0*%
%AMRotRect*
0 Rectangle, with rotation*
0 The origin of the aperture is its center*
0 $1 length*
0 $2 width*
0 $3 Rotation angle, in degrees counterclockwise*
0 Add horizontal line*
21,1,$1,$2,0,0,$3*%
G04 Aperture macros list end*
G04 #@! TA.AperFunction,SMDPad,CuDef*
%ADD10RotRect,2.500000X2.200000X144.000000*%
G04 #@! TD*
G04 #@! TA.AperFunction,SMDPad,CuDef*
%ADD11RotRect,1.550000X2.200000X144.000000*%
G04 #@! TD*
G04 #@! TA.AperFunction,SMDPad,CuDef*
%ADD12RotRect,2.500000X2.200000X108.000000*%
G04 #@! TD*
G04 #@! TA.AperFunction,SMDPad,CuDef*
%ADD13RotRect,1.550000X2.200000X108.000000*%
G04 #@! TD*
G04 #@! TA.AperFunction,SMDPad,CuDef*
%ADD14RoundRect,0.150000X-0.587500X-0.150000X0.587500X-0.150000X0.587500X0.150000X-0.587500X0.150000X0*%
G04 #@! TD*
G04 #@! TA.AperFunction,ComponentPad*
%ADD15RoundRect,0.450000X0.450000X-0.450000X0.450000X0.450000X-0.450000X0.450000X-0.450000X-0.450000X0*%
G04 #@! TD*
G04 #@! TA.AperFunction,ComponentPad*
%ADD16C,1.800000*%
G04 #@! TD*
G04 #@! TA.AperFunction,ComponentPad*
%ADD17O,1.700000X1.700000*%
G04 #@! TD*
G04 #@! TA.AperFunction,ComponentPad*
%ADD18R,1.700000X1.700000*%
G04 #@! TD*
G04 #@! TA.AperFunction,SMDPad,CuDef*
%ADD19RotRect,2.500000X2.200000X216.000000*%
G04 #@! TD*
G04 #@! TA.AperFunction,SMDPad,CuDef*
%ADD20RotRect,1.550000X2.200000X216.000000*%
G04 #@! TD*
G04 #@! TA.AperFunction,SMDPad,CuDef*
%ADD21RotRect,2.500000X2.200000X252.000000*%
G04 #@! TD*
G04 #@! TA.AperFunction,SMDPad,CuDef*
%ADD22RotRect,1.550000X2.200000X252.000000*%
G04 #@! TD*
G04 #@! TA.AperFunction,ComponentPad*
%ADD23C,1.600000*%
G04 #@! TD*
G04 #@! TA.AperFunction,ComponentPad*
%ADD24O,1.600000X1.600000*%
G04 #@! TD*
G04 #@! TA.AperFunction,SMDPad,CuDef*
%ADD25R,2.500000X2.200000*%
G04 #@! TD*
G04 #@! TA.AperFunction,SMDPad,CuDef*
%ADD26R,1.550000X2.200000*%
G04 #@! TD*
G04 #@! TA.AperFunction,SMDPad,CuDef*
%ADD27RotRect,2.500000X2.200000X72.000000*%
G04 #@! TD*
G04 #@! TA.AperFunction,SMDPad,CuDef*
%ADD28RotRect,1.550000X2.200000X72.000000*%
G04 #@! TD*
G04 #@! TA.AperFunction,SMDPad,CuDef*
%ADD29RotRect,2.500000X2.200000X288.000000*%
G04 #@! TD*
G04 #@! TA.AperFunction,SMDPad,CuDef*
%ADD30RotRect,1.550000X2.200000X288.000000*%
G04 #@! TD*
G04 #@! TA.AperFunction,SMDPad,CuDef*
%ADD31RotRect,2.500000X2.200000X36.000000*%
G04 #@! TD*
G04 #@! TA.AperFunction,SMDPad,CuDef*
%ADD32RotRect,1.550000X2.200000X36.000000*%
G04 #@! TD*
G04 #@! TA.AperFunction,SMDPad,CuDef*
%ADD33RotRect,2.500000X2.200000X324.000000*%
G04 #@! TD*
G04 #@! TA.AperFunction,SMDPad,CuDef*
%ADD34RotRect,1.550000X2.200000X324.000000*%
G04 #@! TD*
G04 #@! TA.AperFunction,ViaPad*
%ADD35C,0.800000*%
G04 #@! TD*
G04 #@! TA.AperFunction,Conductor*
%ADD36C,0.500000*%
G04 #@! TD*
G04 #@! TA.AperFunction,Conductor*
%ADD37C,0.600000*%
G04 #@! TD*
G04 APERTURE END LIST*
D10*
X69405196Y-85000000D03*
D11*
X67321977Y-83486452D03*
D12*
X76880196Y-79569094D03*
D13*
X76084477Y-77120124D03*
D14*
X110562500Y-71050000D03*
X110562500Y-72950000D03*
X112437500Y-72000000D03*
X107562500Y-81050000D03*
X107562500Y-82950000D03*
X109437500Y-82000000D03*
X68062500Y-68550000D03*
X68062500Y-70450000D03*
X69937500Y-69500000D03*
D15*
X109740000Y-103910000D03*
D16*
X111264000Y-102132000D03*
X109740000Y-100608000D03*
X111264000Y-99084000D03*
D17*
X61375000Y-70735000D03*
D18*
X61375000Y-73275000D03*
D19*
X69380196Y-102574778D03*
D20*
X67296977Y-104088326D03*
D21*
X76880196Y-108005684D03*
D22*
X76084477Y-110454654D03*
D23*
X52000000Y-103810000D03*
D24*
X52000000Y-96190000D03*
D25*
X96500000Y-93787389D03*
D26*
X99075000Y-93787389D03*
D27*
X86119804Y-79569094D03*
D28*
X86915523Y-77120124D03*
D29*
X86119804Y-108005684D03*
D30*
X86915523Y-110454654D03*
D31*
X93594804Y-85000000D03*
D32*
X95678023Y-83486452D03*
D25*
X66550000Y-93787389D03*
D26*
X63975000Y-93787389D03*
D14*
X102562500Y-72050000D03*
X102562500Y-73950000D03*
X104437500Y-73000000D03*
D33*
X93594804Y-102574778D03*
D34*
X95678023Y-104088326D03*
D23*
X53500000Y-79500000D03*
D24*
X53500000Y-87120000D03*
D18*
X58400000Y-64790000D03*
D17*
X58400000Y-62250000D03*
X60940000Y-64790000D03*
X60940000Y-62250000D03*
X63480000Y-64790000D03*
X63480000Y-62250000D03*
X66020000Y-64790000D03*
X66020000Y-62250000D03*
X68560000Y-64790000D03*
X68560000Y-62250000D03*
X71100000Y-64790000D03*
X71100000Y-62250000D03*
X73640000Y-64790000D03*
X73640000Y-62250000D03*
X76180000Y-64790000D03*
X76180000Y-62250000D03*
X78720000Y-64790000D03*
X78720000Y-62250000D03*
X81260000Y-64790000D03*
X81260000Y-62250000D03*
X83800000Y-64790000D03*
X83800000Y-62250000D03*
X86340000Y-64790000D03*
X86340000Y-62250000D03*
X88880000Y-64790000D03*
X88880000Y-62250000D03*
X91420000Y-64790000D03*
X91420000Y-62250000D03*
X93960000Y-64790000D03*
X93960000Y-62250000D03*
X96500000Y-64790000D03*
X96500000Y-62250000D03*
X99040000Y-64790000D03*
X99040000Y-62250000D03*
X101580000Y-64790000D03*
X101580000Y-62250000D03*
X104120000Y-64790000D03*
X104120000Y-62250000D03*
X106660000Y-64790000D03*
X106660000Y-62250000D03*
D35*
X92500000Y-75500000D03*
X56000000Y-67000000D03*
X71000000Y-76000000D03*
X110000000Y-68000000D03*
X106000000Y-69000000D03*
X84000000Y-73500000D03*
X107500000Y-92500000D03*
X61000000Y-79000000D03*
X100500000Y-68000000D03*
X73000000Y-71500000D03*
X58500000Y-92500000D03*
X60000000Y-103000000D03*
X56500000Y-95500000D03*
X81000000Y-112000000D03*
X70000000Y-109000000D03*
X70000000Y-112000000D03*
X99500000Y-104500000D03*
X56500000Y-82500000D03*
X102000000Y-97500000D03*
X60000000Y-83500000D03*
X106500000Y-97500000D03*
X57500000Y-103000000D03*
X59500000Y-106500000D03*
X78500000Y-71000000D03*
X92500000Y-111500000D03*
X89500000Y-70000000D03*
X100500000Y-89000000D03*
X56000000Y-92500000D03*
X94500000Y-70500000D03*
X104500000Y-78500000D03*
X80000000Y-68000000D03*
X114000000Y-74500000D03*
X111000000Y-85500000D03*
X111000000Y-76000000D03*
D36*
X108050000Y-71050000D02*
X106000000Y-69000000D01*
X110562500Y-71050000D02*
X108050000Y-71050000D01*
X68560000Y-64790000D02*
X62615000Y-70735000D01*
X62615000Y-70735000D02*
X61375000Y-70735000D01*
D37*
X83775000Y-73275000D02*
X84000000Y-73500000D01*
X61375000Y-73275000D02*
X83775000Y-73275000D01*
X56650000Y-79500000D02*
X61375000Y-74775000D01*
X61375000Y-74775000D02*
X61375000Y-73275000D01*
X61375000Y-70735000D02*
X67777500Y-70735000D01*
X67777500Y-70735000D02*
X68062500Y-70450000D01*
X52000000Y-78500000D02*
X59765000Y-70735000D01*
X59765000Y-70735000D02*
X61375000Y-70735000D01*
X75900397Y-110454654D02*
X76084477Y-110454654D01*
X69380196Y-103934453D02*
X75900397Y-110454654D01*
X69380196Y-102574778D02*
X69380196Y-103934453D01*
X67296977Y-104088326D02*
X63975000Y-100766349D01*
X57307611Y-87120000D02*
X63975000Y-93787389D01*
X53500000Y-87120000D02*
X57307611Y-87120000D01*
X63975000Y-100766349D02*
X63975000Y-93787389D01*
X76880196Y-108005684D02*
X79329166Y-110454654D01*
X79329166Y-110454654D02*
X86915523Y-110454654D01*
X91760665Y-108005684D02*
X95678023Y-104088326D01*
X86119804Y-108005684D02*
X91760665Y-108005684D01*
X93594804Y-102574778D02*
X99075000Y-97094582D01*
X99075000Y-97094582D02*
X99075000Y-93787389D01*
X69937500Y-69500000D02*
X83105785Y-69500000D01*
X98000000Y-82000000D02*
X98000000Y-88000000D01*
X96500000Y-87905196D02*
X93594804Y-85000000D01*
X83105785Y-69500000D02*
X94605785Y-81000000D01*
X96500000Y-93787389D02*
X96500000Y-88000000D01*
X97000000Y-81000000D02*
X98000000Y-82000000D01*
X96500000Y-88000000D02*
X96500000Y-87905196D01*
X94605785Y-81000000D02*
X97000000Y-81000000D01*
X98000000Y-88000000D02*
X96500000Y-88000000D01*
X66550000Y-93787389D02*
X66550000Y-84258429D01*
X66550000Y-84258429D02*
X67321977Y-83486452D01*
X69405196Y-83640325D02*
X75925397Y-77120124D01*
X75925397Y-77120124D02*
X76084477Y-77120124D01*
X69405196Y-85000000D02*
X69405196Y-83640325D01*
X79329166Y-77120124D02*
X86915523Y-77120124D01*
X76880196Y-79569094D02*
X79329166Y-77120124D01*
X91760665Y-79569094D02*
X95678023Y-83486452D01*
X86119804Y-79569094D02*
X91760665Y-79569094D01*
X107500000Y-83012500D02*
X107562500Y-82950000D01*
X107500000Y-92500000D02*
X107500000Y-83012500D01*
X110562500Y-72950000D02*
X113000000Y-75387500D01*
X113000000Y-75387500D02*
X113000000Y-100396000D01*
X113000000Y-100396000D02*
X111264000Y-102132000D01*
X54500000Y-106500000D02*
X54500000Y-106310000D01*
X62000000Y-114000000D02*
X54500000Y-106500000D01*
X101000000Y-114000000D02*
X62000000Y-114000000D01*
X109740000Y-100608000D02*
X102392000Y-100608000D01*
X102392000Y-100608000D02*
X102392000Y-112608000D01*
X54500000Y-106310000D02*
X52000000Y-103810000D01*
X102392000Y-112608000D02*
X101000000Y-114000000D01*
X111264000Y-99084000D02*
X102562500Y-90382500D01*
X102562500Y-90382500D02*
X102562500Y-73950000D01*
X52000000Y-96190000D02*
X52000000Y-78500000D01*
X107050000Y-81050000D02*
X104500000Y-78500000D01*
X107562500Y-81050000D02*
X107050000Y-81050000D01*
X94500000Y-70500000D02*
X91420000Y-67420000D01*
X91420000Y-67420000D02*
X91420000Y-64790000D01*
X69612500Y-67000000D02*
X79000000Y-67000000D01*
X68062500Y-68550000D02*
X69612500Y-67000000D01*
X79000000Y-67000000D02*
X80000000Y-68000000D01*
X104120000Y-70492500D02*
X102562500Y-72050000D01*
X104120000Y-64790000D02*
X104120000Y-70492500D01*
X111000000Y-83562500D02*
X109437500Y-82000000D01*
X53500000Y-79500000D02*
X56650000Y-79500000D01*
X109437500Y-78000000D02*
X109437500Y-82000000D01*
X114000000Y-74500000D02*
X114000000Y-73562500D01*
X104437500Y-73000000D02*
X109218750Y-77781250D01*
X114000000Y-73562500D02*
X112437500Y-72000000D01*
X109218750Y-77781250D02*
X111000000Y-76000000D01*
X111000000Y-85500000D02*
X111000000Y-83562500D01*
X109218750Y-77781250D02*
X109437500Y-78000000D01*
G04 #@! TA.AperFunction,Conductor*
G36*
X111470018Y-60510000D02*
G01*
X111484851Y-60512310D01*
X111484855Y-60512310D01*
X111493724Y-60513691D01*
X111512436Y-60511244D01*
X111535366Y-60510353D01*
X111806103Y-60524542D01*
X111819209Y-60525919D01*
X112034134Y-60559960D01*
X112115445Y-60572838D01*
X112128345Y-60575580D01*
X112273196Y-60614392D01*
X112418052Y-60653207D01*
X112430586Y-60657279D01*
X112710587Y-60764762D01*
X112722635Y-60770126D01*
X112989870Y-60906289D01*
X113001286Y-60912880D01*
X113252832Y-61076236D01*
X113263492Y-61083982D01*
X113301300Y-61114598D01*
X113496573Y-61272727D01*
X113506374Y-61281552D01*
X113718448Y-61493626D01*
X113727273Y-61503427D01*
X113887916Y-61701804D01*
X113916016Y-61736505D01*
X113923764Y-61747168D01*
X114084429Y-61994570D01*
X114087117Y-61998709D01*
X114093711Y-62010130D01*
X114229874Y-62277365D01*
X114235237Y-62289412D01*
X114330689Y-62538069D01*
X114342719Y-62569409D01*
X114346793Y-62581948D01*
X114367075Y-62657639D01*
X114424420Y-62871655D01*
X114427162Y-62884555D01*
X114474080Y-63180785D01*
X114475458Y-63193902D01*
X114489262Y-63457299D01*
X114487935Y-63483276D01*
X114487691Y-63484846D01*
X114487691Y-63484850D01*
X114486309Y-63493724D01*
X114487473Y-63502626D01*
X114487473Y-63502628D01*
X114490436Y-63525283D01*
X114491500Y-63541621D01*
X114491500Y-72606418D01*
X114471498Y-72674539D01*
X114417842Y-72721032D01*
X114347568Y-72731136D01*
X114282988Y-72701642D01*
X114276405Y-72695513D01*
X113720405Y-72139513D01*
X113686379Y-72077201D01*
X113683500Y-72050418D01*
X113683500Y-71783498D01*
X113682919Y-71776113D01*
X113681067Y-71752579D01*
X113681066Y-71752574D01*
X113680562Y-71746169D01*
X113643227Y-71617661D01*
X113636357Y-71594012D01*
X113636356Y-71594010D01*
X113634145Y-71586399D01*
X113603977Y-71535388D01*
X113553491Y-71450020D01*
X113553489Y-71450017D01*
X113549453Y-71443193D01*
X113431807Y-71325547D01*
X113424983Y-71321511D01*
X113424980Y-71321509D01*
X113295427Y-71244892D01*
X113295428Y-71244892D01*
X113288601Y-71240855D01*
X113280990Y-71238644D01*
X113280988Y-71238643D01*
X113228769Y-71223472D01*
X113128831Y-71194438D01*
X113122426Y-71193934D01*
X113122421Y-71193933D01*
X113093958Y-71191693D01*
X113093950Y-71191693D01*
X113091502Y-71191500D01*
X112452081Y-71191500D01*
X112451641Y-71191499D01*
X112353157Y-71191155D01*
X112353152Y-71191155D01*
X112349630Y-71191143D01*
X112348430Y-71191411D01*
X112346793Y-71191500D01*
X111934500Y-71191500D01*
X111866379Y-71171498D01*
X111819886Y-71117842D01*
X111808500Y-71065500D01*
X111808500Y-70833498D01*
X111808307Y-70831042D01*
X111806067Y-70802579D01*
X111806066Y-70802574D01*
X111805562Y-70796169D01*
X111774696Y-70689928D01*
X111761357Y-70644012D01*
X111761356Y-70644010D01*
X111759145Y-70636399D01*
X111705344Y-70545426D01*
X111678491Y-70500020D01*
X111678489Y-70500017D01*
X111674453Y-70493193D01*
X111556807Y-70375547D01*
X111549983Y-70371511D01*
X111549980Y-70371509D01*
X111420427Y-70294892D01*
X111420428Y-70294892D01*
X111413601Y-70290855D01*
X111405990Y-70288644D01*
X111405988Y-70288643D01*
X111346973Y-70271498D01*
X111253831Y-70244438D01*
X111247426Y-70243934D01*
X111247421Y-70243933D01*
X111218958Y-70241693D01*
X111218950Y-70241693D01*
X111216502Y-70241500D01*
X109908498Y-70241500D01*
X109906050Y-70241693D01*
X109906042Y-70241693D01*
X109877579Y-70243933D01*
X109877574Y-70243934D01*
X109871169Y-70244438D01*
X109864993Y-70246232D01*
X109864989Y-70246233D01*
X109726398Y-70286497D01*
X109691246Y-70291500D01*
X108416371Y-70291500D01*
X108348250Y-70271498D01*
X108327276Y-70254595D01*
X106920125Y-68847444D01*
X106889387Y-68797285D01*
X106886825Y-68789398D01*
X106834527Y-68628444D01*
X106739040Y-68463056D01*
X106611253Y-68321134D01*
X106456752Y-68208882D01*
X106450724Y-68206198D01*
X106450722Y-68206197D01*
X106288319Y-68133891D01*
X106288318Y-68133891D01*
X106282288Y-68131206D01*
X106188888Y-68111353D01*
X106101944Y-68092872D01*
X106101939Y-68092872D01*
X106095487Y-68091500D01*
X105904513Y-68091500D01*
X105898061Y-68092872D01*
X105898056Y-68092872D01*
X105811112Y-68111353D01*
X105717712Y-68131206D01*
X105711682Y-68133891D01*
X105711681Y-68133891D01*
X105549278Y-68206197D01*
X105549276Y-68206198D01*
X105543248Y-68208882D01*
X105388747Y-68321134D01*
X105260960Y-68463056D01*
X105165473Y-68628444D01*
X105163920Y-68627547D01*
X105123625Y-68674954D01*
X105055698Y-68695602D01*
X104987390Y-68676249D01*
X104940389Y-68623037D01*
X104928500Y-68569608D01*
X104928500Y-65946968D01*
X104948502Y-65878847D01*
X104981331Y-65844390D01*
X104995654Y-65834174D01*
X104995661Y-65834168D01*
X104999860Y-65831173D01*
X105158096Y-65673489D01*
X105288453Y-65492077D01*
X105289776Y-65493028D01*
X105336645Y-65449857D01*
X105406580Y-65437625D01*
X105472026Y-65465144D01*
X105499875Y-65496994D01*
X105559987Y-65595088D01*
X105706250Y-65763938D01*
X105878126Y-65906632D01*
X106071000Y-66019338D01*
X106279692Y-66099030D01*
X106284760Y-66100061D01*
X106284763Y-66100062D01*
X106372155Y-66117842D01*
X106498597Y-66143567D01*
X106503772Y-66143757D01*
X106503774Y-66143757D01*
X106716673Y-66151564D01*
X106716677Y-66151564D01*
X106721837Y-66151753D01*
X106726957Y-66151097D01*
X106726959Y-66151097D01*
X106938288Y-66124025D01*
X106938289Y-66124025D01*
X106943416Y-66123368D01*
X106948366Y-66121883D01*
X107152429Y-66060661D01*
X107152434Y-66060659D01*
X107157384Y-66059174D01*
X107357994Y-65960896D01*
X107539860Y-65831173D01*
X107698096Y-65673489D01*
X107828453Y-65492077D01*
X107841995Y-65464678D01*
X107925136Y-65296453D01*
X107925137Y-65296451D01*
X107927430Y-65291811D01*
X107992370Y-65078069D01*
X108021529Y-64856590D01*
X108023156Y-64790000D01*
X108004852Y-64567361D01*
X107950431Y-64350702D01*
X107861354Y-64145840D01*
X107740014Y-63958277D01*
X107589670Y-63793051D01*
X107585619Y-63789852D01*
X107585615Y-63789848D01*
X107418414Y-63657800D01*
X107418410Y-63657798D01*
X107414359Y-63654598D01*
X107374696Y-63632703D01*
X109390743Y-63632703D01*
X109391302Y-63636947D01*
X109391302Y-63636951D01*
X109394210Y-63659036D01*
X109428268Y-63917734D01*
X109429401Y-63921874D01*
X109429401Y-63921876D01*
X109434197Y-63939406D01*
X109504129Y-64195036D01*
X109505813Y-64198984D01*
X109570527Y-64350702D01*
X109616923Y-64459476D01*
X109764561Y-64706161D01*
X109944313Y-64930528D01*
X110152851Y-65128423D01*
X110175787Y-65144904D01*
X110380229Y-65291811D01*
X110386317Y-65296186D01*
X110390112Y-65298195D01*
X110390113Y-65298196D01*
X110411869Y-65309715D01*
X110640392Y-65430712D01*
X110734482Y-65465144D01*
X110810679Y-65493028D01*
X110910373Y-65529511D01*
X111191264Y-65590755D01*
X111219841Y-65593004D01*
X111414282Y-65608307D01*
X111414291Y-65608307D01*
X111416739Y-65608500D01*
X111572271Y-65608500D01*
X111574407Y-65608354D01*
X111574418Y-65608354D01*
X111782548Y-65594165D01*
X111782554Y-65594164D01*
X111786825Y-65593873D01*
X111791020Y-65593004D01*
X111791022Y-65593004D01*
X111927583Y-65564724D01*
X112068342Y-65535574D01*
X112339343Y-65439607D01*
X112594812Y-65307750D01*
X112598313Y-65305289D01*
X112598317Y-65305287D01*
X112751484Y-65197639D01*
X112830023Y-65142441D01*
X113040622Y-64946740D01*
X113222713Y-64724268D01*
X113372927Y-64479142D01*
X113427106Y-64355720D01*
X113486757Y-64219830D01*
X113488483Y-64215898D01*
X113567244Y-63939406D01*
X113607751Y-63654784D01*
X113607829Y-63640036D01*
X113609235Y-63371583D01*
X113609235Y-63371576D01*
X113609257Y-63367297D01*
X113608438Y-63361071D01*
X113578956Y-63137137D01*
X113571732Y-63082266D01*
X113565365Y-63058990D01*
X113549585Y-63001311D01*
X113495871Y-62804964D01*
X113383077Y-62540524D01*
X113251041Y-62319908D01*
X113237643Y-62297521D01*
X113237640Y-62297517D01*
X113235439Y-62293839D01*
X113055687Y-62069472D01*
X112847149Y-61871577D01*
X112613683Y-61703814D01*
X112591843Y-61692250D01*
X112568654Y-61679972D01*
X112359608Y-61569288D01*
X112089627Y-61470489D01*
X111808736Y-61409245D01*
X111777685Y-61406801D01*
X111585718Y-61391693D01*
X111585709Y-61391693D01*
X111583261Y-61391500D01*
X111427729Y-61391500D01*
X111425593Y-61391646D01*
X111425582Y-61391646D01*
X111217452Y-61405835D01*
X111217446Y-61405836D01*
X111213175Y-61406127D01*
X111208980Y-61406996D01*
X111208978Y-61406996D01*
X111154504Y-61418277D01*
X110931658Y-61464426D01*
X110660657Y-61560393D01*
X110405188Y-61692250D01*
X110401687Y-61694711D01*
X110401683Y-61694713D01*
X110306789Y-61761406D01*
X110169977Y-61857559D01*
X110154892Y-61871577D01*
X109981695Y-62032522D01*
X109959378Y-62053260D01*
X109777287Y-62275732D01*
X109627073Y-62520858D01*
X109511517Y-62784102D01*
X109510342Y-62788229D01*
X109510341Y-62788230D01*
X109488582Y-62864616D01*
X109432756Y-63060594D01*
X109392249Y-63345216D01*
X109392227Y-63349505D01*
X109392226Y-63349512D01*
X109390765Y-63628417D01*
X109390743Y-63632703D01*
X107374696Y-63632703D01*
X107373053Y-63631796D01*
X107323084Y-63581364D01*
X107308312Y-63511921D01*
X107333428Y-63445516D01*
X107360780Y-63418909D01*
X107427129Y-63371583D01*
X107539860Y-63291173D01*
X107698096Y-63133489D01*
X107757594Y-63050689D01*
X107825435Y-62956277D01*
X107828453Y-62952077D01*
X107849320Y-62909857D01*
X107925136Y-62756453D01*
X107925137Y-62756451D01*
X107927430Y-62751811D01*
X107979037Y-62581953D01*
X107990865Y-62543023D01*
X107990865Y-62543021D01*
X107992370Y-62538069D01*
X108021529Y-62316590D01*
X108022438Y-62279386D01*
X108023074Y-62253365D01*
X108023074Y-62253361D01*
X108023156Y-62250000D01*
X108004852Y-62027361D01*
X107950431Y-61810702D01*
X107861354Y-61605840D01*
X107791781Y-61498296D01*
X107742822Y-61422617D01*
X107742820Y-61422614D01*
X107740014Y-61418277D01*
X107589670Y-61253051D01*
X107585619Y-61249852D01*
X107585615Y-61249848D01*
X107418414Y-61117800D01*
X107418410Y-61117798D01*
X107414359Y-61114598D01*
X107218789Y-61006638D01*
X107213920Y-61004914D01*
X107213916Y-61004912D01*
X107013087Y-60933795D01*
X107013083Y-60933794D01*
X107008212Y-60932069D01*
X107003119Y-60931162D01*
X107003116Y-60931161D01*
X106793373Y-60893800D01*
X106793367Y-60893799D01*
X106788284Y-60892894D01*
X106714452Y-60891992D01*
X106570081Y-60890228D01*
X106570079Y-60890228D01*
X106564911Y-60890165D01*
X106344091Y-60923955D01*
X106131756Y-60993357D01*
X106101443Y-61009137D01*
X105961938Y-61081759D01*
X105933607Y-61096507D01*
X105929474Y-61099610D01*
X105929471Y-61099612D01*
X105905247Y-61117800D01*
X105754965Y-61230635D01*
X105600629Y-61392138D01*
X105493201Y-61549621D01*
X105438293Y-61594621D01*
X105367768Y-61602792D01*
X105304021Y-61571538D01*
X105283324Y-61547054D01*
X105202822Y-61422617D01*
X105202820Y-61422614D01*
X105200014Y-61418277D01*
X105049670Y-61253051D01*
X105045619Y-61249852D01*
X105045615Y-61249848D01*
X104878414Y-61117800D01*
X104878410Y-61117798D01*
X104874359Y-61114598D01*
X104678789Y-61006638D01*
X104673920Y-61004914D01*
X104673916Y-61004912D01*
X104473087Y-60933795D01*
X104473083Y-60933794D01*
X104468212Y-60932069D01*
X104463119Y-60931162D01*
X104463116Y-60931161D01*
X104253373Y-60893800D01*
X104253367Y-60893799D01*
X104248284Y-60892894D01*
X104174452Y-60891992D01*
X104030081Y-60890228D01*
X104030079Y-60890228D01*
X104024911Y-60890165D01*
X103804091Y-60923955D01*
X103591756Y-60993357D01*
X103561443Y-61009137D01*
X103421938Y-61081759D01*
X103393607Y-61096507D01*
X103389474Y-61099610D01*
X103389471Y-61099612D01*
X103365247Y-61117800D01*
X103214965Y-61230635D01*
X103060629Y-61392138D01*
X102953201Y-61549621D01*
X102898293Y-61594621D01*
X102827768Y-61602792D01*
X102764021Y-61571538D01*
X102743324Y-61547054D01*
X102662822Y-61422617D01*
X102662820Y-61422614D01*
X102660014Y-61418277D01*
X102509670Y-61253051D01*
X102505619Y-61249852D01*
X102505615Y-61249848D01*
X102338414Y-61117800D01*
X102338410Y-61117798D01*
X102334359Y-61114598D01*
X102138789Y-61006638D01*
X102133920Y-61004914D01*
X102133916Y-61004912D01*
X101933087Y-60933795D01*
X101933083Y-60933794D01*
X101928212Y-60932069D01*
X101923119Y-60931162D01*
X101923116Y-60931161D01*
X101713373Y-60893800D01*
X101713367Y-60893799D01*
X101708284Y-60892894D01*
X101634452Y-60891992D01*
X101490081Y-60890228D01*
X101490079Y-60890228D01*
X101484911Y-60890165D01*
X101264091Y-60923955D01*
X101051756Y-60993357D01*
X101021443Y-61009137D01*
X100881938Y-61081759D01*
X100853607Y-61096507D01*
X100849474Y-61099610D01*
X100849471Y-61099612D01*
X100825247Y-61117800D01*
X100674965Y-61230635D01*
X100520629Y-61392138D01*
X100413201Y-61549621D01*
X100358293Y-61594621D01*
X100287768Y-61602792D01*
X100224021Y-61571538D01*
X100203324Y-61547054D01*
X100122822Y-61422617D01*
X100122820Y-61422614D01*
X100120014Y-61418277D01*
X99969670Y-61253051D01*
X99965619Y-61249852D01*
X99965615Y-61249848D01*
X99798414Y-61117800D01*
X99798410Y-61117798D01*
X99794359Y-61114598D01*
X99598789Y-61006638D01*
X99593920Y-61004914D01*
X99593916Y-61004912D01*
X99393087Y-60933795D01*
X99393083Y-60933794D01*
X99388212Y-60932069D01*
X99383119Y-60931162D01*
X99383116Y-60931161D01*
X99173373Y-60893800D01*
X99173367Y-60893799D01*
X99168284Y-60892894D01*
X99094452Y-60891992D01*
X98950081Y-60890228D01*
X98950079Y-60890228D01*
X98944911Y-60890165D01*
X98724091Y-60923955D01*
X98511756Y-60993357D01*
X98481443Y-61009137D01*
X98341938Y-61081759D01*
X98313607Y-61096507D01*
X98309474Y-61099610D01*
X98309471Y-61099612D01*
X98285247Y-61117800D01*
X98134965Y-61230635D01*
X97980629Y-61392138D01*
X97873201Y-61549621D01*
X97818293Y-61594621D01*
X97747768Y-61602792D01*
X97684021Y-61571538D01*
X97663324Y-61547054D01*
X97582822Y-61422617D01*
X97582820Y-61422614D01*
X97580014Y-61418277D01*
X97429670Y-61253051D01*
X97425619Y-61249852D01*
X97425615Y-61249848D01*
X97258414Y-61117800D01*
X97258410Y-61117798D01*
X97254359Y-61114598D01*
X97058789Y-61006638D01*
X97053920Y-61004914D01*
X97053916Y-61004912D01*
X96853087Y-60933795D01*
X96853083Y-60933794D01*
X96848212Y-60932069D01*
X96843119Y-60931162D01*
X96843116Y-60931161D01*
X96633373Y-60893800D01*
X96633367Y-60893799D01*
X96628284Y-60892894D01*
X96554452Y-60891992D01*
X96410081Y-60890228D01*
X96410079Y-60890228D01*
X96404911Y-60890165D01*
X96184091Y-60923955D01*
X95971756Y-60993357D01*
X95941443Y-61009137D01*
X95801938Y-61081759D01*
X95773607Y-61096507D01*
X95769474Y-61099610D01*
X95769471Y-61099612D01*
X95745247Y-61117800D01*
X95594965Y-61230635D01*
X95440629Y-61392138D01*
X95333201Y-61549621D01*
X95278293Y-61594621D01*
X95207768Y-61602792D01*
X95144021Y-61571538D01*
X95123324Y-61547054D01*
X95042822Y-61422617D01*
X95042820Y-61422614D01*
X95040014Y-61418277D01*
X94889670Y-61253051D01*
X94885619Y-61249852D01*
X94885615Y-61249848D01*
X94718414Y-61117800D01*
X94718410Y-61117798D01*
X94714359Y-61114598D01*
X94518789Y-61006638D01*
X94513920Y-61004914D01*
X94513916Y-61004912D01*
X94313087Y-60933795D01*
X94313083Y-60933794D01*
X94308212Y-60932069D01*
X94303119Y-60931162D01*
X94303116Y-60931161D01*
X94093373Y-60893800D01*
X94093367Y-60893799D01*
X94088284Y-60892894D01*
X94014452Y-60891992D01*
X93870081Y-60890228D01*
X93870079Y-60890228D01*
X93864911Y-60890165D01*
X93644091Y-60923955D01*
X93431756Y-60993357D01*
X93401443Y-61009137D01*
X93261938Y-61081759D01*
X93233607Y-61096507D01*
X93229474Y-61099610D01*
X93229471Y-61099612D01*
X93205247Y-61117800D01*
X93054965Y-61230635D01*
X92900629Y-61392138D01*
X92793201Y-61549621D01*
X92738293Y-61594621D01*
X92667768Y-61602792D01*
X92604021Y-61571538D01*
X92583324Y-61547054D01*
X92502822Y-61422617D01*
X92502820Y-61422614D01*
X92500014Y-61418277D01*
X92349670Y-61253051D01*
X92345619Y-61249852D01*
X92345615Y-61249848D01*
X92178414Y-61117800D01*
X92178410Y-61117798D01*
X92174359Y-61114598D01*
X91978789Y-61006638D01*
X91973920Y-61004914D01*
X91973916Y-61004912D01*
X91773087Y-60933795D01*
X91773083Y-60933794D01*
X91768212Y-60932069D01*
X91763119Y-60931162D01*
X91763116Y-60931161D01*
X91553373Y-60893800D01*
X91553367Y-60893799D01*
X91548284Y-60892894D01*
X91474452Y-60891992D01*
X91330081Y-60890228D01*
X91330079Y-60890228D01*
X91324911Y-60890165D01*
X91104091Y-60923955D01*
X90891756Y-60993357D01*
X90861443Y-61009137D01*
X90721938Y-61081759D01*
X90693607Y-61096507D01*
X90689474Y-61099610D01*
X90689471Y-61099612D01*
X90665247Y-61117800D01*
X90514965Y-61230635D01*
X90360629Y-61392138D01*
X90253201Y-61549621D01*
X90198293Y-61594621D01*
X90127768Y-61602792D01*
X90064021Y-61571538D01*
X90043324Y-61547054D01*
X89962822Y-61422617D01*
X89962820Y-61422614D01*
X89960014Y-61418277D01*
X89809670Y-61253051D01*
X89805619Y-61249852D01*
X89805615Y-61249848D01*
X89638414Y-61117800D01*
X89638410Y-61117798D01*
X89634359Y-61114598D01*
X89438789Y-61006638D01*
X89433920Y-61004914D01*
X89433916Y-61004912D01*
X89233087Y-60933795D01*
X89233083Y-60933794D01*
X89228212Y-60932069D01*
X89223119Y-60931162D01*
X89223116Y-60931161D01*
X89013373Y-60893800D01*
X89013367Y-60893799D01*
X89008284Y-60892894D01*
X88934452Y-60891992D01*
X88790081Y-60890228D01*
X88790079Y-60890228D01*
X88784911Y-60890165D01*
X88564091Y-60923955D01*
X88351756Y-60993357D01*
X88321443Y-61009137D01*
X88181938Y-61081759D01*
X88153607Y-61096507D01*
X88149474Y-61099610D01*
X88149471Y-61099612D01*
X88125247Y-61117800D01*
X87974965Y-61230635D01*
X87820629Y-61392138D01*
X87713201Y-61549621D01*
X87658293Y-61594621D01*
X87587768Y-61602792D01*
X87524021Y-61571538D01*
X87503324Y-61547054D01*
X87422822Y-61422617D01*
X87422820Y-61422614D01*
X87420014Y-61418277D01*
X87269670Y-61253051D01*
X87265619Y-61249852D01*
X87265615Y-61249848D01*
X87098414Y-61117800D01*
X87098410Y-61117798D01*
X87094359Y-61114598D01*
X86898789Y-61006638D01*
X86893920Y-61004914D01*
X86893916Y-61004912D01*
X86693087Y-60933795D01*
X86693083Y-60933794D01*
X86688212Y-60932069D01*
X86683119Y-60931162D01*
X86683116Y-60931161D01*
X86473373Y-60893800D01*
X86473367Y-60893799D01*
X86468284Y-60892894D01*
X86394452Y-60891992D01*
X86250081Y-60890228D01*
X86250079Y-60890228D01*
X86244911Y-60890165D01*
X86024091Y-60923955D01*
X85811756Y-60993357D01*
X85781443Y-61009137D01*
X85641938Y-61081759D01*
X85613607Y-61096507D01*
X85609474Y-61099610D01*
X85609471Y-61099612D01*
X85585247Y-61117800D01*
X85434965Y-61230635D01*
X85280629Y-61392138D01*
X85173201Y-61549621D01*
X85118293Y-61594621D01*
X85047768Y-61602792D01*
X84984021Y-61571538D01*
X84963324Y-61547054D01*
X84882822Y-61422617D01*
X84882820Y-61422614D01*
X84880014Y-61418277D01*
X84729670Y-61253051D01*
X84725619Y-61249852D01*
X84725615Y-61249848D01*
X84558414Y-61117800D01*
X84558410Y-61117798D01*
X84554359Y-61114598D01*
X84358789Y-61006638D01*
X84353920Y-61004914D01*
X84353916Y-61004912D01*
X84153087Y-60933795D01*
X84153083Y-60933794D01*
X84148212Y-60932069D01*
X84143119Y-60931162D01*
X84143116Y-60931161D01*
X83933373Y-60893800D01*
X83933367Y-60893799D01*
X83928284Y-60892894D01*
X83854452Y-60891992D01*
X83710081Y-60890228D01*
X83710079Y-60890228D01*
X83704911Y-60890165D01*
X83484091Y-60923955D01*
X83271756Y-60993357D01*
X83241443Y-61009137D01*
X83101938Y-61081759D01*
X83073607Y-61096507D01*
X83069474Y-61099610D01*
X83069471Y-61099612D01*
X83045247Y-61117800D01*
X82894965Y-61230635D01*
X82740629Y-61392138D01*
X82633201Y-61549621D01*
X82578293Y-61594621D01*
X82507768Y-61602792D01*
X82444021Y-61571538D01*
X82423324Y-61547054D01*
X82342822Y-61422617D01*
X82342820Y-61422614D01*
X82340014Y-61418277D01*
X82189670Y-61253051D01*
X82185619Y-61249852D01*
X82185615Y-61249848D01*
X82018414Y-61117800D01*
X82018410Y-61117798D01*
X82014359Y-61114598D01*
X81818789Y-61006638D01*
X81813920Y-61004914D01*
X81813916Y-61004912D01*
X81613087Y-60933795D01*
X81613083Y-60933794D01*
X81608212Y-60932069D01*
X81603119Y-60931162D01*
X81603116Y-60931161D01*
X81393373Y-60893800D01*
X81393367Y-60893799D01*
X81388284Y-60892894D01*
X81314452Y-60891992D01*
X81170081Y-60890228D01*
X81170079Y-60890228D01*
X81164911Y-60890165D01*
X80944091Y-60923955D01*
X80731756Y-60993357D01*
X80701443Y-61009137D01*
X80561938Y-61081759D01*
X80533607Y-61096507D01*
X80529474Y-61099610D01*
X80529471Y-61099612D01*
X80505247Y-61117800D01*
X80354965Y-61230635D01*
X80200629Y-61392138D01*
X80093201Y-61549621D01*
X80038293Y-61594621D01*
X79967768Y-61602792D01*
X79904021Y-61571538D01*
X79883324Y-61547054D01*
X79802822Y-61422617D01*
X79802820Y-61422614D01*
X79800014Y-61418277D01*
X79649670Y-61253051D01*
X79645619Y-61249852D01*
X79645615Y-61249848D01*
X79478414Y-61117800D01*
X79478410Y-61117798D01*
X79474359Y-61114598D01*
X79278789Y-61006638D01*
X79273920Y-61004914D01*
X79273916Y-61004912D01*
X79073087Y-60933795D01*
X79073083Y-60933794D01*
X79068212Y-60932069D01*
X79063119Y-60931162D01*
X79063116Y-60931161D01*
X78853373Y-60893800D01*
X78853367Y-60893799D01*
X78848284Y-60892894D01*
X78774452Y-60891992D01*
X78630081Y-60890228D01*
X78630079Y-60890228D01*
X78624911Y-60890165D01*
X78404091Y-60923955D01*
X78191756Y-60993357D01*
X78161443Y-61009137D01*
X78021938Y-61081759D01*
X77993607Y-61096507D01*
X77989474Y-61099610D01*
X77989471Y-61099612D01*
X77965247Y-61117800D01*
X77814965Y-61230635D01*
X77660629Y-61392138D01*
X77553201Y-61549621D01*
X77498293Y-61594621D01*
X77427768Y-61602792D01*
X77364021Y-61571538D01*
X77343324Y-61547054D01*
X77262822Y-61422617D01*
X77262820Y-61422614D01*
X77260014Y-61418277D01*
X77109670Y-61253051D01*
X77105619Y-61249852D01*
X77105615Y-61249848D01*
X76938414Y-61117800D01*
X76938410Y-61117798D01*
X76934359Y-61114598D01*
X76738789Y-61006638D01*
X76733920Y-61004914D01*
X76733916Y-61004912D01*
X76533087Y-60933795D01*
X76533083Y-60933794D01*
X76528212Y-60932069D01*
X76523119Y-60931162D01*
X76523116Y-60931161D01*
X76313373Y-60893800D01*
X76313367Y-60893799D01*
X76308284Y-60892894D01*
X76234452Y-60891992D01*
X76090081Y-60890228D01*
X76090079Y-60890228D01*
X76084911Y-60890165D01*
X75864091Y-60923955D01*
X75651756Y-60993357D01*
X75621443Y-61009137D01*
X75481938Y-61081759D01*
X75453607Y-61096507D01*
X75449474Y-61099610D01*
X75449471Y-61099612D01*
X75425247Y-61117800D01*
X75274965Y-61230635D01*
X75120629Y-61392138D01*
X75013201Y-61549621D01*
X74958293Y-61594621D01*
X74887768Y-61602792D01*
X74824021Y-61571538D01*
X74803324Y-61547054D01*
X74722822Y-61422617D01*
X74722820Y-61422614D01*
X74720014Y-61418277D01*
X74569670Y-61253051D01*
X74565619Y-61249852D01*
X74565615Y-61249848D01*
X74398414Y-61117800D01*
X74398410Y-61117798D01*
X74394359Y-61114598D01*
X74198789Y-61006638D01*
X74193920Y-61004914D01*
X74193916Y-61004912D01*
X73993087Y-60933795D01*
X73993083Y-60933794D01*
X73988212Y-60932069D01*
X73983119Y-60931162D01*
X73983116Y-60931161D01*
X73773373Y-60893800D01*
X73773367Y-60893799D01*
X73768284Y-60892894D01*
X73694452Y-60891992D01*
X73550081Y-60890228D01*
X73550079Y-60890228D01*
X73544911Y-60890165D01*
X73324091Y-60923955D01*
X73111756Y-60993357D01*
X73081443Y-61009137D01*
X72941938Y-61081759D01*
X72913607Y-61096507D01*
X72909474Y-61099610D01*
X72909471Y-61099612D01*
X72885247Y-61117800D01*
X72734965Y-61230635D01*
X72580629Y-61392138D01*
X72473201Y-61549621D01*
X72418293Y-61594621D01*
X72347768Y-61602792D01*
X72284021Y-61571538D01*
X72263324Y-61547054D01*
X72182822Y-61422617D01*
X72182820Y-61422614D01*
X72180014Y-61418277D01*
X72029670Y-61253051D01*
X72025619Y-61249852D01*
X72025615Y-61249848D01*
X71858414Y-61117800D01*
X71858410Y-61117798D01*
X71854359Y-61114598D01*
X71658789Y-61006638D01*
X71653920Y-61004914D01*
X71653916Y-61004912D01*
X71453087Y-60933795D01*
X71453083Y-60933794D01*
X71448212Y-60932069D01*
X71443119Y-60931162D01*
X71443116Y-60931161D01*
X71233373Y-60893800D01*
X71233367Y-60893799D01*
X71228284Y-60892894D01*
X71154452Y-60891992D01*
X71010081Y-60890228D01*
X71010079Y-60890228D01*
X71004911Y-60890165D01*
X70784091Y-60923955D01*
X70571756Y-60993357D01*
X70541443Y-61009137D01*
X70401938Y-61081759D01*
X70373607Y-61096507D01*
X70369474Y-61099610D01*
X70369471Y-61099612D01*
X70345247Y-61117800D01*
X70194965Y-61230635D01*
X70040629Y-61392138D01*
X69933201Y-61549621D01*
X69878293Y-61594621D01*
X69807768Y-61602792D01*
X69744021Y-61571538D01*
X69723324Y-61547054D01*
X69642822Y-61422617D01*
X69642820Y-61422614D01*
X69640014Y-61418277D01*
X69489670Y-61253051D01*
X69485619Y-61249852D01*
X69485615Y-61249848D01*
X69318414Y-61117800D01*
X69318410Y-61117798D01*
X69314359Y-61114598D01*
X69118789Y-61006638D01*
X69113920Y-61004914D01*
X69113916Y-61004912D01*
X68913087Y-60933795D01*
X68913083Y-60933794D01*
X68908212Y-60932069D01*
X68903119Y-60931162D01*
X68903116Y-60931161D01*
X68693373Y-60893800D01*
X68693367Y-60893799D01*
X68688284Y-60892894D01*
X68614452Y-60891992D01*
X68470081Y-60890228D01*
X68470079Y-60890228D01*
X68464911Y-60890165D01*
X68244091Y-60923955D01*
X68031756Y-60993357D01*
X68001443Y-61009137D01*
X67861938Y-61081759D01*
X67833607Y-61096507D01*
X67829474Y-61099610D01*
X67829471Y-61099612D01*
X67805247Y-61117800D01*
X67654965Y-61230635D01*
X67500629Y-61392138D01*
X67393201Y-61549621D01*
X67338293Y-61594621D01*
X67267768Y-61602792D01*
X67204021Y-61571538D01*
X67183324Y-61547054D01*
X67102822Y-61422617D01*
X67102820Y-61422614D01*
X67100014Y-61418277D01*
X66949670Y-61253051D01*
X66945619Y-61249852D01*
X66945615Y-61249848D01*
X66778414Y-61117800D01*
X66778410Y-61117798D01*
X66774359Y-61114598D01*
X66578789Y-61006638D01*
X66573920Y-61004914D01*
X66573916Y-61004912D01*
X66373087Y-60933795D01*
X66373083Y-60933794D01*
X66368212Y-60932069D01*
X66363119Y-60931162D01*
X66363116Y-60931161D01*
X66153373Y-60893800D01*
X66153367Y-60893799D01*
X66148284Y-60892894D01*
X66074452Y-60891992D01*
X65930081Y-60890228D01*
X65930079Y-60890228D01*
X65924911Y-60890165D01*
X65704091Y-60923955D01*
X65491756Y-60993357D01*
X65461443Y-61009137D01*
X65321938Y-61081759D01*
X65293607Y-61096507D01*
X65289474Y-61099610D01*
X65289471Y-61099612D01*
X65265247Y-61117800D01*
X65114965Y-61230635D01*
X64960629Y-61392138D01*
X64853201Y-61549621D01*
X64798293Y-61594621D01*
X64727768Y-61602792D01*
X64664021Y-61571538D01*
X64643324Y-61547054D01*
X64562822Y-61422617D01*
X64562820Y-61422614D01*
X64560014Y-61418277D01*
X64409670Y-61253051D01*
X64405619Y-61249852D01*
X64405615Y-61249848D01*
X64238414Y-61117800D01*
X64238410Y-61117798D01*
X64234359Y-61114598D01*
X64038789Y-61006638D01*
X64033920Y-61004914D01*
X64033916Y-61004912D01*
X63833087Y-60933795D01*
X63833083Y-60933794D01*
X63828212Y-60932069D01*
X63823119Y-60931162D01*
X63823116Y-60931161D01*
X63613373Y-60893800D01*
X63613367Y-60893799D01*
X63608284Y-60892894D01*
X63534452Y-60891992D01*
X63390081Y-60890228D01*
X63390079Y-60890228D01*
X63384911Y-60890165D01*
X63164091Y-60923955D01*
X62951756Y-60993357D01*
X62921443Y-61009137D01*
X62781938Y-61081759D01*
X62753607Y-61096507D01*
X62749474Y-61099610D01*
X62749471Y-61099612D01*
X62725247Y-61117800D01*
X62574965Y-61230635D01*
X62420629Y-61392138D01*
X62313201Y-61549621D01*
X62258293Y-61594621D01*
X62187768Y-61602792D01*
X62124021Y-61571538D01*
X62103324Y-61547054D01*
X62022822Y-61422617D01*
X62022820Y-61422614D01*
X62020014Y-61418277D01*
X61869670Y-61253051D01*
X61865619Y-61249852D01*
X61865615Y-61249848D01*
X61698414Y-61117800D01*
X61698410Y-61117798D01*
X61694359Y-61114598D01*
X61498789Y-61006638D01*
X61493920Y-61004914D01*
X61493916Y-61004912D01*
X61293087Y-60933795D01*
X61293083Y-60933794D01*
X61288212Y-60932069D01*
X61283119Y-60931162D01*
X61283116Y-60931161D01*
X61073373Y-60893800D01*
X61073367Y-60893799D01*
X61068284Y-60892894D01*
X60994452Y-60891992D01*
X60850081Y-60890228D01*
X60850079Y-60890228D01*
X60844911Y-60890165D01*
X60624091Y-60923955D01*
X60411756Y-60993357D01*
X60381443Y-61009137D01*
X60241938Y-61081759D01*
X60213607Y-61096507D01*
X60209474Y-61099610D01*
X60209471Y-61099612D01*
X60185247Y-61117800D01*
X60034965Y-61230635D01*
X59880629Y-61392138D01*
X59773201Y-61549621D01*
X59718293Y-61594621D01*
X59647768Y-61602792D01*
X59584021Y-61571538D01*
X59563324Y-61547054D01*
X59482822Y-61422617D01*
X59482820Y-61422614D01*
X59480014Y-61418277D01*
X59329670Y-61253051D01*
X59325619Y-61249852D01*
X59325615Y-61249848D01*
X59158414Y-61117800D01*
X59158410Y-61117798D01*
X59154359Y-61114598D01*
X58958789Y-61006638D01*
X58953920Y-61004914D01*
X58953916Y-61004912D01*
X58753087Y-60933795D01*
X58753083Y-60933794D01*
X58748212Y-60932069D01*
X58743119Y-60931162D01*
X58743116Y-60931161D01*
X58533373Y-60893800D01*
X58533367Y-60893799D01*
X58528284Y-60892894D01*
X58454452Y-60891992D01*
X58310081Y-60890228D01*
X58310079Y-60890228D01*
X58304911Y-60890165D01*
X58084091Y-60923955D01*
X57871756Y-60993357D01*
X57841443Y-61009137D01*
X57701938Y-61081759D01*
X57673607Y-61096507D01*
X57669474Y-61099610D01*
X57669471Y-61099612D01*
X57645247Y-61117800D01*
X57494965Y-61230635D01*
X57340629Y-61392138D01*
X57337720Y-61396403D01*
X57337714Y-61396411D01*
X57325404Y-61414457D01*
X57214743Y-61576680D01*
X57199003Y-61610590D01*
X57162010Y-61690285D01*
X57120688Y-61779305D01*
X57060989Y-61994570D01*
X57037251Y-62216695D01*
X57037548Y-62221848D01*
X57037548Y-62221851D01*
X57043011Y-62316590D01*
X57050110Y-62439715D01*
X57051247Y-62444761D01*
X57051248Y-62444767D01*
X57069283Y-62524792D01*
X57099222Y-62657639D01*
X57183266Y-62864616D01*
X57234019Y-62947438D01*
X57297291Y-63050688D01*
X57299987Y-63055088D01*
X57446250Y-63223938D01*
X57450230Y-63227242D01*
X57454981Y-63231187D01*
X57494616Y-63290090D01*
X57496113Y-63361071D01*
X57458997Y-63421593D01*
X57418725Y-63446112D01*
X57377913Y-63461412D01*
X57303295Y-63489385D01*
X57186739Y-63576739D01*
X57099385Y-63693295D01*
X57048255Y-63829684D01*
X57041500Y-63891866D01*
X57041500Y-65688134D01*
X57048255Y-65750316D01*
X57099385Y-65886705D01*
X57186739Y-66003261D01*
X57303295Y-66090615D01*
X57439684Y-66141745D01*
X57501866Y-66148500D01*
X59298134Y-66148500D01*
X59360316Y-66141745D01*
X59496705Y-66090615D01*
X59613261Y-66003261D01*
X59700615Y-65886705D01*
X59722799Y-65827529D01*
X59744598Y-65769382D01*
X59787240Y-65712618D01*
X59853802Y-65687918D01*
X59923150Y-65703126D01*
X59957817Y-65731114D01*
X59986250Y-65763938D01*
X60158126Y-65906632D01*
X60351000Y-66019338D01*
X60559692Y-66099030D01*
X60564760Y-66100061D01*
X60564763Y-66100062D01*
X60652155Y-66117842D01*
X60778597Y-66143567D01*
X60783772Y-66143757D01*
X60783774Y-66143757D01*
X60996673Y-66151564D01*
X60996677Y-66151564D01*
X61001837Y-66151753D01*
X61006957Y-66151097D01*
X61006959Y-66151097D01*
X61218288Y-66124025D01*
X61218289Y-66124025D01*
X61223416Y-66123368D01*
X61228366Y-66121883D01*
X61432429Y-66060661D01*
X61432434Y-66060659D01*
X61437384Y-66059174D01*
X61637994Y-65960896D01*
X61819860Y-65831173D01*
X61978096Y-65673489D01*
X62108453Y-65492077D01*
X62109776Y-65493028D01*
X62156645Y-65449857D01*
X62226580Y-65437625D01*
X62292026Y-65465144D01*
X62319875Y-65496994D01*
X62379987Y-65595088D01*
X62526250Y-65763938D01*
X62698126Y-65906632D01*
X62891000Y-66019338D01*
X63099692Y-66099030D01*
X63104760Y-66100061D01*
X63104763Y-66100062D01*
X63192155Y-66117842D01*
X63318597Y-66143567D01*
X63323772Y-66143757D01*
X63323774Y-66143757D01*
X63536673Y-66151564D01*
X63536677Y-66151564D01*
X63541837Y-66151753D01*
X63546957Y-66151097D01*
X63546959Y-66151097D01*
X63758288Y-66124025D01*
X63758289Y-66124025D01*
X63763416Y-66123368D01*
X63768366Y-66121883D01*
X63972429Y-66060661D01*
X63972434Y-66060659D01*
X63977384Y-66059174D01*
X64177994Y-65960896D01*
X64359860Y-65831173D01*
X64518096Y-65673489D01*
X64648453Y-65492077D01*
X64649776Y-65493028D01*
X64696645Y-65449857D01*
X64766580Y-65437625D01*
X64832026Y-65465144D01*
X64859875Y-65496994D01*
X64919987Y-65595088D01*
X65066250Y-65763938D01*
X65238126Y-65906632D01*
X65431000Y-66019338D01*
X65639692Y-66099030D01*
X65644760Y-66100061D01*
X65644763Y-66100062D01*
X65732155Y-66117842D01*
X65858597Y-66143567D01*
X65863772Y-66143757D01*
X65863774Y-66143757D01*
X66076673Y-66151564D01*
X66076677Y-66151564D01*
X66081837Y-66151753D01*
X66086957Y-66151097D01*
X66086959Y-66151097D01*
X66298288Y-66124025D01*
X66298289Y-66124025D01*
X66303416Y-66123368D01*
X66308366Y-66121883D01*
X66512429Y-66060661D01*
X66512434Y-66060659D01*
X66517384Y-66059174D01*
X66717994Y-65960896D01*
X66899860Y-65831173D01*
X67058096Y-65673489D01*
X67188453Y-65492077D01*
X67189640Y-65492930D01*
X67236960Y-65449362D01*
X67306897Y-65437145D01*
X67372338Y-65464678D01*
X67400166Y-65496511D01*
X67457694Y-65590388D01*
X67463777Y-65598699D01*
X67603213Y-65759667D01*
X67610580Y-65766883D01*
X67774434Y-65902916D01*
X67782881Y-65908831D01*
X67966756Y-66016279D01*
X67976042Y-66020729D01*
X68175001Y-66096703D01*
X68184899Y-66099579D01*
X68288250Y-66120606D01*
X68302299Y-66119410D01*
X68306000Y-66109065D01*
X68306000Y-64662000D01*
X68326002Y-64593879D01*
X68379658Y-64547386D01*
X68432000Y-64536000D01*
X68688000Y-64536000D01*
X68756121Y-64556002D01*
X68802614Y-64609658D01*
X68814000Y-64662000D01*
X68814000Y-66108517D01*
X68818064Y-66122359D01*
X68831478Y-66124393D01*
X68838184Y-66123534D01*
X68848262Y-66121392D01*
X69052255Y-66060191D01*
X69061842Y-66056433D01*
X69253095Y-65962739D01*
X69261945Y-65957464D01*
X69435328Y-65833792D01*
X69443200Y-65827139D01*
X69594052Y-65676812D01*
X69600730Y-65668965D01*
X69728022Y-65491819D01*
X69729279Y-65492722D01*
X69776373Y-65449362D01*
X69846311Y-65437145D01*
X69911751Y-65464678D01*
X69939579Y-65496511D01*
X69999987Y-65595088D01*
X70146250Y-65763938D01*
X70318126Y-65906632D01*
X70381533Y-65943684D01*
X70403828Y-65956712D01*
X70452552Y-66008350D01*
X70465623Y-66078133D01*
X70438892Y-66143905D01*
X70380845Y-66184784D01*
X70340258Y-66191500D01*
X69621714Y-66191500D01*
X69620394Y-66191493D01*
X69619319Y-66191482D01*
X69530279Y-66190549D01*
X69487903Y-66199711D01*
X69475337Y-66201769D01*
X69432245Y-66206603D01*
X69425594Y-66208919D01*
X69425590Y-66208920D01*
X69400570Y-66217633D01*
X69385757Y-66221796D01*
X69352990Y-66228881D01*
X69313687Y-66247208D01*
X69301911Y-66251990D01*
X69260948Y-66266255D01*
X69254973Y-66269989D01*
X69254970Y-66269990D01*
X69232505Y-66284027D01*
X69218988Y-66291366D01*
X69194986Y-66302559D01*
X69188598Y-66305538D01*
X69183033Y-66309855D01*
X69183031Y-66309856D01*
X69154347Y-66332106D01*
X69143888Y-66339402D01*
X69113096Y-66358642D01*
X69113093Y-66358644D01*
X69107124Y-66362374D01*
X69102129Y-66367334D01*
X69102128Y-66367335D01*
X69078321Y-66390976D01*
X69077696Y-66391561D01*
X69077030Y-66392078D01*
X69051040Y-66418068D01*
X68978418Y-66490185D01*
X68977760Y-66491222D01*
X68976657Y-66492451D01*
X67764513Y-67704595D01*
X67702201Y-67738621D01*
X67675418Y-67741500D01*
X67408498Y-67741500D01*
X67406050Y-67741693D01*
X67406042Y-67741693D01*
X67377579Y-67743933D01*
X67377574Y-67743934D01*
X67371169Y-67744438D01*
X67300724Y-67764904D01*
X67219012Y-67788643D01*
X67219010Y-67788644D01*
X67211399Y-67790855D01*
X67204572Y-67794892D01*
X67204573Y-67794892D01*
X67075020Y-67871509D01*
X67075017Y-67871511D01*
X67068193Y-67875547D01*
X66950547Y-67993193D01*
X66946511Y-68000017D01*
X66946509Y-68000020D01*
X66913496Y-68055843D01*
X66865855Y-68136399D01*
X66819438Y-68296169D01*
X66818934Y-68302574D01*
X66818933Y-68302579D01*
X66816693Y-68331042D01*
X66816500Y-68333498D01*
X66816500Y-68766502D01*
X66816693Y-68768950D01*
X66816693Y-68768958D01*
X66818923Y-68797285D01*
X66819438Y-68803831D01*
X66839976Y-68874525D01*
X66857228Y-68933905D01*
X66865855Y-68963601D01*
X66869892Y-68970427D01*
X66946509Y-69099980D01*
X66946511Y-69099983D01*
X66950547Y-69106807D01*
X67068193Y-69224453D01*
X67075017Y-69228489D01*
X67075020Y-69228491D01*
X67182589Y-69292107D01*
X67211399Y-69309145D01*
X67219010Y-69311356D01*
X67219012Y-69311357D01*
X67234230Y-69315778D01*
X67371169Y-69355562D01*
X67377574Y-69356066D01*
X67377579Y-69356067D01*
X67406042Y-69358307D01*
X67406050Y-69358307D01*
X67408498Y-69358500D01*
X68053286Y-69358500D01*
X68054606Y-69358507D01*
X68144721Y-69359451D01*
X68148025Y-69358737D01*
X68152695Y-69358500D01*
X68565500Y-69358500D01*
X68633621Y-69378502D01*
X68680114Y-69432158D01*
X68691500Y-69484500D01*
X68691500Y-69516000D01*
X68671498Y-69584121D01*
X68617842Y-69630614D01*
X68565500Y-69642000D01*
X68334615Y-69642000D01*
X68319376Y-69646475D01*
X68318171Y-69647865D01*
X68316500Y-69655548D01*
X68316500Y-70177885D01*
X68320975Y-70193124D01*
X68322365Y-70194329D01*
X68330048Y-70196000D01*
X68945158Y-70196000D01*
X69009297Y-70213547D01*
X69086399Y-70259145D01*
X69094010Y-70261356D01*
X69094012Y-70261357D01*
X69146231Y-70276528D01*
X69246169Y-70305562D01*
X69252574Y-70306066D01*
X69252579Y-70306067D01*
X69281042Y-70308307D01*
X69281050Y-70308307D01*
X69283498Y-70308500D01*
X82718703Y-70308500D01*
X82786824Y-70328502D01*
X82807798Y-70345405D01*
X88495949Y-76033556D01*
X88529975Y-76095868D01*
X88524910Y-76166683D01*
X88482363Y-76223519D01*
X88415843Y-76248330D01*
X88367918Y-76242484D01*
X88212181Y-76191882D01*
X86220206Y-75544650D01*
X86216876Y-75543954D01*
X86216871Y-75543953D01*
X86166717Y-75533475D01*
X86166714Y-75533475D01*
X86158980Y-75531859D01*
X86013466Y-75538340D01*
X86004973Y-75541240D01*
X86004971Y-75541240D01*
X85991899Y-75545703D01*
X85875621Y-75585401D01*
X85868283Y-75590568D01*
X85763867Y-75664088D01*
X85763865Y-75664090D01*
X85756525Y-75669258D01*
X85737971Y-75692542D01*
X85670671Y-75776997D01*
X85670669Y-75777000D01*
X85665751Y-75783172D01*
X85640111Y-75840223D01*
X85534037Y-76166683D01*
X85515232Y-76224560D01*
X85475158Y-76283166D01*
X85409762Y-76310803D01*
X85395399Y-76311624D01*
X79338426Y-76311624D01*
X79337107Y-76311617D01*
X79246945Y-76310673D01*
X79240059Y-76312162D01*
X79240057Y-76312162D01*
X79230729Y-76314179D01*
X79204569Y-76319835D01*
X79192003Y-76321893D01*
X79148911Y-76326727D01*
X79142260Y-76329043D01*
X79142256Y-76329044D01*
X79117236Y-76337757D01*
X79102423Y-76341920D01*
X79069656Y-76349005D01*
X79030355Y-76367331D01*
X79018572Y-76372116D01*
X78977614Y-76386379D01*
X78955089Y-76400454D01*
X78949182Y-76404145D01*
X78935665Y-76411484D01*
X78911647Y-76422684D01*
X78911643Y-76422686D01*
X78905264Y-76425661D01*
X78899700Y-76429977D01*
X78899698Y-76429978D01*
X78871006Y-76452233D01*
X78860551Y-76459527D01*
X78823790Y-76482498D01*
X78818793Y-76487460D01*
X78818792Y-76487461D01*
X78794987Y-76511100D01*
X78794362Y-76511685D01*
X78793696Y-76512202D01*
X78767706Y-76538192D01*
X78695084Y-76610309D01*
X78694426Y-76611346D01*
X78693323Y-76612575D01*
X78021697Y-77284201D01*
X77959385Y-77318227D01*
X77888570Y-77313162D01*
X77831734Y-77270615D01*
X77812769Y-77234042D01*
X77532235Y-76370650D01*
X77359889Y-75840223D01*
X77334249Y-75783172D01*
X77329331Y-75777000D01*
X77329329Y-75776997D01*
X77262029Y-75692542D01*
X77243475Y-75669258D01*
X77236135Y-75664090D01*
X77236133Y-75664088D01*
X77131717Y-75590568D01*
X77124379Y-75585401D01*
X77008101Y-75545703D01*
X76995029Y-75541240D01*
X76995027Y-75541240D01*
X76986534Y-75538340D01*
X76841020Y-75531859D01*
X76833286Y-75533475D01*
X76833283Y-75533475D01*
X76783129Y-75543953D01*
X76783124Y-75543954D01*
X76779794Y-75544650D01*
X74595913Y-76254236D01*
X74538862Y-76279876D01*
X74424949Y-76370650D01*
X74341091Y-76489746D01*
X74332855Y-76513870D01*
X74299157Y-76612575D01*
X74294030Y-76627591D01*
X74287549Y-76773105D01*
X74289165Y-76780839D01*
X74289165Y-76780842D01*
X74299643Y-76830996D01*
X74300340Y-76834331D01*
X74301393Y-76837571D01*
X74464689Y-77340147D01*
X74466716Y-77411115D01*
X74433951Y-77468178D01*
X69172802Y-82729327D01*
X69110490Y-82763353D01*
X69039675Y-82758288D01*
X68988077Y-82722274D01*
X68984047Y-82717576D01*
X68979695Y-82710989D01*
X68942781Y-82677517D01*
X68935885Y-82671264D01*
X68935880Y-82671260D01*
X68933359Y-82668974D01*
X67601500Y-81701322D01*
X67547223Y-81670237D01*
X67406829Y-81631435D01*
X67397853Y-81631568D01*
X67397852Y-81631568D01*
X67331541Y-81632552D01*
X67261188Y-81633596D01*
X67252615Y-81636241D01*
X67252612Y-81636242D01*
X67130580Y-81673900D01*
X67130577Y-81673901D01*
X67122007Y-81676546D01*
X67000474Y-81756834D01*
X66995166Y-81762689D01*
X66995165Y-81762689D01*
X66972152Y-81788070D01*
X66958460Y-81803170D01*
X66205248Y-82839877D01*
X65614400Y-83653110D01*
X65608747Y-83660890D01*
X65577663Y-83715166D01*
X65538860Y-83855561D01*
X65541021Y-84001202D01*
X65583972Y-84140383D01*
X65664259Y-84261915D01*
X65700139Y-84294449D01*
X65737165Y-84355022D01*
X65741500Y-84387788D01*
X65741500Y-92052889D01*
X65721498Y-92121010D01*
X65667842Y-92167503D01*
X65615500Y-92178889D01*
X65251866Y-92178889D01*
X65189684Y-92185644D01*
X65182288Y-92188416D01*
X65182282Y-92188418D01*
X65069229Y-92230800D01*
X64998422Y-92235983D01*
X64980771Y-92230800D01*
X64867718Y-92188418D01*
X64867712Y-92188416D01*
X64860316Y-92185644D01*
X64798134Y-92178889D01*
X63562082Y-92178889D01*
X63493961Y-92158887D01*
X63472987Y-92141984D01*
X57885845Y-86554842D01*
X57884917Y-86553905D01*
X57826768Y-86494525D01*
X57826767Y-86494524D01*
X57821840Y-86489493D01*
X57785390Y-86466002D01*
X57775065Y-86458583D01*
X57741168Y-86431524D01*
X57710973Y-86416927D01*
X57697556Y-86409398D01*
X57694034Y-86407128D01*
X57669373Y-86391235D01*
X57662756Y-86388827D01*
X57662751Y-86388824D01*
X57628638Y-86376408D01*
X57616895Y-86371447D01*
X57584208Y-86355646D01*
X57584203Y-86355644D01*
X57577862Y-86352579D01*
X57571004Y-86350996D01*
X57571002Y-86350995D01*
X57545185Y-86345035D01*
X57530442Y-86340668D01*
X57498926Y-86329197D01*
X57491936Y-86328314D01*
X57491928Y-86328312D01*
X57455910Y-86323762D01*
X57443358Y-86321526D01*
X57407997Y-86313362D01*
X57407994Y-86313362D01*
X57401126Y-86311776D01*
X57394080Y-86311751D01*
X57394077Y-86311751D01*
X57360555Y-86311634D01*
X57359673Y-86311605D01*
X57358842Y-86311500D01*
X57322192Y-86311500D01*
X57321752Y-86311499D01*
X57223268Y-86311155D01*
X57223263Y-86311155D01*
X57219741Y-86311143D01*
X57218541Y-86311411D01*
X57216904Y-86311500D01*
X54594188Y-86311500D01*
X54526067Y-86291498D01*
X54505093Y-86274595D01*
X54344300Y-86113802D01*
X54339792Y-86110645D01*
X54339789Y-86110643D01*
X54234536Y-86036944D01*
X54156749Y-85982477D01*
X54151767Y-85980154D01*
X54151762Y-85980151D01*
X53954225Y-85888039D01*
X53954224Y-85888039D01*
X53949243Y-85885716D01*
X53943935Y-85884294D01*
X53943933Y-85884293D01*
X53733402Y-85827881D01*
X53733400Y-85827881D01*
X53728087Y-85826457D01*
X53500000Y-85806502D01*
X53271913Y-85826457D01*
X53266600Y-85827881D01*
X53266598Y-85827881D01*
X53056067Y-85884293D01*
X53056065Y-85884294D01*
X53050757Y-85885716D01*
X53045776Y-85888039D01*
X53045775Y-85888039D01*
X52848238Y-85980151D01*
X52848233Y-85980154D01*
X52843251Y-85982477D01*
X52765464Y-86036944D01*
X52660211Y-86110643D01*
X52660208Y-86110645D01*
X52655700Y-86113802D01*
X52493802Y-86275700D01*
X52490645Y-86280208D01*
X52490643Y-86280211D01*
X52456343Y-86329197D01*
X52362477Y-86463251D01*
X52360154Y-86468233D01*
X52360151Y-86468238D01*
X52283459Y-86632707D01*
X52265716Y-86670757D01*
X52264294Y-86676065D01*
X52264293Y-86676067D01*
X52255522Y-86708802D01*
X52206457Y-86891913D01*
X52186502Y-87120000D01*
X52206457Y-87348087D01*
X52265716Y-87569243D01*
X52268039Y-87574224D01*
X52268039Y-87574225D01*
X52360151Y-87771762D01*
X52360154Y-87771767D01*
X52362477Y-87776749D01*
X52493802Y-87964300D01*
X52655700Y-88126198D01*
X52660208Y-88129355D01*
X52660211Y-88129357D01*
X52731627Y-88179363D01*
X52843251Y-88257523D01*
X52848233Y-88259846D01*
X52848238Y-88259849D01*
X53042764Y-88350557D01*
X53050757Y-88354284D01*
X53056065Y-88355706D01*
X53056067Y-88355707D01*
X53266598Y-88412119D01*
X53266600Y-88412119D01*
X53271913Y-88413543D01*
X53500000Y-88433498D01*
X53728087Y-88413543D01*
X53733400Y-88412119D01*
X53733402Y-88412119D01*
X53943933Y-88355707D01*
X53943935Y-88355706D01*
X53949243Y-88354284D01*
X53957236Y-88350557D01*
X54151762Y-88259849D01*
X54151767Y-88259846D01*
X54156749Y-88257523D01*
X54268373Y-88179363D01*
X54339789Y-88129357D01*
X54339792Y-88129355D01*
X54344300Y-88126198D01*
X54505093Y-87965405D01*
X54567405Y-87931379D01*
X54594188Y-87928500D01*
X56920529Y-87928500D01*
X56988650Y-87948502D01*
X57009624Y-87965405D01*
X62654595Y-93610376D01*
X62688621Y-93672688D01*
X62691500Y-93699471D01*
X62691500Y-94935523D01*
X62698255Y-94997705D01*
X62749385Y-95134094D01*
X62836739Y-95250650D01*
X62953295Y-95338004D01*
X62961703Y-95341156D01*
X63084730Y-95387277D01*
X63141494Y-95429919D01*
X63166194Y-95496480D01*
X63166500Y-95505259D01*
X63166500Y-100757111D01*
X63166493Y-100758430D01*
X63165549Y-100848570D01*
X63174711Y-100890946D01*
X63176769Y-100903512D01*
X63181603Y-100946604D01*
X63183919Y-100953255D01*
X63183920Y-100953259D01*
X63192633Y-100978279D01*
X63196796Y-100993091D01*
X63203881Y-101025859D01*
X63222208Y-101065162D01*
X63226990Y-101076938D01*
X63241255Y-101117901D01*
X63244989Y-101123876D01*
X63244990Y-101123879D01*
X63259027Y-101146344D01*
X63266366Y-101159861D01*
X63277559Y-101183863D01*
X63280538Y-101190251D01*
X63284855Y-101195816D01*
X63284856Y-101195818D01*
X63307106Y-101224502D01*
X63314402Y-101234961D01*
X63337374Y-101271725D01*
X63342334Y-101276720D01*
X63342335Y-101276721D01*
X63365976Y-101300528D01*
X63366561Y-101301153D01*
X63367078Y-101301819D01*
X63393068Y-101327809D01*
X63465185Y-101400431D01*
X63466222Y-101401089D01*
X63467451Y-101402192D01*
X65491290Y-103426031D01*
X65525316Y-103488343D01*
X65522592Y-103552281D01*
X65518668Y-103564996D01*
X65518667Y-103565001D01*
X65516021Y-103573576D01*
X65515888Y-103582552D01*
X65514107Y-103702594D01*
X65513860Y-103719217D01*
X65552663Y-103859612D01*
X65583747Y-103913888D01*
X65585746Y-103916639D01*
X65585747Y-103916641D01*
X65981801Y-104461762D01*
X66933460Y-105771608D01*
X66935748Y-105774132D01*
X66935751Y-105774135D01*
X66958866Y-105799628D01*
X66975474Y-105817944D01*
X67097007Y-105898232D01*
X67105577Y-105900877D01*
X67105580Y-105900878D01*
X67227612Y-105938536D01*
X67227615Y-105938537D01*
X67236188Y-105941182D01*
X67306541Y-105942226D01*
X67372852Y-105943210D01*
X67372853Y-105943210D01*
X67381829Y-105943343D01*
X67522223Y-105904541D01*
X67576500Y-105873456D01*
X68715799Y-105045707D01*
X68905601Y-104907808D01*
X68905603Y-104907806D01*
X68908359Y-104905804D01*
X68954695Y-104863789D01*
X68959047Y-104857202D01*
X68963077Y-104852504D01*
X69022613Y-104813826D01*
X69093609Y-104813476D01*
X69147802Y-104845451D01*
X74427821Y-110125469D01*
X74461847Y-110187781D01*
X74458559Y-110253500D01*
X74300340Y-110740447D01*
X74299644Y-110743777D01*
X74299643Y-110743782D01*
X74298328Y-110750079D01*
X74287549Y-110801673D01*
X74294030Y-110947187D01*
X74341091Y-111085032D01*
X74346258Y-111092371D01*
X74346259Y-111092372D01*
X74360151Y-111112101D01*
X74424949Y-111204128D01*
X74538862Y-111294902D01*
X74595913Y-111320542D01*
X76779794Y-112030128D01*
X76783124Y-112030824D01*
X76783129Y-112030825D01*
X76833283Y-112041303D01*
X76833286Y-112041303D01*
X76841020Y-112042919D01*
X76986534Y-112036438D01*
X76995027Y-112033538D01*
X76995029Y-112033538D01*
X77115885Y-111992277D01*
X77115886Y-111992277D01*
X77124379Y-111989377D01*
X77168625Y-111958223D01*
X77236133Y-111910690D01*
X77236135Y-111910688D01*
X77243475Y-111905520D01*
X77281075Y-111858335D01*
X77329329Y-111797781D01*
X77329331Y-111797778D01*
X77334249Y-111791606D01*
X77359889Y-111734555D01*
X77679765Y-110750079D01*
X77812769Y-110340735D01*
X77852842Y-110282129D01*
X77918239Y-110254492D01*
X77988196Y-110266599D01*
X78021697Y-110290576D01*
X78750838Y-111019717D01*
X78751767Y-111020654D01*
X78806492Y-111076537D01*
X78814937Y-111085161D01*
X78820856Y-111088976D01*
X78820864Y-111088982D01*
X78851380Y-111108648D01*
X78861725Y-111116081D01*
X78895609Y-111143130D01*
X78901948Y-111146194D01*
X78901949Y-111146195D01*
X78925803Y-111157726D01*
X78939220Y-111165255D01*
X78967404Y-111183419D01*
X78974021Y-111185827D01*
X78974026Y-111185830D01*
X79008139Y-111198246D01*
X79019882Y-111203207D01*
X79052566Y-111219007D01*
X79052575Y-111219010D01*
X79058915Y-111222075D01*
X79065780Y-111223660D01*
X79091594Y-111229620D01*
X79106334Y-111233986D01*
X79137851Y-111245457D01*
X79144836Y-111246339D01*
X79144843Y-111246341D01*
X79180858Y-111250891D01*
X79193409Y-111253126D01*
X79235651Y-111262879D01*
X79242695Y-111262904D01*
X79242699Y-111262904D01*
X79276240Y-111263021D01*
X79277109Y-111263050D01*
X79277935Y-111263154D01*
X79314299Y-111263154D01*
X79314739Y-111263155D01*
X79413502Y-111263500D01*
X79413508Y-111263500D01*
X79417036Y-111263512D01*
X79418239Y-111263243D01*
X79419883Y-111263154D01*
X85395399Y-111263154D01*
X85463520Y-111283156D01*
X85510013Y-111336812D01*
X85515231Y-111350217D01*
X85640111Y-111734555D01*
X85665751Y-111791606D01*
X85670669Y-111797778D01*
X85670671Y-111797781D01*
X85718925Y-111858335D01*
X85756525Y-111905520D01*
X85763865Y-111910688D01*
X85763867Y-111910690D01*
X85831375Y-111958223D01*
X85875621Y-111989377D01*
X85884114Y-111992277D01*
X85884115Y-111992277D01*
X86004971Y-112033538D01*
X86004973Y-112033538D01*
X86013466Y-112036438D01*
X86158980Y-112042919D01*
X86166714Y-112041303D01*
X86166717Y-112041303D01*
X86216871Y-112030825D01*
X86216876Y-112030824D01*
X86220206Y-112030128D01*
X88404087Y-111320542D01*
X88461138Y-111294902D01*
X88575051Y-111204128D01*
X88639849Y-111112101D01*
X88653741Y-111092372D01*
X88653742Y-111092371D01*
X88658909Y-111085032D01*
X88705970Y-110947187D01*
X88712451Y-110801673D01*
X88701673Y-110750079D01*
X88700357Y-110743782D01*
X88700356Y-110743777D01*
X88699660Y-110740447D01*
X88472811Y-110042277D01*
X95637009Y-110042277D01*
X95662625Y-110310769D01*
X95663710Y-110315203D01*
X95663711Y-110315209D01*
X95723357Y-110558962D01*
X95726731Y-110572750D01*
X95827985Y-110822733D01*
X95964265Y-111055482D01*
X96066579Y-111183419D01*
X96095040Y-111219007D01*
X96132716Y-111266119D01*
X96329809Y-111450234D01*
X96551416Y-111603968D01*
X96555499Y-111605999D01*
X96555502Y-111606001D01*
X96671013Y-111663466D01*
X96792894Y-111724101D01*
X96797228Y-111725522D01*
X96797231Y-111725523D01*
X97044853Y-111806698D01*
X97044859Y-111806699D01*
X97049186Y-111808118D01*
X97053677Y-111808898D01*
X97053678Y-111808898D01*
X97311140Y-111853601D01*
X97311148Y-111853602D01*
X97314921Y-111854257D01*
X97318758Y-111854448D01*
X97398578Y-111858422D01*
X97398586Y-111858422D01*
X97400149Y-111858500D01*
X97568512Y-111858500D01*
X97570780Y-111858335D01*
X97570792Y-111858335D01*
X97701884Y-111848823D01*
X97769004Y-111843953D01*
X97773459Y-111842969D01*
X97773462Y-111842969D01*
X98027912Y-111786791D01*
X98027916Y-111786790D01*
X98032372Y-111785806D01*
X98176204Y-111731313D01*
X98280318Y-111691868D01*
X98280321Y-111691867D01*
X98284588Y-111690250D01*
X98520368Y-111559286D01*
X98734773Y-111395657D01*
X98923312Y-111202792D01*
X99082034Y-110984730D01*
X99140014Y-110874527D01*
X99205490Y-110750079D01*
X99205493Y-110750073D01*
X99207615Y-110746039D01*
X99222527Y-110703814D01*
X99295902Y-110496033D01*
X99295902Y-110496032D01*
X99297425Y-110491720D01*
X99349581Y-110227100D01*
X99349808Y-110222544D01*
X99362764Y-109962292D01*
X99362764Y-109962286D01*
X99362991Y-109957723D01*
X99337375Y-109689231D01*
X99326835Y-109646154D01*
X99274355Y-109431688D01*
X99273269Y-109427250D01*
X99172015Y-109177267D01*
X99070439Y-109003788D01*
X99038045Y-108948463D01*
X99038044Y-108948462D01*
X99035735Y-108944518D01*
X98917573Y-108796764D01*
X98870136Y-108737447D01*
X98870135Y-108737445D01*
X98867284Y-108733881D01*
X98670191Y-108549766D01*
X98448584Y-108396032D01*
X98444501Y-108394001D01*
X98444498Y-108393999D01*
X98279606Y-108311967D01*
X98207106Y-108275899D01*
X98202772Y-108274478D01*
X98202769Y-108274477D01*
X97955147Y-108193302D01*
X97955141Y-108193301D01*
X97950814Y-108191882D01*
X97946322Y-108191102D01*
X97688860Y-108146399D01*
X97688852Y-108146398D01*
X97685079Y-108145743D01*
X97673817Y-108145182D01*
X97601422Y-108141578D01*
X97601414Y-108141578D01*
X97599851Y-108141500D01*
X97431488Y-108141500D01*
X97429220Y-108141665D01*
X97429208Y-108141665D01*
X97298116Y-108151177D01*
X97230996Y-108156047D01*
X97226541Y-108157031D01*
X97226538Y-108157031D01*
X96972088Y-108213209D01*
X96972084Y-108213210D01*
X96967628Y-108214194D01*
X96850581Y-108258539D01*
X96719682Y-108308132D01*
X96719679Y-108308133D01*
X96715412Y-108309750D01*
X96479632Y-108440714D01*
X96384610Y-108513233D01*
X96287145Y-108587616D01*
X96265227Y-108604343D01*
X96262034Y-108607609D01*
X96262032Y-108607611D01*
X96255541Y-108614251D01*
X96076688Y-108797208D01*
X95917966Y-109015270D01*
X95915844Y-109019304D01*
X95794510Y-109249921D01*
X95794507Y-109249927D01*
X95792385Y-109253961D01*
X95790865Y-109258266D01*
X95790863Y-109258270D01*
X95712132Y-109481218D01*
X95702575Y-109508280D01*
X95650419Y-109772900D01*
X95650192Y-109777453D01*
X95650192Y-109777456D01*
X95640991Y-109962292D01*
X95637009Y-110042277D01*
X88472811Y-110042277D01*
X88190935Y-109174753D01*
X88165295Y-109117702D01*
X88086409Y-109018706D01*
X88059599Y-108952967D01*
X88072587Y-108883169D01*
X88121249Y-108831472D01*
X88184949Y-108814184D01*
X91751451Y-108814184D01*
X91752771Y-108814191D01*
X91842886Y-108815135D01*
X91885262Y-108805973D01*
X91897828Y-108803915D01*
X91940920Y-108799081D01*
X91947571Y-108796765D01*
X91947575Y-108796764D01*
X91972595Y-108788051D01*
X91987407Y-108783888D01*
X92013284Y-108778293D01*
X92020175Y-108776803D01*
X92059478Y-108758476D01*
X92071254Y-108753694D01*
X92112217Y-108739429D01*
X92118192Y-108735695D01*
X92118195Y-108735694D01*
X92140660Y-108721657D01*
X92154177Y-108714318D01*
X92178179Y-108703125D01*
X92178180Y-108703124D01*
X92184567Y-108700146D01*
X92218818Y-108673578D01*
X92229277Y-108666282D01*
X92260069Y-108647042D01*
X92260072Y-108647040D01*
X92266041Y-108643310D01*
X92294844Y-108614708D01*
X92295469Y-108614123D01*
X92296135Y-108613606D01*
X92322125Y-108587616D01*
X92394747Y-108515499D01*
X92395405Y-108514462D01*
X92396508Y-108513233D01*
X95112613Y-105797128D01*
X95174925Y-105763102D01*
X95245740Y-105768167D01*
X95275769Y-105784287D01*
X95395736Y-105871448D01*
X95398500Y-105873456D01*
X95452777Y-105904541D01*
X95593171Y-105943343D01*
X95602147Y-105943210D01*
X95602148Y-105943210D01*
X95668459Y-105942226D01*
X95738812Y-105941182D01*
X95747385Y-105938537D01*
X95747388Y-105938536D01*
X95869420Y-105900878D01*
X95869423Y-105900877D01*
X95877993Y-105898232D01*
X95999526Y-105817944D01*
X96016134Y-105799628D01*
X96039249Y-105774135D01*
X96039252Y-105774132D01*
X96041540Y-105771608D01*
X96993199Y-104461762D01*
X97389253Y-103916641D01*
X97389254Y-103916639D01*
X97391253Y-103913888D01*
X97422337Y-103859612D01*
X97461140Y-103719217D01*
X97460894Y-103702594D01*
X97459112Y-103582557D01*
X97458979Y-103573576D01*
X97432536Y-103487889D01*
X97418676Y-103442975D01*
X97418675Y-103442974D01*
X97416028Y-103434395D01*
X97335741Y-103312863D01*
X97329892Y-103307559D01*
X97329889Y-103307556D01*
X97291931Y-103273138D01*
X97291926Y-103273134D01*
X97289405Y-103270848D01*
X95957546Y-102303196D01*
X95903269Y-102272111D01*
X95779278Y-102237843D01*
X95718948Y-102200417D01*
X95707713Y-102185848D01*
X95636805Y-102078513D01*
X95630956Y-102073209D01*
X95630953Y-102073206D01*
X95592995Y-102038788D01*
X95592990Y-102038784D01*
X95590469Y-102036498D01*
X95527958Y-101991081D01*
X95484604Y-101934859D01*
X95478529Y-101864122D01*
X95512924Y-101800050D01*
X99640110Y-97672863D01*
X99641047Y-97671935D01*
X99700474Y-97613740D01*
X99700475Y-97613738D01*
X99705507Y-97608811D01*
X99709322Y-97602891D01*
X99709327Y-97602885D01*
X99728994Y-97572368D01*
X99736427Y-97562023D01*
X99763476Y-97528139D01*
X99778073Y-97497944D01*
X99785602Y-97484527D01*
X99803765Y-97456344D01*
X99806173Y-97449727D01*
X99806176Y-97449722D01*
X99818592Y-97415609D01*
X99823553Y-97403866D01*
X99839353Y-97371182D01*
X99839356Y-97371173D01*
X99842421Y-97364833D01*
X99849966Y-97332154D01*
X99854334Y-97317407D01*
X99865803Y-97285897D01*
X99866685Y-97278912D01*
X99866687Y-97278905D01*
X99871237Y-97242890D01*
X99873472Y-97230339D01*
X99881640Y-97194960D01*
X99883225Y-97188097D01*
X99883367Y-97147508D01*
X99883396Y-97146639D01*
X99883500Y-97145813D01*
X99883500Y-97109296D01*
X99883858Y-97006712D01*
X99883589Y-97005509D01*
X99883500Y-97003865D01*
X99883500Y-95505259D01*
X99903502Y-95437138D01*
X99957158Y-95390645D01*
X99965270Y-95387277D01*
X100088297Y-95341156D01*
X100096705Y-95338004D01*
X100213261Y-95250650D01*
X100300615Y-95134094D01*
X100351745Y-94997705D01*
X100358500Y-94935523D01*
X100358500Y-92639255D01*
X100351745Y-92577073D01*
X100300615Y-92440684D01*
X100213261Y-92324128D01*
X100096705Y-92236774D01*
X99960316Y-92185644D01*
X99898134Y-92178889D01*
X98251866Y-92178889D01*
X98189684Y-92185644D01*
X98182288Y-92188416D01*
X98182282Y-92188418D01*
X98069229Y-92230800D01*
X97998422Y-92235983D01*
X97980771Y-92230800D01*
X97867718Y-92188418D01*
X97867712Y-92188416D01*
X97860316Y-92185644D01*
X97798134Y-92178889D01*
X97434500Y-92178889D01*
X97366379Y-92158887D01*
X97319886Y-92105231D01*
X97308500Y-92052889D01*
X97308500Y-88934500D01*
X97328502Y-88866379D01*
X97382158Y-88819886D01*
X97434500Y-88808500D01*
X97944095Y-88808500D01*
X97959014Y-88809386D01*
X97994320Y-88813596D01*
X98040575Y-88808734D01*
X98043493Y-88808500D01*
X98045610Y-88808500D01*
X98087068Y-88803849D01*
X98087665Y-88803785D01*
X98174712Y-88794636D01*
X98177416Y-88793715D01*
X98180255Y-88793397D01*
X98262923Y-88764609D01*
X98263494Y-88764413D01*
X98346421Y-88736182D01*
X98348856Y-88734684D01*
X98351552Y-88733745D01*
X98357031Y-88730321D01*
X98357034Y-88730320D01*
X98425763Y-88687375D01*
X98426507Y-88686913D01*
X98500912Y-88641138D01*
X98502951Y-88639141D01*
X98505376Y-88637626D01*
X98567493Y-88575941D01*
X98568119Y-88575324D01*
X98625891Y-88518749D01*
X98630507Y-88514229D01*
X98632053Y-88511830D01*
X98634082Y-88509815D01*
X98680973Y-88435926D01*
X98681429Y-88435212D01*
X98725253Y-88367211D01*
X98728765Y-88361762D01*
X98729741Y-88359079D01*
X98731273Y-88356666D01*
X98760602Y-88274301D01*
X98760900Y-88273474D01*
X98788588Y-88197402D01*
X98788589Y-88197398D01*
X98790803Y-88191315D01*
X98791161Y-88188480D01*
X98792119Y-88185790D01*
X98802479Y-88098914D01*
X98802586Y-88098044D01*
X98808500Y-88051231D01*
X98808500Y-88049102D01*
X98808763Y-88046211D01*
X98812762Y-88012673D01*
X98813596Y-88005680D01*
X98809190Y-87963760D01*
X98808500Y-87950589D01*
X98808500Y-82009260D01*
X98808507Y-82007941D01*
X98809144Y-81947115D01*
X98809451Y-81917779D01*
X98800289Y-81875403D01*
X98798230Y-81862832D01*
X98797723Y-81858307D01*
X98793397Y-81819745D01*
X98789482Y-81808500D01*
X98782367Y-81788070D01*
X98778204Y-81773258D01*
X98772609Y-81747381D01*
X98771119Y-81740490D01*
X98752793Y-81701189D01*
X98748008Y-81689406D01*
X98733745Y-81648448D01*
X98715979Y-81620016D01*
X98708640Y-81606499D01*
X98697440Y-81582481D01*
X98697438Y-81582477D01*
X98694463Y-81576098D01*
X98680789Y-81558469D01*
X98667891Y-81541840D01*
X98660597Y-81531385D01*
X98641359Y-81500598D01*
X98637626Y-81494624D01*
X98609024Y-81465821D01*
X98608439Y-81465196D01*
X98607922Y-81464530D01*
X98581932Y-81438540D01*
X98509815Y-81365918D01*
X98508778Y-81365260D01*
X98507549Y-81364157D01*
X97578234Y-80434842D01*
X97577306Y-80433905D01*
X97519157Y-80374525D01*
X97519156Y-80374524D01*
X97514229Y-80369493D01*
X97477779Y-80346002D01*
X97467454Y-80338583D01*
X97433557Y-80311524D01*
X97403362Y-80296927D01*
X97389945Y-80289398D01*
X97361762Y-80271235D01*
X97355145Y-80268827D01*
X97355140Y-80268824D01*
X97321027Y-80256408D01*
X97309284Y-80251447D01*
X97276597Y-80235646D01*
X97276592Y-80235644D01*
X97270251Y-80232579D01*
X97263393Y-80230996D01*
X97263391Y-80230995D01*
X97237574Y-80225035D01*
X97222831Y-80220668D01*
X97191315Y-80209197D01*
X97184325Y-80208314D01*
X97184317Y-80208312D01*
X97148299Y-80203762D01*
X97135747Y-80201526D01*
X97100386Y-80193362D01*
X97100383Y-80193362D01*
X97093515Y-80191776D01*
X97086469Y-80191751D01*
X97086466Y-80191751D01*
X97052944Y-80191634D01*
X97052062Y-80191605D01*
X97051231Y-80191500D01*
X97014581Y-80191500D01*
X97014141Y-80191499D01*
X96915657Y-80191155D01*
X96915652Y-80191155D01*
X96912130Y-80191143D01*
X96910930Y-80191411D01*
X96909293Y-80191500D01*
X94992867Y-80191500D01*
X94924746Y-80171498D01*
X94903772Y-80154595D01*
X92791454Y-78042277D01*
X95637009Y-78042277D01*
X95662625Y-78310769D01*
X95663710Y-78315203D01*
X95663711Y-78315209D01*
X95708366Y-78497699D01*
X95726731Y-78572750D01*
X95827985Y-78822733D01*
X95830294Y-78826676D01*
X95953411Y-79036944D01*
X95964265Y-79055482D01*
X96062938Y-79178866D01*
X96120563Y-79250922D01*
X96132716Y-79266119D01*
X96329809Y-79450234D01*
X96551416Y-79603968D01*
X96555499Y-79605999D01*
X96555502Y-79606001D01*
X96671013Y-79663466D01*
X96792894Y-79724101D01*
X96797228Y-79725522D01*
X96797231Y-79725523D01*
X97044853Y-79806698D01*
X97044859Y-79806699D01*
X97049186Y-79808118D01*
X97053677Y-79808898D01*
X97053678Y-79808898D01*
X97311140Y-79853601D01*
X97311148Y-79853602D01*
X97314921Y-79854257D01*
X97318758Y-79854448D01*
X97398578Y-79858422D01*
X97398586Y-79858422D01*
X97400149Y-79858500D01*
X97568512Y-79858500D01*
X97570780Y-79858335D01*
X97570792Y-79858335D01*
X97701884Y-79848823D01*
X97769004Y-79843953D01*
X97773459Y-79842969D01*
X97773462Y-79842969D01*
X98027912Y-79786791D01*
X98027916Y-79786790D01*
X98032372Y-79785806D01*
X98184719Y-79728087D01*
X98280318Y-79691868D01*
X98280321Y-79691867D01*
X98284588Y-79690250D01*
X98520368Y-79559286D01*
X98734773Y-79395657D01*
X98738857Y-79391480D01*
X98871310Y-79255987D01*
X98923312Y-79202792D01*
X99082034Y-78984730D01*
X99153846Y-78848238D01*
X99205490Y-78750079D01*
X99205493Y-78750073D01*
X99207615Y-78746039D01*
X99216155Y-78721858D01*
X99295902Y-78496033D01*
X99295902Y-78496032D01*
X99297425Y-78491720D01*
X99333090Y-78310769D01*
X99348700Y-78231572D01*
X99348701Y-78231566D01*
X99349581Y-78227100D01*
X99350609Y-78206457D01*
X99362764Y-77962292D01*
X99362764Y-77962286D01*
X99362991Y-77957723D01*
X99337375Y-77689231D01*
X99323834Y-77633891D01*
X99274355Y-77431688D01*
X99273269Y-77427250D01*
X99172015Y-77177267D01*
X99035735Y-76944518D01*
X98917928Y-76797208D01*
X98870136Y-76737447D01*
X98870135Y-76737445D01*
X98867284Y-76733881D01*
X98670191Y-76549766D01*
X98448584Y-76396032D01*
X98444501Y-76394001D01*
X98444498Y-76393999D01*
X98277266Y-76310803D01*
X98207106Y-76275899D01*
X98202772Y-76274478D01*
X98202769Y-76274477D01*
X97955147Y-76193302D01*
X97955141Y-76193301D01*
X97950814Y-76191882D01*
X97939560Y-76189928D01*
X97688860Y-76146399D01*
X97688852Y-76146398D01*
X97685079Y-76145743D01*
X97673817Y-76145182D01*
X97601422Y-76141578D01*
X97601414Y-76141578D01*
X97599851Y-76141500D01*
X97431488Y-76141500D01*
X97429220Y-76141665D01*
X97429208Y-76141665D01*
X97298116Y-76151177D01*
X97230996Y-76156047D01*
X97226541Y-76157031D01*
X97226538Y-76157031D01*
X96972088Y-76213209D01*
X96972084Y-76213210D01*
X96967628Y-76214194D01*
X96864718Y-76253183D01*
X96719682Y-76308132D01*
X96719679Y-76308133D01*
X96715412Y-76309750D01*
X96593837Y-76377279D01*
X96502279Y-76428135D01*
X96479632Y-76440714D01*
X96265227Y-76604343D01*
X96262034Y-76607609D01*
X96262032Y-76607611D01*
X96188580Y-76682749D01*
X96076688Y-76797208D01*
X95917966Y-77015270D01*
X95915844Y-77019304D01*
X95794510Y-77249921D01*
X95794507Y-77249927D01*
X95792385Y-77253961D01*
X95790865Y-77258266D01*
X95790863Y-77258270D01*
X95704098Y-77503967D01*
X95702575Y-77508280D01*
X95650419Y-77772900D01*
X95650192Y-77777453D01*
X95650192Y-77777456D01*
X95638690Y-78008515D01*
X95637009Y-78042277D01*
X92791454Y-78042277D01*
X83684019Y-68934842D01*
X83683091Y-68933905D01*
X83624942Y-68874525D01*
X83624941Y-68874524D01*
X83620014Y-68869493D01*
X83583564Y-68846002D01*
X83573239Y-68838583D01*
X83539342Y-68811524D01*
X83509147Y-68796927D01*
X83495730Y-68789398D01*
X83467547Y-68771235D01*
X83460930Y-68768827D01*
X83460925Y-68768824D01*
X83426812Y-68756408D01*
X83415069Y-68751447D01*
X83382382Y-68735646D01*
X83382377Y-68735644D01*
X83376036Y-68732579D01*
X83369178Y-68730996D01*
X83369176Y-68730995D01*
X83343359Y-68725035D01*
X83328616Y-68720668D01*
X83297100Y-68709197D01*
X83290110Y-68708314D01*
X83290102Y-68708312D01*
X83254084Y-68703762D01*
X83241532Y-68701526D01*
X83206171Y-68693362D01*
X83206168Y-68693362D01*
X83199300Y-68691776D01*
X83192254Y-68691751D01*
X83192251Y-68691751D01*
X83158729Y-68691634D01*
X83157847Y-68691605D01*
X83157016Y-68691500D01*
X83120366Y-68691500D01*
X83119926Y-68691499D01*
X83021442Y-68691155D01*
X83021437Y-68691155D01*
X83017915Y-68691143D01*
X83016715Y-68691411D01*
X83015078Y-68691500D01*
X80868045Y-68691500D01*
X80799924Y-68671498D01*
X80753431Y-68617842D01*
X80743327Y-68547568D01*
X80758926Y-68502500D01*
X80831223Y-68377279D01*
X80831224Y-68377278D01*
X80834527Y-68371556D01*
X80893542Y-68189928D01*
X80899886Y-68129573D01*
X80912814Y-68006565D01*
X80913504Y-68000000D01*
X80897256Y-67845405D01*
X80894232Y-67816635D01*
X80894232Y-67816633D01*
X80893542Y-67810072D01*
X80834527Y-67628444D01*
X80739040Y-67463056D01*
X80693165Y-67412106D01*
X80615675Y-67326045D01*
X80615674Y-67326044D01*
X80611253Y-67321134D01*
X80456752Y-67208882D01*
X80450724Y-67206198D01*
X80450722Y-67206197D01*
X80289758Y-67134532D01*
X80251912Y-67108520D01*
X79578234Y-66434842D01*
X79577306Y-66433905D01*
X79519157Y-66374525D01*
X79519156Y-66374524D01*
X79514229Y-66369493D01*
X79477779Y-66346002D01*
X79467454Y-66338583D01*
X79433557Y-66311524D01*
X79403362Y-66296927D01*
X79389945Y-66289398D01*
X79361762Y-66271235D01*
X79355145Y-66268827D01*
X79355140Y-66268824D01*
X79321027Y-66256408D01*
X79309280Y-66251446D01*
X79298582Y-66246274D01*
X79245958Y-66198616D01*
X79227454Y-66130073D01*
X79248945Y-66062407D01*
X79297988Y-66019686D01*
X79417994Y-65960896D01*
X79599860Y-65831173D01*
X79758096Y-65673489D01*
X79888453Y-65492077D01*
X79889776Y-65493028D01*
X79936645Y-65449857D01*
X80006580Y-65437625D01*
X80072026Y-65465144D01*
X80099875Y-65496994D01*
X80159987Y-65595088D01*
X80306250Y-65763938D01*
X80478126Y-65906632D01*
X80671000Y-66019338D01*
X80879692Y-66099030D01*
X80884760Y-66100061D01*
X80884763Y-66100062D01*
X80972155Y-66117842D01*
X81098597Y-66143567D01*
X81103772Y-66143757D01*
X81103774Y-66143757D01*
X81316673Y-66151564D01*
X81316677Y-66151564D01*
X81321837Y-66151753D01*
X81326957Y-66151097D01*
X81326959Y-66151097D01*
X81538288Y-66124025D01*
X81538289Y-66124025D01*
X81543416Y-66123368D01*
X81548366Y-66121883D01*
X81752429Y-66060661D01*
X81752434Y-66060659D01*
X81757384Y-66059174D01*
X81957994Y-65960896D01*
X82139860Y-65831173D01*
X82298096Y-65673489D01*
X82428453Y-65492077D01*
X82429776Y-65493028D01*
X82476645Y-65449857D01*
X82546580Y-65437625D01*
X82612026Y-65465144D01*
X82639875Y-65496994D01*
X82699987Y-65595088D01*
X82846250Y-65763938D01*
X83018126Y-65906632D01*
X83211000Y-66019338D01*
X83419692Y-66099030D01*
X83424760Y-66100061D01*
X83424763Y-66100062D01*
X83512155Y-66117842D01*
X83638597Y-66143567D01*
X83643772Y-66143757D01*
X83643774Y-66143757D01*
X83856673Y-66151564D01*
X83856677Y-66151564D01*
X83861837Y-66151753D01*
X83866957Y-66151097D01*
X83866959Y-66151097D01*
X84078288Y-66124025D01*
X84078289Y-66124025D01*
X84083416Y-66123368D01*
X84088366Y-66121883D01*
X84292429Y-66060661D01*
X84292434Y-66060659D01*
X84297384Y-66059174D01*
X84497994Y-65960896D01*
X84679860Y-65831173D01*
X84838096Y-65673489D01*
X84968453Y-65492077D01*
X84969776Y-65493028D01*
X85016645Y-65449857D01*
X85086580Y-65437625D01*
X85152026Y-65465144D01*
X85179875Y-65496994D01*
X85239987Y-65595088D01*
X85386250Y-65763938D01*
X85558126Y-65906632D01*
X85751000Y-66019338D01*
X85959692Y-66099030D01*
X85964760Y-66100061D01*
X85964763Y-66100062D01*
X86052155Y-66117842D01*
X86178597Y-66143567D01*
X86183772Y-66143757D01*
X86183774Y-66143757D01*
X86396673Y-66151564D01*
X86396677Y-66151564D01*
X86401837Y-66151753D01*
X86406957Y-66151097D01*
X86406959Y-66151097D01*
X86618288Y-66124025D01*
X86618289Y-66124025D01*
X86623416Y-66123368D01*
X86628366Y-66121883D01*
X86832429Y-66060661D01*
X86832434Y-66060659D01*
X86837384Y-66059174D01*
X87037994Y-65960896D01*
X87219860Y-65831173D01*
X87378096Y-65673489D01*
X87508453Y-65492077D01*
X87509776Y-65493028D01*
X87556645Y-65449857D01*
X87626580Y-65437625D01*
X87692026Y-65465144D01*
X87719875Y-65496994D01*
X87779987Y-65595088D01*
X87926250Y-65763938D01*
X88098126Y-65906632D01*
X88291000Y-66019338D01*
X88499692Y-66099030D01*
X88504760Y-66100061D01*
X88504763Y-66100062D01*
X88592155Y-66117842D01*
X88718597Y-66143567D01*
X88723772Y-66143757D01*
X88723774Y-66143757D01*
X88936673Y-66151564D01*
X88936677Y-66151564D01*
X88941837Y-66151753D01*
X88946957Y-66151097D01*
X88946959Y-66151097D01*
X89158288Y-66124025D01*
X89158289Y-66124025D01*
X89163416Y-66123368D01*
X89168366Y-66121883D01*
X89372429Y-66060661D01*
X89372434Y-66060659D01*
X89377384Y-66059174D01*
X89577994Y-65960896D01*
X89759860Y-65831173D01*
X89918096Y-65673489D01*
X90048453Y-65492077D01*
X90049776Y-65493028D01*
X90096645Y-65449857D01*
X90166580Y-65437625D01*
X90232026Y-65465144D01*
X90259875Y-65496994D01*
X90319987Y-65595088D01*
X90466250Y-65763938D01*
X90470225Y-65767238D01*
X90470228Y-65767241D01*
X90565985Y-65846740D01*
X90605620Y-65905643D01*
X90611500Y-65943684D01*
X90611500Y-67410786D01*
X90611493Y-67412106D01*
X90610549Y-67502221D01*
X90619711Y-67544597D01*
X90621769Y-67557163D01*
X90626603Y-67600255D01*
X90628919Y-67606906D01*
X90628920Y-67606910D01*
X90637633Y-67631930D01*
X90641796Y-67646742D01*
X90648881Y-67679510D01*
X90667208Y-67718813D01*
X90671990Y-67730589D01*
X90686255Y-67771552D01*
X90689989Y-67777527D01*
X90689990Y-67777530D01*
X90704027Y-67799995D01*
X90711366Y-67813512D01*
X90722559Y-67837514D01*
X90725538Y-67843902D01*
X90729855Y-67849467D01*
X90729856Y-67849469D01*
X90752106Y-67878153D01*
X90759402Y-67888612D01*
X90782374Y-67925376D01*
X90787334Y-67930371D01*
X90787335Y-67930372D01*
X90810976Y-67954179D01*
X90811561Y-67954804D01*
X90812078Y-67955470D01*
X90838068Y-67981460D01*
X90910185Y-68054082D01*
X90911222Y-68054740D01*
X90912451Y-68055843D01*
X93613908Y-70757300D01*
X93644646Y-70807458D01*
X93665473Y-70871556D01*
X93760960Y-71036944D01*
X93888747Y-71178866D01*
X93961428Y-71231672D01*
X93997400Y-71257807D01*
X94043248Y-71291118D01*
X94049276Y-71293802D01*
X94049278Y-71293803D01*
X94184021Y-71353794D01*
X94217712Y-71368794D01*
X94311113Y-71388647D01*
X94398056Y-71407128D01*
X94398061Y-71407128D01*
X94404513Y-71408500D01*
X94595487Y-71408500D01*
X94601939Y-71407128D01*
X94601944Y-71407128D01*
X94688887Y-71388647D01*
X94782288Y-71368794D01*
X94815979Y-71353794D01*
X94950722Y-71293803D01*
X94950724Y-71293802D01*
X94956752Y-71291118D01*
X95002601Y-71257807D01*
X95038572Y-71231672D01*
X95111253Y-71178866D01*
X95239040Y-71036944D01*
X95334527Y-70871556D01*
X95393542Y-70689928D01*
X95394920Y-70676823D01*
X95412814Y-70506565D01*
X95413504Y-70500000D01*
X95393542Y-70310072D01*
X95334527Y-70128444D01*
X95239040Y-69963056D01*
X95182046Y-69899757D01*
X95115675Y-69826045D01*
X95115674Y-69826044D01*
X95111253Y-69821134D01*
X94956752Y-69708882D01*
X94950724Y-69706198D01*
X94950722Y-69706197D01*
X94819705Y-69647865D01*
X94789757Y-69634532D01*
X94751912Y-69608520D01*
X92265405Y-67122013D01*
X92231379Y-67059701D01*
X92228500Y-67032918D01*
X92228500Y-65946968D01*
X92248502Y-65878847D01*
X92281331Y-65844390D01*
X92295654Y-65834174D01*
X92295661Y-65834168D01*
X92299860Y-65831173D01*
X92458096Y-65673489D01*
X92588453Y-65492077D01*
X92589776Y-65493028D01*
X92636645Y-65449857D01*
X92706580Y-65437625D01*
X92772026Y-65465144D01*
X92799875Y-65496994D01*
X92859987Y-65595088D01*
X93006250Y-65763938D01*
X93178126Y-65906632D01*
X93371000Y-66019338D01*
X93579692Y-66099030D01*
X93584760Y-66100061D01*
X93584763Y-66100062D01*
X93672155Y-66117842D01*
X93798597Y-66143567D01*
X93803772Y-66143757D01*
X93803774Y-66143757D01*
X94016673Y-66151564D01*
X94016677Y-66151564D01*
X94021837Y-66151753D01*
X94026957Y-66151097D01*
X94026959Y-66151097D01*
X94238288Y-66124025D01*
X94238289Y-66124025D01*
X94243416Y-66123368D01*
X94248366Y-66121883D01*
X94452429Y-66060661D01*
X94452434Y-66060659D01*
X94457384Y-66059174D01*
X94657994Y-65960896D01*
X94839860Y-65831173D01*
X94998096Y-65673489D01*
X95128453Y-65492077D01*
X95129776Y-65493028D01*
X95176645Y-65449857D01*
X95246580Y-65437625D01*
X95312026Y-65465144D01*
X95339875Y-65496994D01*
X95399987Y-65595088D01*
X95546250Y-65763938D01*
X95718126Y-65906632D01*
X95911000Y-66019338D01*
X96119692Y-66099030D01*
X96124760Y-66100061D01*
X96124763Y-66100062D01*
X96212155Y-66117842D01*
X96338597Y-66143567D01*
X96343772Y-66143757D01*
X96343774Y-66143757D01*
X96556673Y-66151564D01*
X96556677Y-66151564D01*
X96561837Y-66151753D01*
X96566957Y-66151097D01*
X96566959Y-66151097D01*
X96778288Y-66124025D01*
X96778289Y-66124025D01*
X96783416Y-66123368D01*
X96788366Y-66121883D01*
X96992429Y-66060661D01*
X96992434Y-66060659D01*
X96997384Y-66059174D01*
X97197994Y-65960896D01*
X97379860Y-65831173D01*
X97538096Y-65673489D01*
X97668453Y-65492077D01*
X97669776Y-65493028D01*
X97716645Y-65449857D01*
X97786580Y-65437625D01*
X97852026Y-65465144D01*
X97879875Y-65496994D01*
X97939987Y-65595088D01*
X98086250Y-65763938D01*
X98258126Y-65906632D01*
X98451000Y-66019338D01*
X98659692Y-66099030D01*
X98664760Y-66100061D01*
X98664763Y-66100062D01*
X98752155Y-66117842D01*
X98878597Y-66143567D01*
X98883772Y-66143757D01*
X98883774Y-66143757D01*
X99096673Y-66151564D01*
X99096677Y-66151564D01*
X99101837Y-66151753D01*
X99106957Y-66151097D01*
X99106959Y-66151097D01*
X99318288Y-66124025D01*
X99318289Y-66124025D01*
X99323416Y-66123368D01*
X99328366Y-66121883D01*
X99532429Y-66060661D01*
X99532434Y-66060659D01*
X99537384Y-66059174D01*
X99737994Y-65960896D01*
X99919860Y-65831173D01*
X100078096Y-65673489D01*
X100208453Y-65492077D01*
X100209776Y-65493028D01*
X100256645Y-65449857D01*
X100326580Y-65437625D01*
X100392026Y-65465144D01*
X100419875Y-65496994D01*
X100479987Y-65595088D01*
X100626250Y-65763938D01*
X100798126Y-65906632D01*
X100991000Y-66019338D01*
X101199692Y-66099030D01*
X101204760Y-66100061D01*
X101204763Y-66100062D01*
X101292155Y-66117842D01*
X101418597Y-66143567D01*
X101423772Y-66143757D01*
X101423774Y-66143757D01*
X101636673Y-66151564D01*
X101636677Y-66151564D01*
X101641837Y-66151753D01*
X101646957Y-66151097D01*
X101646959Y-66151097D01*
X101858288Y-66124025D01*
X101858289Y-66124025D01*
X101863416Y-66123368D01*
X101868366Y-66121883D01*
X102072429Y-66060661D01*
X102072434Y-66060659D01*
X102077384Y-66059174D01*
X102277994Y-65960896D01*
X102459860Y-65831173D01*
X102618096Y-65673489D01*
X102748453Y-65492077D01*
X102749776Y-65493028D01*
X102796645Y-65449857D01*
X102866580Y-65437625D01*
X102932026Y-65465144D01*
X102959875Y-65496994D01*
X103019987Y-65595088D01*
X103166250Y-65763938D01*
X103170225Y-65767238D01*
X103170228Y-65767241D01*
X103265985Y-65846740D01*
X103305620Y-65905643D01*
X103311500Y-65943684D01*
X103311500Y-70105418D01*
X103291498Y-70173539D01*
X103274595Y-70194513D01*
X102264513Y-71204595D01*
X102202201Y-71238621D01*
X102175418Y-71241500D01*
X101908498Y-71241500D01*
X101906050Y-71241693D01*
X101906042Y-71241693D01*
X101877579Y-71243933D01*
X101877574Y-71243934D01*
X101871169Y-71244438D01*
X101771231Y-71273472D01*
X101719012Y-71288643D01*
X101719010Y-71288644D01*
X101711399Y-71290855D01*
X101704572Y-71294892D01*
X101704573Y-71294892D01*
X101575020Y-71371509D01*
X101575017Y-71371511D01*
X101568193Y-71375547D01*
X101450547Y-71493193D01*
X101446511Y-71500017D01*
X101446509Y-71500020D01*
X101401835Y-71575560D01*
X101365855Y-71636399D01*
X101363644Y-71644010D01*
X101363643Y-71644012D01*
X101349869Y-71691423D01*
X101319438Y-71796169D01*
X101318934Y-71802574D01*
X101318933Y-71802579D01*
X101317518Y-71820564D01*
X101316500Y-71833498D01*
X101316500Y-72266502D01*
X101319438Y-72303831D01*
X101365855Y-72463601D01*
X101379461Y-72486607D01*
X101446509Y-72599980D01*
X101446511Y-72599983D01*
X101450547Y-72606807D01*
X101568193Y-72724453D01*
X101575017Y-72728489D01*
X101575020Y-72728491D01*
X101668032Y-72783498D01*
X101711399Y-72809145D01*
X101719010Y-72811356D01*
X101719012Y-72811357D01*
X101739300Y-72817251D01*
X101871169Y-72855562D01*
X101877574Y-72856066D01*
X101877579Y-72856067D01*
X101906042Y-72858307D01*
X101906050Y-72858307D01*
X101908498Y-72858500D01*
X102553286Y-72858500D01*
X102554606Y-72858507D01*
X102644721Y-72859451D01*
X102648025Y-72858737D01*
X102652695Y-72858500D01*
X103065500Y-72858500D01*
X103133621Y-72878502D01*
X103180114Y-72932158D01*
X103191500Y-72984500D01*
X103191500Y-73015500D01*
X103171498Y-73083621D01*
X103117842Y-73130114D01*
X103065500Y-73141500D01*
X102618405Y-73141500D01*
X102603486Y-73140614D01*
X102599826Y-73140178D01*
X102568180Y-73136404D01*
X102561177Y-73137140D01*
X102561176Y-73137140D01*
X102526260Y-73140810D01*
X102513089Y-73141500D01*
X101908498Y-73141500D01*
X101906050Y-73141693D01*
X101906042Y-73141693D01*
X101877579Y-73143933D01*
X101877574Y-73143934D01*
X101871169Y-73144438D01*
X101786770Y-73168958D01*
X101719012Y-73188643D01*
X101719010Y-73188644D01*
X101711399Y-73190855D01*
X101704572Y-73194892D01*
X101704573Y-73194892D01*
X101575020Y-73271509D01*
X101575017Y-73271511D01*
X101568193Y-73275547D01*
X101450547Y-73393193D01*
X101446511Y-73400017D01*
X101446509Y-73400020D01*
X101391264Y-73493435D01*
X101365855Y-73536399D01*
X101319438Y-73696169D01*
X101318934Y-73702574D01*
X101318933Y-73702579D01*
X101316693Y-73731042D01*
X101316500Y-73733498D01*
X101316500Y-74166502D01*
X101316693Y-74168950D01*
X101316693Y-74168958D01*
X101317779Y-74182749D01*
X101319438Y-74203831D01*
X101365855Y-74363601D01*
X101369892Y-74370427D01*
X101446509Y-74499980D01*
X101446511Y-74499983D01*
X101450547Y-74506807D01*
X101568193Y-74624453D01*
X101692140Y-74697755D01*
X101740592Y-74749648D01*
X101754000Y-74806208D01*
X101754000Y-90373286D01*
X101753993Y-90374606D01*
X101753049Y-90464721D01*
X101762211Y-90507097D01*
X101764269Y-90519663D01*
X101769103Y-90562755D01*
X101771419Y-90569406D01*
X101771420Y-90569410D01*
X101780133Y-90594430D01*
X101784296Y-90609242D01*
X101791381Y-90642010D01*
X101809708Y-90681313D01*
X101814490Y-90693089D01*
X101828755Y-90734052D01*
X101832489Y-90740027D01*
X101832490Y-90740030D01*
X101846527Y-90762495D01*
X101853866Y-90776012D01*
X101865059Y-90800014D01*
X101868038Y-90806402D01*
X101872355Y-90811967D01*
X101872356Y-90811969D01*
X101894606Y-90840653D01*
X101901902Y-90851112D01*
X101924874Y-90887876D01*
X101929834Y-90892871D01*
X101929835Y-90892872D01*
X101953476Y-90916679D01*
X101954061Y-90917304D01*
X101954578Y-90917970D01*
X101980568Y-90943960D01*
X102052685Y-91016582D01*
X102053722Y-91017240D01*
X102054951Y-91018343D01*
X109831190Y-98794582D01*
X109865216Y-98856894D01*
X109867382Y-98897066D01*
X109851095Y-99049469D01*
X109851392Y-99054621D01*
X109851392Y-99054623D01*
X109852042Y-99065889D01*
X109835995Y-99135048D01*
X109785105Y-99184553D01*
X109724713Y-99199134D01*
X109665899Y-99198415D01*
X109646580Y-99198179D01*
X109646578Y-99198179D01*
X109641411Y-99198116D01*
X109412464Y-99233150D01*
X109192314Y-99305106D01*
X109187726Y-99307494D01*
X109187722Y-99307496D01*
X109053793Y-99377215D01*
X108986872Y-99412052D01*
X108982739Y-99415155D01*
X108982736Y-99415157D01*
X108805790Y-99548012D01*
X108801655Y-99551117D01*
X108641639Y-99718564D01*
X108623942Y-99744506D01*
X108569033Y-99789507D01*
X108519856Y-99799500D01*
X102447905Y-99799500D01*
X102432986Y-99798614D01*
X102429326Y-99798178D01*
X102397680Y-99794404D01*
X102351425Y-99799266D01*
X102348507Y-99799500D01*
X102346390Y-99799500D01*
X102304932Y-99804151D01*
X102304335Y-99804215D01*
X102217288Y-99813364D01*
X102214584Y-99814285D01*
X102211745Y-99814603D01*
X102129077Y-99843391D01*
X102128506Y-99843587D01*
X102045579Y-99871818D01*
X102043144Y-99873316D01*
X102040448Y-99874255D01*
X102034969Y-99877679D01*
X102034966Y-99877680D01*
X101966237Y-99920625D01*
X101965506Y-99921079D01*
X101891088Y-99966862D01*
X101889049Y-99968859D01*
X101886624Y-99970374D01*
X101882028Y-99974938D01*
X101824507Y-100032059D01*
X101823881Y-100032676D01*
X101761493Y-100093771D01*
X101759947Y-100096170D01*
X101757918Y-100098185D01*
X101754455Y-100103641D01*
X101754454Y-100103643D01*
X101711046Y-100172045D01*
X101710588Y-100172761D01*
X101663235Y-100246238D01*
X101662259Y-100248921D01*
X101660727Y-100251334D01*
X101658552Y-100257443D01*
X101631398Y-100333699D01*
X101631100Y-100334526D01*
X101603475Y-100410427D01*
X101601197Y-100416685D01*
X101600839Y-100419520D01*
X101599881Y-100422210D01*
X101596774Y-100448268D01*
X101589521Y-100509086D01*
X101589422Y-100509888D01*
X101583500Y-100556769D01*
X101583500Y-100558898D01*
X101583237Y-100561789D01*
X101578404Y-100602320D01*
X101579140Y-100609323D01*
X101579140Y-100609324D01*
X101582810Y-100644240D01*
X101583500Y-100657411D01*
X101583500Y-112220918D01*
X101563498Y-112289039D01*
X101546595Y-112310014D01*
X100702012Y-113154596D01*
X100639700Y-113188621D01*
X100612917Y-113191500D01*
X62387082Y-113191500D01*
X62318961Y-113171498D01*
X62297987Y-113154595D01*
X59185669Y-110042277D01*
X63637009Y-110042277D01*
X63662625Y-110310769D01*
X63663710Y-110315203D01*
X63663711Y-110315209D01*
X63723357Y-110558962D01*
X63726731Y-110572750D01*
X63827985Y-110822733D01*
X63964265Y-111055482D01*
X64066579Y-111183419D01*
X64095040Y-111219007D01*
X64132716Y-111266119D01*
X64329809Y-111450234D01*
X64551416Y-111603968D01*
X64555499Y-111605999D01*
X64555502Y-111606001D01*
X64671013Y-111663466D01*
X64792894Y-111724101D01*
X64797228Y-111725522D01*
X64797231Y-111725523D01*
X65044853Y-111806698D01*
X65044859Y-111806699D01*
X65049186Y-111808118D01*
X65053677Y-111808898D01*
X65053678Y-111808898D01*
X65311140Y-111853601D01*
X65311148Y-111853602D01*
X65314921Y-111854257D01*
X65318758Y-111854448D01*
X65398578Y-111858422D01*
X65398586Y-111858422D01*
X65400149Y-111858500D01*
X65568512Y-111858500D01*
X65570780Y-111858335D01*
X65570792Y-111858335D01*
X65701884Y-111848823D01*
X65769004Y-111843953D01*
X65773459Y-111842969D01*
X65773462Y-111842969D01*
X66027912Y-111786791D01*
X66027916Y-111786790D01*
X66032372Y-111785806D01*
X66176204Y-111731313D01*
X66280318Y-111691868D01*
X66280321Y-111691867D01*
X66284588Y-111690250D01*
X66520368Y-111559286D01*
X66734773Y-111395657D01*
X66923312Y-111202792D01*
X67082034Y-110984730D01*
X67140014Y-110874527D01*
X67205490Y-110750079D01*
X67205493Y-110750073D01*
X67207615Y-110746039D01*
X67222527Y-110703814D01*
X67295902Y-110496033D01*
X67295902Y-110496032D01*
X67297425Y-110491720D01*
X67349581Y-110227100D01*
X67349808Y-110222544D01*
X67362764Y-109962292D01*
X67362764Y-109962286D01*
X67362991Y-109957723D01*
X67337375Y-109689231D01*
X67326835Y-109646154D01*
X67274355Y-109431688D01*
X67273269Y-109427250D01*
X67172015Y-109177267D01*
X67070439Y-109003788D01*
X67038045Y-108948463D01*
X67038044Y-108948462D01*
X67035735Y-108944518D01*
X66917573Y-108796764D01*
X66870136Y-108737447D01*
X66870135Y-108737445D01*
X66867284Y-108733881D01*
X66670191Y-108549766D01*
X66448584Y-108396032D01*
X66444501Y-108394001D01*
X66444498Y-108393999D01*
X66279606Y-108311967D01*
X66207106Y-108275899D01*
X66202772Y-108274478D01*
X66202769Y-108274477D01*
X65955147Y-108193302D01*
X65955141Y-108193301D01*
X65950814Y-108191882D01*
X65946322Y-108191102D01*
X65688860Y-108146399D01*
X65688852Y-108146398D01*
X65685079Y-108145743D01*
X65673817Y-108145182D01*
X65601422Y-108141578D01*
X65601414Y-108141578D01*
X65599851Y-108141500D01*
X65431488Y-108141500D01*
X65429220Y-108141665D01*
X65429208Y-108141665D01*
X65298116Y-108151177D01*
X65230996Y-108156047D01*
X65226541Y-108157031D01*
X65226538Y-108157031D01*
X64972088Y-108213209D01*
X64972084Y-108213210D01*
X64967628Y-108214194D01*
X64850581Y-108258539D01*
X64719682Y-108308132D01*
X64719679Y-108308133D01*
X64715412Y-108309750D01*
X64479632Y-108440714D01*
X64384610Y-108513233D01*
X64287145Y-108587616D01*
X64265227Y-108604343D01*
X64262034Y-108607609D01*
X64262032Y-108607611D01*
X64255541Y-108614251D01*
X64076688Y-108797208D01*
X63917966Y-109015270D01*
X63915844Y-109019304D01*
X63794510Y-109249921D01*
X63794507Y-109249927D01*
X63792385Y-109253961D01*
X63790865Y-109258266D01*
X63790863Y-109258270D01*
X63712132Y-109481218D01*
X63702575Y-109508280D01*
X63650419Y-109772900D01*
X63650192Y-109777453D01*
X63650192Y-109777456D01*
X63640991Y-109962292D01*
X63637009Y-110042277D01*
X59185669Y-110042277D01*
X55324029Y-106180637D01*
X55295524Y-106129006D01*
X55293398Y-106129746D01*
X55282367Y-106098070D01*
X55278204Y-106083258D01*
X55272609Y-106057381D01*
X55271119Y-106050490D01*
X55252792Y-106011187D01*
X55248010Y-105999411D01*
X55233745Y-105958448D01*
X55224307Y-105943343D01*
X55215973Y-105930005D01*
X55208634Y-105916488D01*
X55197441Y-105892486D01*
X55197440Y-105892485D01*
X55194462Y-105886098D01*
X55167894Y-105851847D01*
X55160598Y-105841388D01*
X55141358Y-105810596D01*
X55141356Y-105810593D01*
X55137626Y-105804624D01*
X55109024Y-105775821D01*
X55108439Y-105775196D01*
X55107922Y-105774530D01*
X55081932Y-105748540D01*
X55009815Y-105675918D01*
X55008778Y-105675260D01*
X55007549Y-105674157D01*
X53341360Y-104007968D01*
X53307334Y-103945656D01*
X53304934Y-103907892D01*
X53313019Y-103815476D01*
X53313019Y-103815475D01*
X53313498Y-103810000D01*
X53293543Y-103581913D01*
X53289009Y-103564993D01*
X53235707Y-103366067D01*
X53235706Y-103366065D01*
X53234284Y-103360757D01*
X53154462Y-103189576D01*
X53139849Y-103158238D01*
X53139846Y-103158233D01*
X53137523Y-103153251D01*
X53006198Y-102965700D01*
X52844300Y-102803802D01*
X52839792Y-102800645D01*
X52839789Y-102800643D01*
X52685420Y-102692553D01*
X52656749Y-102672477D01*
X52651767Y-102670154D01*
X52651762Y-102670151D01*
X52454225Y-102578039D01*
X52454224Y-102578039D01*
X52449243Y-102575716D01*
X52443935Y-102574294D01*
X52443933Y-102574293D01*
X52233402Y-102517881D01*
X52233400Y-102517881D01*
X52228087Y-102516457D01*
X52000000Y-102496502D01*
X51771913Y-102516457D01*
X51766600Y-102517881D01*
X51766598Y-102517881D01*
X51556067Y-102574293D01*
X51556065Y-102574294D01*
X51550757Y-102575716D01*
X51545776Y-102578039D01*
X51545775Y-102578039D01*
X51348238Y-102670151D01*
X51348233Y-102670154D01*
X51343251Y-102672477D01*
X51314580Y-102692553D01*
X51160211Y-102800643D01*
X51160208Y-102800645D01*
X51155700Y-102803802D01*
X50993802Y-102965700D01*
X50862477Y-103153251D01*
X50860154Y-103158233D01*
X50860151Y-103158238D01*
X50845538Y-103189576D01*
X50765716Y-103360757D01*
X50764294Y-103366065D01*
X50764293Y-103366067D01*
X50756207Y-103396245D01*
X50719255Y-103456868D01*
X50655395Y-103487889D01*
X50584900Y-103479461D01*
X50530153Y-103434258D01*
X50508500Y-103363634D01*
X50508500Y-96634436D01*
X50528502Y-96566315D01*
X50582158Y-96519822D01*
X50652432Y-96509718D01*
X50717012Y-96539212D01*
X50756207Y-96601825D01*
X50764764Y-96633761D01*
X50768510Y-96644053D01*
X50860586Y-96841511D01*
X50866069Y-96851007D01*
X50991028Y-97029467D01*
X50998084Y-97037875D01*
X51152125Y-97191916D01*
X51160533Y-97198972D01*
X51338993Y-97323931D01*
X51348489Y-97329414D01*
X51545947Y-97421490D01*
X51556239Y-97425236D01*
X51728503Y-97471394D01*
X51742599Y-97471058D01*
X51746000Y-97463116D01*
X51746000Y-97457967D01*
X52254000Y-97457967D01*
X52257973Y-97471498D01*
X52266522Y-97472727D01*
X52443761Y-97425236D01*
X52454053Y-97421490D01*
X52651511Y-97329414D01*
X52661007Y-97323931D01*
X52839467Y-97198972D01*
X52847875Y-97191916D01*
X53001916Y-97037875D01*
X53008972Y-97029467D01*
X53133931Y-96851007D01*
X53139414Y-96841511D01*
X53231490Y-96644053D01*
X53235236Y-96633761D01*
X53281394Y-96461497D01*
X53281058Y-96447401D01*
X53273116Y-96444000D01*
X52272115Y-96444000D01*
X52256876Y-96448475D01*
X52255671Y-96449865D01*
X52254000Y-96457548D01*
X52254000Y-97457967D01*
X51746000Y-97457967D01*
X51746000Y-95917885D01*
X52254000Y-95917885D01*
X52258475Y-95933124D01*
X52259865Y-95934329D01*
X52267548Y-95936000D01*
X53267967Y-95936000D01*
X53281498Y-95932027D01*
X53282727Y-95923478D01*
X53235236Y-95746239D01*
X53231490Y-95735947D01*
X53139414Y-95538489D01*
X53133931Y-95528993D01*
X53008972Y-95350533D01*
X53001916Y-95342125D01*
X52847875Y-95188084D01*
X52839467Y-95181028D01*
X52661007Y-95056069D01*
X52651511Y-95050586D01*
X52454053Y-94958510D01*
X52443761Y-94954764D01*
X52271497Y-94908606D01*
X52257401Y-94908942D01*
X52254000Y-94916884D01*
X52254000Y-95917885D01*
X51746000Y-95917885D01*
X51746000Y-94922033D01*
X51742027Y-94908502D01*
X51733478Y-94907273D01*
X51556239Y-94954764D01*
X51545947Y-94958510D01*
X51348489Y-95050586D01*
X51338993Y-95056069D01*
X51160533Y-95181028D01*
X51152125Y-95188084D01*
X50998084Y-95342125D01*
X50991028Y-95350533D01*
X50866069Y-95528993D01*
X50860586Y-95538489D01*
X50768510Y-95735947D01*
X50764764Y-95746239D01*
X50756207Y-95778175D01*
X50719255Y-95838798D01*
X50655395Y-95869819D01*
X50584900Y-95861391D01*
X50530153Y-95816188D01*
X50508500Y-95745564D01*
X50508500Y-79500000D01*
X52186502Y-79500000D01*
X52206457Y-79728087D01*
X52207881Y-79733400D01*
X52207881Y-79733402D01*
X52240316Y-79854448D01*
X52265716Y-79949243D01*
X52268039Y-79954224D01*
X52268039Y-79954225D01*
X52360151Y-80151762D01*
X52360154Y-80151767D01*
X52362477Y-80156749D01*
X52421956Y-80241693D01*
X52489793Y-80338574D01*
X52493802Y-80344300D01*
X52655700Y-80506198D01*
X52660208Y-80509355D01*
X52660211Y-80509357D01*
X52738389Y-80564098D01*
X52843251Y-80637523D01*
X52848233Y-80639846D01*
X52848238Y-80639849D01*
X53045775Y-80731961D01*
X53050757Y-80734284D01*
X53056065Y-80735706D01*
X53056067Y-80735707D01*
X53266598Y-80792119D01*
X53266600Y-80792119D01*
X53271913Y-80793543D01*
X53500000Y-80813498D01*
X53728087Y-80793543D01*
X53733400Y-80792119D01*
X53733402Y-80792119D01*
X53943933Y-80735707D01*
X53943935Y-80735706D01*
X53949243Y-80734284D01*
X53954225Y-80731961D01*
X54151762Y-80639849D01*
X54151767Y-80639846D01*
X54156749Y-80637523D01*
X54261611Y-80564098D01*
X54339789Y-80509357D01*
X54339792Y-80509355D01*
X54344300Y-80506198D01*
X54505093Y-80345405D01*
X54567405Y-80311379D01*
X54594188Y-80308500D01*
X56640786Y-80308500D01*
X56642106Y-80308507D01*
X56732221Y-80309451D01*
X56774597Y-80300289D01*
X56787163Y-80298231D01*
X56830255Y-80293397D01*
X56836906Y-80291081D01*
X56836910Y-80291080D01*
X56861930Y-80282367D01*
X56876742Y-80278204D01*
X56902619Y-80272609D01*
X56909510Y-80271119D01*
X56948813Y-80252792D01*
X56960589Y-80248010D01*
X57001552Y-80233745D01*
X57007527Y-80230011D01*
X57007530Y-80230010D01*
X57029995Y-80215973D01*
X57043512Y-80208634D01*
X57067514Y-80197441D01*
X57067515Y-80197440D01*
X57073902Y-80194462D01*
X57108153Y-80167894D01*
X57118612Y-80160598D01*
X57149404Y-80141358D01*
X57149407Y-80141356D01*
X57155376Y-80137626D01*
X57184179Y-80109024D01*
X57184804Y-80108439D01*
X57185470Y-80107922D01*
X57211460Y-80081932D01*
X57284082Y-80009815D01*
X57284740Y-80008778D01*
X57285843Y-80007549D01*
X59251115Y-78042277D01*
X63637009Y-78042277D01*
X63662625Y-78310769D01*
X63663710Y-78315203D01*
X63663711Y-78315209D01*
X63708366Y-78497699D01*
X63726731Y-78572750D01*
X63827985Y-78822733D01*
X63830294Y-78826676D01*
X63953411Y-79036944D01*
X63964265Y-79055482D01*
X64062938Y-79178866D01*
X64120563Y-79250922D01*
X64132716Y-79266119D01*
X64329809Y-79450234D01*
X64551416Y-79603968D01*
X64555499Y-79605999D01*
X64555502Y-79606001D01*
X64671013Y-79663466D01*
X64792894Y-79724101D01*
X64797228Y-79725522D01*
X64797231Y-79725523D01*
X65044853Y-79806698D01*
X65044859Y-79806699D01*
X65049186Y-79808118D01*
X65053677Y-79808898D01*
X65053678Y-79808898D01*
X65311140Y-79853601D01*
X65311148Y-79853602D01*
X65314921Y-79854257D01*
X65318758Y-79854448D01*
X65398578Y-79858422D01*
X65398586Y-79858422D01*
X65400149Y-79858500D01*
X65568512Y-79858500D01*
X65570780Y-79858335D01*
X65570792Y-79858335D01*
X65701884Y-79848823D01*
X65769004Y-79843953D01*
X65773459Y-79842969D01*
X65773462Y-79842969D01*
X66027912Y-79786791D01*
X66027916Y-79786790D01*
X66032372Y-79785806D01*
X66184719Y-79728087D01*
X66280318Y-79691868D01*
X66280321Y-79691867D01*
X66284588Y-79690250D01*
X66520368Y-79559286D01*
X66734773Y-79395657D01*
X66738857Y-79391480D01*
X66871310Y-79255987D01*
X66923312Y-79202792D01*
X67082034Y-78984730D01*
X67153846Y-78848238D01*
X67205490Y-78750079D01*
X67205493Y-78750073D01*
X67207615Y-78746039D01*
X67216155Y-78721858D01*
X67295902Y-78496033D01*
X67295902Y-78496032D01*
X67297425Y-78491720D01*
X67333090Y-78310769D01*
X67348700Y-78231572D01*
X67348701Y-78231566D01*
X67349581Y-78227100D01*
X67350609Y-78206457D01*
X67362764Y-77962292D01*
X67362764Y-77962286D01*
X67362991Y-77957723D01*
X67337375Y-77689231D01*
X67323834Y-77633891D01*
X67274355Y-77431688D01*
X67273269Y-77427250D01*
X67172015Y-77177267D01*
X67035735Y-76944518D01*
X66917928Y-76797208D01*
X66870136Y-76737447D01*
X66870135Y-76737445D01*
X66867284Y-76733881D01*
X66670191Y-76549766D01*
X66448584Y-76396032D01*
X66444501Y-76394001D01*
X66444498Y-76393999D01*
X66277266Y-76310803D01*
X66207106Y-76275899D01*
X66202772Y-76274478D01*
X66202769Y-76274477D01*
X65955147Y-76193302D01*
X65955141Y-76193301D01*
X65950814Y-76191882D01*
X65939560Y-76189928D01*
X65688860Y-76146399D01*
X65688852Y-76146398D01*
X65685079Y-76145743D01*
X65673817Y-76145182D01*
X65601422Y-76141578D01*
X65601414Y-76141578D01*
X65599851Y-76141500D01*
X65431488Y-76141500D01*
X65429220Y-76141665D01*
X65429208Y-76141665D01*
X65298116Y-76151177D01*
X65230996Y-76156047D01*
X65226541Y-76157031D01*
X65226538Y-76157031D01*
X64972088Y-76213209D01*
X64972084Y-76213210D01*
X64967628Y-76214194D01*
X64864718Y-76253183D01*
X64719682Y-76308132D01*
X64719679Y-76308133D01*
X64715412Y-76309750D01*
X64593837Y-76377279D01*
X64502279Y-76428135D01*
X64479632Y-76440714D01*
X64265227Y-76604343D01*
X64262034Y-76607609D01*
X64262032Y-76607611D01*
X64188580Y-76682749D01*
X64076688Y-76797208D01*
X63917966Y-77015270D01*
X63915844Y-77019304D01*
X63794510Y-77249921D01*
X63794507Y-77249927D01*
X63792385Y-77253961D01*
X63790865Y-77258266D01*
X63790863Y-77258270D01*
X63704098Y-77503967D01*
X63702575Y-77508280D01*
X63650419Y-77772900D01*
X63650192Y-77777453D01*
X63650192Y-77777456D01*
X63638690Y-78008515D01*
X63637009Y-78042277D01*
X59251115Y-78042277D01*
X61940158Y-75353234D01*
X61941095Y-75352306D01*
X62000475Y-75294157D01*
X62000476Y-75294156D01*
X62005507Y-75289229D01*
X62028998Y-75252779D01*
X62036417Y-75242454D01*
X62063476Y-75208557D01*
X62078073Y-75178362D01*
X62085602Y-75164945D01*
X62099948Y-75142684D01*
X62103765Y-75136762D01*
X62106173Y-75130145D01*
X62106176Y-75130140D01*
X62118592Y-75096027D01*
X62123553Y-75084284D01*
X62139354Y-75051597D01*
X62139356Y-75051592D01*
X62142421Y-75045251D01*
X62149965Y-75012572D01*
X62154332Y-74997831D01*
X62165803Y-74966315D01*
X62166686Y-74959325D01*
X62166688Y-74959317D01*
X62171238Y-74923299D01*
X62173474Y-74910747D01*
X62181638Y-74875386D01*
X62181638Y-74875383D01*
X62183224Y-74868515D01*
X62183366Y-74827944D01*
X62183395Y-74827062D01*
X62183500Y-74826231D01*
X62183500Y-74789428D01*
X62183617Y-74755838D01*
X62203856Y-74687788D01*
X62257673Y-74641483D01*
X62296009Y-74631015D01*
X62327460Y-74627599D01*
X62327464Y-74627598D01*
X62335316Y-74626745D01*
X62471705Y-74575615D01*
X62588261Y-74488261D01*
X62675615Y-74371705D01*
X62726745Y-74235316D01*
X62731028Y-74195892D01*
X62758270Y-74130330D01*
X62816634Y-74089904D01*
X62856291Y-74083500D01*
X83246781Y-74083500D01*
X83314902Y-74103502D01*
X83340416Y-74125190D01*
X83388747Y-74178866D01*
X83543248Y-74291118D01*
X83549276Y-74293802D01*
X83549278Y-74293803D01*
X83688949Y-74355988D01*
X83717712Y-74368794D01*
X83811113Y-74388647D01*
X83898056Y-74407128D01*
X83898061Y-74407128D01*
X83904513Y-74408500D01*
X84095487Y-74408500D01*
X84101939Y-74407128D01*
X84101944Y-74407128D01*
X84188887Y-74388647D01*
X84282288Y-74368794D01*
X84311051Y-74355988D01*
X84450722Y-74293803D01*
X84450724Y-74293802D01*
X84456752Y-74291118D01*
X84611253Y-74178866D01*
X84739040Y-74036944D01*
X84834527Y-73871556D01*
X84893542Y-73689928D01*
X84913504Y-73500000D01*
X84901689Y-73387584D01*
X84894232Y-73316635D01*
X84894232Y-73316633D01*
X84893542Y-73310072D01*
X84834527Y-73128444D01*
X84739040Y-72963056D01*
X84711220Y-72932158D01*
X84615675Y-72826045D01*
X84615674Y-72826044D01*
X84611253Y-72821134D01*
X84487253Y-72731042D01*
X84462094Y-72712763D01*
X84462093Y-72712762D01*
X84456752Y-72708882D01*
X84450724Y-72706198D01*
X84450722Y-72706197D01*
X84369520Y-72670044D01*
X84282288Y-72631206D01*
X84275827Y-72629833D01*
X84275653Y-72629776D01*
X84235977Y-72608413D01*
X84214064Y-72590920D01*
X84214063Y-72590919D01*
X84208557Y-72586524D01*
X84178362Y-72571927D01*
X84164945Y-72564398D01*
X84136762Y-72546235D01*
X84130145Y-72543827D01*
X84130140Y-72543824D01*
X84096027Y-72531408D01*
X84084284Y-72526447D01*
X84051597Y-72510646D01*
X84051592Y-72510644D01*
X84045251Y-72507579D01*
X84038393Y-72505996D01*
X84038391Y-72505995D01*
X84012574Y-72500035D01*
X83997831Y-72495668D01*
X83966315Y-72484197D01*
X83959325Y-72483314D01*
X83959317Y-72483312D01*
X83923299Y-72478762D01*
X83910747Y-72476526D01*
X83875386Y-72468362D01*
X83875383Y-72468362D01*
X83868515Y-72466776D01*
X83861469Y-72466751D01*
X83861466Y-72466751D01*
X83827944Y-72466634D01*
X83827062Y-72466605D01*
X83826231Y-72466500D01*
X83789581Y-72466500D01*
X83789141Y-72466499D01*
X83690657Y-72466155D01*
X83690652Y-72466155D01*
X83687130Y-72466143D01*
X83685930Y-72466411D01*
X83684293Y-72466500D01*
X62856291Y-72466500D01*
X62788170Y-72446498D01*
X62741677Y-72392842D01*
X62731028Y-72354108D01*
X62727598Y-72322540D01*
X62726745Y-72314684D01*
X62675615Y-72178295D01*
X62588261Y-72061739D01*
X62471705Y-71974385D01*
X62352687Y-71929767D01*
X62295923Y-71887125D01*
X62271223Y-71820564D01*
X62286430Y-71751215D01*
X62307977Y-71722535D01*
X62409052Y-71621812D01*
X62415730Y-71613965D01*
X62540003Y-71441020D01*
X62545313Y-71432183D01*
X62639670Y-71241267D01*
X62643469Y-71231672D01*
X62705377Y-71027910D01*
X62707555Y-71017837D01*
X62708986Y-71006962D01*
X62706775Y-70992778D01*
X62693617Y-70989000D01*
X60058225Y-70989000D01*
X60044694Y-70992973D01*
X60043257Y-71002966D01*
X60073565Y-71137446D01*
X60076645Y-71147275D01*
X60156770Y-71344603D01*
X60161413Y-71353794D01*
X60272694Y-71535388D01*
X60278777Y-71543699D01*
X60418213Y-71704667D01*
X60425577Y-71711879D01*
X60430522Y-71715985D01*
X60470156Y-71774889D01*
X60471653Y-71845870D01*
X60434537Y-71906392D01*
X60394264Y-71930910D01*
X60286705Y-71971232D01*
X60286704Y-71971233D01*
X60278295Y-71974385D01*
X60161739Y-72061739D01*
X60074385Y-72178295D01*
X60023255Y-72314684D01*
X60016500Y-72376866D01*
X60016500Y-74173134D01*
X60023255Y-74235316D01*
X60074385Y-74371705D01*
X60161739Y-74488261D01*
X60249285Y-74553873D01*
X60291799Y-74610733D01*
X60296824Y-74681551D01*
X60262814Y-74743794D01*
X56352013Y-78654595D01*
X56289701Y-78688621D01*
X56262918Y-78691500D01*
X54594188Y-78691500D01*
X54526067Y-78671498D01*
X54505093Y-78654595D01*
X54344300Y-78493802D01*
X54339792Y-78490645D01*
X54339789Y-78490643D01*
X54261611Y-78435902D01*
X54156749Y-78362477D01*
X54151767Y-78360154D01*
X54151762Y-78360151D01*
X53954225Y-78268039D01*
X53954224Y-78268039D01*
X53949243Y-78265716D01*
X53943935Y-78264294D01*
X53943933Y-78264293D01*
X53733402Y-78207881D01*
X53733400Y-78207881D01*
X53728087Y-78206457D01*
X53500000Y-78186502D01*
X53271913Y-78206457D01*
X53266600Y-78207881D01*
X53266598Y-78207881D01*
X53056067Y-78264293D01*
X53056065Y-78264294D01*
X53050757Y-78265716D01*
X53045776Y-78268039D01*
X53045775Y-78268039D01*
X52848238Y-78360151D01*
X52848233Y-78360154D01*
X52843251Y-78362477D01*
X52738389Y-78435902D01*
X52660211Y-78490643D01*
X52660208Y-78490645D01*
X52655700Y-78493802D01*
X52493802Y-78655700D01*
X52490645Y-78660208D01*
X52490643Y-78660211D01*
X52437952Y-78735462D01*
X52362477Y-78843251D01*
X52360154Y-78848233D01*
X52360151Y-78848238D01*
X52294787Y-78988414D01*
X52265716Y-79050757D01*
X52264294Y-79056065D01*
X52264293Y-79056067D01*
X52207881Y-79266598D01*
X52206457Y-79271913D01*
X52186502Y-79500000D01*
X50508500Y-79500000D01*
X50508500Y-70715871D01*
X66823456Y-70715871D01*
X66864107Y-70855790D01*
X66870352Y-70870221D01*
X66946911Y-70999678D01*
X66956551Y-71012104D01*
X67062896Y-71118449D01*
X67075322Y-71128089D01*
X67204779Y-71204648D01*
X67219210Y-71210893D01*
X67365065Y-71253269D01*
X67377667Y-71255570D01*
X67406084Y-71257807D01*
X67411014Y-71258000D01*
X67790385Y-71258000D01*
X67805624Y-71253525D01*
X67806829Y-71252135D01*
X67808500Y-71244452D01*
X67808500Y-71239884D01*
X68316500Y-71239884D01*
X68320975Y-71255123D01*
X68322365Y-71256328D01*
X68330048Y-71257999D01*
X68713984Y-71257999D01*
X68718920Y-71257805D01*
X68747336Y-71255570D01*
X68759931Y-71253270D01*
X68905790Y-71210893D01*
X68920221Y-71204648D01*
X69049678Y-71128089D01*
X69062104Y-71118449D01*
X69168449Y-71012104D01*
X69178089Y-70999678D01*
X69254648Y-70870221D01*
X69260893Y-70855790D01*
X69299939Y-70721395D01*
X69299899Y-70707294D01*
X69292630Y-70704000D01*
X68334615Y-70704000D01*
X68319376Y-70708475D01*
X68318171Y-70709865D01*
X68316500Y-70717548D01*
X68316500Y-71239884D01*
X67808500Y-71239884D01*
X67808500Y-70722115D01*
X67804025Y-70706876D01*
X67802635Y-70705671D01*
X67794952Y-70704000D01*
X66838122Y-70704000D01*
X66824591Y-70707973D01*
X66823456Y-70715871D01*
X50508500Y-70715871D01*
X50508500Y-70469183D01*
X60039389Y-70469183D01*
X60040912Y-70477607D01*
X60053292Y-70481000D01*
X61102885Y-70481000D01*
X61118124Y-70476525D01*
X61119329Y-70475135D01*
X61121000Y-70467452D01*
X61121000Y-70462885D01*
X61629000Y-70462885D01*
X61633475Y-70478124D01*
X61634865Y-70479329D01*
X61642548Y-70481000D01*
X62693344Y-70481000D01*
X62706875Y-70477027D01*
X62708180Y-70467947D01*
X62666214Y-70300875D01*
X62662894Y-70291124D01*
X62613970Y-70178605D01*
X66825061Y-70178605D01*
X66825101Y-70192706D01*
X66832370Y-70196000D01*
X67790385Y-70196000D01*
X67805624Y-70191525D01*
X67806829Y-70190135D01*
X67808500Y-70182452D01*
X67808500Y-69660116D01*
X67804025Y-69644877D01*
X67802635Y-69643672D01*
X67794952Y-69642001D01*
X67411017Y-69642001D01*
X67406080Y-69642195D01*
X67377664Y-69644430D01*
X67365069Y-69646730D01*
X67219210Y-69689107D01*
X67204779Y-69695352D01*
X67075322Y-69771911D01*
X67062896Y-69781551D01*
X66956551Y-69887896D01*
X66946911Y-69900322D01*
X66870352Y-70029779D01*
X66864107Y-70044210D01*
X66825061Y-70178605D01*
X62613970Y-70178605D01*
X62577972Y-70095814D01*
X62573105Y-70086739D01*
X62457426Y-69907926D01*
X62451136Y-69899757D01*
X62307806Y-69742240D01*
X62300273Y-69735215D01*
X62133139Y-69603222D01*
X62124552Y-69597517D01*
X61938117Y-69494599D01*
X61928705Y-69490369D01*
X61727959Y-69419280D01*
X61717988Y-69416646D01*
X61646837Y-69403972D01*
X61633540Y-69405432D01*
X61629000Y-69419989D01*
X61629000Y-70462885D01*
X61121000Y-70462885D01*
X61121000Y-69418102D01*
X61117082Y-69404758D01*
X61102806Y-69402771D01*
X61064324Y-69408660D01*
X61054288Y-69411051D01*
X60851868Y-69477212D01*
X60842359Y-69481209D01*
X60653463Y-69579542D01*
X60644738Y-69585036D01*
X60474433Y-69712905D01*
X60466726Y-69719748D01*
X60319590Y-69873717D01*
X60313104Y-69881727D01*
X60193098Y-70057649D01*
X60188000Y-70066623D01*
X60098338Y-70259783D01*
X60094775Y-70269470D01*
X60039389Y-70469183D01*
X50508500Y-70469183D01*
X50508500Y-63632703D01*
X51390743Y-63632703D01*
X51391302Y-63636947D01*
X51391302Y-63636951D01*
X51394210Y-63659036D01*
X51428268Y-63917734D01*
X51429401Y-63921874D01*
X51429401Y-63921876D01*
X51434197Y-63939406D01*
X51504129Y-64195036D01*
X51505813Y-64198984D01*
X51570527Y-64350702D01*
X51616923Y-64459476D01*
X51764561Y-64706161D01*
X51944313Y-64930528D01*
X52152851Y-65128423D01*
X52175787Y-65144904D01*
X52380229Y-65291811D01*
X52386317Y-65296186D01*
X52390112Y-65298195D01*
X52390113Y-65298196D01*
X52411869Y-65309715D01*
X52640392Y-65430712D01*
X52734482Y-65465144D01*
X52810679Y-65493028D01*
X52910373Y-65529511D01*
X53191264Y-65590755D01*
X53219841Y-65593004D01*
X53414282Y-65608307D01*
X53414291Y-65608307D01*
X53416739Y-65608500D01*
X53572271Y-65608500D01*
X53574407Y-65608354D01*
X53574418Y-65608354D01*
X53782548Y-65594165D01*
X53782554Y-65594164D01*
X53786825Y-65593873D01*
X53791020Y-65593004D01*
X53791022Y-65593004D01*
X53927583Y-65564724D01*
X54068342Y-65535574D01*
X54339343Y-65439607D01*
X54594812Y-65307750D01*
X54598313Y-65305289D01*
X54598317Y-65305287D01*
X54751484Y-65197639D01*
X54830023Y-65142441D01*
X55040622Y-64946740D01*
X55222713Y-64724268D01*
X55372927Y-64479142D01*
X55427106Y-64355720D01*
X55486757Y-64219830D01*
X55488483Y-64215898D01*
X55567244Y-63939406D01*
X55607751Y-63654784D01*
X55607829Y-63640036D01*
X55609235Y-63371583D01*
X55609235Y-63371576D01*
X55609257Y-63367297D01*
X55608438Y-63361071D01*
X55578956Y-63137137D01*
X55571732Y-63082266D01*
X55565365Y-63058990D01*
X55549585Y-63001311D01*
X55495871Y-62804964D01*
X55383077Y-62540524D01*
X55251041Y-62319908D01*
X55237643Y-62297521D01*
X55237640Y-62297517D01*
X55235439Y-62293839D01*
X55055687Y-62069472D01*
X54847149Y-61871577D01*
X54613683Y-61703814D01*
X54591843Y-61692250D01*
X54568654Y-61679972D01*
X54359608Y-61569288D01*
X54089627Y-61470489D01*
X53808736Y-61409245D01*
X53777685Y-61406801D01*
X53585718Y-61391693D01*
X53585709Y-61391693D01*
X53583261Y-61391500D01*
X53427729Y-61391500D01*
X53425593Y-61391646D01*
X53425582Y-61391646D01*
X53217452Y-61405835D01*
X53217446Y-61405836D01*
X53213175Y-61406127D01*
X53208980Y-61406996D01*
X53208978Y-61406996D01*
X53154504Y-61418277D01*
X52931658Y-61464426D01*
X52660657Y-61560393D01*
X52405188Y-61692250D01*
X52401687Y-61694711D01*
X52401683Y-61694713D01*
X52306789Y-61761406D01*
X52169977Y-61857559D01*
X52154892Y-61871577D01*
X51981695Y-62032522D01*
X51959378Y-62053260D01*
X51777287Y-62275732D01*
X51627073Y-62520858D01*
X51511517Y-62784102D01*
X51510342Y-62788229D01*
X51510341Y-62788230D01*
X51488582Y-62864616D01*
X51432756Y-63060594D01*
X51392249Y-63345216D01*
X51392227Y-63349505D01*
X51392226Y-63349512D01*
X51390765Y-63628417D01*
X51390743Y-63632703D01*
X50508500Y-63632703D01*
X50508500Y-63553250D01*
X50510246Y-63532345D01*
X50512770Y-63517344D01*
X50512770Y-63517341D01*
X50513576Y-63512552D01*
X50513729Y-63500000D01*
X50512980Y-63494771D01*
X50511644Y-63485437D01*
X50510545Y-63460983D01*
X50524542Y-63193902D01*
X50525920Y-63180785D01*
X50572838Y-62884555D01*
X50575580Y-62871655D01*
X50632925Y-62657639D01*
X50653207Y-62581948D01*
X50657281Y-62569409D01*
X50669312Y-62538069D01*
X50764763Y-62289412D01*
X50770126Y-62277365D01*
X50906289Y-62010130D01*
X50912883Y-61998709D01*
X50915571Y-61994570D01*
X51076236Y-61747168D01*
X51083984Y-61736505D01*
X51112085Y-61701804D01*
X51272727Y-61503427D01*
X51281552Y-61493626D01*
X51493626Y-61281552D01*
X51503427Y-61272727D01*
X51698700Y-61114598D01*
X51736508Y-61083982D01*
X51747168Y-61076236D01*
X51998714Y-60912880D01*
X52010130Y-60906289D01*
X52277365Y-60770126D01*
X52289413Y-60764762D01*
X52569414Y-60657279D01*
X52581948Y-60653207D01*
X52726804Y-60614392D01*
X52871655Y-60575580D01*
X52884555Y-60572838D01*
X52965866Y-60559960D01*
X53180791Y-60525919D01*
X53193899Y-60524542D01*
X53269063Y-60520603D01*
X53457299Y-60510738D01*
X53483276Y-60512065D01*
X53484846Y-60512309D01*
X53484850Y-60512309D01*
X53493724Y-60513691D01*
X53502626Y-60512527D01*
X53502628Y-60512527D01*
X53517677Y-60510559D01*
X53525286Y-60509564D01*
X53541621Y-60508500D01*
X111450633Y-60508500D01*
X111470018Y-60510000D01*
G37*
G04 #@! TD.AperFunction*
M02*
