G04 #@! TF.GenerationSoftware,KiCad,Pcbnew,(6.0.9-0)*
G04 #@! TF.CreationDate,2024-08-31T06:56:55+09:00*
G04 #@! TF.ProjectId,LEDHat,4c454448-6174-42e6-9b69-6361645f7063,rev?*
G04 #@! TF.SameCoordinates,Original*
G04 #@! TF.FileFunction,Soldermask,Bot*
G04 #@! TF.FilePolarity,Negative*
%FSLAX46Y46*%
G04 Gerber Fmt 4.6, Leading zero omitted, Abs format (unit mm)*
G04 Created by KiCad (PCBNEW (6.0.9-0)) date 2024-08-31 06:56:55*
%MOMM*%
%LPD*%
G01*
G04 APERTURE LIST*
G04 Aperture macros list*
%AMRoundRect*
0 Rectangle with rounded corners*
0 $1 Rounding radius*
0 $2 $3 $4 $5 $6 $7 $8 $9 X,Y pos of 4 corners*
0 Add a 4 corners polygon primitive as box body*
4,1,4,$2,$3,$4,$5,$6,$7,$8,$9,$2,$3,0*
0 Add four circle primitives for the rounded corners*
1,1,$1+$1,$2,$3*
1,1,$1+$1,$4,$5*
1,1,$1+$1,$6,$7*
1,1,$1+$1,$8,$9*
0 Add four rect primitives between the rounded corners*
20,1,$1+$1,$2,$3,$4,$5,0*
20,1,$1+$1,$4,$5,$6,$7,0*
20,1,$1+$1,$6,$7,$8,$9,0*
20,1,$1+$1,$8,$9,$2,$3,0*%
G04 Aperture macros list end*
%ADD10C,2.700000*%
%ADD11C,3.200000*%
%ADD12RoundRect,0.450000X0.450000X-0.450000X0.450000X0.450000X-0.450000X0.450000X-0.450000X-0.450000X0*%
%ADD13C,1.800000*%
%ADD14O,1.700000X1.700000*%
%ADD15R,1.700000X1.700000*%
%ADD16C,1.600000*%
%ADD17O,1.600000X1.600000*%
G04 APERTURE END LIST*
D10*
X97500000Y-78000000D03*
D11*
X111500000Y-112500000D03*
D10*
X97500000Y-110000000D03*
D11*
X111500000Y-63500000D03*
D12*
X109740000Y-103910000D03*
D13*
X111264000Y-102132000D03*
X109740000Y-100608000D03*
X111264000Y-99084000D03*
D10*
X65500000Y-110000000D03*
D14*
X61375000Y-70735000D03*
D15*
X61375000Y-73275000D03*
D16*
X52000000Y-103810000D03*
D17*
X52000000Y-96190000D03*
D10*
X65500000Y-78000000D03*
D16*
X53500000Y-79500000D03*
D17*
X53500000Y-87120000D03*
D11*
X53500000Y-112500000D03*
X53500000Y-63500000D03*
D15*
X58400000Y-64790000D03*
D14*
X58400000Y-62250000D03*
X60940000Y-64790000D03*
X60940000Y-62250000D03*
X63480000Y-64790000D03*
X63480000Y-62250000D03*
X66020000Y-64790000D03*
X66020000Y-62250000D03*
X68560000Y-64790000D03*
X68560000Y-62250000D03*
X71100000Y-64790000D03*
X71100000Y-62250000D03*
X73640000Y-64790000D03*
X73640000Y-62250000D03*
X76180000Y-64790000D03*
X76180000Y-62250000D03*
X78720000Y-64790000D03*
X78720000Y-62250000D03*
X81260000Y-64790000D03*
X81260000Y-62250000D03*
X83800000Y-64790000D03*
X83800000Y-62250000D03*
X86340000Y-64790000D03*
X86340000Y-62250000D03*
X88880000Y-64790000D03*
X88880000Y-62250000D03*
X91420000Y-64790000D03*
X91420000Y-62250000D03*
X93960000Y-64790000D03*
X93960000Y-62250000D03*
X96500000Y-64790000D03*
X96500000Y-62250000D03*
X99040000Y-64790000D03*
X99040000Y-62250000D03*
X101580000Y-64790000D03*
X101580000Y-62250000D03*
X104120000Y-64790000D03*
X104120000Y-62250000D03*
X106660000Y-64790000D03*
X106660000Y-62250000D03*
M02*
