G04 #@! TF.GenerationSoftware,KiCad,Pcbnew,(6.0.9-0)*
G04 #@! TF.CreationDate,2024-08-31T06:56:55+09:00*
G04 #@! TF.ProjectId,LEDHat,4c454448-6174-42e6-9b69-6361645f7063,rev?*
G04 #@! TF.SameCoordinates,Original*
G04 #@! TF.FileFunction,Legend,Bot*
G04 #@! TF.FilePolarity,Positive*
%FSLAX46Y46*%
G04 Gerber Fmt 4.6, Leading zero omitted, Abs format (unit mm)*
G04 Created by KiCad (PCBNEW (6.0.9-0)) date 2024-08-31 06:56:55*
%MOMM*%
%LPD*%
G01*
G04 APERTURE LIST*
G04 Aperture macros list*
%AMRoundRect*
0 Rectangle with rounded corners*
0 $1 Rounding radius*
0 $2 $3 $4 $5 $6 $7 $8 $9 X,Y pos of 4 corners*
0 Add a 4 corners polygon primitive as box body*
4,1,4,$2,$3,$4,$5,$6,$7,$8,$9,$2,$3,0*
0 Add four circle primitives for the rounded corners*
1,1,$1+$1,$2,$3*
1,1,$1+$1,$4,$5*
1,1,$1+$1,$6,$7*
1,1,$1+$1,$8,$9*
0 Add four rect primitives between the rounded corners*
20,1,$1+$1,$2,$3,$4,$5,0*
20,1,$1+$1,$4,$5,$6,$7,0*
20,1,$1+$1,$6,$7,$8,$9,0*
20,1,$1+$1,$8,$9,$2,$3,0*%
G04 Aperture macros list end*
%ADD10C,0.150000*%
%ADD11C,0.120000*%
%ADD12C,2.700000*%
%ADD13C,3.200000*%
%ADD14RoundRect,0.450000X0.450000X-0.450000X0.450000X0.450000X-0.450000X0.450000X-0.450000X-0.450000X0*%
%ADD15C,1.800000*%
%ADD16O,1.700000X1.700000*%
%ADD17R,1.700000X1.700000*%
%ADD18C,1.600000*%
%ADD19O,1.600000X1.600000*%
G04 APERTURE END LIST*
D10*
X53047619Y-74119047D02*
X53047619Y-74690476D01*
X53047619Y-74404761D02*
X54047619Y-74404761D01*
X53904761Y-74500000D01*
X53809523Y-74595238D01*
X53761904Y-74690476D01*
X53952380Y-73738095D02*
X54000000Y-73690476D01*
X54047619Y-73595238D01*
X54047619Y-73357142D01*
X54000000Y-73261904D01*
X53952380Y-73214285D01*
X53857142Y-73166666D01*
X53761904Y-73166666D01*
X53619047Y-73214285D01*
X53047619Y-73785714D01*
X53047619Y-73166666D01*
X54047619Y-72880952D02*
X53047619Y-72547619D01*
X54047619Y-72214285D01*
X54000000Y-71261904D02*
X54047619Y-71357142D01*
X54047619Y-71500000D01*
X54000000Y-71642857D01*
X53904761Y-71738095D01*
X53809523Y-71785714D01*
X53619047Y-71833333D01*
X53476190Y-71833333D01*
X53285714Y-71785714D01*
X53190476Y-71738095D01*
X53095238Y-71642857D01*
X53047619Y-71500000D01*
X53047619Y-71404761D01*
X53095238Y-71261904D01*
X53142857Y-71214285D01*
X53476190Y-71214285D01*
X53476190Y-71404761D01*
X53047619Y-70785714D02*
X54047619Y-70785714D01*
X53047619Y-70214285D01*
X54047619Y-70214285D01*
X53047619Y-69738095D02*
X54047619Y-69738095D01*
X54047619Y-69500000D01*
X54000000Y-69357142D01*
X53904761Y-69261904D01*
X53809523Y-69214285D01*
X53619047Y-69166666D01*
X53476190Y-69166666D01*
X53285714Y-69214285D01*
X53190476Y-69261904D01*
X53095238Y-69357142D01*
X53047619Y-69500000D01*
X53047619Y-69738095D01*
X55082380Y-63186666D02*
X55796666Y-63186666D01*
X55939523Y-63139047D01*
X56034761Y-63043809D01*
X56082380Y-62900952D01*
X56082380Y-62805714D01*
X56082380Y-64186666D02*
X56082380Y-63615238D01*
X56082380Y-63900952D02*
X55082380Y-63900952D01*
X55225238Y-63805714D01*
X55320476Y-63710476D01*
X55368095Y-63615238D01*
D11*
X107990000Y-60920000D02*
X107990000Y-66120000D01*
X57070000Y-60920000D02*
X107990000Y-60920000D01*
X57070000Y-60920000D02*
X57070000Y-63520000D01*
X59670000Y-63520000D02*
X59670000Y-66120000D01*
X57070000Y-64790000D02*
X57070000Y-66120000D01*
X57070000Y-63520000D02*
X59670000Y-63520000D01*
X59670000Y-66120000D02*
X107990000Y-66120000D01*
X57070000Y-66120000D02*
X58400000Y-66120000D01*
%LPC*%
D12*
X97500000Y-78000000D03*
D13*
X111500000Y-112500000D03*
D12*
X97500000Y-110000000D03*
D13*
X111500000Y-63500000D03*
D14*
X109740000Y-103910000D03*
D15*
X111264000Y-102132000D03*
X109740000Y-100608000D03*
X111264000Y-99084000D03*
D12*
X65500000Y-110000000D03*
D16*
X61375000Y-70735000D03*
D17*
X61375000Y-73275000D03*
D18*
X52000000Y-103810000D03*
D19*
X52000000Y-96190000D03*
D12*
X65500000Y-78000000D03*
D18*
X53500000Y-79500000D03*
D19*
X53500000Y-87120000D03*
D13*
X53500000Y-112500000D03*
X53500000Y-63500000D03*
D17*
X58400000Y-64790000D03*
D16*
X58400000Y-62250000D03*
X60940000Y-64790000D03*
X60940000Y-62250000D03*
X63480000Y-64790000D03*
X63480000Y-62250000D03*
X66020000Y-64790000D03*
X66020000Y-62250000D03*
X68560000Y-64790000D03*
X68560000Y-62250000D03*
X71100000Y-64790000D03*
X71100000Y-62250000D03*
X73640000Y-64790000D03*
X73640000Y-62250000D03*
X76180000Y-64790000D03*
X76180000Y-62250000D03*
X78720000Y-64790000D03*
X78720000Y-62250000D03*
X81260000Y-64790000D03*
X81260000Y-62250000D03*
X83800000Y-64790000D03*
X83800000Y-62250000D03*
X86340000Y-64790000D03*
X86340000Y-62250000D03*
X88880000Y-64790000D03*
X88880000Y-62250000D03*
X91420000Y-64790000D03*
X91420000Y-62250000D03*
X93960000Y-64790000D03*
X93960000Y-62250000D03*
X96500000Y-64790000D03*
X96500000Y-62250000D03*
X99040000Y-64790000D03*
X99040000Y-62250000D03*
X101580000Y-64790000D03*
X101580000Y-62250000D03*
X104120000Y-64790000D03*
X104120000Y-62250000D03*
X106660000Y-64790000D03*
X106660000Y-62250000D03*
M02*
