G04 #@! TF.GenerationSoftware,KiCad,Pcbnew,(6.0.9-0)*
G04 #@! TF.CreationDate,2024-08-31T06:56:55+09:00*
G04 #@! TF.ProjectId,LEDHat,4c454448-6174-42e6-9b69-6361645f7063,rev?*
G04 #@! TF.SameCoordinates,Original*
G04 #@! TF.FileFunction,Soldermask,Top*
G04 #@! TF.FilePolarity,Negative*
%FSLAX46Y46*%
G04 Gerber Fmt 4.6, Leading zero omitted, Abs format (unit mm)*
G04 Created by KiCad (PCBNEW (6.0.9-0)) date 2024-08-31 06:56:55*
%MOMM*%
%LPD*%
G01*
G04 APERTURE LIST*
G04 Aperture macros list*
%AMRoundRect*
0 Rectangle with rounded corners*
0 $1 Rounding radius*
0 $2 $3 $4 $5 $6 $7 $8 $9 X,Y pos of 4 corners*
0 Add a 4 corners polygon primitive as box body*
4,1,4,$2,$3,$4,$5,$6,$7,$8,$9,$2,$3,0*
0 Add four circle primitives for the rounded corners*
1,1,$1+$1,$2,$3*
1,1,$1+$1,$4,$5*
1,1,$1+$1,$6,$7*
1,1,$1+$1,$8,$9*
0 Add four rect primitives between the rounded corners*
20,1,$1+$1,$2,$3,$4,$5,0*
20,1,$1+$1,$4,$5,$6,$7,0*
20,1,$1+$1,$6,$7,$8,$9,0*
20,1,$1+$1,$8,$9,$2,$3,0*%
%AMRotRect*
0 Rectangle, with rotation*
0 The origin of the aperture is its center*
0 $1 length*
0 $2 width*
0 $3 Rotation angle, in degrees counterclockwise*
0 Add horizontal line*
21,1,$1,$2,0,0,$3*%
G04 Aperture macros list end*
%ADD10RotRect,2.500000X2.200000X144.000000*%
%ADD11RotRect,1.550000X2.200000X144.000000*%
%ADD12C,2.700000*%
%ADD13RotRect,2.500000X2.200000X108.000000*%
%ADD14RotRect,1.550000X2.200000X108.000000*%
%ADD15C,3.200000*%
%ADD16RoundRect,0.150000X-0.587500X-0.150000X0.587500X-0.150000X0.587500X0.150000X-0.587500X0.150000X0*%
%ADD17RoundRect,0.450000X0.450000X-0.450000X0.450000X0.450000X-0.450000X0.450000X-0.450000X-0.450000X0*%
%ADD18C,1.800000*%
%ADD19O,1.700000X1.700000*%
%ADD20R,1.700000X1.700000*%
%ADD21RotRect,2.500000X2.200000X216.000000*%
%ADD22RotRect,1.550000X2.200000X216.000000*%
%ADD23RotRect,2.500000X2.200000X252.000000*%
%ADD24RotRect,1.550000X2.200000X252.000000*%
%ADD25C,1.600000*%
%ADD26O,1.600000X1.600000*%
%ADD27R,2.500000X2.200000*%
%ADD28R,1.550000X2.200000*%
%ADD29RotRect,2.500000X2.200000X72.000000*%
%ADD30RotRect,1.550000X2.200000X72.000000*%
%ADD31RotRect,2.500000X2.200000X288.000000*%
%ADD32RotRect,1.550000X2.200000X288.000000*%
%ADD33RotRect,2.500000X2.200000X36.000000*%
%ADD34RotRect,1.550000X2.200000X36.000000*%
%ADD35RotRect,2.500000X2.200000X324.000000*%
%ADD36RotRect,1.550000X2.200000X324.000000*%
G04 APERTURE END LIST*
D10*
X69405196Y-85000000D03*
D11*
X67321977Y-83486452D03*
D12*
X97500000Y-78000000D03*
D13*
X76880196Y-79569094D03*
D14*
X76084477Y-77120124D03*
D15*
X111500000Y-112500000D03*
D16*
X110562500Y-71050000D03*
X110562500Y-72950000D03*
X112437500Y-72000000D03*
X107562500Y-81050000D03*
X107562500Y-82950000D03*
X109437500Y-82000000D03*
D12*
X97500000Y-110000000D03*
D15*
X111500000Y-63500000D03*
D16*
X68062500Y-68550000D03*
X68062500Y-70450000D03*
X69937500Y-69500000D03*
D17*
X109740000Y-103910000D03*
D18*
X111264000Y-102132000D03*
X109740000Y-100608000D03*
X111264000Y-99084000D03*
D12*
X65500000Y-110000000D03*
D19*
X61375000Y-70735000D03*
D20*
X61375000Y-73275000D03*
D21*
X69380196Y-102574778D03*
D22*
X67296977Y-104088326D03*
D23*
X76880196Y-108005684D03*
D24*
X76084477Y-110454654D03*
D25*
X52000000Y-103810000D03*
D26*
X52000000Y-96190000D03*
D27*
X96500000Y-93787389D03*
D28*
X99075000Y-93787389D03*
D29*
X86119804Y-79569094D03*
D30*
X86915523Y-77120124D03*
D31*
X86119804Y-108005684D03*
D32*
X86915523Y-110454654D03*
D33*
X93594804Y-85000000D03*
D34*
X95678023Y-83486452D03*
D27*
X66550000Y-93787389D03*
D28*
X63975000Y-93787389D03*
D12*
X65500000Y-78000000D03*
D16*
X102562500Y-72050000D03*
X102562500Y-73950000D03*
X104437500Y-73000000D03*
D35*
X93594804Y-102574778D03*
D36*
X95678023Y-104088326D03*
D25*
X53500000Y-79500000D03*
D26*
X53500000Y-87120000D03*
D15*
X53500000Y-112500000D03*
X53500000Y-63500000D03*
D20*
X58400000Y-64790000D03*
D19*
X58400000Y-62250000D03*
X60940000Y-64790000D03*
X60940000Y-62250000D03*
X63480000Y-64790000D03*
X63480000Y-62250000D03*
X66020000Y-64790000D03*
X66020000Y-62250000D03*
X68560000Y-64790000D03*
X68560000Y-62250000D03*
X71100000Y-64790000D03*
X71100000Y-62250000D03*
X73640000Y-64790000D03*
X73640000Y-62250000D03*
X76180000Y-64790000D03*
X76180000Y-62250000D03*
X78720000Y-64790000D03*
X78720000Y-62250000D03*
X81260000Y-64790000D03*
X81260000Y-62250000D03*
X83800000Y-64790000D03*
X83800000Y-62250000D03*
X86340000Y-64790000D03*
X86340000Y-62250000D03*
X88880000Y-64790000D03*
X88880000Y-62250000D03*
X91420000Y-64790000D03*
X91420000Y-62250000D03*
X93960000Y-64790000D03*
X93960000Y-62250000D03*
X96500000Y-64790000D03*
X96500000Y-62250000D03*
X99040000Y-64790000D03*
X99040000Y-62250000D03*
X101580000Y-64790000D03*
X101580000Y-62250000D03*
X104120000Y-64790000D03*
X104120000Y-62250000D03*
X106660000Y-64790000D03*
X106660000Y-62250000D03*
M02*
